<svg width="750" height="583" viewBox="0 0 750 583" fill="none" xmlns="http://www.w3.org/2000/svg">
<path d="M740.796 128.895L13.7959 135.895L29.7959 491.895C28.4626 507.895 32.1959 543.095 57.7959 555.895C83.3959 568.695 92.4626 569.895 93.7959 568.895C267.463 575.228 623.996 585.495 660.796 575.895C697.596 566.295 717.463 533.895 722.796 518.895L740.796 128.895Z" fill="#E9E8E4" stroke="#EAE9E4" stroke-width="5"/>
<rect x="47.7959" y="202.895" width="655" height="3" fill="black"/>
<rect x="53.7959" y="345.895" width="643" height="3" fill="black"/>
<rect x="59.7959" y="476.895" width="632" height="3" fill="black"/>
<rect x="212.796" y="205.895" width="4" height="140" fill="black"/>
<rect x="520.796" y="205.895" width="4" height="140" fill="black"/>
<path d="M92.0843 415.895C98.732 415.895 103.228 411.9 104.336 405.178C105.486 398.285 102.141 394.077 95.6425 394.077H88.2064L84.5843 415.895H92.0843ZM89.1013 412.475L91.5942 397.497H95.0566C99.4884 397.497 101.321 399.851 100.49 404.741C99.6482 409.865 96.825 412.475 92.2867 412.475H89.1013ZM113.897 394.077H109.945L106.323 415.895H110.275L113.897 394.077ZM114.555 415.895H118.507L119.839 407.905H123.855L126.817 415.895H131.228L127.936 407.245C130.684 406.211 132.399 404.006 132.889 401.055C133.582 396.868 131.377 394.077 126.359 394.077H118.177L114.555 415.895ZM120.382 404.624L121.586 397.379H125.208C128.149 397.379 129.235 398.722 128.862 401.055C128.49 403.367 126.966 404.624 124.036 404.624H120.382ZM134.184 415.895H148.459L149.013 412.582H138.69L139.67 406.627H149.173L149.727 403.313H140.224L141.204 397.39H151.442L151.996 394.077H137.806L134.184 415.895ZM173.458 401.438C173.575 396.591 170.24 393.779 165.308 393.779C159.715 393.779 154.878 397.795 153.717 404.752C152.545 411.911 156.178 416.193 162.037 416.193C167.119 416.193 170.986 412.816 172.296 408.651H168.323C167.385 411.197 164.956 412.646 162.218 412.646C158.82 412.646 156.806 410.11 157.605 405.22C158.436 400.192 161.536 397.326 165.212 397.326C167.769 397.326 169.516 398.828 169.537 401.438H173.458ZM176.811 397.39H183.554L180.486 415.895H184.407L187.475 397.39H194.218L194.772 394.077H177.365L176.811 397.39ZM214.833 405.242C216.026 398.061 212.319 393.779 206.513 393.779C200.866 393.779 196.019 397.827 194.868 404.762C193.686 411.921 197.383 416.193 203.242 416.193C208.835 416.193 213.672 412.177 214.833 405.242ZM210.944 404.762C210.103 409.833 207.045 412.646 203.37 412.646C199.961 412.646 197.926 410.11 198.767 405.242C199.577 400.171 202.656 397.326 206.353 397.326C209.783 397.326 211.743 399.915 210.944 404.762ZM216.801 415.895H220.753L222.085 407.905H226.101L229.063 415.895H233.474L230.182 407.245C232.93 406.211 234.646 404.006 235.136 401.055C235.828 396.868 233.623 394.077 228.605 394.077H220.423L216.801 415.895ZM222.628 404.624L223.832 397.379H227.454C230.395 397.379 231.481 398.722 231.109 401.055C230.736 403.367 229.212 404.624 226.283 404.624H222.628ZM241.171 402.461C242.417 402.461 243.557 401.428 243.642 400.117C243.717 398.86 242.684 397.816 241.426 397.816C240.137 397.816 239.008 398.839 238.955 400.117C238.891 401.428 239.86 402.461 241.171 402.461ZM239.338 413.274C240.585 413.274 241.725 412.241 241.81 410.931C241.884 409.673 240.851 408.629 239.594 408.629C238.305 408.629 237.176 409.652 237.122 410.931C237.059 412.241 238.028 413.274 239.338 413.274Z" fill="black"/>
<path d="M92.0843 415.895C98.732 415.895 103.228 411.9 104.336 405.178C105.486 398.285 102.141 394.077 95.6425 394.077H88.2064L84.5843 415.895H92.0843ZM89.1013 412.475L91.5942 397.497H95.0566C99.4884 397.497 101.321 399.851 100.49 404.741C99.6482 409.865 96.825 412.475 92.2867 412.475H89.1013ZM113.897 394.077H109.945L106.323 415.895H110.275L113.897 394.077ZM114.555 415.895H118.507L119.839 407.905H123.855L126.817 415.895H131.228L127.936 407.245C130.684 406.211 132.399 404.006 132.889 401.055C133.582 396.868 131.377 394.077 126.359 394.077H118.177L114.555 415.895ZM120.382 404.624L121.586 397.379H125.208C128.149 397.379 129.235 398.722 128.862 401.055C128.49 403.367 126.966 404.624 124.036 404.624H120.382ZM134.184 415.895H148.459L149.013 412.582H138.69L139.67 406.627H149.173L149.727 403.313H140.224L141.204 397.39H151.442L151.996 394.077H137.806L134.184 415.895ZM173.458 401.438C173.575 396.591 170.24 393.779 165.308 393.779C159.715 393.779 154.878 397.795 153.717 404.752C152.545 411.911 156.178 416.193 162.037 416.193C167.119 416.193 170.986 412.816 172.296 408.651H168.323C167.385 411.197 164.956 412.646 162.218 412.646C158.82 412.646 156.806 410.11 157.605 405.22C158.436 400.192 161.536 397.326 165.212 397.326C167.769 397.326 169.516 398.828 169.537 401.438H173.458ZM176.811 397.39H183.554L180.486 415.895H184.407L187.475 397.39H194.218L194.772 394.077H177.365L176.811 397.39ZM214.833 405.242C216.026 398.061 212.319 393.779 206.513 393.779C200.866 393.779 196.019 397.827 194.868 404.762C193.686 411.921 197.383 416.193 203.242 416.193C208.835 416.193 213.672 412.177 214.833 405.242ZM210.944 404.762C210.103 409.833 207.045 412.646 203.37 412.646C199.961 412.646 197.926 410.11 198.767 405.242C199.577 400.171 202.656 397.326 206.353 397.326C209.783 397.326 211.743 399.915 210.944 404.762ZM216.801 415.895H220.753L222.085 407.905H226.101L229.063 415.895H233.474L230.182 407.245C232.93 406.211 234.646 404.006 235.136 401.055C235.828 396.868 233.623 394.077 228.605 394.077H220.423L216.801 415.895ZM222.628 404.624L223.832 397.379H227.454C230.395 397.379 231.481 398.722 231.109 401.055C230.736 403.367 229.212 404.624 226.283 404.624H222.628ZM241.171 402.461C242.417 402.461 243.557 401.428 243.642 400.117C243.717 398.86 242.684 397.816 241.426 397.816C240.137 397.816 239.008 398.839 238.955 400.117C238.891 401.428 239.86 402.461 241.171 402.461ZM239.338 413.274C240.585 413.274 241.725 412.241 241.81 410.931C241.884 409.673 240.851 408.629 239.594 408.629C238.305 408.629 237.176 409.652 237.122 410.931C237.059 412.241 238.028 413.274 239.338 413.274Z" fill="black"/>
<path d="M102.635 447.438C102.753 442.591 99.4181 439.779 94.4855 439.779C88.8925 439.779 84.0558 443.795 82.8946 450.752C81.7227 457.911 85.3556 462.193 91.2149 462.193C96.2966 462.193 100.164 458.816 101.474 454.651H97.5004C96.5629 457.197 94.134 458.646 91.396 458.646C87.9976 458.646 85.9841 456.11 86.7831 451.22C87.6141 446.192 90.7142 443.326 94.3896 443.326C96.9465 443.326 98.6936 444.828 98.7149 447.438H102.635ZM106.417 461.895L109.123 456.515H117.326L118.232 461.895H122.451L118.381 440.077H113.502L102.199 461.895H106.417ZM110.711 453.34L115.132 444.551H115.302L116.783 453.34H110.711ZM128.947 440.077L125.324 461.895H129.117L131.631 446.874H131.834L135.371 461.831H138.194L146.717 446.906H146.908L144.415 461.895H148.208L151.83 440.077H146.994L137.906 455.887H137.65L133.783 440.077H128.947ZM152.512 461.895H166.788L167.342 458.582H157.018L157.998 452.627H167.501L168.055 449.313H158.552L159.533 443.39H169.771L170.324 440.077H156.134L152.512 461.895ZM170.735 461.895H174.687L176.019 453.905H180.035L182.997 461.895H187.407L184.115 453.245C186.864 452.211 188.579 450.006 189.069 447.055C189.762 442.868 187.556 440.077 182.539 440.077H174.357L170.735 461.895ZM176.562 450.624L177.766 443.379H181.388C184.328 443.379 185.415 444.722 185.042 447.055C184.669 449.367 183.146 450.624 180.216 450.624H176.562ZM193.165 461.895L195.871 456.515H204.074L204.98 461.895H209.199L205.129 440.077H200.25L188.947 461.895H193.165ZM197.459 453.34L201.88 444.551H202.05L203.531 453.34H197.459ZM216.813 448.461C218.06 448.461 219.2 447.428 219.285 446.117C219.359 444.86 218.326 443.816 217.069 443.816C215.78 443.816 214.651 444.839 214.597 446.117C214.533 447.428 215.503 448.461 216.813 448.461ZM214.981 459.274C216.227 459.274 217.367 458.241 217.453 456.931C217.527 455.673 216.494 454.629 215.237 454.629C213.948 454.629 212.818 455.652 212.765 456.931C212.701 458.241 213.671 459.274 214.981 459.274Z" fill="black"/>
<path d="M88.0843 515.895C94.732 515.895 99.2277 511.9 100.336 505.178C101.486 498.285 98.1411 494.077 91.6425 494.077H84.2064L80.5843 515.895H88.0843ZM85.1013 512.475L87.5942 497.497H91.0566C95.4884 497.497 97.3208 499.851 96.4898 504.741C95.6482 509.865 92.825 512.475 88.2867 512.475H85.1013ZM103.953 515.895L106.658 510.515H114.862L115.767 515.895H119.986L115.916 494.077H111.037L99.7338 515.895H103.953ZM108.246 507.34L112.667 498.551H112.837L114.318 507.34H108.246ZM122.332 497.39H129.076L126.008 515.895H129.928L132.996 497.39H139.74L140.294 494.077H122.886L122.332 497.39ZM140.028 515.895H154.303L154.857 512.582H144.534L145.514 506.627H155.017L155.571 503.313H146.068L147.048 497.39H157.286L157.84 494.077H143.65L140.028 515.895ZM162.991 502.461C164.237 502.461 165.377 501.428 165.463 500.117C165.537 498.86 164.504 497.816 163.247 497.816C161.958 497.816 160.828 498.839 160.775 500.117C160.711 501.428 161.681 502.461 162.991 502.461ZM161.159 513.274C162.405 513.274 163.545 512.241 163.63 510.931C163.705 509.673 162.671 508.629 161.414 508.629C160.125 508.629 158.996 509.652 158.943 510.931C158.879 512.241 159.848 513.274 161.159 513.274Z" fill="black"/>
<path d="M351.084 516.895C357.732 516.895 362.228 512.9 363.336 506.178C364.486 499.285 361.141 495.077 354.642 495.077H347.206L343.584 516.895H351.084ZM348.101 513.475L350.594 498.497H354.057C358.488 498.497 360.321 500.851 359.49 505.741C358.648 510.865 355.825 513.475 351.287 513.475H348.101ZM369.818 517.225C372.386 517.225 374.133 516.022 375.049 514.647H375.177L374.793 516.895H378.501L380.323 505.943C381.047 501.618 377.734 500.318 374.623 500.318C371.182 500.318 368.252 501.852 366.931 504.835L370.426 505.347C371.001 504.218 372.311 503.269 374.186 503.269C375.976 503.269 376.743 504.196 376.487 505.794V505.858C376.296 506.945 375.113 507.019 372.183 507.328C368.955 507.669 365.77 508.617 365.152 512.303C364.619 515.51 366.707 517.225 369.818 517.225ZM371.278 514.392C369.669 514.392 368.657 513.646 368.891 512.24C369.115 510.748 370.532 510.141 372.301 509.896C373.313 509.757 375.39 509.502 375.955 509.097L375.635 511.025C375.337 512.847 373.59 514.392 371.278 514.392ZM383.188 523.031C386.161 523.031 388.163 521.519 389.559 518.855L399.136 500.531H394.886L389.037 512.911H388.867L387.162 500.531H383.22L386.352 517.183L385.862 518.067C384.808 519.921 383.732 520.112 382.144 519.622L380.738 522.627C381.228 522.84 382.134 523.031 383.188 523.031ZM400.681 517.129C401.928 517.129 403.068 516.096 403.153 514.786C403.227 513.529 402.194 512.485 400.937 512.485C399.648 512.485 398.519 513.507 398.465 514.786C398.401 516.096 399.371 517.129 400.681 517.129ZM428.505 495.077H424.574L422.113 509.949H421.911L414.112 495.077H410.576L406.953 516.895H410.906L413.388 502.034H413.559L421.367 516.895H424.883L428.505 495.077ZM429.019 516.895H432.876L435.603 500.531H431.747L429.019 516.895ZM434.239 498.188C435.465 498.188 436.551 497.25 436.636 496.1C436.732 494.938 435.816 494.001 434.591 494.001C433.355 494.001 432.279 494.938 432.173 496.1C432.077 497.25 433.014 498.188 434.239 498.188ZM442.935 523.372C447.335 523.372 450.936 521.359 451.618 517.161L454.366 500.531H450.563L450.116 503.237H449.913C449.519 502.055 448.582 500.318 445.695 500.318C441.913 500.318 438.45 503.28 437.566 508.66C436.671 513.997 439.196 516.661 442.978 516.661C445.78 516.661 447.346 515.159 448.113 513.955H448.305L447.815 517.055C447.431 519.463 445.62 520.453 443.436 520.453C441.082 520.453 440.304 519.367 439.984 518.397L436.362 519.239C436.714 521.529 438.748 523.372 442.935 523.372ZM444.512 513.635C441.955 513.635 440.996 511.654 441.486 508.639C441.976 505.666 443.596 503.482 446.174 503.482C448.646 503.482 449.732 505.539 449.231 508.639C448.72 511.76 446.962 513.635 444.512 513.635ZM461.046 507.307C461.462 504.942 463.155 503.578 465.222 503.578C467.225 503.578 468.205 504.867 467.854 507.073L466.213 516.895H470.08L471.827 506.476C472.467 502.513 470.592 500.318 467.214 500.318C464.679 500.318 462.878 501.448 461.845 503.312H461.643L463.006 495.077H459.224L455.602 516.895H459.469L461.046 507.307ZM484.888 500.531H481.65L482.3 496.611H478.443L477.793 500.531H475.481L474.991 503.514H477.303L475.801 512.612C475.268 515.681 477.229 517.193 480.158 517.119C481.245 517.087 482.044 516.874 482.513 516.735L482.342 513.72C482.108 513.763 481.66 513.87 481.192 513.87C480.222 513.87 479.498 513.529 479.743 511.973L481.149 503.514H484.388L484.888 500.531Z" fill="black"/>
<path d="M345.584 549.895H349.537L351.071 540.627H360.137L360.691 537.313H351.625L352.605 531.39H362.63L363.184 528.077H349.206L345.584 549.895ZM362.992 549.895H366.848L369.576 533.531H365.719L362.992 549.895ZM368.212 531.188C369.437 531.188 370.524 530.25 370.609 529.1C370.705 527.938 369.789 527.001 368.564 527.001C367.328 527.001 366.252 527.938 366.145 529.1C366.049 530.25 366.987 531.188 368.212 531.188ZM378.293 528.077H374.436L370.814 549.895H374.671L378.293 528.077ZM389.535 533.531H386.296L386.946 529.611H383.09L382.44 533.531H380.128L379.638 536.514H381.95L380.448 545.612C379.915 548.681 381.875 550.193 384.805 550.119C385.891 550.087 386.69 549.874 387.159 549.735L386.989 546.72C386.754 546.763 386.307 546.87 385.838 546.87C384.869 546.87 384.144 546.529 384.389 544.973L385.796 536.514H389.034L389.535 533.531ZM397.059 550.215C400.883 550.215 403.792 548.35 404.964 545.506L401.437 545.101C400.67 546.497 399.307 547.21 397.613 547.21C395.013 547.21 393.682 545.889 394.161 542.821L394.172 542.768H405.582L405.763 541.585C406.722 535.854 403.696 533.318 399.669 533.318C394.992 533.318 391.349 536.759 390.518 541.809C389.655 546.933 392.137 550.215 397.059 550.215ZM394.63 540.169C395.067 538.208 397.016 536.323 399.232 536.323C401.459 536.323 402.663 537.942 402.29 540.169H394.63ZM407.67 549.895H411.526L413.114 540.275C413.476 538.198 415.276 536.727 417.386 536.727C418.057 536.727 418.834 536.834 419.165 536.951L419.761 533.404C419.388 533.329 418.824 533.297 418.387 533.297C416.512 533.297 414.744 534.362 413.849 536.259H413.678L414.136 533.531H410.397L407.67 549.895Z" fill="black"/>
<path d="M95.5843 239.895H99.5367L100.868 231.905H104.885L107.846 239.895H112.257L108.965 231.245C111.714 230.211 113.429 228.006 113.919 225.055C114.611 220.868 112.406 218.077 107.388 218.077H99.2064L95.5843 239.895ZM101.412 228.624L102.616 221.379H106.238C109.178 221.379 110.265 222.722 109.892 225.055C109.519 227.367 107.995 228.624 105.066 228.624H101.412ZM136.477 229.242C137.671 222.061 133.963 217.779 128.157 217.779C122.511 217.779 117.663 221.827 116.513 228.762C115.33 235.921 119.027 240.193 124.886 240.193C130.479 240.193 135.316 236.177 136.477 229.242ZM132.589 228.762C131.747 233.833 128.69 236.646 125.014 236.646C121.605 236.646 119.57 234.11 120.412 229.242C121.222 224.171 124.301 221.326 127.997 221.326C131.428 221.326 133.388 223.915 132.589 228.762ZM138.446 239.895H152.007L152.561 236.582H142.952L146.02 218.077H142.068L138.446 239.895ZM155.438 239.895H169L169.554 236.582H159.944L163.012 218.077H159.06L155.438 239.895Z" fill="black"/>
<path d="M58.5843 191.895H62.5367L63.7618 184.523H67.9273C72.9877 184.523 76.1837 181.497 76.8762 177.3C77.5686 173.124 75.406 170.077 70.3882 170.077H62.2064L58.5843 191.895ZM64.3051 181.274L65.6155 173.379H69.2377C72.1993 173.379 73.222 174.967 72.8492 177.3C72.4763 179.612 70.8889 181.274 67.9379 181.274H64.3051ZM77.8616 191.895H81.814L83.1457 183.905H87.162L90.1237 191.895H94.5342L91.2423 183.245C93.9909 182.211 95.7061 180.006 96.1961 177.055C96.8886 172.868 94.6833 170.077 89.6656 170.077H81.4838L77.8616 191.895ZM83.689 180.624L84.8928 173.379H88.515C91.4553 173.379 92.542 174.722 92.1691 177.055C91.7963 179.367 90.2728 180.624 87.3431 180.624H83.689ZM118.755 181.242C119.948 174.061 116.241 169.779 110.434 169.779C104.788 169.779 99.9408 173.827 98.7902 180.762C97.6077 187.921 101.304 192.193 107.164 192.193C112.757 192.193 117.593 188.177 118.755 181.242ZM114.866 180.762C114.025 185.833 110.967 188.646 107.292 188.646C103.883 188.646 101.848 186.11 102.689 181.242C103.499 176.171 106.578 173.326 110.275 173.326C113.705 173.326 115.665 175.915 114.866 180.762ZM128.223 191.895C134.871 191.895 139.366 187.9 140.474 181.178C141.625 174.285 138.28 170.077 131.781 170.077H124.345L120.723 191.895H128.223ZM125.24 188.475L127.733 173.497H131.195C135.627 173.497 137.459 175.851 136.628 180.741C135.787 185.865 132.964 188.475 128.425 188.475H125.24ZM143.513 192.129C144.76 192.129 145.9 191.096 145.985 189.786C146.059 188.529 145.026 187.485 143.769 187.485C142.48 187.485 141.351 188.507 141.297 189.786C141.233 191.096 142.203 192.129 143.513 192.129Z" fill="black"/>
<path d="M321.041 224.181H324.844C325.366 220.389 322.692 217.779 318.047 217.779C313.456 217.779 309.62 220.346 308.971 224.213C308.459 227.345 310.377 229.135 313.807 230.073L316.172 230.712C318.441 231.308 319.901 232.044 319.603 233.737C319.304 235.602 317.323 236.848 314.745 236.848C312.284 236.848 310.526 235.74 310.76 233.45H306.872C306.307 237.786 309.141 240.225 314.223 240.225C319.454 240.225 322.905 237.615 323.555 233.769C324.184 229.987 321.339 228.251 318.207 227.484L316.247 226.972C314.521 226.546 312.699 225.779 313.03 223.968C313.307 222.317 314.968 221.124 317.44 221.124C319.794 221.124 321.094 222.21 321.041 224.181ZM347.118 225.438C347.235 220.591 343.9 217.779 338.968 217.779C333.375 217.779 328.538 221.795 327.377 228.752C326.205 235.911 329.838 240.193 335.697 240.193C340.779 240.193 344.646 236.816 345.957 232.651H341.983C341.045 235.197 338.616 236.646 335.878 236.646C332.48 236.646 330.467 234.11 331.266 229.22C332.097 224.192 335.197 221.326 338.872 221.326C341.429 221.326 343.176 222.828 343.197 225.438H347.118ZM348.362 239.895H362.637L363.191 236.582H352.868L353.848 230.627H363.351L363.905 227.313H354.402L355.382 221.39H365.62L366.174 218.077H351.984L348.362 239.895ZM388.136 218.077H384.205L381.744 232.949H381.542L373.743 218.077H370.206L366.584 239.895H370.537L373.019 225.034H373.189L380.998 239.895H384.514L388.136 218.077ZM388.821 239.895H403.096L403.65 236.582H393.327L394.307 230.627H403.81L404.364 227.313H394.861L395.841 221.39H406.079L406.633 218.077H392.443L388.821 239.895Z" fill="black"/>
<path d="M576.694 221.39H583.437L580.369 239.895H584.29L587.358 221.39H594.101L594.655 218.077H577.248L576.694 221.39ZM594.554 239.895L597.26 234.515H605.463L606.369 239.895H610.587L606.518 218.077H601.639L590.335 239.895H594.554ZM598.847 231.34L603.269 222.551H603.439L604.92 231.34H598.847ZM613.461 239.895H617.414L618.5 233.418L621.419 230.541L626.341 239.895H631.093L624.594 227.867L634.64 218.077H629.814L619.651 228.102H619.384L621.036 218.077H617.083L613.461 239.895ZM633.764 239.895H648.04L648.593 236.582H638.27L639.25 230.627H648.753L649.307 227.313H639.804L640.785 221.39H651.022L651.576 218.077H637.386L633.764 239.895Z" fill="black"/>
<path d="M515.159 496.077H511.206L507.584 517.895H511.537L515.159 496.077ZM521.101 508.307C521.516 505.942 523.168 504.578 525.192 504.578C527.205 504.578 528.164 505.899 527.802 508.073L526.172 517.895H530.028L531.775 507.476C532.425 503.545 530.54 501.318 527.195 501.318C524.744 501.318 522.837 502.48 521.815 504.312H521.612L522.081 501.531H518.384L515.657 517.895H519.524L521.101 508.307ZM544.826 501.531H541.587L542.237 497.611H538.381L537.731 501.531H535.419L534.929 504.514H537.241L535.739 513.612C535.206 516.681 537.166 518.193 540.096 518.119C541.182 518.087 541.981 517.874 542.45 517.735L542.28 514.72C542.045 514.763 541.598 514.87 541.129 514.87C540.16 514.87 539.435 514.529 539.68 512.973L541.087 504.514H544.325L544.826 501.531Z" fill="black"/>
<path d="M566.584 517.895H580.86L581.414 514.582H571.091L572.071 508.627H581.574L582.128 505.313H572.625L573.605 499.39H583.843L584.397 496.077H570.206L566.584 517.895ZM590.517 501.531H586.426L589.921 509.713L583.571 517.895H587.662L592.073 512.004L594.555 517.895H598.614L594.96 509.713L601.256 501.531H597.176L592.818 507.572L590.517 501.531ZM612.41 501.531H609.171L609.821 497.611H605.965L605.315 501.531H603.003L602.513 504.514H604.825L603.323 513.612C602.79 516.681 604.75 518.193 607.68 518.119C608.766 518.087 609.565 517.874 610.034 517.735L609.864 514.72C609.629 514.763 609.182 514.87 608.713 514.87C607.744 514.87 607.019 514.529 607.264 512.973L608.671 504.514H611.909L612.41 501.531Z" fill="black"/>
<path d="M631.206 496.077L627.584 517.895H631.377L633.891 502.874H634.093L637.63 517.831H640.454L648.976 502.906H649.168L646.675 517.895H650.468L654.09 496.077H649.253L640.166 511.887H639.91L636.043 496.077H631.206ZM661.803 518.215C666.533 518.215 670.091 514.891 670.922 509.884C671.753 504.749 669.239 501.318 664.402 501.318C659.662 501.318 656.103 504.653 655.283 509.681C654.452 514.784 656.956 518.215 661.803 518.215ZM662.112 515.125C659.523 515.125 658.671 512.813 659.15 509.862C659.64 506.816 661.409 504.376 664.093 504.376C666.672 504.376 667.535 506.72 667.055 509.66C666.565 512.718 664.797 515.125 662.112 515.125ZM687.779 505.857C687.704 503.076 685.744 501.318 681.845 501.318C677.967 501.318 675.027 503.183 674.526 506.155C674.11 508.595 675.389 510.214 678.425 510.885L681.11 511.471C682.58 511.801 683.112 512.334 682.963 513.208C682.793 514.379 681.344 515.317 679.437 515.306C677.754 515.296 676.763 514.55 676.678 513.069L672.885 513.431C672.875 516.425 675.144 518.215 679.224 518.215C683.251 518.215 686.426 516.159 686.937 513.133C687.331 510.725 686.01 509.255 683.027 508.584L680.321 507.987C678.745 507.604 678.223 507.082 678.382 506.208C678.553 505.036 679.991 504.195 681.664 504.195C683.389 504.195 684.114 505.143 684.231 506.24L687.779 505.857Z" fill="black"/>
<path d="M631.041 536.181H634.844C635.366 532.389 632.692 529.779 628.047 529.779C623.456 529.779 619.62 532.346 618.971 536.213C618.459 539.345 620.377 541.135 623.807 542.073L626.172 542.712C628.441 543.308 629.901 544.044 629.603 545.737C629.304 547.602 627.323 548.848 624.745 548.848C622.284 548.848 620.526 547.74 620.76 545.45H616.872C616.307 549.786 619.141 552.225 624.223 552.225C629.454 552.225 632.905 549.615 633.555 545.769C634.184 541.987 631.339 540.251 628.207 539.484L626.247 538.972C624.521 538.546 622.699 537.779 623.03 535.968C623.307 534.317 624.968 533.124 627.44 533.124C629.794 533.124 631.094 534.21 631.041 536.181ZM637.292 558.031C640.264 558.031 642.267 556.519 643.663 553.855L653.24 535.531H648.989L643.141 547.911H642.97L641.266 535.531H637.324L640.456 552.183L639.966 553.067C638.911 554.921 637.835 555.112 636.248 554.622L634.842 557.627C635.332 557.84 636.237 558.031 637.292 558.031ZM658.665 542.307C659.081 539.942 660.732 538.578 662.756 538.578C664.77 538.578 665.728 539.899 665.366 542.073L663.736 551.895H667.593L669.34 541.476C669.99 537.545 668.104 535.318 664.759 535.318C662.309 535.318 660.402 536.48 659.379 538.312H659.177L659.645 535.531H655.949L653.221 551.895H657.089L658.665 542.307ZM678.587 552.215C682.699 552.215 685.693 549.786 686.588 546.302H682.902C682.263 548.06 680.835 549.072 679.141 549.072C676.733 549.072 675.508 547.058 676.062 543.713C676.584 540.411 678.513 538.429 680.91 538.429C682.753 538.429 683.701 539.622 683.733 541.199H687.429C687.738 537.651 685.363 535.318 681.378 535.318C676.574 535.318 672.951 538.781 672.152 543.777C671.321 548.731 673.687 552.215 678.587 552.215Z" fill="black"/>
<path d="M212.119 70.094L167.739 5.01166L233.239 5.13302L277.619 70.2154L212.119 70.094Z" fill="#40895C" stroke="#3E875A"/>
<path d="M612.126 66.8352L567.746 1.75287L633.246 1.87424L677.626 66.9566L612.126 66.8352Z" fill="#656661" stroke="#656661"/>
<path d="M679.126 66.9594L634.746 1.87701L700.246 1.99838L744.626 67.0807L679.126 66.9594Z" fill="#544848" stroke="#544848"/>
<path d="M7.25661 41.7176C-3.07419 6.29675 2.73936 4.70594 2.73936 4.70594L168.239 5.0126L212.619 70.0949C212.619 70.0949 123.618 71.1598 63.6362 67.3285C49.7245 65.4248 37.2753 61.8458 27.6798 58.382C17.1099 54.5665 9.01803 47.7569 7.25661 41.7176Z" fill="#2A2C27" stroke="#2A2C27"/>
<path d="M411.122 68.4628L366.742 3.38043L432.242 3.5018L476.622 68.5841L411.122 68.4628Z" fill="#C95D5B" stroke="#C95D5B"/>
<path d="M345.122 68.3405L300.742 3.25812L366.242 3.37948L410.622 68.4618L345.122 68.3405Z" fill="#398DC1" stroke="#398DC1"/>
<path d="M478.124 67.5869L433.744 2.50458L499.244 2.62594L543.624 67.7083L478.124 67.5869Z" fill="#F0ECE9" stroke="#F0ECE9"/>
<path d="M278.12 69.2163L233.741 4.13397L299.241 4.25534L343.62 69.3377L278.12 69.2163Z" fill="#ECE16E" stroke="#ECE16E"/>
<path d="M545.125 66.7111L500.746 1.62872L566.246 1.75009L610.625 66.8324L545.125 66.7111Z" fill="#8A8B87" stroke="#8A8B87"/>
<path d="M745.129 65.5817L701.247 1.50026C705.414 1.50798 716.148 0.82787 729.746 2.05307C742.717 3.22179 747.604 13.2626 748.595 19.6841C748.688 20.2858 748.688 20.8936 748.639 21.5004L745.129 65.5817Z" fill="#3E403D" stroke="#3E403D"/>
<path d="M212.303 72.1909L168.003 137.327L233.502 137.126L277.803 71.9902L212.303 72.1909Z" fill="#40895C" stroke="#3E875A"/>
<path d="M612.313 74.9648L568.013 140.101L633.513 139.9L677.813 74.764L612.313 74.9648Z" fill="#656661" stroke="#656661"/>
<path d="M679.313 74.7594L635.013 139.896L700.512 139.695L744.813 74.5586L679.313 74.7594Z" fill="#544848" stroke="#544848"/>
<path d="M9.30413 72.8224L11.0034 137.833L168.503 137.326L212.803 72.1894L9.30413 72.8224Z" fill="#2A2C27" stroke="#2A2C27"/>
<path d="M411.308 73.5809L367.008 138.717L432.508 138.516L476.808 73.3802L411.308 73.5809Z" fill="#C95D5B" stroke="#C95D5B"/>
<path d="M345.309 73.7832L301.008 138.919L366.508 138.719L410.808 73.5824L345.309 73.7832Z" fill="#398DC1" stroke="#398DC1"/>
<path d="M478.311 74.3756L434.01 139.512L499.51 139.311L543.811 74.1748L478.311 74.3756Z" fill="#F0ECE9" stroke="#F0ECE9"/>
<path d="M278.306 72.9886L234.005 138.125L299.505 137.924L343.806 72.7878L278.306 72.9886Z" fill="#ECE16E" stroke="#ECE16E"/>
<path d="M545.314 75.1702L501.013 140.306L566.513 140.105L610.814 74.9694L545.314 75.1702Z" fill="#8A8B87" stroke="#8A8B87"/>
<path d="M746.318 74.0571L701.514 140.192L744.796 140.192L746.318 74.0571Z" fill="#3E403D"/>
<path d="M17.6333 14.0119C14.037 15.2229 9.82609 22.5358 8.17016 26.0409L12.9552 119.027L15.4843 128.519L23.4935 131.494L142.493 131.13L148.973 124.61L148.853 85.61L62.1331 13.8755C48.7983 13.4163 21.2296 12.8008 17.6333 14.0119Z" fill="#151712" stroke="#151712"/>
<path d="M39.1111 93.1759L47.3435 100.472L45.1414 111.249L34.7069 114.731L26.4745 107.435L28.6766 96.6575L39.1111 93.1759Z" fill="#979795"/>
<path d="M40.1111 93.1728L48.3435 100.469L46.1414 111.246L35.7069 114.727L27.4745 107.432L29.6766 96.6545L40.1111 93.1728Z" fill="#979795"/>
<path d="M41.1111 93.1698L49.3435 100.465L47.1414 111.243L36.7069 114.724L28.4745 107.429L30.6766 96.6514L41.1111 93.1698Z" fill="#979795"/>
<path d="M42.1111 93.1667L50.3435 100.462L48.1414 111.24L37.7069 114.721L29.4745 107.426L31.6766 96.6483L42.1111 93.1667Z" fill="#979795"/>
<path d="M43.1111 93.1636L51.3435 100.459L49.1414 111.237L38.7069 114.718L30.4745 107.423L32.6766 96.6452L43.1111 93.1636Z" fill="#979795"/>
<path d="M38.1081 92.179L46.3406 99.4747L44.1385 110.252L33.704 113.734L25.4716 106.438L27.6737 95.6606L38.1081 92.179Z" fill="#EAE7DF"/>
<circle cx="30.4015" cy="101.473" r="8.5" transform="rotate(-0.175627 30.4015 101.473)" fill="#C4C4C4"/>
<circle cx="34.4044" cy="102.461" r="8.5" transform="rotate(-0.175627 34.4044 102.461)" fill="#8D8C89"/>
<circle cx="34.4044" cy="102.461" r="8.5" transform="rotate(-0.175627 34.4044 102.461)" fill="#8D8C89"/>
<circle cx="34.4044" cy="102.461" r="8.5" transform="rotate(-0.175627 34.4044 102.461)" fill="#8D8C89"/>
<circle cx="34.4044" cy="102.461" r="8.5" transform="rotate(-0.175627 34.4044 102.461)" fill="#19160F"/>
<circle cx="30.4015" cy="101.473" r="8.5" transform="rotate(-0.175627 30.4015 101.473)" fill="#878379"/>
<circle cx="29.8938" cy="98.9747" r="2" transform="rotate(-0.175627 29.8938 98.9747)" fill="#FFFFFC"/>
<circle cx="31.8967" cy="99.9686" r="2" transform="rotate(-0.175627 31.8967 99.9686)" fill="#FFFFFC"/>
<path d="M126.105 90.9092L134.337 98.2049L132.135 108.982L121.701 112.464L113.468 105.168L115.67 94.3908L126.105 90.9092Z" fill="#979795"/>
<path d="M127.105 90.9061L135.337 98.2018L133.135 108.979L122.701 112.461L114.468 105.165L116.67 94.3877L127.105 90.9061Z" fill="#979795"/>
<path d="M128.105 90.9031L136.337 98.1988L134.135 108.976L123.701 112.458L115.468 105.162L117.67 94.3847L128.105 90.9031Z" fill="#979795"/>
<path d="M129.105 90.9L137.337 98.1957L135.135 108.973L124.701 112.455L116.468 105.159L118.67 94.3816L129.105 90.9Z" fill="#979795"/>
<path d="M130.105 90.8969L138.337 98.1926L136.135 108.97L125.701 112.452L117.468 105.156L119.67 94.3785L130.105 90.8969Z" fill="#979795"/>
<path d="M125.102 89.9123L133.334 97.208L131.132 107.985L120.698 111.467L112.465 104.171L114.667 93.3939L125.102 89.9123Z" fill="#EAE7DF"/>
<circle cx="117.395" cy="99.2065" r="8.5" transform="rotate(-0.175627 117.395 99.2065)" fill="#C4C4C4"/>
<circle cx="121.398" cy="100.194" r="8.5" transform="rotate(-0.175627 121.398 100.194)" fill="#8D8C89"/>
<circle cx="121.398" cy="100.194" r="8.5" transform="rotate(-0.175627 121.398 100.194)" fill="#8D8C89"/>
<circle cx="121.398" cy="100.194" r="8.5" transform="rotate(-0.175627 121.398 100.194)" fill="#8D8C89"/>
<circle cx="121.398" cy="100.194" r="8.5" transform="rotate(-0.175627 121.398 100.194)" fill="#19160F"/>
<circle cx="117.395" cy="99.2065" r="8.5" transform="rotate(-0.175627 117.395 99.2065)" fill="#878379"/>
<circle cx="116.887" cy="96.708" r="2" transform="rotate(-0.175627 116.887 96.708)" fill="#FFFFFC"/>
<circle cx="118.89" cy="97.7019" r="2" transform="rotate(-0.175627 118.89 97.7019)" fill="#FFFFFC"/>
<path d="M32.8965 23.1946L41.1289 30.4903L38.9268 41.2676L28.4924 44.7492L20.2599 37.4535L22.462 26.6762L32.8965 23.1946Z" fill="#979795"/>
<path d="M33.8965 23.1915L42.1289 30.4872L39.9268 41.2645L29.4924 44.7462L21.2599 37.4505L23.462 26.6731L33.8965 23.1915Z" fill="#979795"/>
<path d="M34.8965 23.1885L43.1289 30.4842L40.9268 41.2615L30.4924 44.7431L22.2599 37.4474L24.462 26.6701L34.8965 23.1885Z" fill="#979795"/>
<path d="M35.8965 23.1854L44.1289 30.4811L41.9268 41.2584L31.4924 44.7401L23.2599 37.4444L25.462 26.667L35.8965 23.1854Z" fill="#979795"/>
<path d="M36.8965 23.1823L45.1289 30.478L42.9268 41.2553L32.4924 44.737L24.2599 37.4412L26.462 26.6639L36.8965 23.1823Z" fill="#979795"/>
<path d="M31.8935 22.1977L40.126 29.4934L37.9239 40.2707L27.4894 43.7523L19.257 36.4566L21.4591 25.6793L31.8935 22.1977Z" fill="#EAE7DF"/>
<circle cx="24.1869" cy="31.4918" r="8.5" transform="rotate(-0.175627 24.1869 31.4918)" fill="#C4C4C4"/>
<circle cx="28.1898" cy="32.4796" r="8.5" transform="rotate(-0.175627 28.1898 32.4796)" fill="#8D8C89"/>
<circle cx="28.1898" cy="32.4796" r="8.5" transform="rotate(-0.175627 28.1898 32.4796)" fill="#8D8C89"/>
<circle cx="28.1898" cy="32.4796" r="8.5" transform="rotate(-0.175627 28.1898 32.4796)" fill="#8D8C89"/>
<circle cx="28.1898" cy="32.4796" r="8.5" transform="rotate(-0.175627 28.1898 32.4796)" fill="#19160F"/>
<circle cx="24.1869" cy="31.4918" r="8.5" transform="rotate(-0.175627 24.1869 31.4918)" fill="#878379"/>
<circle cx="23.6792" cy="28.9934" r="2" transform="rotate(-0.175627 23.6792 28.9934)" fill="#FFFFFC"/>
<circle cx="25.6821" cy="29.9873" r="2" transform="rotate(-0.175627 25.6821 29.9873)" fill="#FFFFFC"/>
<path d="M269.546 397.945C269.979 397.945 270.421 398.22 270.871 398.77C271.338 399.32 271.571 399.778 271.571 400.145C271.571 400.495 271.504 400.67 271.371 400.67C271.254 400.67 271.021 400.612 270.671 400.495C270.321 400.362 270.004 400.295 269.721 400.295C269.071 400.295 268.279 400.628 267.346 401.295C266.429 401.962 265.554 402.787 264.721 403.77C263.904 404.753 263.204 405.878 262.621 407.145C262.038 408.395 261.746 409.478 261.746 410.395C261.746 411.312 261.979 411.987 262.446 412.42C262.929 412.837 263.554 413.045 264.321 413.045C265.088 413.045 265.879 412.937 266.696 412.72C267.513 412.487 268.179 412.228 268.696 411.945C270.029 411.228 270.763 410.87 270.896 410.87C271.179 410.87 271.321 411.062 271.321 411.445C271.321 411.812 270.938 412.312 270.171 412.945C269.404 413.562 268.454 414.12 267.321 414.62C266.188 415.12 265.171 415.37 264.271 415.37C263.104 415.37 262.004 414.87 260.971 413.87C259.938 412.853 259.421 411.737 259.421 410.52C259.421 408.953 259.929 407.187 260.946 405.22C261.979 403.237 263.296 401.528 264.896 400.095C266.513 398.662 268.063 397.945 269.546 397.945ZM277.687 408.07H277.637C277.603 408.237 277.437 408.903 277.137 410.07C276.853 411.237 276.67 412.003 276.587 412.37C276.503 412.72 276.428 413.003 276.362 413.22C276.312 413.437 276.253 413.687 276.187 413.97C276.12 414.237 276.053 414.453 275.987 414.62C275.937 414.77 275.887 414.92 275.837 415.07C275.737 415.353 275.637 415.495 275.537 415.495C275.32 415.495 275.037 415.262 274.687 414.795C274.337 414.312 274.162 413.92 274.162 413.62C274.162 413.32 274.637 411.237 275.587 407.37C276.553 403.503 277.053 400.928 277.087 399.645C277.087 399.395 277.145 399.195 277.262 399.045C277.428 398.695 277.92 398.445 278.737 398.295C279.57 398.145 280.778 398.07 282.362 398.07C283.962 398.07 285.212 398.153 286.112 398.32C287.028 398.487 287.487 398.72 287.487 399.02C287.487 399.22 287.345 399.362 287.062 399.445C286.778 399.528 286.528 399.595 286.312 399.645C286.095 399.678 285.812 399.72 285.462 399.77C285.112 399.803 284.787 399.837 284.487 399.87C284.187 399.887 283.795 399.92 283.312 399.97C282.845 400.02 282.412 400.07 282.012 400.12C281.612 400.153 281.07 400.212 280.387 400.295C279.703 400.378 279.262 400.428 279.062 400.445C279.078 400.495 279.087 400.57 279.087 400.67C279.087 401.453 278.762 403.253 278.112 406.07C279.145 406.12 280.253 406.095 281.437 405.995C282.637 405.895 283.37 405.845 283.637 405.845C284.27 405.845 284.587 405.978 284.587 406.245C284.587 406.762 283.862 407.195 282.412 407.545C280.978 407.895 279.403 408.07 277.687 408.07ZM290.473 398.695C290.473 398.412 290.506 398.22 290.573 398.12C290.656 398.003 290.798 397.945 290.998 397.945C291.214 397.945 291.581 398.17 292.098 398.62C292.614 399.07 292.889 399.47 292.923 399.82C292.989 400.42 293.306 401.487 293.873 403.02C294.439 404.537 295.089 406.078 295.823 407.645C296.756 406.545 297.931 405.087 299.348 403.27C300.764 401.437 301.814 400.137 302.498 399.37C303.181 398.603 303.673 398.22 303.973 398.22C304.273 398.22 304.589 398.387 304.923 398.72C305.256 399.053 305.423 399.37 305.423 399.67C305.423 399.97 305.389 400.312 305.323 400.695C305.256 401.078 305.139 401.587 304.973 402.22C304.823 402.837 304.681 403.378 304.548 403.845C304.431 404.295 304.231 405.003 303.948 405.97C303.664 406.937 303.448 407.712 303.298 408.295C303.148 408.862 302.973 409.562 302.773 410.395C302.573 411.212 302.406 411.887 302.273 412.42C302.156 412.937 302.031 413.445 301.898 413.945C301.648 414.912 301.406 415.395 301.173 415.395C300.956 415.395 300.739 415.195 300.523 414.795C300.306 414.395 300.198 413.862 300.198 413.195C300.198 412.512 300.481 410.962 301.048 408.545C301.631 406.128 302.256 404.012 302.923 402.195C299.856 406.028 297.964 408.32 297.248 409.07C296.548 409.82 295.964 410.195 295.498 410.195C295.048 410.195 294.623 409.937 294.223 409.42C293.623 408.553 292.814 406.503 291.798 403.27C291.514 405.02 291.198 406.52 290.848 407.77C290.514 409.003 290.289 409.828 290.173 410.245C290.073 410.645 289.981 410.978 289.898 411.245C289.831 411.512 289.748 411.828 289.648 412.195C289.548 412.545 289.456 412.837 289.373 413.07C289.306 413.303 289.231 413.562 289.148 413.845C289.064 414.112 288.989 414.328 288.923 414.495C288.873 414.662 288.814 414.82 288.748 414.97C288.614 415.253 288.514 415.395 288.448 415.395C288.248 415.395 287.998 415.178 287.698 414.745C287.398 414.312 287.248 413.895 287.248 413.495C287.248 413.095 287.781 410.795 288.848 406.595C289.931 402.395 290.473 399.762 290.473 398.695Z" fill="black"/>
<path d="M265.546 441.945C265.979 441.945 266.421 442.22 266.871 442.77C267.338 443.32 267.571 443.778 267.571 444.145C267.571 444.495 267.504 444.67 267.371 444.67C267.254 444.67 267.021 444.612 266.671 444.495C266.321 444.362 266.004 444.295 265.721 444.295C265.071 444.295 264.279 444.628 263.346 445.295C262.429 445.962 261.554 446.787 260.721 447.77C259.904 448.753 259.204 449.878 258.621 451.145C258.038 452.395 257.746 453.478 257.746 454.395C257.746 455.312 257.979 455.987 258.446 456.42C258.929 456.837 259.554 457.045 260.321 457.045C261.088 457.045 261.879 456.937 262.696 456.72C263.513 456.487 264.179 456.228 264.696 455.945C266.029 455.228 266.763 454.87 266.896 454.87C267.179 454.87 267.321 455.062 267.321 455.445C267.321 455.812 266.938 456.312 266.171 456.945C265.404 457.562 264.454 458.12 263.321 458.62C262.188 459.12 261.171 459.37 260.271 459.37C259.104 459.37 258.004 458.87 256.971 457.87C255.938 456.853 255.421 455.737 255.421 454.52C255.421 452.953 255.929 451.187 256.946 449.22C257.979 447.237 259.296 445.528 260.896 444.095C262.513 442.662 264.063 441.945 265.546 441.945ZM273.687 452.07H273.637C273.603 452.237 273.437 452.903 273.137 454.07C272.853 455.237 272.67 456.003 272.587 456.37C272.503 456.72 272.428 457.003 272.362 457.22C272.312 457.437 272.253 457.687 272.187 457.97C272.12 458.237 272.053 458.453 271.987 458.62C271.937 458.77 271.887 458.92 271.837 459.07C271.737 459.353 271.637 459.495 271.537 459.495C271.32 459.495 271.037 459.262 270.687 458.795C270.337 458.312 270.162 457.92 270.162 457.62C270.162 457.32 270.637 455.237 271.587 451.37C272.553 447.503 273.053 444.928 273.087 443.645C273.087 443.395 273.145 443.195 273.262 443.045C273.428 442.695 273.92 442.445 274.737 442.295C275.57 442.145 276.778 442.07 278.362 442.07C279.962 442.07 281.212 442.153 282.112 442.32C283.028 442.487 283.487 442.72 283.487 443.02C283.487 443.22 283.345 443.362 283.062 443.445C282.778 443.528 282.528 443.595 282.312 443.645C282.095 443.678 281.812 443.72 281.462 443.77C281.112 443.803 280.787 443.837 280.487 443.87C280.187 443.887 279.795 443.92 279.312 443.97C278.845 444.02 278.412 444.07 278.012 444.12C277.612 444.153 277.07 444.212 276.387 444.295C275.703 444.378 275.262 444.428 275.062 444.445C275.078 444.495 275.087 444.57 275.087 444.67C275.087 445.453 274.762 447.253 274.112 450.07C275.145 450.12 276.253 450.095 277.437 449.995C278.637 449.895 279.37 449.845 279.637 449.845C280.27 449.845 280.587 449.978 280.587 450.245C280.587 450.762 279.862 451.195 278.412 451.545C276.978 451.895 275.403 452.07 273.687 452.07ZM286.473 442.695C286.473 442.412 286.506 442.22 286.573 442.12C286.656 442.003 286.798 441.945 286.998 441.945C287.214 441.945 287.581 442.17 288.098 442.62C288.614 443.07 288.889 443.47 288.923 443.82C288.989 444.42 289.306 445.487 289.873 447.02C290.439 448.537 291.089 450.078 291.823 451.645C292.756 450.545 293.931 449.087 295.348 447.27C296.764 445.437 297.814 444.137 298.498 443.37C299.181 442.603 299.673 442.22 299.973 442.22C300.273 442.22 300.589 442.387 300.923 442.72C301.256 443.053 301.423 443.37 301.423 443.67C301.423 443.97 301.389 444.312 301.323 444.695C301.256 445.078 301.139 445.587 300.973 446.22C300.823 446.837 300.681 447.378 300.548 447.845C300.431 448.295 300.231 449.003 299.948 449.97C299.664 450.937 299.448 451.712 299.298 452.295C299.148 452.862 298.973 453.562 298.773 454.395C298.573 455.212 298.406 455.887 298.273 456.42C298.156 456.937 298.031 457.445 297.898 457.945C297.648 458.912 297.406 459.395 297.173 459.395C296.956 459.395 296.739 459.195 296.523 458.795C296.306 458.395 296.198 457.862 296.198 457.195C296.198 456.512 296.481 454.962 297.048 452.545C297.631 450.128 298.256 448.012 298.923 446.195C295.856 450.028 293.964 452.32 293.248 453.07C292.548 453.82 291.964 454.195 291.498 454.195C291.048 454.195 290.623 453.937 290.223 453.42C289.623 452.553 288.814 450.503 287.798 447.27C287.514 449.02 287.198 450.52 286.848 451.77C286.514 453.003 286.289 453.828 286.173 454.245C286.073 454.645 285.981 454.978 285.898 455.245C285.831 455.512 285.748 455.828 285.648 456.195C285.548 456.545 285.456 456.837 285.373 457.07C285.306 457.303 285.231 457.562 285.148 457.845C285.064 458.112 284.989 458.328 284.923 458.495C284.873 458.662 284.814 458.82 284.748 458.97C284.614 459.253 284.514 459.395 284.448 459.395C284.248 459.395 283.998 459.178 283.698 458.745C283.398 458.312 283.248 457.895 283.248 457.495C283.248 457.095 283.781 454.795 284.848 450.595C285.931 446.395 286.473 443.762 286.473 442.695Z" fill="black"/>
<path d="M190.571 513.02C191.871 512.82 193.004 512.653 193.971 512.52C194.954 512.387 195.671 512.32 196.121 512.32C196.588 512.32 196.938 512.362 197.171 512.445C197.421 512.512 197.546 512.662 197.546 512.895C197.546 513.362 196.288 513.895 193.771 514.495C191.271 515.078 189.438 515.37 188.271 515.37C187.754 515.37 187.213 515.145 186.646 514.695C186.096 514.228 185.821 513.745 185.821 513.245C185.821 512.845 186.621 512.045 188.221 510.845C189.721 509.745 191.196 508.462 192.646 506.995C193.329 506.295 193.896 505.528 194.346 504.695C194.813 503.845 195.046 503.07 195.046 502.37C195.046 501.653 194.888 501.095 194.571 500.695C194.254 500.295 193.821 500.095 193.271 500.095C192.721 500.095 192.204 500.262 191.721 500.595C191.238 500.928 190.846 501.262 190.546 501.595C190.246 501.912 190.054 502.07 189.971 502.07C189.688 502.07 189.354 501.945 188.971 501.695C188.588 501.445 188.396 501.195 188.396 500.945C188.396 500.328 188.904 499.645 189.921 498.895C190.954 498.145 192.054 497.77 193.221 497.77C194.388 497.77 195.354 498.187 196.121 499.02C196.904 499.837 197.296 500.853 197.296 502.07C197.296 505.67 194.213 509.445 188.046 513.395C188.446 513.345 189.288 513.22 190.571 513.02ZM208.847 503.695C208.847 501.078 208.464 499.77 207.697 499.77C207.347 499.77 206.897 500.12 206.347 500.82C205.814 501.503 205.289 502.362 204.772 503.395C204.272 504.428 203.839 505.612 203.472 506.945C203.122 508.262 202.947 509.478 202.947 510.595C202.947 512.512 203.456 513.47 204.472 513.47C204.956 513.47 205.539 512.937 206.222 511.87C206.922 510.803 207.531 509.487 208.047 507.92C208.581 506.353 208.847 504.945 208.847 503.695ZM210.122 508.795C209.489 510.645 208.639 512.22 207.572 513.52C206.506 514.803 205.456 515.445 204.422 515.445C203.406 515.445 202.514 514.978 201.747 514.045C200.997 513.095 200.622 512.037 200.622 510.87C200.622 508.853 200.989 506.812 201.722 504.745C202.472 502.678 203.406 500.995 204.522 499.695C205.656 498.378 206.747 497.72 207.797 497.72C208.847 497.72 209.656 498.22 210.222 499.22C210.806 500.203 211.097 501.587 211.097 503.37C211.097 505.137 210.772 506.945 210.122 508.795ZM218.597 499.62C218.597 501.403 218.172 503.97 217.322 507.32C217.139 507.987 216.931 508.812 216.697 509.795C216.464 510.778 216.272 511.57 216.122 512.17C215.972 512.753 215.806 513.345 215.622 513.945C215.289 515.128 214.964 515.72 214.647 515.72C214.414 515.72 214.164 515.553 213.897 515.22C213.647 514.887 213.522 514.545 213.522 514.195C213.522 513.828 213.697 512.962 214.047 511.595C214.414 510.228 214.822 508.362 215.272 505.995C215.722 503.628 216.031 501.137 216.197 498.52C216.247 498.003 216.439 497.745 216.772 497.745C217.139 497.745 217.531 497.978 217.947 498.445C218.381 498.912 218.597 499.303 218.597 499.62ZM222.159 498.77C222.159 498.603 222.842 498.42 224.209 498.22C225.592 498.02 226.942 497.92 228.259 497.92C229.592 497.92 230.434 498.037 230.784 498.27C231.067 498.487 231.309 498.837 231.509 499.32C231.725 499.787 231.834 500.17 231.834 500.47C231.834 500.77 231.75 501.112 231.584 501.495C231.434 501.862 231.209 502.312 230.909 502.845C230.609 503.362 230.309 503.862 230.009 504.345C229.725 504.812 229.384 505.37 228.984 506.02C228.584 506.653 228.2 507.287 227.834 507.92C227.467 508.537 226.85 509.637 225.984 511.22C225.134 512.803 224.5 513.928 224.084 514.595C223.684 515.245 223.375 515.57 223.159 515.57C222.942 515.57 222.734 515.42 222.534 515.12C222.334 514.803 222.234 514.495 222.234 514.195C222.234 513.645 222.85 512.328 224.084 510.245C225.317 508.145 226.55 506.087 227.784 504.07C229.034 502.037 229.659 500.845 229.659 500.495C229.659 500.195 229.375 500.045 228.809 500.045C228.259 500.045 227.367 500.137 226.134 500.32C224.917 500.503 224.142 500.595 223.809 500.595C223.475 500.595 223.117 500.37 222.734 499.92C222.35 499.453 222.159 499.07 222.159 498.77Z" fill="black"/>
<path d="M594.571 269.62C594.571 271.403 594.146 273.97 593.296 277.32C593.113 277.987 592.904 278.812 592.671 279.795C592.438 280.778 592.246 281.57 592.096 282.17C591.946 282.753 591.779 283.345 591.596 283.945C591.263 285.128 590.938 285.72 590.621 285.72C590.388 285.72 590.138 285.553 589.871 285.22C589.621 284.887 589.496 284.545 589.496 284.195C589.496 283.828 589.671 282.962 590.021 281.595C590.388 280.228 590.796 278.362 591.246 275.995C591.696 273.628 592.004 271.137 592.171 268.52C592.221 268.003 592.413 267.745 592.746 267.745C593.113 267.745 593.504 267.978 593.921 268.445C594.354 268.912 594.571 269.303 594.571 269.62Z" fill="black"/>
<path d="M124.571 269.62C124.571 271.403 124.146 273.97 123.296 277.32C123.113 277.987 122.904 278.812 122.671 279.795C122.438 280.778 122.246 281.57 122.096 282.17C121.946 282.753 121.779 283.345 121.596 283.945C121.263 285.128 120.938 285.72 120.621 285.72C120.388 285.72 120.138 285.553 119.871 285.22C119.621 284.887 119.496 284.545 119.496 284.195C119.496 283.828 119.671 282.962 120.021 281.595C120.388 280.228 120.796 278.362 121.246 275.995C121.696 273.628 122.004 271.137 122.171 268.52C122.221 268.003 122.413 267.745 122.746 267.745C123.113 267.745 123.504 267.978 123.921 268.445C124.354 268.912 124.571 269.303 124.571 269.62Z" fill="black"/>
<path d="M364.571 269.62C364.571 271.403 364.146 273.97 363.296 277.32C363.113 277.987 362.904 278.812 362.671 279.795C362.438 280.778 362.246 281.57 362.096 282.17C361.946 282.753 361.779 283.345 361.596 283.945C361.263 285.128 360.938 285.72 360.621 285.72C360.388 285.72 360.138 285.553 359.871 285.22C359.621 284.887 359.496 284.545 359.496 284.195C359.496 283.828 359.671 282.962 360.021 281.595C360.388 280.228 360.796 278.362 361.246 275.995C361.696 273.628 362.004 271.137 362.171 268.52C362.221 268.003 362.413 267.745 362.746 267.745C363.113 267.745 363.504 267.978 363.921 268.445C364.354 268.912 364.571 269.303 364.571 269.62Z" fill="black"/>
<path d="M183.321 173.295C182.271 173.295 181.104 173.87 179.821 175.02C178.554 176.17 177.471 177.612 176.571 179.345C175.671 181.062 175.221 182.662 175.221 184.145C175.221 184.745 175.413 185.262 175.796 185.695C176.179 186.112 176.629 186.32 177.146 186.32C177.946 186.32 178.879 185.887 179.946 185.02C181.029 184.137 182.029 183.003 182.946 181.62C182.013 181.87 181.321 181.995 180.871 181.995C180.421 181.995 180.038 181.878 179.721 181.645C179.404 181.395 179.246 181.162 179.246 180.945C179.246 180.678 179.604 180.47 180.321 180.32C181.038 180.153 181.938 180.07 183.021 180.07C183.621 180.07 184.104 180.328 184.471 180.845C184.854 181.345 185.046 181.937 185.046 182.62C185.046 183.287 184.629 184.87 183.796 187.37C182.963 189.87 182.329 191.12 181.896 191.12C181.479 191.12 181.271 190.878 181.271 190.395C181.271 189.928 181.388 189.295 181.621 188.495C181.871 187.695 182.129 186.878 182.396 186.045C182.663 185.195 182.879 184.503 183.046 183.97C182.229 185.353 181.304 186.453 180.271 187.27C179.238 188.07 178.229 188.47 177.246 188.47C176.279 188.47 175.321 188.02 174.371 187.12C173.421 186.203 172.946 185.203 172.946 184.12C172.946 182.437 173.479 180.562 174.546 178.495C175.613 176.428 176.954 174.662 178.571 173.195C180.188 171.712 181.704 170.97 183.121 170.97C183.588 170.97 184.046 171.253 184.496 171.82C184.946 172.37 185.171 172.82 185.171 173.17C185.171 173.503 185.079 173.67 184.896 173.67C184.846 173.67 184.663 173.612 184.346 173.495C184.029 173.362 183.688 173.295 183.321 173.295ZM192.054 171.52C192.054 171.253 192.087 171.062 192.154 170.945C192.237 170.828 192.396 170.77 192.629 170.77C192.879 170.77 193.187 170.978 193.554 171.395C193.921 171.812 194.104 172.253 194.104 172.72C194.104 173.887 193.387 176.837 191.954 181.57C191.237 183.87 190.879 185.245 190.879 185.695C190.879 186.145 191.096 186.37 191.529 186.37C193.412 186.37 195.479 186.062 197.729 185.445C198.446 185.245 198.871 185.145 199.004 185.145C199.154 185.145 199.254 185.178 199.304 185.245C199.354 185.295 199.379 185.403 199.379 185.57C199.379 186.27 198.521 186.928 196.804 187.545C195.104 188.162 193.371 188.47 191.604 188.47C190.804 188.47 190.104 188.237 189.504 187.77C188.921 187.303 188.629 186.753 188.629 186.12C188.629 185.47 189.196 183.162 190.329 179.195C191.479 175.228 192.054 172.67 192.054 171.52ZM214.827 179.82C214.827 180.137 214.093 180.503 212.627 180.92C212.76 182.653 212.827 184.128 212.827 185.345C212.827 187.445 212.56 188.495 212.027 188.495C211.743 188.495 211.518 188.32 211.352 187.97C211.185 187.62 211.052 187.012 210.952 186.145C210.835 184.545 210.71 182.978 210.577 181.445C209.827 181.645 209.143 181.828 208.527 181.995C207.91 182.145 206.977 182.395 205.727 182.745C204.26 186.578 203.393 188.495 203.127 188.495C202.86 188.495 202.568 188.337 202.252 188.02C201.952 187.687 201.802 187.337 201.802 186.97C201.802 186.803 202.277 185.62 203.227 183.42H203.052C202.718 183.42 202.418 183.312 202.152 183.095C201.902 182.878 201.777 182.612 201.777 182.295C201.777 181.962 202.602 181.528 204.252 180.995C204.518 180.395 204.735 179.853 204.902 179.37C205.285 178.42 205.818 177.12 206.502 175.47C207.185 173.82 207.618 172.77 207.802 172.32C207.985 171.853 208.302 171.462 208.752 171.145C209.218 170.812 209.668 170.645 210.102 170.645C210.618 170.645 211.077 171.47 211.477 173.12C211.893 174.77 212.227 176.812 212.477 179.245C212.943 179.195 213.352 179.17 213.702 179.17C214.452 179.17 214.827 179.387 214.827 179.82ZM206.652 180.345C207.835 180.028 209.085 179.762 210.402 179.545C210.102 176.695 209.81 174.553 209.527 173.12C208.777 174.837 207.818 177.245 206.652 180.345ZM227.637 183.545C227.637 184.912 227.02 186.062 225.787 186.995C224.553 187.912 223.137 188.37 221.537 188.37C219.953 188.37 218.645 187.962 217.612 187.145C216.578 186.312 216.062 185.528 216.062 184.795C216.062 184.295 216.212 184.045 216.512 184.045C216.778 184.045 217.303 184.445 218.087 185.245C218.387 185.528 218.787 185.795 219.287 186.045C219.803 186.295 220.345 186.42 220.912 186.42C222.078 186.42 223.112 186.12 224.012 185.52C224.928 184.92 225.387 184.27 225.387 183.57C225.387 183.12 225.087 182.545 224.487 181.845C223.887 181.145 223.22 180.487 222.487 179.87C221.77 179.237 221.112 178.562 220.512 177.845C219.912 177.128 219.612 176.562 219.612 176.145C219.612 175.728 219.695 175.287 219.862 174.82C220.028 174.353 220.212 174.012 220.412 173.795C221.062 173.078 222.07 172.42 223.437 171.82C224.82 171.22 225.978 170.92 226.912 170.92C227.395 170.92 227.803 171.078 228.137 171.395C228.47 171.712 228.637 172.045 228.637 172.395C228.637 172.562 228.462 172.695 228.112 172.795C227.762 172.895 227.228 173.028 226.512 173.195C225.812 173.345 225.187 173.528 224.637 173.745C222.72 174.478 221.762 175.187 221.762 175.87C221.762 176.237 222.737 177.262 224.687 178.945C225.437 179.595 226.112 180.353 226.712 181.22C227.328 182.07 227.637 182.845 227.637 183.545ZM240.918 183.545C240.918 184.912 240.301 186.062 239.068 186.995C237.834 187.912 236.418 188.37 234.818 188.37C233.234 188.37 231.926 187.962 230.893 187.145C229.859 186.312 229.343 185.528 229.343 184.795C229.343 184.295 229.493 184.045 229.793 184.045C230.059 184.045 230.584 184.445 231.368 185.245C231.668 185.528 232.068 185.795 232.568 186.045C233.084 186.295 233.626 186.42 234.193 186.42C235.359 186.42 236.393 186.12 237.293 185.52C238.209 184.92 238.668 184.27 238.668 183.57C238.668 183.12 238.368 182.545 237.768 181.845C237.168 181.145 236.501 180.487 235.768 179.87C235.051 179.237 234.393 178.562 233.793 177.845C233.193 177.128 232.893 176.562 232.893 176.145C232.893 175.728 232.976 175.287 233.143 174.82C233.309 174.353 233.493 174.012 233.693 173.795C234.343 173.078 235.351 172.42 236.718 171.82C238.101 171.22 239.259 170.92 240.193 170.92C240.676 170.92 241.084 171.078 241.418 171.395C241.751 171.712 241.918 172.045 241.918 172.395C241.918 172.562 241.743 172.695 241.393 172.795C241.043 172.895 240.509 173.028 239.793 173.195C239.093 173.345 238.468 173.528 237.918 173.745C236.001 174.478 235.043 175.187 235.043 175.87C235.043 176.237 236.018 177.262 237.968 178.945C238.718 179.595 239.393 180.353 239.993 181.22C240.609 182.07 240.918 182.845 240.918 183.545ZM246.274 170.87C247.841 170.87 249.507 171.278 251.274 172.095C253.057 172.912 254.591 174.045 255.874 175.495C257.157 176.928 257.799 178.42 257.799 179.97C257.799 180.987 257.091 182.187 255.674 183.57C254.274 184.937 252.649 186.112 250.799 187.095C248.949 188.062 247.416 188.545 246.199 188.545C245.882 188.545 245.516 188.278 245.099 187.745C244.699 187.195 244.499 186.645 244.499 186.095C244.499 185.528 244.982 183.512 245.949 180.045C246.916 176.578 247.441 174.295 247.524 173.195C246.991 172.978 246.566 172.695 246.249 172.345C245.932 171.995 245.774 171.662 245.774 171.345C245.774 171.028 245.941 170.87 246.274 170.87ZM255.499 179.695C255.499 178.662 254.882 177.545 253.649 176.345C252.416 175.128 250.982 174.253 249.349 173.72C249.432 174.02 249.474 174.378 249.474 174.795C249.474 175.195 249.324 175.953 249.024 177.07C248.741 178.187 248.216 180.053 247.449 182.67C247.132 183.77 246.874 184.978 246.674 186.295C247.824 186.145 249.107 185.645 250.524 184.795C251.957 183.928 253.141 183.003 254.074 182.02C255.024 181.037 255.499 180.262 255.499 179.695ZM267.112 185.02C268.212 184.037 269.154 182.828 269.937 181.395C270.721 179.945 271.112 178.578 271.112 177.295C271.112 176.012 270.862 174.97 270.362 174.17C269.879 173.37 269.304 172.97 268.637 172.97C267.971 172.97 267.137 173.487 266.137 174.52C265.137 175.553 264.237 176.912 263.437 178.595C262.637 180.262 262.237 181.862 262.237 183.395C262.237 184.312 262.437 185.062 262.837 185.645C263.237 186.212 263.704 186.495 264.237 186.495C265.071 186.495 266.029 186.003 267.112 185.02ZM264.087 188.47C262.987 188.47 262.021 187.928 261.187 186.845C260.371 185.762 259.962 184.662 259.962 183.545C259.962 182.028 260.237 180.487 260.787 178.92C261.354 177.353 262.054 175.987 262.887 174.82C263.737 173.653 264.671 172.703 265.687 171.97C266.704 171.22 267.646 170.845 268.512 170.845C269.912 170.845 271.079 171.487 272.012 172.77C272.946 174.037 273.412 175.47 273.412 177.07C273.412 178.67 272.971 180.353 272.087 182.12C271.204 183.87 270.021 185.37 268.537 186.62C267.071 187.853 265.587 188.47 264.087 188.47ZM282.444 185.02C283.544 184.037 284.486 182.828 285.269 181.395C286.053 179.945 286.444 178.578 286.444 177.295C286.444 176.012 286.194 174.97 285.694 174.17C285.211 173.37 284.636 172.97 283.969 172.97C283.303 172.97 282.469 173.487 281.469 174.52C280.469 175.553 279.569 176.912 278.769 178.595C277.969 180.262 277.569 181.862 277.569 183.395C277.569 184.312 277.769 185.062 278.169 185.645C278.569 186.212 279.036 186.495 279.569 186.495C280.403 186.495 281.361 186.003 282.444 185.02ZM279.419 188.47C278.319 188.47 277.353 187.928 276.519 186.845C275.703 185.762 275.294 184.662 275.294 183.545C275.294 182.028 275.569 180.487 276.119 178.92C276.686 177.353 277.386 175.987 278.219 174.82C279.069 173.653 280.003 172.703 281.019 171.97C282.036 171.22 282.978 170.845 283.844 170.845C285.244 170.845 286.411 171.487 287.344 172.77C288.278 174.037 288.744 175.47 288.744 177.07C288.744 178.67 288.303 180.353 287.419 182.12C286.536 183.87 285.353 185.37 283.869 186.62C282.403 187.853 280.919 188.47 279.419 188.47ZM291.776 188.495C291.526 188.495 291.243 188.312 290.926 187.945C290.61 187.578 290.451 187.212 290.451 186.845C290.451 186.462 290.91 184.653 291.826 181.42C292.743 178.187 293.268 175.728 293.401 174.045C293.185 173.912 292.993 173.703 292.826 173.42C292.66 173.137 292.576 172.887 292.576 172.67C292.576 172.287 293.143 171.895 294.276 171.495C295.41 171.078 296.66 170.87 298.026 170.87C299.41 170.87 300.601 171.203 301.601 171.87C302.618 172.52 303.126 173.445 303.126 174.645C303.126 175.462 302.893 176.228 302.426 176.945C301.976 177.645 301.418 178.22 300.751 178.67C300.101 179.12 299.451 179.52 298.801 179.87C298.151 180.22 297.593 180.512 297.126 180.745C296.676 180.962 296.451 181.12 296.451 181.22C296.451 181.587 296.735 182.062 297.301 182.645C297.885 183.228 298.293 183.628 298.526 183.845C298.76 184.062 299.068 184.353 299.451 184.72C299.835 185.07 300.193 185.387 300.526 185.67C300.876 185.953 301.151 186.187 301.351 186.37C301.568 186.553 301.785 186.745 302.001 186.945C302.418 187.328 302.626 187.637 302.626 187.87C302.626 188.27 302.351 188.47 301.801 188.47C300.801 188.47 299.376 187.603 297.526 185.87C295.676 184.12 294.543 182.637 294.126 181.42C293.343 184.02 292.893 185.528 292.776 185.945C292.66 186.345 292.526 186.762 292.376 187.195C292.11 188.062 291.91 188.495 291.776 188.495ZM295.551 174.72C295.551 175.803 295.201 177.595 294.501 180.095C294.785 179.878 295.326 179.562 296.126 179.145C296.926 178.712 297.643 178.32 298.276 177.97C298.926 177.603 299.518 177.12 300.051 176.52C300.585 175.92 300.851 175.295 300.851 174.645C300.851 173.612 299.951 173.095 298.151 173.095C297.335 173.095 296.385 173.303 295.301 173.72C295.468 174.087 295.551 174.42 295.551 174.72ZM324.46 180.695C324.46 180.962 324.185 181.178 323.635 181.345C323.102 181.512 321.793 181.803 319.71 182.22C317.643 182.637 316.51 182.845 316.31 182.845C316.127 182.845 315.902 182.703 315.635 182.42C315.368 182.137 315.235 181.878 315.235 181.645C315.235 181.278 316.177 180.928 318.06 180.595C319.943 180.245 321.577 180.07 322.96 180.07C323.96 180.07 324.46 180.278 324.46 180.695ZM347.119 183.545C347.119 184.912 346.502 186.062 345.269 186.995C344.036 187.912 342.619 188.37 341.019 188.37C339.436 188.37 338.127 187.962 337.094 187.145C336.061 186.312 335.544 185.528 335.544 184.795C335.544 184.295 335.694 184.045 335.994 184.045C336.261 184.045 336.786 184.445 337.569 185.245C337.869 185.528 338.269 185.795 338.769 186.045C339.286 186.295 339.827 186.42 340.394 186.42C341.561 186.42 342.594 186.12 343.494 185.52C344.411 184.92 344.869 184.27 344.869 183.57C344.869 183.12 344.569 182.545 343.969 181.845C343.369 181.145 342.702 180.487 341.969 179.87C341.252 179.237 340.594 178.562 339.994 177.845C339.394 177.128 339.094 176.562 339.094 176.145C339.094 175.728 339.177 175.287 339.344 174.82C339.511 174.353 339.694 174.012 339.894 173.795C340.544 173.078 341.552 172.42 342.919 171.82C344.302 171.22 345.461 170.92 346.394 170.92C346.877 170.92 347.286 171.078 347.619 171.395C347.952 171.712 348.119 172.045 348.119 172.395C348.119 172.562 347.944 172.695 347.594 172.795C347.244 172.895 346.711 173.028 345.994 173.195C345.294 173.345 344.669 173.528 344.119 173.745C342.202 174.478 341.244 175.187 341.244 175.87C341.244 176.237 342.219 177.262 344.169 178.945C344.919 179.595 345.594 180.353 346.194 181.22C346.811 182.07 347.119 182.845 347.119 183.545ZM357.025 180.37C357.025 179.803 356.934 179.27 356.75 178.77C356.567 178.253 356.3 177.878 355.95 177.645C354.8 177.962 353.809 178.853 352.975 180.32C352.159 181.77 351.75 183.137 351.75 184.42C351.75 185.703 352.067 186.503 352.7 186.82C353.9 186.587 354.917 185.77 355.75 184.37C356.6 182.953 357.025 181.62 357.025 180.37ZM350.45 180.595C351.034 179.295 351.792 178.228 352.725 177.395C353.675 176.545 354.642 176.12 355.625 176.12C356.625 176.12 357.459 176.545 358.125 177.395C358.792 178.228 359.125 179.253 359.125 180.47C359.125 181.67 358.834 182.903 358.25 184.17C357.667 185.42 356.859 186.462 355.825 187.295C354.809 188.112 353.725 188.52 352.575 188.52C351.725 188.52 351.017 188.128 350.45 187.345C349.884 186.562 349.6 185.57 349.6 184.37C349.6 183.153 349.884 181.895 350.45 180.595ZM362.603 188.57C362.387 188.57 362.153 188.412 361.903 188.095C361.653 187.778 361.528 187.52 361.528 187.32C361.528 187.12 361.612 186.728 361.778 186.145C362.612 183.145 363.178 181.003 363.478 179.72C362.762 179.887 362.27 179.97 362.003 179.97C361.737 179.97 361.47 179.853 361.203 179.62C360.937 179.387 360.803 179.128 360.803 178.845C360.803 178.562 361.178 178.312 361.928 178.095C362.895 177.862 363.562 177.712 363.928 177.645C364.095 176.845 364.22 176.228 364.303 175.795C364.703 173.495 365.245 171.837 365.928 170.82C366.612 169.803 367.537 169.295 368.703 169.295C369.537 169.295 370.22 169.628 370.753 170.295C371.287 170.945 371.553 171.72 371.553 172.62C371.553 173.503 371.32 173.945 370.853 173.945C370.453 173.945 370.128 173.495 369.878 172.595C369.795 172.262 369.653 171.953 369.453 171.67C369.253 171.387 369.012 171.245 368.728 171.245C368.445 171.245 368.187 171.378 367.953 171.645C367.72 171.895 367.512 172.262 367.328 172.745C366.845 174.095 366.512 175.328 366.328 176.445L366.128 177.32C366.745 177.237 367.353 177.195 367.953 177.195C368.57 177.195 369.012 177.262 369.278 177.395C369.562 177.528 369.703 177.695 369.703 177.895C369.703 178.212 369.428 178.453 368.878 178.62C368.328 178.787 367.253 179.003 365.653 179.27C364.47 184.07 363.662 186.928 363.228 187.845C362.995 188.328 362.787 188.57 362.603 188.57ZM373.003 186.02C373.003 186.337 373.186 186.495 373.553 186.495C374.186 186.495 374.953 186.32 375.853 185.97C376.769 185.603 377.278 185.42 377.378 185.42C377.678 185.42 377.828 185.578 377.828 185.895C377.828 186.378 377.328 186.937 376.328 187.57C375.344 188.203 374.444 188.52 373.628 188.52C372.828 188.52 372.161 188.303 371.628 187.87C371.094 187.42 370.828 186.962 370.828 186.495C370.828 186.028 370.928 185.437 371.128 184.72C371.328 183.987 371.611 183.028 371.978 181.845C372.361 180.645 372.661 179.653 372.878 178.87C372.094 179.053 371.569 179.145 371.303 179.145C371.036 179.145 370.769 179.012 370.503 178.745C370.253 178.462 370.128 178.195 370.128 177.945C370.128 177.545 371.211 177.162 373.378 176.795C373.678 175.412 373.828 174.187 373.828 173.12C373.828 172.62 373.994 172.37 374.328 172.37C374.611 172.37 374.961 172.553 375.378 172.92C375.794 173.27 376.003 173.67 376.003 174.12C376.003 174.57 375.861 175.362 375.578 176.495C376.528 176.412 377.286 176.37 377.853 176.37C378.853 176.37 379.353 176.587 379.353 177.02C379.353 177.27 379.078 177.478 378.528 177.645C377.994 177.812 376.861 178.07 375.128 178.42C374.778 179.737 374.336 181.245 373.803 182.945C373.269 184.628 373.003 185.653 373.003 186.02ZM389.921 178.77L389.746 183.47C389.746 184.77 389.804 185.712 389.921 186.295C390.637 185.545 391.254 184.67 391.771 183.67C392.304 182.653 392.696 181.712 392.946 180.845C393.212 179.978 393.437 179.17 393.621 178.42C393.821 177.653 394.004 177.045 394.171 176.595C394.337 176.145 394.529 175.92 394.746 175.92C395.062 175.92 395.346 176.053 395.596 176.32C395.846 176.57 395.971 176.862 395.971 177.195C395.971 178.045 395.587 179.445 394.821 181.395C394.171 183.195 393.321 184.845 392.271 186.345C391.221 187.828 390.404 188.57 389.821 188.57C389.237 188.57 388.796 188.245 388.496 187.595C388.212 186.945 388.054 185.703 388.021 183.87C387.987 182.02 388.012 180.42 388.096 179.07C386.946 182.203 385.929 184.57 385.046 186.17C384.162 187.77 383.462 188.57 382.946 188.57C382.712 188.57 382.462 188.462 382.196 188.245C381.946 188.028 381.746 187.745 381.596 187.395C381.229 186.512 380.912 184.828 380.646 182.345C380.396 179.845 380.271 178.062 380.271 176.995C380.271 176.312 380.479 175.97 380.896 175.97C381.262 175.97 381.596 176.178 381.896 176.595C382.212 177.012 382.396 177.428 382.446 177.845C382.496 178.245 382.537 179.378 382.571 181.245C382.621 183.095 382.779 184.745 383.046 186.195C383.729 185.012 384.412 183.528 385.096 181.745C385.796 179.962 386.362 178.562 386.796 177.545C387.246 176.528 387.654 176.02 388.021 176.02C388.571 176.02 389.021 176.278 389.371 176.795C389.737 177.295 389.921 177.953 389.921 178.77ZM403.342 176.12C404.092 176.12 404.784 176.503 405.417 177.27C406.05 178.02 406.367 178.703 406.367 179.32C406.367 179.92 406.159 180.537 405.742 181.17C405.942 181.42 406.042 181.637 406.042 181.82C406.042 182.287 405.934 183.087 405.717 184.22C405.517 185.353 405.392 186.095 405.342 186.445C405.309 186.795 405.275 187.078 405.242 187.295C405.209 187.495 405.167 187.695 405.117 187.895C405.05 188.312 404.9 188.52 404.667 188.52C404.367 188.52 404.117 188.262 403.917 187.745C403.734 187.212 403.625 186.528 403.592 185.695C402.109 187.578 400.734 188.52 399.467 188.52C398.7 188.52 397.942 188.195 397.192 187.545C396.459 186.878 396.092 186.195 396.092 185.495C396.092 184.495 396.459 183.262 397.192 181.795C397.925 180.312 398.875 178.995 400.042 177.845C401.209 176.695 402.309 176.12 403.342 176.12ZM404.492 180.52C404.492 178.97 404.184 178.195 403.567 178.195C402.917 178.195 402.159 178.662 401.292 179.595C400.425 180.512 399.692 181.553 399.092 182.72C398.492 183.887 398.192 184.812 398.192 185.495C398.192 185.778 398.309 186.012 398.542 186.195C398.775 186.362 399.05 186.445 399.367 186.445C400.15 186.445 401.034 185.92 402.017 184.87C403 183.803 403.684 182.512 404.067 180.995C404.117 180.745 404.259 180.595 404.492 180.545V180.52ZM409.911 179.17L409.836 177.295C409.836 176.512 410.019 176.12 410.386 176.12C410.702 176.12 411.002 176.328 411.286 176.745C411.586 177.145 411.736 177.628 411.736 178.195C411.736 178.745 411.719 179.162 411.686 179.445C413.136 177.245 414.511 176.145 415.811 176.145C416.627 176.145 417.036 176.345 417.036 176.745C417.036 176.945 416.944 177.128 416.761 177.295C416.577 177.462 416.286 177.653 415.886 177.87C415.002 178.253 414.252 178.845 413.636 179.645C413.036 180.428 412.544 181.32 412.161 182.32C411.777 183.32 411.469 184.162 411.236 184.845C411.019 185.528 410.852 186.062 410.736 186.445C410.619 186.828 410.486 187.203 410.336 187.57C410.069 188.237 409.761 188.57 409.411 188.57C409.127 188.57 408.894 188.412 408.711 188.095C408.544 187.762 408.461 187.445 408.461 187.145C408.461 186.828 408.602 186.212 408.886 185.295C409.569 183.195 409.911 181.153 409.911 179.17ZM426.662 180.27C426.662 181.153 426.179 181.878 425.212 182.445C424.262 182.995 423.179 183.27 421.962 183.27C420.762 183.27 419.67 183.137 418.687 182.87C418.454 183.603 418.337 184.262 418.337 184.845C418.337 185.412 418.512 185.853 418.862 186.17C419.229 186.487 419.82 186.645 420.637 186.645C421.47 186.645 422.32 186.503 423.187 186.22C424.07 185.92 424.554 185.77 424.637 185.77C425.07 185.77 425.287 185.937 425.287 186.27C425.287 186.72 424.779 187.212 423.762 187.745C422.745 188.262 421.754 188.52 420.787 188.52C419.487 188.52 418.429 188.137 417.612 187.37C416.795 186.587 416.387 185.603 416.387 184.42C416.387 183.237 416.704 182.003 417.337 180.72C417.97 179.42 418.787 178.328 419.787 177.445C420.787 176.562 421.779 176.12 422.762 176.12C423.745 176.12 424.637 176.587 425.437 177.52C426.254 178.453 426.662 179.37 426.662 180.27ZM422.887 178.095C422.27 178.095 421.629 178.42 420.962 179.07C420.295 179.703 419.729 180.495 419.262 181.445C419.929 181.595 420.687 181.67 421.537 181.67C422.387 181.67 423.129 181.537 423.762 181.27C424.395 180.987 424.712 180.62 424.712 180.17C424.712 179.72 424.504 179.262 424.087 178.795C423.687 178.328 423.287 178.095 422.887 178.095ZM442.401 180.57C441.501 183.42 441.051 185.145 441.051 185.745C441.051 185.945 441.11 186.112 441.226 186.245C441.36 186.362 441.526 186.42 441.726 186.42C443.643 186.42 445.76 186.112 448.076 185.495C448.826 185.295 449.26 185.195 449.376 185.195C449.626 185.195 449.751 185.37 449.751 185.72C449.751 186.32 448.826 186.937 446.976 187.57C445.143 188.203 443.368 188.52 441.651 188.52C440.885 188.52 440.21 188.295 439.626 187.845C439.06 187.395 438.776 186.828 438.776 186.145C438.776 185.462 439.018 184.295 439.501 182.645C440.001 180.995 440.501 179.237 441.001 177.37C441.501 175.503 441.751 173.928 441.751 172.645C441.751 172.462 441.785 172.27 441.851 172.07C442.135 171.453 443.951 171.145 447.301 171.145C450.651 171.145 452.326 171.387 452.326 171.87C452.326 172.203 451.968 172.428 451.251 172.545C450.651 172.662 449.851 172.77 448.851 172.87C447.868 172.953 447.176 173.02 446.776 173.07C446.376 173.103 445.41 173.253 443.876 173.52V173.595C443.876 174.728 443.568 176.437 442.951 178.72C443.051 178.737 443.385 178.745 443.951 178.745C444.535 178.745 445.31 178.703 446.276 178.62C447.243 178.537 447.968 178.495 448.451 178.495C448.951 178.495 449.201 178.612 449.201 178.845C449.201 179.428 448.518 179.862 447.151 180.145C445.785 180.428 444.201 180.57 442.401 180.57ZM455.05 184.17C456.65 181.453 457.95 179.437 458.95 178.12C459.967 176.787 460.792 176.12 461.425 176.12C462.075 176.12 462.684 176.462 463.25 177.145C463.834 177.828 464.125 178.553 464.125 179.32C464.125 180.52 463.85 181.987 463.3 183.72C462.3 186.92 461.4 188.52 460.6 188.52C460.234 188.52 460.05 188.27 460.05 187.77C460.05 187.42 460.225 186.712 460.575 185.645C460.942 184.562 461.275 183.503 461.575 182.47C461.892 181.42 462.05 180.637 462.05 180.12C462.05 179.587 461.967 179.195 461.8 178.945C461.65 178.695 461.492 178.57 461.325 178.57C461.175 178.57 461.017 178.62 460.85 178.72C460.684 178.82 460.492 178.987 460.275 179.22C460.075 179.453 459.884 179.687 459.7 179.92C459.517 180.137 459.284 180.453 459 180.87C458.734 181.287 458.509 181.645 458.325 181.945C458.142 182.228 457.875 182.645 457.525 183.195C457.175 183.745 456.909 184.162 456.725 184.445C456.542 184.728 456.3 185.112 456 185.595C455.7 186.078 455.459 186.453 455.275 186.72C455.109 186.987 454.917 187.278 454.7 187.595C454.284 188.212 453.95 188.52 453.7 188.52C453.467 188.52 453.192 188.337 452.875 187.97C452.559 187.587 452.4 187.253 452.4 186.97C452.4 186.887 452.459 186.662 452.575 186.295C452.892 185.328 453.242 184.137 453.625 182.72C454.009 181.287 454.217 179.662 454.25 177.845C454.3 176.628 454.475 176.02 454.775 176.02C455.142 176.02 455.509 176.212 455.875 176.595C456.242 176.978 456.425 177.403 456.425 177.87C456.425 178.32 456.284 179.203 456 180.52C455.734 181.82 455.417 183.037 455.05 184.17ZM475.83 181.77C475.83 182.437 475.539 183.195 474.955 184.045C474.505 185.062 474.022 186.528 473.505 188.445C472.989 190.345 472.555 191.703 472.205 192.52C471.505 194.22 470.43 195.07 468.98 195.07C467.797 195.07 466.797 194.745 465.98 194.095C465.18 193.462 464.78 192.828 464.78 192.195C464.78 191.928 464.864 191.662 465.03 191.395C465.18 191.128 465.339 190.995 465.505 190.995C465.689 190.995 465.889 191.12 466.105 191.37C466.322 191.62 466.522 191.887 466.705 192.17C466.905 192.47 467.197 192.745 467.58 192.995C467.98 193.245 468.364 193.37 468.73 193.37C469.097 193.37 469.372 193.312 469.555 193.195C469.739 193.095 469.914 192.92 470.08 192.67C470.247 192.437 470.389 192.195 470.505 191.945C470.622 191.712 470.747 191.37 470.88 190.92C471.03 190.487 471.147 190.112 471.23 189.795C471.314 189.478 471.43 189.037 471.58 188.47C471.73 187.887 471.855 187.42 471.955 187.07C470.655 188.037 469.597 188.52 468.78 188.52C467.964 188.52 467.255 188.195 466.655 187.545C466.055 186.878 465.755 186.112 465.755 185.245C465.755 184.362 466.08 183.195 466.73 181.745C467.397 180.295 468.289 178.995 469.405 177.845C470.522 176.695 471.614 176.12 472.68 176.12C473.364 176.12 473.939 176.378 474.405 176.895C475.172 177.745 475.555 178.953 475.555 180.52C475.555 180.72 475.547 180.862 475.53 180.945C475.73 181.228 475.83 181.503 475.83 181.77ZM467.78 185.495C467.78 185.778 467.872 186.012 468.055 186.195C468.239 186.362 468.472 186.445 468.755 186.445C469.589 186.445 470.572 185.953 471.705 184.97C472.839 183.97 473.639 182.812 474.105 181.495C474.039 181.278 473.98 180.945 473.93 180.495C473.88 180.045 473.83 179.687 473.78 179.42C473.73 179.153 473.622 178.887 473.455 178.62C473.289 178.337 473.072 178.195 472.805 178.195C472.155 178.195 471.422 178.662 470.605 179.595C469.789 180.528 469.114 181.57 468.58 182.72C468.047 183.87 467.78 184.795 467.78 185.495ZM480.996 172.57C480.996 172.237 481.129 171.92 481.396 171.62C481.662 171.32 481.929 171.17 482.196 171.17C482.479 171.17 482.812 171.512 483.196 172.195C483.579 172.862 483.771 173.42 483.771 173.87C483.771 174.037 483.696 174.187 483.546 174.32C483.396 174.453 483.237 174.52 483.071 174.52C482.671 174.52 482.221 174.278 481.721 173.795C481.237 173.312 480.996 172.903 480.996 172.57ZM480.871 176.12C481.187 176.12 481.487 176.312 481.771 176.695C482.054 177.078 482.196 177.453 482.196 177.82C482.196 178.187 481.954 179.287 481.471 181.12C480.987 182.937 480.379 184.978 479.646 187.245C479.362 188.078 479.004 188.495 478.571 188.495C478.337 188.495 478.137 188.403 477.971 188.22C477.804 188.02 477.721 187.803 477.721 187.57C477.721 187.32 477.779 186.937 477.896 186.42C478.029 185.887 478.212 185.187 478.446 184.32C478.696 183.437 478.887 182.72 479.021 182.17C479.171 181.62 479.321 181.003 479.471 180.32C479.621 179.62 479.737 179.062 479.821 178.645C479.921 178.212 480.029 177.778 480.146 177.345C480.379 176.528 480.621 176.12 480.871 176.12ZM486.203 184.17C487.803 181.453 489.103 179.437 490.103 178.12C491.119 176.787 491.944 176.12 492.578 176.12C493.228 176.12 493.836 176.462 494.403 177.145C494.986 177.828 495.278 178.553 495.278 179.32C495.278 180.52 495.003 181.987 494.453 183.72C493.453 186.92 492.553 188.52 491.753 188.52C491.386 188.52 491.203 188.27 491.203 187.77C491.203 187.42 491.378 186.712 491.728 185.645C492.094 184.562 492.428 183.503 492.728 182.47C493.044 181.42 493.203 180.637 493.203 180.12C493.203 179.587 493.119 179.195 492.953 178.945C492.803 178.695 492.644 178.57 492.478 178.57C492.328 178.57 492.169 178.62 492.003 178.72C491.836 178.82 491.644 178.987 491.428 179.22C491.228 179.453 491.036 179.687 490.853 179.92C490.669 180.137 490.436 180.453 490.153 180.87C489.886 181.287 489.661 181.645 489.478 181.945C489.294 182.228 489.028 182.645 488.678 183.195C488.328 183.745 488.061 184.162 487.878 184.445C487.694 184.728 487.453 185.112 487.153 185.595C486.853 186.078 486.611 186.453 486.428 186.72C486.261 186.987 486.069 187.278 485.853 187.595C485.436 188.212 485.103 188.52 484.853 188.52C484.619 188.52 484.344 188.337 484.028 187.97C483.711 187.587 483.553 187.253 483.553 186.97C483.553 186.887 483.611 186.662 483.728 186.295C484.044 185.328 484.394 184.137 484.778 182.72C485.161 181.287 485.369 179.662 485.403 177.845C485.453 176.628 485.628 176.02 485.928 176.02C486.294 176.02 486.661 176.212 487.028 176.595C487.394 176.978 487.578 177.403 487.578 177.87C487.578 178.32 487.436 179.203 487.153 180.52C486.886 181.82 486.569 183.037 486.203 184.17ZM507.058 180.27C507.058 181.153 506.574 181.878 505.608 182.445C504.658 182.995 503.574 183.27 502.358 183.27C501.158 183.27 500.066 183.137 499.083 182.87C498.849 183.603 498.733 184.262 498.733 184.845C498.733 185.412 498.908 185.853 499.258 186.17C499.624 186.487 500.216 186.645 501.033 186.645C501.866 186.645 502.716 186.503 503.583 186.22C504.466 185.92 504.949 185.77 505.033 185.77C505.466 185.77 505.683 185.937 505.683 186.27C505.683 186.72 505.174 187.212 504.158 187.745C503.141 188.262 502.149 188.52 501.183 188.52C499.883 188.52 498.824 188.137 498.008 187.37C497.191 186.587 496.783 185.603 496.783 184.42C496.783 183.237 497.099 182.003 497.733 180.72C498.366 179.42 499.183 178.328 500.183 177.445C501.183 176.562 502.174 176.12 503.158 176.12C504.141 176.12 505.033 176.587 505.833 177.52C506.649 178.453 507.058 179.37 507.058 180.27ZM503.283 178.095C502.666 178.095 502.024 178.42 501.358 179.07C500.691 179.703 500.124 180.495 499.658 181.445C500.324 181.595 501.083 181.67 501.933 181.67C502.783 181.67 503.524 181.537 504.158 181.27C504.791 180.987 505.108 180.62 505.108 180.17C505.108 179.72 504.899 179.262 504.483 178.795C504.083 178.328 503.683 178.095 503.283 178.095ZM518.313 180.27C518.313 181.153 517.829 181.878 516.863 182.445C515.913 182.995 514.829 183.27 513.613 183.27C512.413 183.27 511.321 183.137 510.338 182.87C510.104 183.603 509.988 184.262 509.988 184.845C509.988 185.412 510.163 185.853 510.513 186.17C510.879 186.487 511.471 186.645 512.288 186.645C513.121 186.645 513.971 186.503 514.838 186.22C515.721 185.92 516.204 185.77 516.288 185.77C516.721 185.77 516.938 185.937 516.938 186.27C516.938 186.72 516.429 187.212 515.413 187.745C514.396 188.262 513.404 188.52 512.438 188.52C511.138 188.52 510.079 188.137 509.263 187.37C508.446 186.587 508.038 185.603 508.038 184.42C508.038 183.237 508.354 182.003 508.988 180.72C509.621 179.42 510.438 178.328 511.438 177.445C512.438 176.562 513.429 176.12 514.413 176.12C515.396 176.12 516.288 176.587 517.088 177.52C517.904 178.453 518.313 179.37 518.313 180.27ZM514.538 178.095C513.921 178.095 513.279 178.42 512.613 179.07C511.946 179.703 511.379 180.495 510.913 181.445C511.579 181.595 512.338 181.67 513.188 181.67C514.038 181.67 514.779 181.537 515.413 181.27C516.046 180.987 516.363 180.62 516.363 180.17C516.363 179.72 516.154 179.262 515.738 178.795C515.338 178.328 514.938 178.095 514.538 178.095ZM521.092 179.17L521.017 177.295C521.017 176.512 521.201 176.12 521.567 176.12C521.884 176.12 522.184 176.328 522.467 176.745C522.767 177.145 522.917 177.628 522.917 178.195C522.917 178.745 522.901 179.162 522.867 179.445C524.317 177.245 525.692 176.145 526.992 176.145C527.809 176.145 528.217 176.345 528.217 176.745C528.217 176.945 528.126 177.128 527.942 177.295C527.759 177.462 527.467 177.653 527.067 177.87C526.184 178.253 525.434 178.845 524.817 179.645C524.217 180.428 523.726 181.32 523.342 182.32C522.959 183.32 522.651 184.162 522.417 184.845C522.201 185.528 522.034 186.062 521.917 186.445C521.801 186.828 521.667 187.203 521.517 187.57C521.251 188.237 520.942 188.57 520.592 188.57C520.309 188.57 520.076 188.412 519.892 188.095C519.726 187.762 519.642 187.445 519.642 187.145C519.642 186.828 519.784 186.212 520.067 185.295C520.751 183.195 521.092 181.153 521.092 179.17ZM540.103 188.42C539.903 188.42 539.636 188.22 539.303 187.82C538.986 187.42 538.828 187.053 538.828 186.72C538.828 186.387 539.32 184.062 540.303 179.745C541.303 175.412 541.811 172.728 541.828 171.695C541.828 171.412 541.861 171.22 541.928 171.12C542.011 171.003 542.17 170.945 542.403 170.945C542.653 170.945 542.97 171.203 543.353 171.72C543.753 172.237 543.953 172.795 543.953 173.395C543.953 173.978 543.353 176.712 542.153 181.595C542.036 182.045 541.878 182.695 541.678 183.545C541.478 184.378 541.32 185.02 541.203 185.47C541.086 185.92 540.961 186.412 540.828 186.945C540.545 187.928 540.303 188.42 540.103 188.42ZM548.092 184.17C549.692 181.453 550.992 179.437 551.992 178.12C553.009 176.787 553.834 176.12 554.467 176.12C555.117 176.12 555.726 176.462 556.292 177.145C556.876 177.828 557.167 178.553 557.167 179.32C557.167 180.52 556.892 181.987 556.342 183.72C555.342 186.92 554.442 188.52 553.642 188.52C553.276 188.52 553.092 188.27 553.092 187.77C553.092 187.42 553.267 186.712 553.617 185.645C553.984 184.562 554.317 183.503 554.617 182.47C554.934 181.42 555.092 180.637 555.092 180.12C555.092 179.587 555.009 179.195 554.842 178.945C554.692 178.695 554.534 178.57 554.367 178.57C554.217 178.57 554.059 178.62 553.892 178.72C553.726 178.82 553.534 178.987 553.317 179.22C553.117 179.453 552.926 179.687 552.742 179.92C552.559 180.137 552.326 180.453 552.042 180.87C551.776 181.287 551.551 181.645 551.367 181.945C551.184 182.228 550.917 182.645 550.567 183.195C550.217 183.745 549.951 184.162 549.767 184.445C549.584 184.728 549.342 185.112 549.042 185.595C548.742 186.078 548.501 186.453 548.317 186.72C548.151 186.987 547.959 187.278 547.742 187.595C547.326 188.212 546.992 188.52 546.742 188.52C546.509 188.52 546.234 188.337 545.917 187.97C545.601 187.587 545.442 187.253 545.442 186.97C545.442 186.887 545.501 186.662 545.617 186.295C545.934 185.328 546.284 184.137 546.667 182.72C547.051 181.287 547.259 179.662 547.292 177.845C547.342 176.628 547.517 176.02 547.817 176.02C548.184 176.02 548.551 176.212 548.917 176.595C549.284 176.978 549.467 177.403 549.467 177.87C549.467 178.32 549.326 179.203 549.042 180.52C548.776 181.82 548.459 183.037 548.092 184.17ZM561.772 186.02C561.772 186.337 561.956 186.495 562.322 186.495C562.956 186.495 563.722 186.32 564.622 185.97C565.539 185.603 566.047 185.42 566.147 185.42C566.447 185.42 566.597 185.578 566.597 185.895C566.597 186.378 566.097 186.937 565.097 187.57C564.114 188.203 563.214 188.52 562.397 188.52C561.597 188.52 560.931 188.303 560.397 187.87C559.864 187.42 559.597 186.962 559.597 186.495C559.597 186.028 559.697 185.437 559.897 184.72C560.097 183.987 560.381 183.028 560.747 181.845C561.131 180.645 561.431 179.653 561.647 178.87C560.864 179.053 560.339 179.145 560.072 179.145C559.806 179.145 559.539 179.012 559.272 178.745C559.022 178.462 558.897 178.195 558.897 177.945C558.897 177.545 559.981 177.162 562.147 176.795C562.447 175.412 562.597 174.187 562.597 173.12C562.597 172.62 562.764 172.37 563.097 172.37C563.381 172.37 563.731 172.553 564.147 172.92C564.564 173.27 564.772 173.67 564.772 174.12C564.772 174.57 564.631 175.362 564.347 176.495C565.297 176.412 566.056 176.37 566.622 176.37C567.622 176.37 568.122 176.587 568.122 177.02C568.122 177.27 567.847 177.478 567.297 177.645C566.764 177.812 565.631 178.07 563.897 178.42C563.547 179.737 563.106 181.245 562.572 182.945C562.039 184.628 561.772 185.653 561.772 186.02ZM578.615 180.27C578.615 181.153 578.132 181.878 577.165 182.445C576.215 182.995 575.132 183.27 573.915 183.27C572.715 183.27 571.624 183.137 570.64 182.87C570.407 183.603 570.29 184.262 570.29 184.845C570.29 185.412 570.465 185.853 570.815 186.17C571.182 186.487 571.774 186.645 572.59 186.645C573.424 186.645 574.274 186.503 575.14 186.22C576.024 185.92 576.507 185.77 576.59 185.77C577.024 185.77 577.24 185.937 577.24 186.27C577.24 186.72 576.732 187.212 575.715 187.745C574.699 188.262 573.707 188.52 572.74 188.52C571.44 188.52 570.382 188.137 569.565 187.37C568.749 186.587 568.34 185.603 568.34 184.42C568.34 183.237 568.657 182.003 569.29 180.72C569.924 179.42 570.74 178.328 571.74 177.445C572.74 176.562 573.732 176.12 574.715 176.12C575.699 176.12 576.59 176.587 577.39 177.52C578.207 178.453 578.615 179.37 578.615 180.27ZM574.84 178.095C574.224 178.095 573.582 178.42 572.915 179.07C572.249 179.703 571.682 180.495 571.215 181.445C571.882 181.595 572.64 181.67 573.49 181.67C574.34 181.67 575.082 181.537 575.715 181.27C576.349 180.987 576.665 180.62 576.665 180.17C576.665 179.72 576.457 179.262 576.04 178.795C575.64 178.328 575.24 178.095 574.84 178.095ZM581.395 179.17L581.32 177.295C581.32 176.512 581.503 176.12 581.87 176.12C582.187 176.12 582.487 176.328 582.77 176.745C583.07 177.145 583.22 177.628 583.22 178.195C583.22 178.745 583.203 179.162 583.17 179.445C584.62 177.245 585.995 176.145 587.295 176.145C588.112 176.145 588.52 176.345 588.52 176.745C588.52 176.945 588.428 177.128 588.245 177.295C588.062 177.462 587.77 177.653 587.37 177.87C586.487 178.253 585.737 178.845 585.12 179.645C584.52 180.428 584.028 181.32 583.645 182.32C583.262 183.32 582.953 184.162 582.72 184.845C582.503 185.528 582.337 186.062 582.22 186.445C582.103 186.828 581.97 187.203 581.82 187.57C581.553 188.237 581.245 188.57 580.895 188.57C580.612 188.57 580.378 188.412 580.195 188.095C580.028 187.762 579.945 187.445 579.945 187.145C579.945 186.828 580.087 186.212 580.37 185.295C581.053 183.195 581.395 181.153 581.395 179.17ZM590.621 184.17C592.221 181.453 593.521 179.437 594.521 178.12C595.538 176.787 596.363 176.12 596.996 176.12C597.646 176.12 598.255 176.462 598.821 177.145C599.405 177.828 599.696 178.553 599.696 179.32C599.696 180.52 599.421 181.987 598.871 183.72C597.871 186.92 596.971 188.52 596.171 188.52C595.805 188.52 595.621 188.27 595.621 187.77C595.621 187.42 595.796 186.712 596.146 185.645C596.513 184.562 596.846 183.503 597.146 182.47C597.463 181.42 597.621 180.637 597.621 180.12C597.621 179.587 597.538 179.195 597.371 178.945C597.221 178.695 597.063 178.57 596.896 178.57C596.746 178.57 596.588 178.62 596.421 178.72C596.255 178.82 596.063 178.987 595.846 179.22C595.646 179.453 595.455 179.687 595.271 179.92C595.088 180.137 594.855 180.453 594.571 180.87C594.305 181.287 594.08 181.645 593.896 181.945C593.713 182.228 593.446 182.645 593.096 183.195C592.746 183.745 592.48 184.162 592.296 184.445C592.113 184.728 591.871 185.112 591.571 185.595C591.271 186.078 591.03 186.453 590.846 186.72C590.68 186.987 590.488 187.278 590.271 187.595C589.855 188.212 589.521 188.52 589.271 188.52C589.038 188.52 588.763 188.337 588.446 187.97C588.13 187.587 587.971 187.253 587.971 186.97C587.971 186.887 588.03 186.662 588.146 186.295C588.463 185.328 588.813 184.137 589.196 182.72C589.58 181.287 589.788 179.662 589.821 177.845C589.871 176.628 590.046 176.02 590.346 176.02C590.713 176.02 591.08 176.212 591.446 176.595C591.813 176.978 591.996 177.403 591.996 177.87C591.996 178.32 591.855 179.203 591.571 180.52C591.305 181.82 590.988 183.037 590.621 184.17ZM608.652 176.12C609.218 176.12 609.752 176.437 610.252 177.07C610.752 177.687 611.002 178.228 611.002 178.695C611.002 178.978 610.868 179.12 610.602 179.12C610.418 179.12 610.135 178.978 609.752 178.695C609.368 178.395 608.977 178.245 608.577 178.245C608.177 178.245 607.543 178.478 606.677 178.945C605.827 179.412 605.402 179.903 605.402 180.42C605.402 180.803 606.168 181.462 607.702 182.395C608.285 182.762 608.81 183.237 609.277 183.82C609.76 184.387 610.002 185.003 610.002 185.67C610.002 186.32 609.543 186.962 608.627 187.595C607.727 188.212 606.668 188.52 605.452 188.52C604.252 188.52 603.185 188.228 602.252 187.645C601.335 187.062 600.877 186.512 600.877 185.995C600.877 185.778 600.927 185.612 601.027 185.495C601.143 185.362 601.285 185.295 601.452 185.295C601.618 185.295 601.852 185.403 602.152 185.62C603.052 186.27 603.985 186.595 604.952 186.595C605.935 186.595 606.643 186.487 607.077 186.27C607.51 186.037 607.727 185.737 607.727 185.37C607.727 184.987 607.485 184.587 607.002 184.17C606.518 183.737 605.985 183.353 605.402 183.02C604.835 182.687 604.31 182.278 603.827 181.795C603.343 181.312 603.102 180.82 603.102 180.32C603.102 179.437 603.793 178.52 605.177 177.57C606.577 176.603 607.735 176.12 608.652 176.12ZM615.096 170.095C615.096 169.445 615.296 169.12 615.696 169.12C616.013 169.12 616.346 169.37 616.696 169.87C617.063 170.37 617.246 170.853 617.246 171.32C617.246 172.403 616.971 174.253 616.421 176.87C615.888 179.47 615.188 182.07 614.321 184.67C615.988 181.653 617.379 179.478 618.496 178.145C619.629 176.795 620.596 176.12 621.396 176.12C621.829 176.12 622.329 176.495 622.896 177.245C623.479 177.995 623.771 178.745 623.771 179.495C623.771 180.245 623.563 181.37 623.146 182.87C622.113 186.637 621.138 188.52 620.221 188.52C619.854 188.52 619.671 188.27 619.671 187.77C619.671 187.27 619.871 186.428 620.271 185.245C621.154 182.662 621.596 180.92 621.596 180.02C621.596 179.72 621.521 179.47 621.371 179.27C621.221 179.07 621.038 178.97 620.821 178.97C620.604 178.97 620.338 179.087 620.021 179.32C619.704 179.553 619.321 179.962 618.871 180.545C618.304 181.295 617.713 182.137 617.096 183.07C616.496 184.003 616.129 184.57 615.996 184.77C615.879 184.953 615.663 185.295 615.346 185.795C615.046 186.295 614.821 186.67 614.671 186.92C614.521 187.153 614.338 187.412 614.121 187.695C613.738 188.245 613.446 188.52 613.246 188.52C613.046 188.52 612.779 188.337 612.446 187.97C612.113 187.587 611.946 187.27 611.946 187.02C611.946 186.753 612.038 186.262 612.221 185.545C613.054 182.345 613.579 180.153 613.796 178.97C614.663 174.637 615.096 171.678 615.096 170.095ZM628.749 172.57C628.749 172.237 628.883 171.92 629.149 171.62C629.416 171.32 629.683 171.17 629.949 171.17C630.233 171.17 630.566 171.512 630.949 172.195C631.333 172.862 631.524 173.42 631.524 173.87C631.524 174.037 631.449 174.187 631.299 174.32C631.149 174.453 630.991 174.52 630.824 174.52C630.424 174.52 629.974 174.278 629.474 173.795C628.991 173.312 628.749 172.903 628.749 172.57ZM628.624 176.12C628.941 176.12 629.241 176.312 629.524 176.695C629.808 177.078 629.949 177.453 629.949 177.82C629.949 178.187 629.708 179.287 629.224 181.12C628.741 182.937 628.133 184.978 627.399 187.245C627.116 188.078 626.758 188.495 626.324 188.495C626.091 188.495 625.891 188.403 625.724 188.22C625.558 188.02 625.474 187.803 625.474 187.57C625.474 187.32 625.533 186.937 625.649 186.42C625.783 185.887 625.966 185.187 626.199 184.32C626.449 183.437 626.641 182.72 626.774 182.17C626.924 181.62 627.074 181.003 627.224 180.32C627.374 179.62 627.491 179.062 627.574 178.645C627.674 178.212 627.783 177.778 627.899 177.345C628.133 176.528 628.374 176.12 628.624 176.12ZM639.681 176.045C640.398 176.045 641.015 176.503 641.531 177.42C642.065 178.337 642.331 179.287 642.331 180.27C642.331 181.237 642.048 182.212 641.481 183.195C640.915 184.162 640.215 185.028 639.381 185.795C638.548 186.562 637.623 187.203 636.606 187.72C635.606 188.22 634.681 188.47 633.831 188.47C633.498 188.47 633.181 188.428 632.881 188.345C632.815 188.628 632.698 189.137 632.531 189.87C632.365 190.603 632.223 191.212 632.106 191.695C631.99 192.178 631.856 192.695 631.706 193.245C631.406 194.378 631.14 194.945 630.906 194.945C630.673 194.945 630.431 194.762 630.181 194.395C629.915 194.045 629.781 193.728 629.781 193.445C629.781 193.162 630.048 191.945 630.581 189.795C632.181 183.312 632.981 178.945 632.981 176.695C632.981 176.195 633.165 175.945 633.531 175.945C633.831 175.945 634.19 176.17 634.606 176.62C635.04 177.053 635.256 177.537 635.256 178.07C635.256 178.337 635.223 178.628 635.156 178.945C636.64 177.012 638.148 176.045 639.681 176.045ZM633.581 186.52C634.465 186.52 635.415 186.22 636.431 185.62C637.465 185.02 638.34 184.228 639.056 183.245C639.79 182.245 640.156 181.253 640.156 180.27C640.156 178.887 639.831 178.195 639.181 178.195C638.531 178.195 637.648 178.753 636.531 179.87C635.431 180.987 634.556 182.437 633.906 184.22L633.331 186.52H633.581Z" fill="black"/>
</svg>
