<svg width="750" height="583" viewBox="0 0 750 583" fill="none" xmlns="http://www.w3.org/2000/svg">
<path d="M740.796 128.895L13.7959 135.895L29.7959 491.895C28.4626 507.895 32.1959 543.095 57.7959 555.895C83.3959 568.695 92.4626 569.895 93.7959 568.895C267.463 575.228 623.996 585.495 660.796 575.895C697.596 566.295 717.463 533.895 722.796 518.895L740.796 128.895Z" fill="#E9E8E4" stroke="#EAE9E4" stroke-width="5"/>
<rect x="47.7959" y="202.895" width="655" height="3" fill="black"/>
<rect x="53.7959" y="345.895" width="643" height="3" fill="black"/>
<rect x="59.7959" y="476.895" width="632" height="3" fill="black"/>
<rect x="212.796" y="205.895" width="4" height="140" fill="black"/>
<rect x="520.796" y="205.895" width="4" height="140" fill="black"/>
<path d="M92.0843 415.895C98.732 415.895 103.228 411.9 104.336 405.178C105.486 398.285 102.141 394.077 95.6425 394.077H88.2064L84.5843 415.895H92.0843ZM89.1013 412.475L91.5942 397.497H95.0566C99.4884 397.497 101.321 399.851 100.49 404.741C99.6482 409.865 96.825 412.475 92.2867 412.475H89.1013ZM113.897 394.077H109.945L106.323 415.895H110.275L113.897 394.077ZM114.555 415.895H118.507L119.839 407.905H123.855L126.817 415.895H131.228L127.936 407.245C130.684 406.211 132.399 404.006 132.889 401.055C133.582 396.868 131.377 394.077 126.359 394.077H118.177L114.555 415.895ZM120.382 404.624L121.586 397.379H125.208C128.149 397.379 129.235 398.722 128.862 401.055C128.49 403.367 126.966 404.624 124.036 404.624H120.382ZM134.184 415.895H148.459L149.013 412.582H138.69L139.67 406.627H149.173L149.727 403.313H140.224L141.204 397.39H151.442L151.996 394.077H137.806L134.184 415.895ZM173.458 401.438C173.575 396.591 170.24 393.779 165.308 393.779C159.715 393.779 154.878 397.795 153.717 404.752C152.545 411.911 156.178 416.193 162.037 416.193C167.119 416.193 170.986 412.816 172.296 408.651H168.323C167.385 411.197 164.956 412.646 162.218 412.646C158.82 412.646 156.806 410.11 157.605 405.22C158.436 400.192 161.536 397.326 165.212 397.326C167.769 397.326 169.516 398.828 169.537 401.438H173.458ZM176.811 397.39H183.554L180.486 415.895H184.407L187.475 397.39H194.218L194.772 394.077H177.365L176.811 397.39ZM214.833 405.242C216.026 398.061 212.319 393.779 206.513 393.779C200.866 393.779 196.019 397.827 194.868 404.762C193.686 411.921 197.383 416.193 203.242 416.193C208.835 416.193 213.672 412.177 214.833 405.242ZM210.944 404.762C210.103 409.833 207.045 412.646 203.37 412.646C199.961 412.646 197.926 410.11 198.767 405.242C199.577 400.171 202.656 397.326 206.353 397.326C209.783 397.326 211.743 399.915 210.944 404.762ZM216.801 415.895H220.753L222.085 407.905H226.101L229.063 415.895H233.474L230.182 407.245C232.93 406.211 234.646 404.006 235.136 401.055C235.828 396.868 233.623 394.077 228.605 394.077H220.423L216.801 415.895ZM222.628 404.624L223.832 397.379H227.454C230.395 397.379 231.481 398.722 231.109 401.055C230.736 403.367 229.212 404.624 226.283 404.624H222.628ZM241.171 402.461C242.417 402.461 243.557 401.428 243.642 400.117C243.717 398.86 242.684 397.816 241.426 397.816C240.137 397.816 239.008 398.839 238.955 400.117C238.891 401.428 239.86 402.461 241.171 402.461ZM239.338 413.274C240.585 413.274 241.725 412.241 241.81 410.931C241.884 409.673 240.851 408.629 239.594 408.629C238.305 408.629 237.176 409.652 237.122 410.931C237.059 412.241 238.028 413.274 239.338 413.274Z" fill="black"/>
<path d="M92.0843 415.895C98.732 415.895 103.228 411.9 104.336 405.178C105.486 398.285 102.141 394.077 95.6425 394.077H88.2064L84.5843 415.895H92.0843ZM89.1013 412.475L91.5942 397.497H95.0566C99.4884 397.497 101.321 399.851 100.49 404.741C99.6482 409.865 96.825 412.475 92.2867 412.475H89.1013ZM113.897 394.077H109.945L106.323 415.895H110.275L113.897 394.077ZM114.555 415.895H118.507L119.839 407.905H123.855L126.817 415.895H131.228L127.936 407.245C130.684 406.211 132.399 404.006 132.889 401.055C133.582 396.868 131.377 394.077 126.359 394.077H118.177L114.555 415.895ZM120.382 404.624L121.586 397.379H125.208C128.149 397.379 129.235 398.722 128.862 401.055C128.49 403.367 126.966 404.624 124.036 404.624H120.382ZM134.184 415.895H148.459L149.013 412.582H138.69L139.67 406.627H149.173L149.727 403.313H140.224L141.204 397.39H151.442L151.996 394.077H137.806L134.184 415.895ZM173.458 401.438C173.575 396.591 170.24 393.779 165.308 393.779C159.715 393.779 154.878 397.795 153.717 404.752C152.545 411.911 156.178 416.193 162.037 416.193C167.119 416.193 170.986 412.816 172.296 408.651H168.323C167.385 411.197 164.956 412.646 162.218 412.646C158.82 412.646 156.806 410.11 157.605 405.22C158.436 400.192 161.536 397.326 165.212 397.326C167.769 397.326 169.516 398.828 169.537 401.438H173.458ZM176.811 397.39H183.554L180.486 415.895H184.407L187.475 397.39H194.218L194.772 394.077H177.365L176.811 397.39ZM214.833 405.242C216.026 398.061 212.319 393.779 206.513 393.779C200.866 393.779 196.019 397.827 194.868 404.762C193.686 411.921 197.383 416.193 203.242 416.193C208.835 416.193 213.672 412.177 214.833 405.242ZM210.944 404.762C210.103 409.833 207.045 412.646 203.37 412.646C199.961 412.646 197.926 410.11 198.767 405.242C199.577 400.171 202.656 397.326 206.353 397.326C209.783 397.326 211.743 399.915 210.944 404.762ZM216.801 415.895H220.753L222.085 407.905H226.101L229.063 415.895H233.474L230.182 407.245C232.93 406.211 234.646 404.006 235.136 401.055C235.828 396.868 233.623 394.077 228.605 394.077H220.423L216.801 415.895ZM222.628 404.624L223.832 397.379H227.454C230.395 397.379 231.481 398.722 231.109 401.055C230.736 403.367 229.212 404.624 226.283 404.624H222.628ZM241.171 402.461C242.417 402.461 243.557 401.428 243.642 400.117C243.717 398.86 242.684 397.816 241.426 397.816C240.137 397.816 239.008 398.839 238.955 400.117C238.891 401.428 239.86 402.461 241.171 402.461ZM239.338 413.274C240.585 413.274 241.725 412.241 241.81 410.931C241.884 409.673 240.851 408.629 239.594 408.629C238.305 408.629 237.176 409.652 237.122 410.931C237.059 412.241 238.028 413.274 239.338 413.274Z" fill="black"/>
<path d="M102.635 447.438C102.753 442.591 99.4181 439.779 94.4855 439.779C88.8925 439.779 84.0558 443.795 82.8946 450.752C81.7227 457.911 85.3556 462.193 91.2149 462.193C96.2966 462.193 100.164 458.816 101.474 454.651H97.5004C96.5629 457.197 94.134 458.646 91.396 458.646C87.9976 458.646 85.9841 456.11 86.7831 451.22C87.6141 446.192 90.7142 443.326 94.3896 443.326C96.9465 443.326 98.6936 444.828 98.7149 447.438H102.635ZM106.417 461.895L109.123 456.515H117.326L118.232 461.895H122.451L118.381 440.077H113.502L102.199 461.895H106.417ZM110.711 453.34L115.132 444.551H115.302L116.783 453.34H110.711ZM128.947 440.077L125.324 461.895H129.117L131.631 446.874H131.834L135.371 461.831H138.194L146.717 446.906H146.908L144.415 461.895H148.208L151.83 440.077H146.994L137.906 455.887H137.65L133.783 440.077H128.947ZM152.512 461.895H166.788L167.342 458.582H157.018L157.998 452.627H167.501L168.055 449.313H158.552L159.533 443.39H169.771L170.324 440.077H156.134L152.512 461.895ZM170.735 461.895H174.687L176.019 453.905H180.035L182.997 461.895H187.407L184.115 453.245C186.864 452.211 188.579 450.006 189.069 447.055C189.762 442.868 187.556 440.077 182.539 440.077H174.357L170.735 461.895ZM176.562 450.624L177.766 443.379H181.388C184.328 443.379 185.415 444.722 185.042 447.055C184.669 449.367 183.146 450.624 180.216 450.624H176.562ZM193.165 461.895L195.871 456.515H204.074L204.98 461.895H209.199L205.129 440.077H200.25L188.947 461.895H193.165ZM197.459 453.34L201.88 444.551H202.05L203.531 453.34H197.459ZM216.813 448.461C218.06 448.461 219.2 447.428 219.285 446.117C219.359 444.86 218.326 443.816 217.069 443.816C215.78 443.816 214.651 444.839 214.597 446.117C214.533 447.428 215.503 448.461 216.813 448.461ZM214.981 459.274C216.227 459.274 217.367 458.241 217.453 456.931C217.527 455.673 216.494 454.629 215.237 454.629C213.948 454.629 212.818 455.652 212.765 456.931C212.701 458.241 213.671 459.274 214.981 459.274Z" fill="black"/>
<path d="M88.0843 515.895C94.732 515.895 99.2277 511.9 100.336 505.178C101.486 498.285 98.1411 494.077 91.6425 494.077H84.2064L80.5843 515.895H88.0843ZM85.1013 512.475L87.5942 497.497H91.0566C95.4884 497.497 97.3208 499.851 96.4898 504.741C95.6482 509.865 92.825 512.475 88.2867 512.475H85.1013ZM103.953 515.895L106.658 510.515H114.862L115.767 515.895H119.986L115.916 494.077H111.037L99.7338 515.895H103.953ZM108.246 507.34L112.667 498.551H112.837L114.318 507.34H108.246ZM122.332 497.39H129.076L126.008 515.895H129.928L132.996 497.39H139.74L140.294 494.077H122.886L122.332 497.39ZM140.028 515.895H154.303L154.857 512.582H144.534L145.514 506.627H155.017L155.571 503.313H146.068L147.048 497.39H157.286L157.84 494.077H143.65L140.028 515.895ZM162.991 502.461C164.237 502.461 165.377 501.428 165.463 500.117C165.537 498.86 164.504 497.816 163.247 497.816C161.958 497.816 160.828 498.839 160.775 500.117C160.711 501.428 161.681 502.461 162.991 502.461ZM161.159 513.274C162.405 513.274 163.545 512.241 163.63 510.931C163.705 509.673 162.671 508.629 161.414 508.629C160.125 508.629 158.996 509.652 158.943 510.931C158.879 512.241 159.848 513.274 161.159 513.274Z" fill="black"/>
<path d="M351.084 516.895C357.732 516.895 362.228 512.9 363.336 506.178C364.486 499.285 361.141 495.077 354.642 495.077H347.206L343.584 516.895H351.084ZM348.101 513.475L350.594 498.497H354.057C358.488 498.497 360.321 500.851 359.49 505.741C358.648 510.865 355.825 513.475 351.287 513.475H348.101ZM369.818 517.225C372.386 517.225 374.133 516.022 375.049 514.647H375.177L374.793 516.895H378.501L380.323 505.943C381.047 501.618 377.734 500.318 374.623 500.318C371.182 500.318 368.252 501.852 366.931 504.835L370.426 505.347C371.001 504.218 372.311 503.269 374.186 503.269C375.976 503.269 376.743 504.196 376.487 505.794V505.858C376.296 506.945 375.113 507.019 372.183 507.328C368.955 507.669 365.77 508.617 365.152 512.303C364.619 515.51 366.707 517.225 369.818 517.225ZM371.278 514.392C369.669 514.392 368.657 513.646 368.891 512.24C369.115 510.748 370.532 510.141 372.301 509.896C373.313 509.757 375.39 509.502 375.955 509.097L375.635 511.025C375.337 512.847 373.59 514.392 371.278 514.392ZM383.188 523.031C386.161 523.031 388.163 521.519 389.559 518.855L399.136 500.531H394.886L389.037 512.911H388.867L387.162 500.531H383.22L386.352 517.183L385.862 518.067C384.808 519.921 383.732 520.112 382.144 519.622L380.738 522.627C381.228 522.84 382.134 523.031 383.188 523.031ZM400.681 517.129C401.928 517.129 403.068 516.096 403.153 514.786C403.227 513.529 402.194 512.485 400.937 512.485C399.648 512.485 398.519 513.507 398.465 514.786C398.401 516.096 399.371 517.129 400.681 517.129ZM428.505 495.077H424.574L422.113 509.949H421.911L414.112 495.077H410.576L406.953 516.895H410.906L413.388 502.034H413.559L421.367 516.895H424.883L428.505 495.077ZM429.019 516.895H432.876L435.603 500.531H431.747L429.019 516.895ZM434.239 498.188C435.465 498.188 436.551 497.25 436.636 496.1C436.732 494.938 435.816 494.001 434.591 494.001C433.355 494.001 432.279 494.938 432.173 496.1C432.077 497.25 433.014 498.188 434.239 498.188ZM442.935 523.372C447.335 523.372 450.936 521.359 451.618 517.161L454.366 500.531H450.563L450.116 503.237H449.913C449.519 502.055 448.582 500.318 445.695 500.318C441.913 500.318 438.45 503.28 437.566 508.66C436.671 513.997 439.196 516.661 442.978 516.661C445.78 516.661 447.346 515.159 448.113 513.955H448.305L447.815 517.055C447.431 519.463 445.62 520.453 443.436 520.453C441.082 520.453 440.304 519.367 439.984 518.397L436.362 519.239C436.714 521.529 438.748 523.372 442.935 523.372ZM444.512 513.635C441.955 513.635 440.996 511.654 441.486 508.639C441.976 505.666 443.596 503.482 446.174 503.482C448.646 503.482 449.732 505.539 449.231 508.639C448.72 511.76 446.962 513.635 444.512 513.635ZM461.046 507.307C461.462 504.942 463.155 503.578 465.222 503.578C467.225 503.578 468.205 504.867 467.854 507.073L466.213 516.895H470.08L471.827 506.476C472.467 502.513 470.592 500.318 467.214 500.318C464.679 500.318 462.878 501.448 461.845 503.312H461.643L463.006 495.077H459.224L455.602 516.895H459.469L461.046 507.307ZM484.888 500.531H481.65L482.3 496.611H478.443L477.793 500.531H475.481L474.991 503.514H477.303L475.801 512.612C475.268 515.681 477.229 517.193 480.158 517.119C481.245 517.087 482.044 516.874 482.513 516.735L482.342 513.72C482.108 513.763 481.66 513.87 481.192 513.87C480.222 513.87 479.498 513.529 479.743 511.973L481.149 503.514H484.388L484.888 500.531Z" fill="black"/>
<path d="M345.584 549.895H349.537L351.071 540.627H360.137L360.691 537.313H351.625L352.605 531.39H362.63L363.184 528.077H349.206L345.584 549.895ZM362.992 549.895H366.848L369.576 533.531H365.719L362.992 549.895ZM368.212 531.188C369.437 531.188 370.524 530.25 370.609 529.1C370.705 527.938 369.789 527.001 368.564 527.001C367.328 527.001 366.252 527.938 366.145 529.1C366.049 530.25 366.987 531.188 368.212 531.188ZM378.293 528.077H374.436L370.814 549.895H374.671L378.293 528.077ZM389.535 533.531H386.296L386.946 529.611H383.09L382.44 533.531H380.128L379.638 536.514H381.95L380.448 545.612C379.915 548.681 381.875 550.193 384.805 550.119C385.891 550.087 386.69 549.874 387.159 549.735L386.989 546.72C386.754 546.763 386.307 546.87 385.838 546.87C384.869 546.87 384.144 546.529 384.389 544.973L385.796 536.514H389.034L389.535 533.531ZM397.059 550.215C400.883 550.215 403.792 548.35 404.964 545.506L401.437 545.101C400.67 546.497 399.307 547.21 397.613 547.21C395.013 547.21 393.682 545.889 394.161 542.821L394.172 542.768H405.582L405.763 541.585C406.722 535.854 403.696 533.318 399.669 533.318C394.992 533.318 391.349 536.759 390.518 541.809C389.655 546.933 392.137 550.215 397.059 550.215ZM394.63 540.169C395.067 538.208 397.016 536.323 399.232 536.323C401.459 536.323 402.663 537.942 402.29 540.169H394.63ZM407.67 549.895H411.526L413.114 540.275C413.476 538.198 415.276 536.727 417.386 536.727C418.057 536.727 418.834 536.834 419.165 536.951L419.761 533.404C419.388 533.329 418.824 533.297 418.387 533.297C416.512 533.297 414.744 534.362 413.849 536.259H413.678L414.136 533.531H410.397L407.67 549.895Z" fill="black"/>
<path d="M95.5843 239.895H99.5367L100.868 231.905H104.885L107.846 239.895H112.257L108.965 231.245C111.714 230.211 113.429 228.006 113.919 225.055C114.611 220.868 112.406 218.077 107.388 218.077H99.2064L95.5843 239.895ZM101.412 228.624L102.616 221.379H106.238C109.178 221.379 110.265 222.722 109.892 225.055C109.519 227.367 107.995 228.624 105.066 228.624H101.412ZM136.477 229.242C137.671 222.061 133.963 217.779 128.157 217.779C122.511 217.779 117.663 221.827 116.513 228.762C115.33 235.921 119.027 240.193 124.886 240.193C130.479 240.193 135.316 236.177 136.477 229.242ZM132.589 228.762C131.747 233.833 128.69 236.646 125.014 236.646C121.605 236.646 119.57 234.11 120.412 229.242C121.222 224.171 124.301 221.326 127.997 221.326C131.428 221.326 133.388 223.915 132.589 228.762ZM138.446 239.895H152.007L152.561 236.582H142.952L146.02 218.077H142.068L138.446 239.895ZM155.438 239.895H169L169.554 236.582H159.944L163.012 218.077H159.06L155.438 239.895Z" fill="black"/>
<path d="M58.5843 191.895H62.5367L63.7618 184.523H67.9273C72.9877 184.523 76.1837 181.497 76.8762 177.3C77.5686 173.124 75.406 170.077 70.3882 170.077H62.2064L58.5843 191.895ZM64.3051 181.274L65.6155 173.379H69.2377C72.1993 173.379 73.222 174.967 72.8492 177.3C72.4763 179.612 70.8889 181.274 67.9379 181.274H64.3051ZM77.8616 191.895H81.814L83.1457 183.905H87.162L90.1237 191.895H94.5342L91.2423 183.245C93.9909 182.211 95.7061 180.006 96.1961 177.055C96.8886 172.868 94.6833 170.077 89.6656 170.077H81.4838L77.8616 191.895ZM83.689 180.624L84.8928 173.379H88.515C91.4553 173.379 92.542 174.722 92.1691 177.055C91.7963 179.367 90.2728 180.624 87.3431 180.624H83.689ZM118.755 181.242C119.948 174.061 116.241 169.779 110.434 169.779C104.788 169.779 99.9408 173.827 98.7902 180.762C97.6077 187.921 101.304 192.193 107.164 192.193C112.757 192.193 117.593 188.177 118.755 181.242ZM114.866 180.762C114.025 185.833 110.967 188.646 107.292 188.646C103.883 188.646 101.848 186.11 102.689 181.242C103.499 176.171 106.578 173.326 110.275 173.326C113.705 173.326 115.665 175.915 114.866 180.762ZM128.223 191.895C134.871 191.895 139.366 187.9 140.474 181.178C141.625 174.285 138.28 170.077 131.781 170.077H124.345L120.723 191.895H128.223ZM125.24 188.475L127.733 173.497H131.195C135.627 173.497 137.459 175.851 136.628 180.741C135.787 185.865 132.964 188.475 128.425 188.475H125.24ZM143.513 192.129C144.76 192.129 145.9 191.096 145.985 189.786C146.059 188.529 145.026 187.485 143.769 187.485C142.48 187.485 141.351 188.507 141.297 189.786C141.233 191.096 142.203 192.129 143.513 192.129Z" fill="black"/>
<path d="M321.041 224.181H324.844C325.366 220.389 322.692 217.779 318.047 217.779C313.456 217.779 309.62 220.346 308.971 224.213C308.459 227.345 310.377 229.135 313.807 230.073L316.172 230.712C318.441 231.308 319.901 232.044 319.603 233.737C319.304 235.602 317.323 236.848 314.745 236.848C312.284 236.848 310.526 235.74 310.76 233.45H306.872C306.307 237.786 309.141 240.225 314.223 240.225C319.454 240.225 322.905 237.615 323.555 233.769C324.184 229.987 321.339 228.251 318.207 227.484L316.247 226.972C314.521 226.546 312.699 225.779 313.03 223.968C313.307 222.317 314.968 221.124 317.44 221.124C319.794 221.124 321.094 222.21 321.041 224.181ZM347.118 225.438C347.235 220.591 343.9 217.779 338.968 217.779C333.375 217.779 328.538 221.795 327.377 228.752C326.205 235.911 329.838 240.193 335.697 240.193C340.779 240.193 344.646 236.816 345.957 232.651H341.983C341.045 235.197 338.616 236.646 335.878 236.646C332.48 236.646 330.467 234.11 331.266 229.22C332.097 224.192 335.197 221.326 338.872 221.326C341.429 221.326 343.176 222.828 343.197 225.438H347.118ZM348.362 239.895H362.637L363.191 236.582H352.868L353.848 230.627H363.351L363.905 227.313H354.402L355.382 221.39H365.62L366.174 218.077H351.984L348.362 239.895ZM388.136 218.077H384.205L381.744 232.949H381.542L373.743 218.077H370.206L366.584 239.895H370.537L373.019 225.034H373.189L380.998 239.895H384.514L388.136 218.077ZM388.821 239.895H403.096L403.65 236.582H393.327L394.307 230.627H403.81L404.364 227.313H394.861L395.841 221.39H406.079L406.633 218.077H392.443L388.821 239.895Z" fill="black"/>
<path d="M576.694 221.39H583.437L580.369 239.895H584.29L587.358 221.39H594.101L594.655 218.077H577.248L576.694 221.39ZM594.554 239.895L597.26 234.515H605.463L606.369 239.895H610.587L606.518 218.077H601.639L590.335 239.895H594.554ZM598.847 231.34L603.269 222.551H603.439L604.92 231.34H598.847ZM613.461 239.895H617.414L618.5 233.418L621.419 230.541L626.341 239.895H631.093L624.594 227.867L634.64 218.077H629.814L619.651 228.102H619.384L621.036 218.077H617.083L613.461 239.895ZM633.764 239.895H648.04L648.593 236.582H638.27L639.25 230.627H648.753L649.307 227.313H639.804L640.785 221.39H651.022L651.576 218.077H637.386L633.764 239.895Z" fill="black"/>
<path d="M515.159 496.077H511.206L507.584 517.895H511.537L515.159 496.077ZM521.101 508.307C521.516 505.942 523.168 504.578 525.192 504.578C527.205 504.578 528.164 505.899 527.802 508.073L526.172 517.895H530.028L531.775 507.476C532.425 503.545 530.54 501.318 527.195 501.318C524.744 501.318 522.837 502.48 521.815 504.312H521.612L522.081 501.531H518.384L515.657 517.895H519.524L521.101 508.307ZM544.826 501.531H541.587L542.237 497.611H538.381L537.731 501.531H535.419L534.929 504.514H537.241L535.739 513.612C535.206 516.681 537.166 518.193 540.096 518.119C541.182 518.087 541.981 517.874 542.45 517.735L542.28 514.72C542.045 514.763 541.598 514.87 541.129 514.87C540.16 514.87 539.435 514.529 539.68 512.973L541.087 504.514H544.325L544.826 501.531Z" fill="black"/>
<path d="M566.584 517.895H580.86L581.414 514.582H571.091L572.071 508.627H581.574L582.128 505.313H572.625L573.605 499.39H583.843L584.397 496.077H570.206L566.584 517.895ZM590.517 501.531H586.426L589.921 509.713L583.571 517.895H587.662L592.073 512.004L594.555 517.895H598.614L594.96 509.713L601.256 501.531H597.176L592.818 507.572L590.517 501.531ZM612.41 501.531H609.171L609.821 497.611H605.965L605.315 501.531H603.003L602.513 504.514H604.825L603.323 513.612C602.79 516.681 604.75 518.193 607.68 518.119C608.766 518.087 609.565 517.874 610.034 517.735L609.864 514.72C609.629 514.763 609.182 514.87 608.713 514.87C607.744 514.87 607.019 514.529 607.264 512.973L608.671 504.514H611.909L612.41 501.531Z" fill="black"/>
<path d="M631.206 496.077L627.584 517.895H631.377L633.891 502.874H634.093L637.63 517.831H640.454L648.976 502.906H649.168L646.675 517.895H650.468L654.09 496.077H649.253L640.166 511.887H639.91L636.043 496.077H631.206ZM661.803 518.215C666.533 518.215 670.091 514.891 670.922 509.884C671.753 504.749 669.239 501.318 664.402 501.318C659.662 501.318 656.103 504.653 655.283 509.681C654.452 514.784 656.956 518.215 661.803 518.215ZM662.112 515.125C659.523 515.125 658.671 512.813 659.15 509.862C659.64 506.816 661.409 504.376 664.093 504.376C666.672 504.376 667.535 506.72 667.055 509.66C666.565 512.718 664.797 515.125 662.112 515.125ZM687.779 505.857C687.704 503.076 685.744 501.318 681.845 501.318C677.967 501.318 675.027 503.183 674.526 506.155C674.11 508.595 675.389 510.214 678.425 510.885L681.11 511.471C682.58 511.801 683.112 512.334 682.963 513.208C682.793 514.379 681.344 515.317 679.437 515.306C677.754 515.296 676.763 514.55 676.678 513.069L672.885 513.431C672.875 516.425 675.144 518.215 679.224 518.215C683.251 518.215 686.426 516.159 686.937 513.133C687.331 510.725 686.01 509.255 683.027 508.584L680.321 507.987C678.745 507.604 678.223 507.082 678.382 506.208C678.553 505.036 679.991 504.195 681.664 504.195C683.389 504.195 684.114 505.143 684.231 506.24L687.779 505.857Z" fill="black"/>
<path d="M631.041 536.181H634.844C635.366 532.389 632.692 529.779 628.047 529.779C623.456 529.779 619.62 532.346 618.971 536.213C618.459 539.345 620.377 541.135 623.807 542.073L626.172 542.712C628.441 543.308 629.901 544.044 629.603 545.737C629.304 547.602 627.323 548.848 624.745 548.848C622.284 548.848 620.526 547.74 620.76 545.45H616.872C616.307 549.786 619.141 552.225 624.223 552.225C629.454 552.225 632.905 549.615 633.555 545.769C634.184 541.987 631.339 540.251 628.207 539.484L626.247 538.972C624.521 538.546 622.699 537.779 623.03 535.968C623.307 534.317 624.968 533.124 627.44 533.124C629.794 533.124 631.094 534.21 631.041 536.181ZM637.292 558.031C640.264 558.031 642.267 556.519 643.663 553.855L653.24 535.531H648.989L643.141 547.911H642.97L641.266 535.531H637.324L640.456 552.183L639.966 553.067C638.911 554.921 637.835 555.112 636.248 554.622L634.842 557.627C635.332 557.84 636.237 558.031 637.292 558.031ZM658.665 542.307C659.081 539.942 660.732 538.578 662.756 538.578C664.77 538.578 665.728 539.899 665.366 542.073L663.736 551.895H667.593L669.34 541.476C669.99 537.545 668.104 535.318 664.759 535.318C662.309 535.318 660.402 536.48 659.379 538.312H659.177L659.645 535.531H655.949L653.221 551.895H657.089L658.665 542.307ZM678.587 552.215C682.699 552.215 685.693 549.786 686.588 546.302H682.902C682.263 548.06 680.835 549.072 679.141 549.072C676.733 549.072 675.508 547.058 676.062 543.713C676.584 540.411 678.513 538.429 680.91 538.429C682.753 538.429 683.701 539.622 683.733 541.199H687.429C687.738 537.651 685.363 535.318 681.378 535.318C676.574 535.318 672.951 538.781 672.152 543.777C671.321 548.731 673.687 552.215 678.587 552.215Z" fill="black"/>
<path d="M212.119 70.094L167.739 5.01167L233.239 5.13304L277.619 70.2154L212.119 70.094Z" fill="#40895C" stroke="#3E875A"/>
<path d="M612.126 66.8352L567.746 1.75285L633.246 1.87422L677.626 66.9566L612.126 66.8352Z" fill="#656661" stroke="#656661"/>
<path d="M679.126 66.9593L634.746 1.877L700.246 1.99837L744.626 67.0807L679.126 66.9593Z" fill="#544848" stroke="#544848"/>
<path d="M7.25661 41.7175C-3.07419 6.29673 2.73936 4.70593 2.73936 4.70593L168.239 5.01259L212.619 70.0949C212.619 70.0949 123.618 71.1598 63.6362 67.3285C49.7245 65.4248 37.2753 61.8458 27.6798 58.382C17.1099 54.5665 9.01803 47.7569 7.25661 41.7175Z" fill="#2A2C27" stroke="#2A2C27"/>
<path d="M411.122 68.4627L366.742 3.3804L432.242 3.50177L476.622 68.5841L411.122 68.4627Z" fill="#C95D5B" stroke="#C95D5B"/>
<path d="M345.122 68.3405L300.742 3.25812L366.242 3.37948L410.622 68.4618L345.122 68.3405Z" fill="#398DC1" stroke="#398DC1"/>
<path d="M478.124 67.5869L433.744 2.50455L499.244 2.62591L543.624 67.7083L478.124 67.5869Z" fill="#F0ECE9" stroke="#F0ECE9"/>
<path d="M278.12 69.2163L233.741 4.13396L299.241 4.25532L343.62 69.3377L278.12 69.2163Z" fill="#ECE16E" stroke="#ECE16E"/>
<path d="M545.125 66.7111L500.746 1.62871L566.246 1.75008L610.625 66.8324L545.125 66.7111Z" fill="#8A8B87" stroke="#8A8B87"/>
<path d="M745.129 65.5816L701.247 1.50023C705.414 1.50795 716.148 0.82784 729.746 2.05304C742.717 3.22176 747.604 13.2626 748.595 19.6841C748.688 20.2857 748.688 20.8935 748.639 21.5004L745.129 65.5816Z" fill="#3E403D" stroke="#3E403D"/>
<path d="M212.303 72.1909L168.003 137.327L233.502 137.126L277.803 71.9902L212.303 72.1909Z" fill="#40895C" stroke="#3E875A"/>
<path d="M612.313 74.9648L568.013 140.101L633.513 139.9L677.813 74.764L612.313 74.9648Z" fill="#656661" stroke="#656661"/>
<path d="M679.313 74.7594L635.013 139.896L700.512 139.695L744.813 74.5587L679.313 74.7594Z" fill="#544848" stroke="#544848"/>
<path d="M9.30413 72.8224L11.0034 137.833L168.503 137.325L212.803 72.1894L9.30413 72.8224Z" fill="#2A2C27" stroke="#2A2C27"/>
<path d="M411.308 73.5809L367.008 138.717L432.508 138.516L476.808 73.3801L411.308 73.5809Z" fill="#C95D5B" stroke="#C95D5B"/>
<path d="M345.309 73.7832L301.008 138.919L366.508 138.719L410.808 73.5825L345.309 73.7832Z" fill="#398DC1" stroke="#398DC1"/>
<path d="M478.311 74.3755L434.01 139.512L499.51 139.311L543.811 74.1748L478.311 74.3755Z" fill="#F0ECE9" stroke="#F0ECE9"/>
<path d="M278.306 72.9886L234.005 138.125L299.505 137.924L343.806 72.7878L278.306 72.9886Z" fill="#ECE16E" stroke="#ECE16E"/>
<path d="M545.314 75.1702L501.013 140.306L566.513 140.105L610.814 74.9694L545.314 75.1702Z" fill="#8A8B87" stroke="#8A8B87"/>
<path d="M746.318 74.0571L701.514 140.192L744.796 140.192L746.318 74.0571Z" fill="#3E403D"/>
<path d="M17.6333 14.0119C14.037 15.2229 9.82609 22.5358 8.17016 26.0409L12.9552 119.027L15.4843 128.519L23.4935 131.494L142.493 131.13L148.973 124.61L148.853 85.61L62.1331 13.8755C48.7983 13.4163 21.2296 12.8008 17.6333 14.0119Z" fill="#151712" stroke="#151712"/>
<path d="M39.1111 93.1759L47.3435 100.472L45.1414 111.249L34.7069 114.731L26.4745 107.435L28.6766 96.6575L39.1111 93.1759Z" fill="#979795"/>
<path d="M40.1111 93.1728L48.3435 100.469L46.1414 111.246L35.7069 114.727L27.4745 107.432L29.6766 96.6544L40.1111 93.1728Z" fill="#979795"/>
<path d="M41.1111 93.1697L49.3435 100.465L47.1414 111.243L36.7069 114.724L28.4745 107.429L30.6766 96.6514L41.1111 93.1697Z" fill="#979795"/>
<path d="M42.1111 93.1667L50.3435 100.462L48.1414 111.24L37.7069 114.721L29.4745 107.426L31.6766 96.6483L42.1111 93.1667Z" fill="#979795"/>
<path d="M43.1111 93.1636L51.3435 100.459L49.1414 111.237L38.7069 114.718L30.4745 107.423L32.6766 96.6452L43.1111 93.1636Z" fill="#979795"/>
<path d="M38.1081 92.1789L46.3406 99.4746L44.1385 110.252L33.704 113.734L25.4716 106.438L27.6737 95.6606L38.1081 92.1789Z" fill="#EAE7DF"/>
<circle cx="30.4015" cy="101.473" r="8.5" transform="rotate(-0.175627 30.4015 101.473)" fill="#C4C4C4"/>
<circle cx="34.4044" cy="102.461" r="8.5" transform="rotate(-0.175627 34.4044 102.461)" fill="#8D8C89"/>
<circle cx="34.4044" cy="102.461" r="8.5" transform="rotate(-0.175627 34.4044 102.461)" fill="#8D8C89"/>
<circle cx="34.4044" cy="102.461" r="8.5" transform="rotate(-0.175627 34.4044 102.461)" fill="#8D8C89"/>
<circle cx="34.4044" cy="102.461" r="8.5" transform="rotate(-0.175627 34.4044 102.461)" fill="#19160F"/>
<circle cx="30.4015" cy="101.473" r="8.5" transform="rotate(-0.175627 30.4015 101.473)" fill="#878379"/>
<circle cx="29.8938" cy="98.9747" r="2" transform="rotate(-0.175627 29.8938 98.9747)" fill="#FFFFFC"/>
<circle cx="31.8967" cy="99.9685" r="2" transform="rotate(-0.175627 31.8967 99.9685)" fill="#FFFFFC"/>
<path d="M126.105 90.9092L134.337 98.2049L132.135 108.982L121.701 112.464L113.468 105.168L115.67 94.3908L126.105 90.9092Z" fill="#979795"/>
<path d="M127.105 90.9061L135.337 98.2018L133.135 108.979L122.701 112.461L114.468 105.165L116.67 94.3878L127.105 90.9061Z" fill="#979795"/>
<path d="M128.105 90.9031L136.337 98.1988L134.135 108.976L123.701 112.458L115.468 105.162L117.67 94.3847L128.105 90.9031Z" fill="#979795"/>
<path d="M129.105 90.9L137.337 98.1957L135.135 108.973L124.701 112.455L116.468 105.159L118.67 94.3816L129.105 90.9Z" fill="#979795"/>
<path d="M130.105 90.8969L138.337 98.1926L136.135 108.97L125.701 112.452L117.468 105.156L119.67 94.3786L130.105 90.8969Z" fill="#979795"/>
<path d="M125.102 89.9123L133.334 97.208L131.132 107.985L120.698 111.467L112.465 104.171L114.667 93.3939L125.102 89.9123Z" fill="#EAE7DF"/>
<circle cx="117.395" cy="99.2065" r="8.5" transform="rotate(-0.175627 117.395 99.2065)" fill="#C4C4C4"/>
<circle cx="121.398" cy="100.194" r="8.5" transform="rotate(-0.175627 121.398 100.194)" fill="#8D8C89"/>
<circle cx="121.398" cy="100.194" r="8.5" transform="rotate(-0.175627 121.398 100.194)" fill="#8D8C89"/>
<circle cx="121.398" cy="100.194" r="8.5" transform="rotate(-0.175627 121.398 100.194)" fill="#8D8C89"/>
<circle cx="121.398" cy="100.194" r="8.5" transform="rotate(-0.175627 121.398 100.194)" fill="#19160F"/>
<circle cx="117.395" cy="99.2065" r="8.5" transform="rotate(-0.175627 117.395 99.2065)" fill="#878379"/>
<circle cx="116.887" cy="96.708" r="2" transform="rotate(-0.175627 116.887 96.708)" fill="#FFFFFC"/>
<circle cx="118.89" cy="97.7019" r="2" transform="rotate(-0.175627 118.89 97.7019)" fill="#FFFFFC"/>
<path d="M32.8965 23.1946L41.1289 30.4903L38.9268 41.2676L28.4924 44.7492L20.2599 37.4535L22.462 26.6762L32.8965 23.1946Z" fill="#979795"/>
<path d="M33.8965 23.1915L42.1289 30.4872L39.9268 41.2645L29.4924 44.7462L21.2599 37.4505L23.462 26.6731L33.8965 23.1915Z" fill="#979795"/>
<path d="M34.8965 23.1884L43.1289 30.4841L40.9268 41.2615L30.4924 44.7431L22.2599 37.4474L24.462 26.6701L34.8965 23.1884Z" fill="#979795"/>
<path d="M35.8965 23.1854L44.1289 30.4811L41.9268 41.2584L31.4924 44.74L23.2599 37.4443L25.462 26.667L35.8965 23.1854Z" fill="#979795"/>
<path d="M36.8965 23.1823L45.1289 30.478L42.9268 41.2554L32.4924 44.737L24.2599 37.4413L26.462 26.6639L36.8965 23.1823Z" fill="#979795"/>
<path d="M31.8935 22.1976L40.126 29.4933L37.9239 40.2707L27.4894 43.7523L19.257 36.4566L21.4591 25.6793L31.8935 22.1976Z" fill="#EAE7DF"/>
<circle cx="24.1869" cy="31.4918" r="8.5" transform="rotate(-0.175627 24.1869 31.4918)" fill="#C4C4C4"/>
<circle cx="28.1898" cy="32.4796" r="8.5" transform="rotate(-0.175627 28.1898 32.4796)" fill="#8D8C89"/>
<circle cx="28.1898" cy="32.4796" r="8.5" transform="rotate(-0.175627 28.1898 32.4796)" fill="#8D8C89"/>
<circle cx="28.1898" cy="32.4796" r="8.5" transform="rotate(-0.175627 28.1898 32.4796)" fill="#8D8C89"/>
<circle cx="28.1898" cy="32.4796" r="8.5" transform="rotate(-0.175627 28.1898 32.4796)" fill="#19160F"/>
<circle cx="24.1869" cy="31.4918" r="8.5" transform="rotate(-0.175627 24.1869 31.4918)" fill="#878379"/>
<circle cx="23.6792" cy="28.9934" r="2" transform="rotate(-0.175627 23.6792 28.9934)" fill="#FFFFFC"/>
<circle cx="25.6821" cy="29.9872" r="2" transform="rotate(-0.175627 25.6821 29.9872)" fill="#FFFFFC"/>
<path d="M269.546 397.945C269.979 397.945 270.421 398.22 270.871 398.77C271.338 399.32 271.571 399.778 271.571 400.145C271.571 400.495 271.504 400.67 271.371 400.67C271.254 400.67 271.021 400.612 270.671 400.495C270.321 400.362 270.004 400.295 269.721 400.295C269.071 400.295 268.279 400.628 267.346 401.295C266.429 401.962 265.554 402.787 264.721 403.77C263.904 404.753 263.204 405.878 262.621 407.145C262.038 408.395 261.746 409.478 261.746 410.395C261.746 411.312 261.979 411.987 262.446 412.42C262.929 412.837 263.554 413.045 264.321 413.045C265.088 413.045 265.879 412.937 266.696 412.72C267.513 412.487 268.179 412.228 268.696 411.945C270.029 411.228 270.763 410.87 270.896 410.87C271.179 410.87 271.321 411.062 271.321 411.445C271.321 411.812 270.938 412.312 270.171 412.945C269.404 413.562 268.454 414.12 267.321 414.62C266.188 415.12 265.171 415.37 264.271 415.37C263.104 415.37 262.004 414.87 260.971 413.87C259.938 412.853 259.421 411.737 259.421 410.52C259.421 408.953 259.929 407.187 260.946 405.22C261.979 403.237 263.296 401.528 264.896 400.095C266.513 398.662 268.063 397.945 269.546 397.945ZM277.687 408.07H277.637C277.603 408.237 277.437 408.903 277.137 410.07C276.853 411.237 276.67 412.003 276.587 412.37C276.503 412.72 276.428 413.003 276.362 413.22C276.312 413.437 276.253 413.687 276.187 413.97C276.12 414.237 276.053 414.453 275.987 414.62C275.937 414.77 275.887 414.92 275.837 415.07C275.737 415.353 275.637 415.495 275.537 415.495C275.32 415.495 275.037 415.262 274.687 414.795C274.337 414.312 274.162 413.92 274.162 413.62C274.162 413.32 274.637 411.237 275.587 407.37C276.553 403.503 277.053 400.928 277.087 399.645C277.087 399.395 277.145 399.195 277.262 399.045C277.428 398.695 277.92 398.445 278.737 398.295C279.57 398.145 280.778 398.07 282.362 398.07C283.962 398.07 285.212 398.153 286.112 398.32C287.028 398.487 287.487 398.72 287.487 399.02C287.487 399.22 287.345 399.362 287.062 399.445C286.778 399.528 286.528 399.595 286.312 399.645C286.095 399.678 285.812 399.72 285.462 399.77C285.112 399.803 284.787 399.837 284.487 399.87C284.187 399.887 283.795 399.92 283.312 399.97C282.845 400.02 282.412 400.07 282.012 400.12C281.612 400.153 281.07 400.212 280.387 400.295C279.703 400.378 279.262 400.428 279.062 400.445C279.078 400.495 279.087 400.57 279.087 400.67C279.087 401.453 278.762 403.253 278.112 406.07C279.145 406.12 280.253 406.095 281.437 405.995C282.637 405.895 283.37 405.845 283.637 405.845C284.27 405.845 284.587 405.978 284.587 406.245C284.587 406.762 283.862 407.195 282.412 407.545C280.978 407.895 279.403 408.07 277.687 408.07ZM290.473 398.695C290.473 398.412 290.506 398.22 290.573 398.12C290.656 398.003 290.798 397.945 290.998 397.945C291.214 397.945 291.581 398.17 292.098 398.62C292.614 399.07 292.889 399.47 292.923 399.82C292.989 400.42 293.306 401.487 293.873 403.02C294.439 404.537 295.089 406.078 295.823 407.645C296.756 406.545 297.931 405.087 299.348 403.27C300.764 401.437 301.814 400.137 302.498 399.37C303.181 398.603 303.673 398.22 303.973 398.22C304.273 398.22 304.589 398.387 304.923 398.72C305.256 399.053 305.423 399.37 305.423 399.67C305.423 399.97 305.389 400.312 305.323 400.695C305.256 401.078 305.139 401.587 304.973 402.22C304.823 402.837 304.681 403.378 304.548 403.845C304.431 404.295 304.231 405.003 303.948 405.97C303.664 406.937 303.448 407.712 303.298 408.295C303.148 408.862 302.973 409.562 302.773 410.395C302.573 411.212 302.406 411.887 302.273 412.42C302.156 412.937 302.031 413.445 301.898 413.945C301.648 414.912 301.406 415.395 301.173 415.395C300.956 415.395 300.739 415.195 300.523 414.795C300.306 414.395 300.198 413.862 300.198 413.195C300.198 412.512 300.481 410.962 301.048 408.545C301.631 406.128 302.256 404.012 302.923 402.195C299.856 406.028 297.964 408.32 297.248 409.07C296.548 409.82 295.964 410.195 295.498 410.195C295.048 410.195 294.623 409.937 294.223 409.42C293.623 408.553 292.814 406.503 291.798 403.27C291.514 405.02 291.198 406.52 290.848 407.77C290.514 409.003 290.289 409.828 290.173 410.245C290.073 410.645 289.981 410.978 289.898 411.245C289.831 411.512 289.748 411.828 289.648 412.195C289.548 412.545 289.456 412.837 289.373 413.07C289.306 413.303 289.231 413.562 289.148 413.845C289.064 414.112 288.989 414.328 288.923 414.495C288.873 414.662 288.814 414.82 288.748 414.97C288.614 415.253 288.514 415.395 288.448 415.395C288.248 415.395 287.998 415.178 287.698 414.745C287.398 414.312 287.248 413.895 287.248 413.495C287.248 413.095 287.781 410.795 288.848 406.595C289.931 402.395 290.473 399.762 290.473 398.695Z" fill="black"/>
<path d="M265.546 441.945C265.979 441.945 266.421 442.22 266.871 442.77C267.338 443.32 267.571 443.778 267.571 444.145C267.571 444.495 267.504 444.67 267.371 444.67C267.254 444.67 267.021 444.612 266.671 444.495C266.321 444.362 266.004 444.295 265.721 444.295C265.071 444.295 264.279 444.628 263.346 445.295C262.429 445.962 261.554 446.787 260.721 447.77C259.904 448.753 259.204 449.878 258.621 451.145C258.038 452.395 257.746 453.478 257.746 454.395C257.746 455.312 257.979 455.987 258.446 456.42C258.929 456.837 259.554 457.045 260.321 457.045C261.088 457.045 261.879 456.937 262.696 456.72C263.513 456.487 264.179 456.228 264.696 455.945C266.029 455.228 266.763 454.87 266.896 454.87C267.179 454.87 267.321 455.062 267.321 455.445C267.321 455.812 266.938 456.312 266.171 456.945C265.404 457.562 264.454 458.12 263.321 458.62C262.188 459.12 261.171 459.37 260.271 459.37C259.104 459.37 258.004 458.87 256.971 457.87C255.938 456.853 255.421 455.737 255.421 454.52C255.421 452.953 255.929 451.187 256.946 449.22C257.979 447.237 259.296 445.528 260.896 444.095C262.513 442.662 264.063 441.945 265.546 441.945ZM273.687 452.07H273.637C273.603 452.237 273.437 452.903 273.137 454.07C272.853 455.237 272.67 456.003 272.587 456.37C272.503 456.72 272.428 457.003 272.362 457.22C272.312 457.437 272.253 457.687 272.187 457.97C272.12 458.237 272.053 458.453 271.987 458.62C271.937 458.77 271.887 458.92 271.837 459.07C271.737 459.353 271.637 459.495 271.537 459.495C271.32 459.495 271.037 459.262 270.687 458.795C270.337 458.312 270.162 457.92 270.162 457.62C270.162 457.32 270.637 455.237 271.587 451.37C272.553 447.503 273.053 444.928 273.087 443.645C273.087 443.395 273.145 443.195 273.262 443.045C273.428 442.695 273.92 442.445 274.737 442.295C275.57 442.145 276.778 442.07 278.362 442.07C279.962 442.07 281.212 442.153 282.112 442.32C283.028 442.487 283.487 442.72 283.487 443.02C283.487 443.22 283.345 443.362 283.062 443.445C282.778 443.528 282.528 443.595 282.312 443.645C282.095 443.678 281.812 443.72 281.462 443.77C281.112 443.803 280.787 443.837 280.487 443.87C280.187 443.887 279.795 443.92 279.312 443.97C278.845 444.02 278.412 444.07 278.012 444.12C277.612 444.153 277.07 444.212 276.387 444.295C275.703 444.378 275.262 444.428 275.062 444.445C275.078 444.495 275.087 444.57 275.087 444.67C275.087 445.453 274.762 447.253 274.112 450.07C275.145 450.12 276.253 450.095 277.437 449.995C278.637 449.895 279.37 449.845 279.637 449.845C280.27 449.845 280.587 449.978 280.587 450.245C280.587 450.762 279.862 451.195 278.412 451.545C276.978 451.895 275.403 452.07 273.687 452.07ZM286.473 442.695C286.473 442.412 286.506 442.22 286.573 442.12C286.656 442.003 286.798 441.945 286.998 441.945C287.214 441.945 287.581 442.17 288.098 442.62C288.614 443.07 288.889 443.47 288.923 443.82C288.989 444.42 289.306 445.487 289.873 447.02C290.439 448.537 291.089 450.078 291.823 451.645C292.756 450.545 293.931 449.087 295.348 447.27C296.764 445.437 297.814 444.137 298.498 443.37C299.181 442.603 299.673 442.22 299.973 442.22C300.273 442.22 300.589 442.387 300.923 442.72C301.256 443.053 301.423 443.37 301.423 443.67C301.423 443.97 301.389 444.312 301.323 444.695C301.256 445.078 301.139 445.587 300.973 446.22C300.823 446.837 300.681 447.378 300.548 447.845C300.431 448.295 300.231 449.003 299.948 449.97C299.664 450.937 299.448 451.712 299.298 452.295C299.148 452.862 298.973 453.562 298.773 454.395C298.573 455.212 298.406 455.887 298.273 456.42C298.156 456.937 298.031 457.445 297.898 457.945C297.648 458.912 297.406 459.395 297.173 459.395C296.956 459.395 296.739 459.195 296.523 458.795C296.306 458.395 296.198 457.862 296.198 457.195C296.198 456.512 296.481 454.962 297.048 452.545C297.631 450.128 298.256 448.012 298.923 446.195C295.856 450.028 293.964 452.32 293.248 453.07C292.548 453.82 291.964 454.195 291.498 454.195C291.048 454.195 290.623 453.937 290.223 453.42C289.623 452.553 288.814 450.503 287.798 447.27C287.514 449.02 287.198 450.52 286.848 451.77C286.514 453.003 286.289 453.828 286.173 454.245C286.073 454.645 285.981 454.978 285.898 455.245C285.831 455.512 285.748 455.828 285.648 456.195C285.548 456.545 285.456 456.837 285.373 457.07C285.306 457.303 285.231 457.562 285.148 457.845C285.064 458.112 284.989 458.328 284.923 458.495C284.873 458.662 284.814 458.82 284.748 458.97C284.614 459.253 284.514 459.395 284.448 459.395C284.248 459.395 283.998 459.178 283.698 458.745C283.398 458.312 283.248 457.895 283.248 457.495C283.248 457.095 283.781 454.795 284.848 450.595C285.931 446.395 286.473 443.762 286.473 442.695Z" fill="black"/>
<path d="M190.571 513.02C191.871 512.82 193.004 512.653 193.971 512.52C194.954 512.387 195.671 512.32 196.121 512.32C196.588 512.32 196.938 512.362 197.171 512.445C197.421 512.512 197.546 512.662 197.546 512.895C197.546 513.362 196.288 513.895 193.771 514.495C191.271 515.078 189.438 515.37 188.271 515.37C187.754 515.37 187.213 515.145 186.646 514.695C186.096 514.228 185.821 513.745 185.821 513.245C185.821 512.845 186.621 512.045 188.221 510.845C189.721 509.745 191.196 508.462 192.646 506.995C193.329 506.295 193.896 505.528 194.346 504.695C194.813 503.845 195.046 503.07 195.046 502.37C195.046 501.653 194.888 501.095 194.571 500.695C194.254 500.295 193.821 500.095 193.271 500.095C192.721 500.095 192.204 500.262 191.721 500.595C191.238 500.928 190.846 501.262 190.546 501.595C190.246 501.912 190.054 502.07 189.971 502.07C189.688 502.07 189.354 501.945 188.971 501.695C188.588 501.445 188.396 501.195 188.396 500.945C188.396 500.328 188.904 499.645 189.921 498.895C190.954 498.145 192.054 497.77 193.221 497.77C194.388 497.77 195.354 498.187 196.121 499.02C196.904 499.837 197.296 500.853 197.296 502.07C197.296 505.67 194.213 509.445 188.046 513.395C188.446 513.345 189.288 513.22 190.571 513.02ZM208.847 503.695C208.847 501.078 208.464 499.77 207.697 499.77C207.347 499.77 206.897 500.12 206.347 500.82C205.814 501.503 205.289 502.362 204.772 503.395C204.272 504.428 203.839 505.612 203.472 506.945C203.122 508.262 202.947 509.478 202.947 510.595C202.947 512.512 203.456 513.47 204.472 513.47C204.956 513.47 205.539 512.937 206.222 511.87C206.922 510.803 207.531 509.487 208.047 507.92C208.581 506.353 208.847 504.945 208.847 503.695ZM210.122 508.795C209.489 510.645 208.639 512.22 207.572 513.52C206.506 514.803 205.456 515.445 204.422 515.445C203.406 515.445 202.514 514.978 201.747 514.045C200.997 513.095 200.622 512.037 200.622 510.87C200.622 508.853 200.989 506.812 201.722 504.745C202.472 502.678 203.406 500.995 204.522 499.695C205.656 498.378 206.747 497.72 207.797 497.72C208.847 497.72 209.656 498.22 210.222 499.22C210.806 500.203 211.097 501.587 211.097 503.37C211.097 505.137 210.772 506.945 210.122 508.795ZM218.597 499.62C218.597 501.403 218.172 503.97 217.322 507.32C217.139 507.987 216.931 508.812 216.697 509.795C216.464 510.778 216.272 511.57 216.122 512.17C215.972 512.753 215.806 513.345 215.622 513.945C215.289 515.128 214.964 515.72 214.647 515.72C214.414 515.72 214.164 515.553 213.897 515.22C213.647 514.887 213.522 514.545 213.522 514.195C213.522 513.828 213.697 512.962 214.047 511.595C214.414 510.228 214.822 508.362 215.272 505.995C215.722 503.628 216.031 501.137 216.197 498.52C216.247 498.003 216.439 497.745 216.772 497.745C217.139 497.745 217.531 497.978 217.947 498.445C218.381 498.912 218.597 499.303 218.597 499.62ZM230.784 497.67C232.084 497.67 233.067 497.937 233.734 498.47C234.4 499.003 234.734 499.72 234.734 500.62C234.734 501.503 234.3 502.437 233.434 503.42C232.567 504.387 231.359 505.487 229.809 506.72C231.359 508.187 232.134 509.437 232.134 510.47C232.134 511.287 231.767 512.087 231.034 512.87C230.317 513.637 229.442 514.245 228.409 514.695C227.392 515.128 226.467 515.345 225.634 515.345C224.8 515.345 223.975 515.045 223.159 514.445C222.359 513.828 221.959 513.137 221.959 512.37C221.959 511.603 222.367 510.753 223.184 509.82C224 508.87 225.134 507.803 226.584 506.62C224.167 504.753 222.75 503.512 222.334 502.895C222.1 502.562 221.984 502.253 221.984 501.97C221.984 501.67 222.025 501.378 222.109 501.095C222.209 500.795 222.334 500.645 222.484 500.645C222.634 500.645 222.842 500.787 223.109 501.07C223.375 501.337 223.617 501.578 223.834 501.795C224.067 502.012 224.434 502.328 224.934 502.745C225.45 503.162 226.034 503.62 226.684 504.12C227.334 504.62 227.834 505.02 228.184 505.32C229.167 504.537 229.909 503.928 230.409 503.495C230.909 503.062 231.384 502.57 231.834 502.02C232.3 501.47 232.534 501.012 232.534 500.645C232.534 500.012 232.109 499.695 231.259 499.695C230.425 499.695 229.467 499.903 228.384 500.32C227.3 500.72 226.642 500.92 226.409 500.92C226.175 500.92 225.875 500.795 225.509 500.545C225.159 500.295 224.984 500.053 224.984 499.82C224.984 499.32 225.625 498.837 226.909 498.37C228.192 497.903 229.484 497.67 230.784 497.67ZM229.884 510.145C229.884 509.678 229.334 508.953 228.234 507.97C227.334 508.687 226.642 509.253 226.159 509.67C225.675 510.07 225.225 510.52 224.809 511.02C224.392 511.52 224.184 511.928 224.184 512.245C224.184 512.545 224.325 512.82 224.609 513.07C224.909 513.32 225.234 513.445 225.584 513.445C226.5 513.445 227.442 513.112 228.409 512.445C229.392 511.762 229.884 510.995 229.884 510.145Z" fill="black"/>
<path d="M594.571 269.62C594.571 271.403 594.146 273.97 593.296 277.32C593.113 277.987 592.904 278.812 592.671 279.795C592.438 280.778 592.246 281.57 592.096 282.17C591.946 282.753 591.779 283.345 591.596 283.945C591.263 285.128 590.938 285.72 590.621 285.72C590.388 285.72 590.138 285.553 589.871 285.22C589.621 284.887 589.496 284.545 589.496 284.195C589.496 283.828 589.671 282.962 590.021 281.595C590.388 280.228 590.796 278.362 591.246 275.995C591.696 273.628 592.004 271.137 592.171 268.52C592.221 268.003 592.413 267.745 592.746 267.745C593.113 267.745 593.504 267.978 593.921 268.445C594.354 268.912 594.571 269.303 594.571 269.62Z" fill="black"/>
<path d="M124.571 269.62C124.571 271.403 124.146 273.97 123.296 277.32C123.113 277.987 122.904 278.812 122.671 279.795C122.438 280.778 122.246 281.57 122.096 282.17C121.946 282.753 121.779 283.345 121.596 283.945C121.263 285.128 120.938 285.72 120.621 285.72C120.388 285.72 120.138 285.553 119.871 285.22C119.621 284.887 119.496 284.545 119.496 284.195C119.496 283.828 119.671 282.962 120.021 281.595C120.388 280.228 120.796 278.362 121.246 275.995C121.696 273.628 122.004 271.137 122.171 268.52C122.221 268.003 122.413 267.745 122.746 267.745C123.113 267.745 123.504 267.978 123.921 268.445C124.354 268.912 124.571 269.303 124.571 269.62Z" fill="black"/>
<path d="M364.571 269.62C364.571 271.403 364.146 273.97 363.296 277.32C363.113 277.987 362.904 278.812 362.671 279.795C362.438 280.778 362.246 281.57 362.096 282.17C361.946 282.753 361.779 283.345 361.596 283.945C361.263 285.128 360.938 285.72 360.621 285.72C360.388 285.72 360.138 285.553 359.871 285.22C359.621 284.887 359.496 284.545 359.496 284.195C359.496 283.828 359.671 282.962 360.021 281.595C360.388 280.228 360.796 278.362 361.246 275.995C361.696 273.628 362.004 271.137 362.171 268.52C362.221 268.003 362.413 267.745 362.746 267.745C363.113 267.745 363.504 267.978 363.921 268.445C364.354 268.912 364.571 269.303 364.571 269.62Z" fill="black"/>
<path d="M186.171 182.545C186.171 183.528 185.663 184.487 184.646 185.42C183.629 186.337 182.313 187.078 180.696 187.645C179.079 188.195 177.429 188.47 175.746 188.47C174.763 188.47 173.879 188.195 173.096 187.645C172.329 187.095 171.946 186.587 171.946 186.12C171.946 185.637 172.088 185.395 172.371 185.395C172.438 185.395 172.763 185.578 173.346 185.945C173.946 186.295 174.571 186.478 175.221 186.495C174.988 186.378 174.763 186.162 174.546 185.845C174.346 185.528 174.246 185.228 174.246 184.945C174.246 184.662 174.446 183.87 174.846 182.57C176.079 178.653 176.713 175.645 176.746 173.545H176.546C176.246 173.545 175.938 173.362 175.621 172.995C175.304 172.612 175.146 172.303 175.146 172.07C175.146 171.787 175.496 171.545 176.196 171.345C176.913 171.128 177.771 171.02 178.771 171.02C181.104 171.02 182.904 171.337 184.171 171.97C185.438 172.603 186.071 173.52 186.071 174.72C186.071 175.72 185.646 176.628 184.796 177.445C183.963 178.262 182.738 178.92 181.121 179.42L181.346 179.445C182.746 179.528 183.896 179.87 184.796 180.47C185.713 181.07 186.171 181.762 186.171 182.545ZM183.821 174.845C183.821 174.295 183.538 173.87 182.971 173.57C182.421 173.253 181.746 173.095 180.946 173.095C180.163 173.095 179.204 173.195 178.071 173.395C178.538 173.895 178.771 174.378 178.771 174.845C178.771 175.295 178.479 176.67 177.896 178.97C178.296 178.72 178.921 178.437 179.771 178.12C180.621 177.787 181.288 177.495 181.771 177.245C182.271 176.995 182.629 176.778 182.846 176.595C183.079 176.395 183.296 176.137 183.496 175.82C183.713 175.503 183.821 175.178 183.821 174.845ZM183.996 182.445C183.996 181.945 183.413 181.528 182.246 181.195C181.096 180.845 179.946 180.67 178.796 180.67C178.346 180.67 177.954 180.437 177.621 179.97C176.604 183.987 175.938 186.162 175.621 186.495C176.804 186.462 178.046 186.253 179.346 185.87C180.646 185.47 181.746 184.953 182.646 184.32C183.546 183.687 183.996 183.062 183.996 182.445ZM193.414 171.22C193.414 174.353 192.764 178.42 191.464 183.42C190.631 186.82 190.047 188.52 189.714 188.52C189.481 188.52 189.206 188.337 188.889 187.97C188.589 187.603 188.439 187.32 188.439 187.12C188.439 186.92 188.681 185.887 189.164 184.02C189.647 182.153 190.131 179.862 190.614 177.145C191.097 174.412 191.339 171.953 191.339 169.77C191.339 169.537 191.372 169.37 191.439 169.27C191.506 169.17 191.647 169.12 191.864 169.12C192.081 169.12 192.389 169.362 192.789 169.845C193.206 170.312 193.414 170.77 193.414 171.22ZM197.817 172.57C197.817 172.237 197.95 171.92 198.217 171.62C198.483 171.32 198.75 171.17 199.017 171.17C199.3 171.17 199.633 171.512 200.017 172.195C200.4 172.862 200.592 173.42 200.592 173.87C200.592 174.037 200.517 174.187 200.367 174.32C200.217 174.453 200.058 174.52 199.892 174.52C199.492 174.52 199.042 174.278 198.542 173.795C198.058 173.312 197.817 172.903 197.817 172.57ZM197.692 176.12C198.008 176.12 198.308 176.312 198.592 176.695C198.875 177.078 199.017 177.453 199.017 177.82C199.017 178.187 198.775 179.287 198.292 181.12C197.808 182.937 197.2 184.978 196.467 187.245C196.183 188.078 195.825 188.495 195.392 188.495C195.158 188.495 194.958 188.403 194.792 188.22C194.625 188.02 194.542 187.803 194.542 187.57C194.542 187.32 194.6 186.937 194.717 186.42C194.85 185.887 195.033 185.187 195.267 184.32C195.517 183.437 195.708 182.72 195.842 182.17C195.992 181.62 196.142 181.003 196.292 180.32C196.442 179.62 196.558 179.062 196.642 178.645C196.742 178.212 196.85 177.778 196.967 177.345C197.2 176.528 197.442 176.12 197.692 176.12ZM203.374 186.02C203.374 186.337 203.557 186.495 203.924 186.495C204.557 186.495 205.324 186.32 206.224 185.97C207.14 185.603 207.649 185.42 207.749 185.42C208.049 185.42 208.199 185.578 208.199 185.895C208.199 186.378 207.699 186.937 206.699 187.57C205.715 188.203 204.815 188.52 203.999 188.52C203.199 188.52 202.532 188.303 201.999 187.87C201.465 187.42 201.199 186.962 201.199 186.495C201.199 186.028 201.299 185.437 201.499 184.72C201.699 183.987 201.982 183.028 202.349 181.845C202.732 180.645 203.032 179.653 203.249 178.87C202.465 179.053 201.94 179.145 201.674 179.145C201.407 179.145 201.14 179.012 200.874 178.745C200.624 178.462 200.499 178.195 200.499 177.945C200.499 177.545 201.582 177.162 203.749 176.795C204.049 175.412 204.199 174.187 204.199 173.12C204.199 172.62 204.365 172.37 204.699 172.37C204.982 172.37 205.332 172.553 205.749 172.92C206.165 173.27 206.374 173.67 206.374 174.12C206.374 174.57 206.232 175.362 205.949 176.495C206.899 176.412 207.657 176.37 208.224 176.37C209.224 176.37 209.724 176.587 209.724 177.02C209.724 177.27 209.449 177.478 208.899 177.645C208.365 177.812 207.232 178.07 205.499 178.42C205.149 179.737 204.707 181.245 204.174 182.945C203.64 184.628 203.374 185.653 203.374 186.02ZM210.817 177.12C210.817 176.803 211.183 176.562 211.917 176.395C212.65 176.212 213.65 176.12 214.917 176.12C216.2 176.12 217.25 176.287 218.067 176.62C218.433 176.77 218.767 177.078 219.067 177.545C219.383 177.995 219.542 178.37 219.542 178.67C219.542 179.303 219.15 180.028 218.367 180.845C217.6 181.662 216.758 182.387 215.842 183.02C214.925 183.653 214.075 184.262 213.292 184.845C212.525 185.428 212.142 185.82 212.142 186.02C212.142 186.303 212.358 186.445 212.792 186.445C213.742 186.445 214.908 186.378 216.292 186.245C217.675 186.112 218.5 186.045 218.767 186.045C219.417 186.045 219.742 186.237 219.742 186.62C219.742 187.153 218.908 187.603 217.242 187.97C215.575 188.337 213.967 188.52 212.417 188.52C211.7 188.52 211.042 188.253 210.442 187.72C209.842 187.17 209.542 186.67 209.542 186.22C209.542 185.77 209.958 185.17 210.792 184.42C211.642 183.653 212.567 182.928 213.567 182.245C216.25 180.378 217.592 179.212 217.592 178.745C217.592 178.428 216.742 178.27 215.042 178.27C214.625 178.27 214.108 178.32 213.492 178.42C212.875 178.503 212.425 178.545 212.142 178.545C211.875 178.545 211.583 178.37 211.267 178.02C210.967 177.67 210.817 177.37 210.817 177.12ZM223.453 188.42C223.253 188.42 222.986 188.22 222.653 187.82C222.336 187.42 222.178 187.053 222.178 186.72C222.178 186.387 222.669 184.062 223.653 179.745C224.653 175.412 225.161 172.728 225.178 171.695C225.178 171.412 225.211 171.22 225.278 171.12C225.361 171.003 225.519 170.945 225.753 170.945C226.003 170.945 226.319 171.203 226.703 171.72C227.103 172.237 227.303 172.795 227.303 173.395C227.303 173.978 226.703 176.712 225.503 181.595C225.386 182.045 225.228 182.695 225.028 183.545C224.828 184.378 224.669 185.02 224.553 185.47C224.436 185.92 224.311 186.412 224.178 186.945C223.894 187.928 223.653 188.42 223.453 188.42ZM238.117 170.92C239.517 170.92 240.742 171.553 241.792 172.82C242.858 174.087 243.392 175.52 243.392 177.12C243.392 178.703 242.975 180.37 242.142 182.12C241.308 183.853 240.242 185.295 238.942 186.445C239.175 187.095 239.467 187.862 239.817 188.745C240.167 189.612 240.425 190.27 240.592 190.72C240.758 191.187 240.842 191.545 240.842 191.795C240.842 192.178 240.633 192.37 240.217 192.37C239.467 192.37 238.483 190.778 237.267 187.595C236.25 188.128 235.208 188.395 234.142 188.395C233.075 188.395 232.058 187.895 231.092 186.895C230.125 185.895 229.642 184.778 229.642 183.545C229.642 181.995 229.917 180.437 230.467 178.87C231.017 177.303 231.7 175.953 232.517 174.82C233.35 173.67 234.267 172.737 235.267 172.02C236.283 171.287 237.233 170.92 238.117 170.92ZM238.167 184.12C239.017 183.12 239.717 182.012 240.267 180.795C240.833 179.562 241.117 178.353 241.117 177.17C241.117 175.987 240.817 174.995 240.217 174.195C239.617 173.395 238.975 172.995 238.292 172.995C238.025 172.995 237.733 173.062 237.417 173.195C237.033 173.728 236.842 174.537 236.842 175.62C236.842 178.337 237.283 181.17 238.167 184.12ZM231.842 183.37C231.842 184.287 232.108 185.037 232.642 185.62C233.192 186.203 233.783 186.495 234.417 186.495C235.05 186.495 235.767 186.203 236.567 185.62C235.383 181.92 234.792 179.037 234.792 176.97C234.792 176.32 234.85 175.753 234.967 175.27C234.067 176.37 233.317 177.653 232.717 179.12C232.133 180.587 231.842 182.003 231.842 183.37ZM266.742 167.02C267.092 167.02 267.392 167.145 267.642 167.395C267.908 167.628 268.042 167.87 268.042 168.12C268.042 168.353 267.8 168.67 267.317 169.07C266.85 169.47 266.267 169.92 265.567 170.42C264.867 170.92 264.1 171.57 263.267 172.37C262.433 173.17 261.667 174.02 260.967 174.92C260.267 175.82 259.675 176.928 259.192 178.245C258.725 179.562 258.492 180.837 258.492 182.07C258.492 183.287 258.658 184.312 258.992 185.145C259.342 185.962 259.767 186.62 260.267 187.12C260.783 187.62 261.342 188.078 261.942 188.495C262.542 188.895 263.1 189.212 263.617 189.445C264.8 190.012 265.392 190.47 265.392 190.82C265.392 191.187 265.15 191.37 264.667 191.37C263.867 191.37 263 191.162 262.067 190.745C261.133 190.345 260.225 189.778 259.342 189.045C258.458 188.312 257.725 187.337 257.142 186.12C256.558 184.887 256.267 183.487 256.267 181.92C256.267 180.337 256.575 178.728 257.192 177.095C257.808 175.445 258.567 174.037 259.467 172.87C260.367 171.687 261.317 170.645 262.317 169.745C263.317 168.828 264.217 168.145 265.017 167.695C265.833 167.245 266.408 167.02 266.742 167.02ZM274.575 179.57C274.875 179.57 275.417 178.862 276.2 177.445C277 176.012 277.809 174.578 278.625 173.145C279.459 171.712 280.05 170.995 280.4 170.995C280.75 170.995 281.034 171.12 281.25 171.37C281.467 171.62 281.575 171.92 281.575 172.27C281.575 172.62 281.259 173.32 280.625 174.37C279.992 175.42 279.142 176.812 278.075 178.545C277.009 180.262 275.942 182.128 274.875 184.145C273.809 186.162 273.075 187.42 272.675 187.92C272.275 188.42 271.95 188.67 271.7 188.67C271.334 188.67 271.15 188.37 271.15 187.77C271.15 187.303 271.384 186.595 271.85 185.645C272 185.362 272.117 185.128 272.2 184.945C272.284 184.745 272.417 184.47 272.6 184.12C272.784 183.77 272.925 183.503 273.025 183.32C273.125 183.12 273.275 182.82 273.475 182.42C273.692 182.003 273.85 181.703 273.95 181.52C272.967 181.27 272.059 180.653 271.225 179.67C270.409 178.67 269.784 177.562 269.35 176.345C268.917 175.112 268.7 173.912 268.7 172.745C268.7 171.578 269.034 170.995 269.7 170.995C269.967 170.995 270.175 171.253 270.325 171.77C270.492 172.287 270.692 173.028 270.925 173.995C271.159 174.962 271.467 175.853 271.85 176.67C272.234 177.47 272.692 178.153 273.225 178.72C273.759 179.287 274.209 179.57 274.575 179.57ZM292.53 170.945C292.964 170.945 293.405 171.22 293.855 171.77C294.322 172.32 294.555 172.778 294.555 173.145C294.555 173.495 294.489 173.67 294.355 173.67C294.239 173.67 294.005 173.612 293.655 173.495C293.305 173.362 292.989 173.295 292.705 173.295C292.055 173.295 291.264 173.628 290.33 174.295C289.414 174.962 288.539 175.787 287.705 176.77C286.889 177.753 286.189 178.878 285.605 180.145C285.022 181.395 284.73 182.478 284.73 183.395C284.73 184.312 284.964 184.987 285.43 185.42C285.914 185.837 286.539 186.045 287.305 186.045C288.072 186.045 288.864 185.937 289.68 185.72C290.497 185.487 291.164 185.228 291.68 184.945C293.014 184.228 293.747 183.87 293.88 183.87C294.164 183.87 294.305 184.062 294.305 184.445C294.305 184.812 293.922 185.312 293.155 185.945C292.389 186.562 291.439 187.12 290.305 187.62C289.172 188.12 288.155 188.37 287.255 188.37C286.089 188.37 284.989 187.87 283.955 186.87C282.922 185.853 282.405 184.737 282.405 183.52C282.405 181.953 282.914 180.187 283.93 178.22C284.964 176.237 286.28 174.528 287.88 173.095C289.497 171.662 291.047 170.945 292.53 170.945ZM318.23 170.92C320.18 170.92 321.655 171.695 322.655 173.245C323.655 174.795 324.155 176.745 324.155 179.095C324.155 181.445 323.572 183.587 322.405 185.52C321.255 187.437 319.922 188.395 318.405 188.395C317.339 188.395 316.555 187.795 316.055 186.595C315.555 185.395 315.23 183.687 315.08 181.47C314.38 182.453 313.58 183.57 312.68 184.82C310.947 187.22 309.73 188.42 309.03 188.42C308.764 188.42 308.455 188.203 308.105 187.77C307.755 187.337 307.58 186.795 307.58 186.145C307.58 185.478 307.805 183.42 308.255 179.97C308.705 176.503 308.93 173.803 308.93 171.87C308.93 171.253 309.114 170.945 309.48 170.945C309.847 170.945 310.272 171.162 310.755 171.595C311.255 172.028 311.505 172.428 311.505 172.795C311.505 173.145 311.222 174.903 310.655 178.07C310.105 181.237 309.764 183.72 309.63 185.52C310.647 183.803 311.789 182.22 313.055 180.77C314.339 179.303 315.255 178.57 315.805 178.57C316.372 178.57 316.764 179.82 316.98 182.32C317.064 183.253 317.222 184.112 317.455 184.895C317.705 185.678 318.039 186.07 318.455 186.07C319.389 186.07 320.197 185.32 320.88 183.82C321.58 182.303 321.93 180.628 321.93 178.795C321.93 176.762 321.48 175.195 320.58 174.095C320.114 173.512 319.597 173.22 319.03 173.22C318.48 173.22 318.005 173.028 317.605 172.645C317.222 172.262 317.03 171.928 317.03 171.645C317.03 171.162 317.43 170.92 318.23 170.92ZM332.111 172.62C332.111 174.403 331.686 176.97 330.836 180.32C330.653 180.987 330.444 181.812 330.211 182.795C329.978 183.778 329.786 184.57 329.636 185.17C329.486 185.753 329.319 186.345 329.136 186.945C328.803 188.128 328.478 188.72 328.161 188.72C327.928 188.72 327.678 188.553 327.411 188.22C327.161 187.887 327.036 187.545 327.036 187.195C327.036 186.828 327.211 185.962 327.561 184.595C327.928 183.228 328.336 181.362 328.786 178.995C329.236 176.628 329.544 174.137 329.711 171.52C329.761 171.003 329.953 170.745 330.286 170.745C330.653 170.745 331.044 170.978 331.461 171.445C331.894 171.912 332.111 172.303 332.111 172.62ZM344.947 176.17C344.947 176.503 344.731 177.22 344.297 178.32C343.881 179.42 343.539 180.362 343.272 181.145C343.022 181.928 342.739 183.037 342.422 184.47C342.122 185.887 341.872 186.962 341.672 187.695C341.489 188.412 341.289 188.77 341.072 188.77C340.506 188.77 340.222 188.103 340.222 186.77C340.222 185.437 340.672 183.312 341.572 180.395C340.356 181.328 339.289 181.795 338.372 181.795C337.456 181.795 336.647 181.437 335.947 180.72C335.264 180.003 334.922 179.178 334.922 178.245C334.922 177.312 335.247 176.253 335.897 175.07C336.547 173.87 337.389 172.853 338.422 172.02C339.472 171.17 340.464 170.745 341.397 170.745C342.331 170.745 343.047 171.062 343.547 171.695C344.047 172.312 344.297 172.945 344.297 173.595C344.297 174.245 344.239 174.753 344.122 175.12C344.672 175.22 344.947 175.57 344.947 176.17ZM342.147 175.795L342.372 174.12C342.372 173.753 342.281 173.453 342.097 173.22C341.931 172.97 341.689 172.845 341.372 172.845C340.489 172.845 339.522 173.545 338.472 174.945C337.422 176.345 336.897 177.537 336.897 178.52C336.897 178.937 337.039 179.27 337.322 179.52C337.622 179.77 337.922 179.895 338.222 179.895C338.539 179.895 338.797 179.87 338.997 179.82C339.197 179.77 339.397 179.695 339.597 179.595C339.797 179.478 339.972 179.37 340.122 179.27C340.289 179.17 340.464 179.02 340.647 178.82C340.847 178.62 341.006 178.462 341.122 178.345C341.239 178.228 341.389 178.045 341.572 177.795C341.772 177.545 341.914 177.37 341.997 177.27C342.314 176.837 342.556 176.495 342.722 176.245C342.339 176.195 342.147 176.045 342.147 175.795ZM356.054 174.62C356.054 176.22 355.821 177.795 355.354 179.345C354.904 180.878 354.321 182.228 353.604 183.395C352.888 184.545 352.096 185.62 351.229 186.62C350.379 187.603 349.546 188.412 348.729 189.045C346.996 190.395 345.813 191.07 345.179 191.07C344.796 191.07 344.604 190.928 344.604 190.645C344.604 190.345 345.388 189.512 346.954 188.145C348.504 186.812 349.971 185.128 351.354 183.095C352.038 182.095 352.604 180.928 353.054 179.595C353.504 178.245 353.729 176.978 353.729 175.795C353.729 174.595 353.588 173.62 353.304 172.87C353.038 172.12 352.704 171.537 352.304 171.12C351.921 170.703 351.529 170.345 351.129 170.045C350.729 169.745 350.388 169.47 350.104 169.22C349.838 168.953 349.704 168.695 349.704 168.445C349.704 167.728 350.171 167.37 351.104 167.37C352.221 167.37 353.321 168.087 354.404 169.52C355.504 170.953 356.054 172.653 356.054 174.62ZM378.586 180.695C378.586 180.962 378.311 181.178 377.761 181.345C377.228 181.512 375.919 181.803 373.836 182.22C371.769 182.637 370.636 182.845 370.436 182.845C370.253 182.845 370.028 182.703 369.761 182.42C369.494 182.137 369.361 181.878 369.361 181.645C369.361 181.278 370.303 180.928 372.186 180.595C374.069 180.245 375.703 180.07 377.086 180.07C378.086 180.07 378.586 180.278 378.586 180.695ZM394.47 181.07H394.42C394.387 181.237 394.22 181.903 393.92 183.07C393.637 184.237 393.453 185.003 393.37 185.37C393.287 185.72 393.212 186.003 393.145 186.22C393.095 186.437 393.037 186.687 392.97 186.97C392.903 187.237 392.837 187.453 392.77 187.62C392.72 187.77 392.67 187.92 392.62 188.07C392.52 188.353 392.42 188.495 392.32 188.495C392.103 188.495 391.82 188.262 391.47 187.795C391.12 187.312 390.945 186.92 390.945 186.62C390.945 186.32 391.42 184.237 392.37 180.37C393.337 176.503 393.837 173.928 393.87 172.645C393.87 172.395 393.928 172.195 394.045 172.045C394.212 171.695 394.703 171.445 395.52 171.295C396.353 171.145 397.562 171.07 399.145 171.07C400.745 171.07 401.995 171.153 402.895 171.32C403.812 171.487 404.27 171.72 404.27 172.02C404.27 172.22 404.128 172.362 403.845 172.445C403.562 172.528 403.312 172.595 403.095 172.645C402.878 172.678 402.595 172.72 402.245 172.77C401.895 172.803 401.57 172.837 401.27 172.87C400.97 172.887 400.578 172.92 400.095 172.97C399.628 173.02 399.195 173.07 398.795 173.12C398.395 173.153 397.853 173.212 397.17 173.295C396.487 173.378 396.045 173.428 395.845 173.445C395.862 173.495 395.87 173.57 395.87 173.67C395.87 174.453 395.545 176.253 394.895 179.07C395.928 179.12 397.037 179.095 398.22 178.995C399.42 178.895 400.153 178.845 400.42 178.845C401.053 178.845 401.37 178.978 401.37 179.245C401.37 179.762 400.645 180.195 399.195 180.545C397.762 180.895 396.187 181.07 394.47 181.07ZM412.256 176.82C412.323 176.553 412.389 176.37 412.456 176.27C412.523 176.17 412.664 176.12 412.881 176.12C413.114 176.12 413.389 176.337 413.706 176.77C414.039 177.203 414.206 177.62 414.206 178.02C414.206 178.237 413.839 179.52 413.106 181.87C412.373 184.22 411.806 186.087 411.406 187.47C411.206 188.17 410.923 188.52 410.556 188.52C410.339 188.52 410.156 188.428 410.006 188.245C409.856 188.062 409.781 187.728 409.781 187.245C409.781 186.762 409.973 185.887 410.356 184.62C409.656 185.753 408.898 186.687 408.081 187.42C407.264 188.153 406.514 188.52 405.831 188.52C405.164 188.52 404.531 188.203 403.931 187.57C403.331 186.937 403.031 186.287 403.031 185.62C403.031 184.037 403.489 182.062 404.406 179.695C405.339 177.312 406.114 176.12 406.731 176.12C407.031 176.12 407.289 176.262 407.506 176.545C407.739 176.812 407.856 177.12 407.856 177.47C407.856 177.62 407.631 178.162 407.181 179.095C406.731 180.012 406.281 181.095 405.831 182.345C405.381 183.578 405.156 184.662 405.156 185.595C405.156 185.862 405.239 186.087 405.406 186.27C405.573 186.437 405.773 186.52 406.006 186.52C406.639 186.52 407.389 185.962 408.256 184.845C409.139 183.728 409.939 182.428 410.656 180.945C411.373 179.462 411.906 178.087 412.256 176.82ZM420.367 171.22C420.367 174.353 419.717 178.42 418.417 183.42C417.584 186.82 417 188.52 416.667 188.52C416.434 188.52 416.159 188.337 415.842 187.97C415.542 187.603 415.392 187.32 415.392 187.12C415.392 186.92 415.634 185.887 416.117 184.02C416.6 182.153 417.084 179.862 417.567 177.145C418.05 174.412 418.292 171.953 418.292 169.77C418.292 169.537 418.325 169.37 418.392 169.27C418.459 169.17 418.6 169.12 418.817 169.12C419.034 169.12 419.342 169.362 419.742 169.845C420.159 170.312 420.367 170.77 420.367 171.22ZM426.495 171.22C426.495 174.353 425.845 178.42 424.545 183.42C423.712 186.82 423.128 188.52 422.795 188.52C422.562 188.52 422.287 188.337 421.97 187.97C421.67 187.603 421.52 187.32 421.52 187.12C421.52 186.92 421.762 185.887 422.245 184.02C422.728 182.153 423.212 179.862 423.695 177.145C424.178 174.412 424.42 171.953 424.42 169.77C424.42 169.537 424.453 169.37 424.52 169.27C424.587 169.17 424.728 169.12 424.945 169.12C425.162 169.12 425.47 169.362 425.87 169.845C426.287 170.312 426.495 170.77 426.495 171.22ZM448.657 183.545C448.657 184.912 448.04 186.062 446.807 186.995C445.574 187.912 444.157 188.37 442.557 188.37C440.974 188.37 439.665 187.962 438.632 187.145C437.599 186.312 437.082 185.528 437.082 184.795C437.082 184.295 437.232 184.045 437.532 184.045C437.799 184.045 438.324 184.445 439.107 185.245C439.407 185.528 439.807 185.795 440.307 186.045C440.824 186.295 441.365 186.42 441.932 186.42C443.099 186.42 444.132 186.12 445.032 185.52C445.949 184.92 446.407 184.27 446.407 183.57C446.407 183.12 446.107 182.545 445.507 181.845C444.907 181.145 444.24 180.487 443.507 179.87C442.79 179.237 442.132 178.562 441.532 177.845C440.932 177.128 440.632 176.562 440.632 176.145C440.632 175.728 440.715 175.287 440.882 174.82C441.049 174.353 441.232 174.012 441.432 173.795C442.082 173.078 443.09 172.42 444.457 171.82C445.84 171.22 446.999 170.92 447.932 170.92C448.415 170.92 448.824 171.078 449.157 171.395C449.49 171.712 449.657 172.045 449.657 172.395C449.657 172.562 449.482 172.695 449.132 172.795C448.782 172.895 448.249 173.028 447.532 173.195C446.832 173.345 446.207 173.528 445.657 173.745C443.74 174.478 442.782 175.187 442.782 175.87C442.782 176.237 443.757 177.262 445.707 178.945C446.457 179.595 447.132 180.353 447.732 181.22C448.349 182.07 448.657 182.845 448.657 183.545ZM453.813 186.02C453.813 186.337 453.997 186.495 454.363 186.495C454.997 186.495 455.763 186.32 456.663 185.97C457.58 185.603 458.088 185.42 458.188 185.42C458.488 185.42 458.638 185.578 458.638 185.895C458.638 186.378 458.138 186.937 457.138 187.57C456.155 188.203 455.255 188.52 454.438 188.52C453.638 188.52 452.972 188.303 452.438 187.87C451.905 187.42 451.638 186.962 451.638 186.495C451.638 186.028 451.738 185.437 451.938 184.72C452.138 183.987 452.422 183.028 452.788 181.845C453.172 180.645 453.472 179.653 453.688 178.87C452.905 179.053 452.38 179.145 452.113 179.145C451.847 179.145 451.58 179.012 451.313 178.745C451.063 178.462 450.938 178.195 450.938 177.945C450.938 177.545 452.022 177.162 454.188 176.795C454.488 175.412 454.638 174.187 454.638 173.12C454.638 172.62 454.805 172.37 455.138 172.37C455.422 172.37 455.772 172.553 456.188 172.92C456.605 173.27 456.813 173.67 456.813 174.12C456.813 174.57 456.672 175.362 456.388 176.495C457.338 176.412 458.097 176.37 458.663 176.37C459.663 176.37 460.163 176.587 460.163 177.02C460.163 177.27 459.888 177.478 459.338 177.645C458.805 177.812 457.672 178.07 455.938 178.42C455.588 179.737 455.147 181.245 454.613 182.945C454.08 184.628 453.813 185.653 453.813 186.02ZM467.331 176.12C468.081 176.12 468.773 176.503 469.406 177.27C470.04 178.02 470.356 178.703 470.356 179.32C470.356 179.92 470.148 180.537 469.731 181.17C469.931 181.42 470.031 181.637 470.031 181.82C470.031 182.287 469.923 183.087 469.706 184.22C469.506 185.353 469.381 186.095 469.331 186.445C469.298 186.795 469.265 187.078 469.231 187.295C469.198 187.495 469.156 187.695 469.106 187.895C469.04 188.312 468.89 188.52 468.656 188.52C468.356 188.52 468.106 188.262 467.906 187.745C467.723 187.212 467.615 186.528 467.581 185.695C466.098 187.578 464.723 188.52 463.456 188.52C462.69 188.52 461.931 188.195 461.181 187.545C460.448 186.878 460.081 186.195 460.081 185.495C460.081 184.495 460.448 183.262 461.181 181.795C461.915 180.312 462.865 178.995 464.031 177.845C465.198 176.695 466.298 176.12 467.331 176.12ZM468.481 180.52C468.481 178.97 468.173 178.195 467.556 178.195C466.906 178.195 466.148 178.662 465.281 179.595C464.415 180.512 463.681 181.553 463.081 182.72C462.481 183.887 462.181 184.812 462.181 185.495C462.181 185.778 462.298 186.012 462.531 186.195C462.765 186.362 463.04 186.445 463.356 186.445C464.14 186.445 465.023 185.92 466.006 184.87C466.99 183.803 467.673 182.512 468.056 180.995C468.106 180.745 468.248 180.595 468.481 180.545V180.52ZM476.425 188.52C475.458 188.52 474.55 188.145 473.7 187.395C472.85 186.628 472.425 185.728 472.425 184.695C472.425 183.645 472.775 182.437 473.475 181.07C474.175 179.703 475.075 178.537 476.175 177.57C477.292 176.603 478.375 176.12 479.425 176.12C480.108 176.12 480.708 176.428 481.225 177.045C481.742 177.662 482 178.203 482 178.67C482 178.803 481.958 178.92 481.875 179.02C481.792 179.103 481.667 179.145 481.5 179.145C481.35 179.145 481.075 178.995 480.675 178.695C480.275 178.395 479.917 178.245 479.6 178.245C478.7 178.245 477.65 179.037 476.45 180.62C475.25 182.203 474.65 183.587 474.65 184.77C474.65 185.287 474.808 185.695 475.125 185.995C475.458 186.295 475.983 186.445 476.7 186.445C477.433 186.445 478.1 186.362 478.7 186.195C479.317 186.012 479.792 185.837 480.125 185.67C480.458 185.487 480.717 185.395 480.9 185.395C481.217 185.395 481.375 185.553 481.375 185.87C481.375 186.353 480.792 186.92 479.625 187.57C478.475 188.203 477.408 188.52 476.425 188.52ZM494.583 177.47C494.583 177.62 493.841 178.403 492.358 179.82C491.808 180.353 491.299 180.987 490.833 181.72C490.383 182.437 490.158 183.095 490.158 183.695C490.158 184.295 490.333 184.853 490.683 185.37C491.049 185.87 491.441 186.253 491.858 186.52C492.291 186.77 492.683 187.02 493.033 187.27C493.399 187.52 493.583 187.728 493.583 187.895C493.583 188.312 493.249 188.52 492.583 188.52C491.933 188.52 491.149 188.153 490.233 187.42C489.333 186.67 488.774 185.837 488.558 184.92C488.474 184.753 488.408 184.595 488.358 184.445C487.224 185.978 486.399 187.045 485.883 187.645C485.383 188.228 485.008 188.52 484.758 188.52C484.508 188.52 484.233 188.328 483.933 187.945C483.633 187.545 483.483 187.22 483.483 186.97C483.483 186.703 483.749 185.628 484.283 183.745C484.833 181.845 485.374 179.57 485.908 176.92C486.458 174.27 486.733 171.903 486.733 169.82C486.733 169.553 486.766 169.37 486.833 169.27C486.916 169.17 487.083 169.12 487.333 169.12C487.583 169.12 487.891 169.37 488.258 169.87C488.624 170.353 488.808 170.828 488.808 171.295C488.808 172.778 488.508 174.853 487.908 177.52C487.308 180.187 486.591 182.72 485.758 185.12C487.641 182.437 489.266 180.27 490.633 178.62C492.016 176.953 492.866 176.12 493.183 176.12C493.516 176.12 493.833 176.278 494.133 176.595C494.433 176.912 494.583 177.203 494.583 177.47ZM509.711 180.57C508.811 183.42 508.361 185.145 508.361 185.745C508.361 185.945 508.419 186.112 508.536 186.245C508.669 186.362 508.836 186.42 509.036 186.42C510.952 186.42 513.069 186.112 515.386 185.495C516.136 185.295 516.569 185.195 516.686 185.195C516.936 185.195 517.061 185.37 517.061 185.72C517.061 186.32 516.136 186.937 514.286 187.57C512.452 188.203 510.677 188.52 508.961 188.52C508.194 188.52 507.519 188.295 506.936 187.845C506.369 187.395 506.086 186.828 506.086 186.145C506.086 185.462 506.327 184.295 506.811 182.645C507.311 180.995 507.811 179.237 508.311 177.37C508.811 175.503 509.061 173.928 509.061 172.645C509.061 172.462 509.094 172.27 509.161 172.07C509.444 171.453 511.261 171.145 514.611 171.145C517.961 171.145 519.636 171.387 519.636 171.87C519.636 172.203 519.277 172.428 518.561 172.545C517.961 172.662 517.161 172.77 516.161 172.87C515.177 172.953 514.486 173.02 514.086 173.07C513.686 173.103 512.719 173.253 511.186 173.52V173.595C511.186 174.728 510.877 176.437 510.261 178.72C510.361 178.737 510.694 178.745 511.261 178.745C511.844 178.745 512.619 178.703 513.586 178.62C514.552 178.537 515.277 178.495 515.761 178.495C516.261 178.495 516.511 178.612 516.511 178.845C516.511 179.428 515.827 179.862 514.461 180.145C513.094 180.428 511.511 180.57 509.711 180.57ZM522.36 184.17C523.96 181.453 525.26 179.437 526.26 178.12C527.276 176.787 528.101 176.12 528.735 176.12C529.385 176.12 529.993 176.462 530.56 177.145C531.143 177.828 531.435 178.553 531.435 179.32C531.435 180.52 531.16 181.987 530.61 183.72C529.61 186.92 528.71 188.52 527.91 188.52C527.543 188.52 527.36 188.27 527.36 187.77C527.36 187.42 527.535 186.712 527.885 185.645C528.251 184.562 528.585 183.503 528.885 182.47C529.201 181.42 529.36 180.637 529.36 180.12C529.36 179.587 529.276 179.195 529.11 178.945C528.96 178.695 528.801 178.57 528.635 178.57C528.485 178.57 528.326 178.62 528.16 178.72C527.993 178.82 527.801 178.987 527.585 179.22C527.385 179.453 527.193 179.687 527.01 179.92C526.826 180.137 526.593 180.453 526.31 180.87C526.043 181.287 525.818 181.645 525.635 181.945C525.451 182.228 525.185 182.645 524.835 183.195C524.485 183.745 524.218 184.162 524.035 184.445C523.851 184.728 523.61 185.112 523.31 185.595C523.01 186.078 522.768 186.453 522.585 186.72C522.418 186.987 522.226 187.278 522.01 187.595C521.593 188.212 521.26 188.52 521.01 188.52C520.776 188.52 520.501 188.337 520.185 187.97C519.868 187.587 519.71 187.253 519.71 186.97C519.71 186.887 519.768 186.662 519.885 186.295C520.201 185.328 520.551 184.137 520.935 182.72C521.318 181.287 521.526 179.662 521.56 177.845C521.61 176.628 521.785 176.02 522.085 176.02C522.451 176.02 522.818 176.212 523.185 176.595C523.551 176.978 523.735 177.403 523.735 177.87C523.735 178.32 523.593 179.203 523.31 180.52C523.043 181.82 522.726 183.037 522.36 184.17ZM543.14 181.77C543.14 182.437 542.848 183.195 542.265 184.045C541.815 185.062 541.332 186.528 540.815 188.445C540.298 190.345 539.865 191.703 539.515 192.52C538.815 194.22 537.74 195.07 536.29 195.07C535.107 195.07 534.107 194.745 533.29 194.095C532.49 193.462 532.09 192.828 532.09 192.195C532.09 191.928 532.173 191.662 532.34 191.395C532.49 191.128 532.648 190.995 532.815 190.995C532.998 190.995 533.198 191.12 533.415 191.37C533.632 191.62 533.832 191.887 534.015 192.17C534.215 192.47 534.507 192.745 534.89 192.995C535.29 193.245 535.673 193.37 536.04 193.37C536.407 193.37 536.682 193.312 536.865 193.195C537.048 193.095 537.223 192.92 537.39 192.67C537.557 192.437 537.698 192.195 537.815 191.945C537.932 191.712 538.057 191.37 538.19 190.92C538.34 190.487 538.457 190.112 538.54 189.795C538.623 189.478 538.74 189.037 538.89 188.47C539.04 187.887 539.165 187.42 539.265 187.07C537.965 188.037 536.907 188.52 536.09 188.52C535.273 188.52 534.565 188.195 533.965 187.545C533.365 186.878 533.065 186.112 533.065 185.245C533.065 184.362 533.39 183.195 534.04 181.745C534.707 180.295 535.598 178.995 536.715 177.845C537.832 176.695 538.923 176.12 539.99 176.12C540.673 176.12 541.248 176.378 541.715 176.895C542.482 177.745 542.865 178.953 542.865 180.52C542.865 180.72 542.857 180.862 542.84 180.945C543.04 181.228 543.14 181.503 543.14 181.77ZM535.09 185.495C535.09 185.778 535.182 186.012 535.365 186.195C535.548 186.362 535.782 186.445 536.065 186.445C536.898 186.445 537.882 185.953 539.015 184.97C540.148 183.97 540.948 182.812 541.415 181.495C541.348 181.278 541.29 180.945 541.24 180.495C541.19 180.045 541.14 179.687 541.09 179.42C541.04 179.153 540.932 178.887 540.765 178.62C540.598 178.337 540.382 178.195 540.115 178.195C539.465 178.195 538.732 178.662 537.915 179.595C537.098 180.528 536.423 181.57 535.89 182.72C535.357 183.87 535.09 184.795 535.09 185.495ZM548.305 172.57C548.305 172.237 548.438 171.92 548.705 171.62C548.972 171.32 549.238 171.17 549.505 171.17C549.788 171.17 550.122 171.512 550.505 172.195C550.888 172.862 551.08 173.42 551.08 173.87C551.08 174.037 551.005 174.187 550.855 174.32C550.705 174.453 550.547 174.52 550.38 174.52C549.98 174.52 549.53 174.278 549.03 173.795C548.547 173.312 548.305 172.903 548.305 172.57ZM548.18 176.12C548.497 176.12 548.797 176.312 549.08 176.695C549.363 177.078 549.505 177.453 549.505 177.82C549.505 178.187 549.263 179.287 548.78 181.12C548.297 182.937 547.688 184.978 546.955 187.245C546.672 188.078 546.313 188.495 545.88 188.495C545.647 188.495 545.447 188.403 545.28 188.22C545.113 188.02 545.03 187.803 545.03 187.57C545.03 187.32 545.088 186.937 545.205 186.42C545.338 185.887 545.522 185.187 545.755 184.32C546.005 183.437 546.197 182.72 546.33 182.17C546.48 181.62 546.63 181.003 546.78 180.32C546.93 179.62 547.047 179.062 547.13 178.645C547.23 178.212 547.338 177.778 547.455 177.345C547.688 176.528 547.93 176.12 548.18 176.12ZM553.512 184.17C555.112 181.453 556.412 179.437 557.412 178.12C558.429 176.787 559.254 176.12 559.887 176.12C560.537 176.12 561.145 176.462 561.712 177.145C562.295 177.828 562.587 178.553 562.587 179.32C562.587 180.52 562.312 181.987 561.762 183.72C560.762 186.92 559.862 188.52 559.062 188.52C558.695 188.52 558.512 188.27 558.512 187.77C558.512 187.42 558.687 186.712 559.037 185.645C559.404 184.562 559.737 183.503 560.037 182.47C560.354 181.42 560.512 180.637 560.512 180.12C560.512 179.587 560.429 179.195 560.262 178.945C560.112 178.695 559.954 178.57 559.787 178.57C559.637 178.57 559.479 178.62 559.312 178.72C559.145 178.82 558.954 178.987 558.737 179.22C558.537 179.453 558.345 179.687 558.162 179.92C557.979 180.137 557.745 180.453 557.462 180.87C557.195 181.287 556.97 181.645 556.787 181.945C556.604 182.228 556.337 182.645 555.987 183.195C555.637 183.745 555.37 184.162 555.187 184.445C555.004 184.728 554.762 185.112 554.462 185.595C554.162 186.078 553.92 186.453 553.737 186.72C553.57 186.987 553.379 187.278 553.162 187.595C552.745 188.212 552.412 188.52 552.162 188.52C551.929 188.52 551.654 188.337 551.337 187.97C551.02 187.587 550.862 187.253 550.862 186.97C550.862 186.887 550.92 186.662 551.037 186.295C551.354 185.328 551.704 184.137 552.087 182.72C552.47 181.287 552.679 179.662 552.712 177.845C552.762 176.628 552.937 176.02 553.237 176.02C553.604 176.02 553.97 176.212 554.337 176.595C554.704 176.978 554.887 177.403 554.887 177.87C554.887 178.32 554.745 179.203 554.462 180.52C554.195 181.82 553.879 183.037 553.512 184.17ZM574.367 180.27C574.367 181.153 573.884 181.878 572.917 182.445C571.967 182.995 570.884 183.27 569.667 183.27C568.467 183.27 567.376 183.137 566.392 182.87C566.159 183.603 566.042 184.262 566.042 184.845C566.042 185.412 566.217 185.853 566.567 186.17C566.934 186.487 567.526 186.645 568.342 186.645C569.176 186.645 570.026 186.503 570.892 186.22C571.776 185.92 572.259 185.77 572.342 185.77C572.776 185.77 572.992 185.937 572.992 186.27C572.992 186.72 572.484 187.212 571.467 187.745C570.451 188.262 569.459 188.52 568.492 188.52C567.192 188.52 566.134 188.137 565.317 187.37C564.501 186.587 564.092 185.603 564.092 184.42C564.092 183.237 564.409 182.003 565.042 180.72C565.676 179.42 566.492 178.328 567.492 177.445C568.492 176.562 569.484 176.12 570.467 176.12C571.451 176.12 572.342 176.587 573.142 177.52C573.959 178.453 574.367 179.37 574.367 180.27ZM570.592 178.095C569.976 178.095 569.334 178.42 568.667 179.07C568.001 179.703 567.434 180.495 566.967 181.445C567.634 181.595 568.392 181.67 569.242 181.67C570.092 181.67 570.834 181.537 571.467 181.27C572.101 180.987 572.417 180.62 572.417 180.17C572.417 179.72 572.209 179.262 571.792 178.795C571.392 178.328 570.992 178.095 570.592 178.095ZM585.622 180.27C585.622 181.153 585.139 181.878 584.172 182.445C583.222 182.995 582.139 183.27 580.922 183.27C579.722 183.27 578.63 183.137 577.647 182.87C577.414 183.603 577.297 184.262 577.297 184.845C577.297 185.412 577.472 185.853 577.822 186.17C578.189 186.487 578.78 186.645 579.597 186.645C580.43 186.645 581.28 186.503 582.147 186.22C583.03 185.92 583.514 185.77 583.597 185.77C584.03 185.77 584.247 185.937 584.247 186.27C584.247 186.72 583.739 187.212 582.722 187.745C581.705 188.262 580.714 188.52 579.747 188.52C578.447 188.52 577.389 188.137 576.572 187.37C575.755 186.587 575.347 185.603 575.347 184.42C575.347 183.237 575.664 182.003 576.297 180.72C576.93 179.42 577.747 178.328 578.747 177.445C579.747 176.562 580.739 176.12 581.722 176.12C582.705 176.12 583.597 176.587 584.397 177.52C585.214 178.453 585.622 179.37 585.622 180.27ZM581.847 178.095C581.23 178.095 580.589 178.42 579.922 179.07C579.255 179.703 578.689 180.495 578.222 181.445C578.889 181.595 579.647 181.67 580.497 181.67C581.347 181.67 582.089 181.537 582.722 181.27C583.355 180.987 583.672 180.62 583.672 180.17C583.672 179.72 583.464 179.262 583.047 178.795C582.647 178.328 582.247 178.095 581.847 178.095ZM588.402 179.17L588.327 177.295C588.327 176.512 588.51 176.12 588.877 176.12C589.194 176.12 589.494 176.328 589.777 176.745C590.077 177.145 590.227 177.628 590.227 178.195C590.227 178.745 590.21 179.162 590.177 179.445C591.627 177.245 593.002 176.145 594.302 176.145C595.119 176.145 595.527 176.345 595.527 176.745C595.527 176.945 595.435 177.128 595.252 177.295C595.069 177.462 594.777 177.653 594.377 177.87C593.494 178.253 592.744 178.845 592.127 179.645C591.527 180.428 591.035 181.32 590.652 182.32C590.269 183.32 589.96 184.162 589.727 184.845C589.51 185.528 589.344 186.062 589.227 186.445C589.11 186.828 588.977 187.203 588.827 187.57C588.56 188.237 588.252 188.57 587.902 188.57C587.619 188.57 587.385 188.412 587.202 188.095C587.035 187.762 586.952 187.445 586.952 187.145C586.952 186.828 587.094 186.212 587.377 185.295C588.06 183.195 588.402 181.153 588.402 179.17Z" fill="black"/>
</svg>
