<svg width="750" height="583" viewBox="0 0 750 583" fill="none" xmlns="http://www.w3.org/2000/svg">
<path d="M740.796 128.895L13.7959 135.895L29.7959 491.895C28.4626 507.895 32.1959 543.095 57.7959 555.895C83.3959 568.695 92.4626 569.895 93.7959 568.895C267.463 575.228 623.996 585.495 660.796 575.895C697.596 566.295 717.463 533.895 722.796 518.895L740.796 128.895Z" fill="#E9E8E4" stroke="#EAE9E4" stroke-width="5"/>
<rect x="47.7959" y="202.895" width="655" height="3" fill="black"/>
<rect x="53.7959" y="345.895" width="643" height="3" fill="black"/>
<rect x="59.7959" y="476.895" width="632" height="3" fill="black"/>
<rect x="212.796" y="205.895" width="4" height="140" fill="black"/>
<rect x="520.796" y="205.895" width="4" height="140" fill="black"/>
<path d="M92.0843 415.895C98.732 415.895 103.228 411.9 104.336 405.178C105.486 398.285 102.141 394.077 95.6425 394.077H88.2064L84.5843 415.895H92.0843ZM89.1013 412.475L91.5942 397.497H95.0566C99.4884 397.497 101.321 399.851 100.49 404.741C99.6482 409.865 96.825 412.475 92.2867 412.475H89.1013ZM113.897 394.077H109.945L106.323 415.895H110.275L113.897 394.077ZM114.555 415.895H118.507L119.839 407.905H123.855L126.817 415.895H131.228L127.936 407.245C130.684 406.211 132.399 404.006 132.889 401.055C133.582 396.868 131.377 394.077 126.359 394.077H118.177L114.555 415.895ZM120.382 404.624L121.586 397.379H125.208C128.149 397.379 129.235 398.722 128.862 401.055C128.49 403.367 126.966 404.624 124.036 404.624H120.382ZM134.184 415.895H148.459L149.013 412.582H138.69L139.67 406.627H149.173L149.727 403.313H140.224L141.204 397.39H151.442L151.996 394.077H137.806L134.184 415.895ZM173.458 401.438C173.575 396.591 170.24 393.779 165.308 393.779C159.715 393.779 154.878 397.795 153.717 404.752C152.545 411.911 156.178 416.193 162.037 416.193C167.119 416.193 170.986 412.816 172.296 408.651H168.323C167.385 411.197 164.956 412.646 162.218 412.646C158.82 412.646 156.806 410.11 157.605 405.22C158.436 400.192 161.536 397.326 165.212 397.326C167.769 397.326 169.516 398.828 169.537 401.438H173.458ZM176.811 397.39H183.554L180.486 415.895H184.407L187.475 397.39H194.218L194.772 394.077H177.365L176.811 397.39ZM214.833 405.242C216.026 398.061 212.319 393.779 206.513 393.779C200.866 393.779 196.019 397.827 194.868 404.762C193.686 411.921 197.383 416.193 203.242 416.193C208.835 416.193 213.672 412.177 214.833 405.242ZM210.944 404.762C210.103 409.833 207.045 412.646 203.37 412.646C199.961 412.646 197.926 410.11 198.767 405.242C199.577 400.171 202.656 397.326 206.353 397.326C209.783 397.326 211.743 399.915 210.944 404.762ZM216.801 415.895H220.753L222.085 407.905H226.101L229.063 415.895H233.474L230.182 407.245C232.93 406.211 234.646 404.006 235.136 401.055C235.828 396.868 233.623 394.077 228.605 394.077H220.423L216.801 415.895ZM222.628 404.624L223.832 397.379H227.454C230.395 397.379 231.481 398.722 231.109 401.055C230.736 403.367 229.212 404.624 226.283 404.624H222.628ZM241.171 402.461C242.417 402.461 243.557 401.428 243.642 400.117C243.717 398.86 242.684 397.816 241.426 397.816C240.137 397.816 239.008 398.839 238.955 400.117C238.891 401.428 239.86 402.461 241.171 402.461ZM239.338 413.274C240.585 413.274 241.725 412.241 241.81 410.931C241.884 409.673 240.851 408.629 239.594 408.629C238.305 408.629 237.176 409.652 237.122 410.931C237.059 412.241 238.028 413.274 239.338 413.274Z" fill="black"/>
<path d="M92.0843 415.895C98.732 415.895 103.228 411.9 104.336 405.178C105.486 398.285 102.141 394.077 95.6425 394.077H88.2064L84.5843 415.895H92.0843ZM89.1013 412.475L91.5942 397.497H95.0566C99.4884 397.497 101.321 399.851 100.49 404.741C99.6482 409.865 96.825 412.475 92.2867 412.475H89.1013ZM113.897 394.077H109.945L106.323 415.895H110.275L113.897 394.077ZM114.555 415.895H118.507L119.839 407.905H123.855L126.817 415.895H131.228L127.936 407.245C130.684 406.211 132.399 404.006 132.889 401.055C133.582 396.868 131.377 394.077 126.359 394.077H118.177L114.555 415.895ZM120.382 404.624L121.586 397.379H125.208C128.149 397.379 129.235 398.722 128.862 401.055C128.49 403.367 126.966 404.624 124.036 404.624H120.382ZM134.184 415.895H148.459L149.013 412.582H138.69L139.67 406.627H149.173L149.727 403.313H140.224L141.204 397.39H151.442L151.996 394.077H137.806L134.184 415.895ZM173.458 401.438C173.575 396.591 170.24 393.779 165.308 393.779C159.715 393.779 154.878 397.795 153.717 404.752C152.545 411.911 156.178 416.193 162.037 416.193C167.119 416.193 170.986 412.816 172.296 408.651H168.323C167.385 411.197 164.956 412.646 162.218 412.646C158.82 412.646 156.806 410.11 157.605 405.22C158.436 400.192 161.536 397.326 165.212 397.326C167.769 397.326 169.516 398.828 169.537 401.438H173.458ZM176.811 397.39H183.554L180.486 415.895H184.407L187.475 397.39H194.218L194.772 394.077H177.365L176.811 397.39ZM214.833 405.242C216.026 398.061 212.319 393.779 206.513 393.779C200.866 393.779 196.019 397.827 194.868 404.762C193.686 411.921 197.383 416.193 203.242 416.193C208.835 416.193 213.672 412.177 214.833 405.242ZM210.944 404.762C210.103 409.833 207.045 412.646 203.37 412.646C199.961 412.646 197.926 410.11 198.767 405.242C199.577 400.171 202.656 397.326 206.353 397.326C209.783 397.326 211.743 399.915 210.944 404.762ZM216.801 415.895H220.753L222.085 407.905H226.101L229.063 415.895H233.474L230.182 407.245C232.93 406.211 234.646 404.006 235.136 401.055C235.828 396.868 233.623 394.077 228.605 394.077H220.423L216.801 415.895ZM222.628 404.624L223.832 397.379H227.454C230.395 397.379 231.481 398.722 231.109 401.055C230.736 403.367 229.212 404.624 226.283 404.624H222.628ZM241.171 402.461C242.417 402.461 243.557 401.428 243.642 400.117C243.717 398.86 242.684 397.816 241.426 397.816C240.137 397.816 239.008 398.839 238.955 400.117C238.891 401.428 239.86 402.461 241.171 402.461ZM239.338 413.274C240.585 413.274 241.725 412.241 241.81 410.931C241.884 409.673 240.851 408.629 239.594 408.629C238.305 408.629 237.176 409.652 237.122 410.931C237.059 412.241 238.028 413.274 239.338 413.274Z" fill="black"/>
<path d="M102.635 447.438C102.753 442.591 99.4181 439.779 94.4855 439.779C88.8925 439.779 84.0558 443.795 82.8946 450.752C81.7227 457.911 85.3556 462.193 91.2149 462.193C96.2966 462.193 100.164 458.816 101.474 454.651H97.5004C96.5629 457.197 94.134 458.646 91.396 458.646C87.9976 458.646 85.9841 456.11 86.7831 451.22C87.6141 446.192 90.7142 443.326 94.3896 443.326C96.9465 443.326 98.6936 444.828 98.7149 447.438H102.635ZM106.417 461.895L109.123 456.515H117.326L118.232 461.895H122.451L118.381 440.077H113.502L102.199 461.895H106.417ZM110.711 453.34L115.132 444.551H115.302L116.783 453.34H110.711ZM128.947 440.077L125.324 461.895H129.117L131.631 446.874H131.834L135.371 461.831H138.194L146.717 446.906H146.908L144.415 461.895H148.208L151.83 440.077H146.994L137.906 455.887H137.65L133.783 440.077H128.947ZM152.512 461.895H166.788L167.342 458.582H157.018L157.998 452.627H167.501L168.055 449.313H158.552L159.533 443.39H169.771L170.324 440.077H156.134L152.512 461.895ZM170.735 461.895H174.687L176.019 453.905H180.035L182.997 461.895H187.407L184.115 453.245C186.864 452.211 188.579 450.006 189.069 447.055C189.762 442.868 187.556 440.077 182.539 440.077H174.357L170.735 461.895ZM176.562 450.624L177.766 443.379H181.388C184.328 443.379 185.415 444.722 185.042 447.055C184.669 449.367 183.146 450.624 180.216 450.624H176.562ZM193.165 461.895L195.871 456.515H204.074L204.98 461.895H209.199L205.129 440.077H200.25L188.947 461.895H193.165ZM197.459 453.34L201.88 444.551H202.05L203.531 453.34H197.459ZM216.813 448.461C218.06 448.461 219.2 447.428 219.285 446.117C219.359 444.86 218.326 443.816 217.069 443.816C215.78 443.816 214.651 444.839 214.597 446.117C214.533 447.428 215.503 448.461 216.813 448.461ZM214.981 459.274C216.227 459.274 217.367 458.241 217.453 456.931C217.527 455.673 216.494 454.629 215.237 454.629C213.948 454.629 212.818 455.652 212.765 456.931C212.701 458.241 213.671 459.274 214.981 459.274Z" fill="black"/>
<path d="M88.0843 515.895C94.732 515.895 99.2277 511.9 100.336 505.178C101.486 498.285 98.1411 494.077 91.6425 494.077H84.2064L80.5843 515.895H88.0843ZM85.1013 512.475L87.5942 497.497H91.0566C95.4884 497.497 97.3208 499.851 96.4898 504.741C95.6482 509.865 92.825 512.475 88.2867 512.475H85.1013ZM103.953 515.895L106.658 510.515H114.862L115.767 515.895H119.986L115.916 494.077H111.037L99.7338 515.895H103.953ZM108.246 507.34L112.667 498.551H112.837L114.318 507.34H108.246ZM122.332 497.39H129.076L126.008 515.895H129.928L132.996 497.39H139.74L140.294 494.077H122.886L122.332 497.39ZM140.028 515.895H154.303L154.857 512.582H144.534L145.514 506.627H155.017L155.571 503.313H146.068L147.048 497.39H157.286L157.84 494.077H143.65L140.028 515.895ZM162.991 502.461C164.237 502.461 165.377 501.428 165.463 500.117C165.537 498.86 164.504 497.816 163.247 497.816C161.958 497.816 160.828 498.839 160.775 500.117C160.711 501.428 161.681 502.461 162.991 502.461ZM161.159 513.274C162.405 513.274 163.545 512.241 163.63 510.931C163.705 509.673 162.671 508.629 161.414 508.629C160.125 508.629 158.996 509.652 158.943 510.931C158.879 512.241 159.848 513.274 161.159 513.274Z" fill="black"/>
<path d="M351.084 516.895C357.732 516.895 362.228 512.9 363.336 506.178C364.486 499.285 361.141 495.077 354.642 495.077H347.206L343.584 516.895H351.084ZM348.101 513.475L350.594 498.497H354.057C358.488 498.497 360.321 500.851 359.49 505.741C358.648 510.865 355.825 513.475 351.287 513.475H348.101ZM369.818 517.225C372.386 517.225 374.133 516.022 375.049 514.647H375.177L374.793 516.895H378.501L380.323 505.943C381.047 501.618 377.734 500.318 374.623 500.318C371.182 500.318 368.252 501.852 366.931 504.835L370.426 505.347C371.001 504.218 372.311 503.269 374.186 503.269C375.976 503.269 376.743 504.196 376.487 505.794V505.858C376.296 506.945 375.113 507.019 372.183 507.328C368.955 507.669 365.77 508.617 365.152 512.303C364.619 515.51 366.707 517.225 369.818 517.225ZM371.278 514.392C369.669 514.392 368.657 513.646 368.891 512.24C369.115 510.748 370.532 510.141 372.301 509.896C373.313 509.757 375.39 509.502 375.955 509.097L375.635 511.025C375.337 512.847 373.59 514.392 371.278 514.392ZM383.188 523.031C386.161 523.031 388.163 521.519 389.559 518.855L399.136 500.531H394.886L389.037 512.911H388.867L387.162 500.531H383.22L386.352 517.183L385.862 518.067C384.808 519.921 383.732 520.112 382.144 519.622L380.738 522.627C381.228 522.84 382.134 523.031 383.188 523.031ZM400.681 517.129C401.928 517.129 403.068 516.096 403.153 514.786C403.227 513.529 402.194 512.485 400.937 512.485C399.648 512.485 398.519 513.507 398.465 514.786C398.401 516.096 399.371 517.129 400.681 517.129ZM428.505 495.077H424.574L422.113 509.949H421.911L414.112 495.077H410.576L406.953 516.895H410.906L413.388 502.034H413.559L421.367 516.895H424.883L428.505 495.077ZM429.019 516.895H432.876L435.603 500.531H431.747L429.019 516.895ZM434.239 498.188C435.465 498.188 436.551 497.25 436.636 496.1C436.732 494.938 435.816 494.001 434.591 494.001C433.355 494.001 432.279 494.938 432.173 496.1C432.077 497.25 433.014 498.188 434.239 498.188ZM442.935 523.372C447.335 523.372 450.936 521.359 451.618 517.161L454.366 500.531H450.563L450.116 503.237H449.913C449.519 502.055 448.582 500.318 445.695 500.318C441.913 500.318 438.45 503.28 437.566 508.66C436.671 513.997 439.196 516.661 442.978 516.661C445.78 516.661 447.346 515.159 448.113 513.955H448.305L447.815 517.055C447.431 519.463 445.62 520.453 443.436 520.453C441.082 520.453 440.304 519.367 439.984 518.397L436.362 519.239C436.714 521.529 438.748 523.372 442.935 523.372ZM444.512 513.635C441.955 513.635 440.996 511.654 441.486 508.639C441.976 505.666 443.596 503.482 446.174 503.482C448.646 503.482 449.732 505.539 449.231 508.639C448.72 511.76 446.962 513.635 444.512 513.635ZM461.046 507.307C461.462 504.942 463.155 503.578 465.222 503.578C467.225 503.578 468.205 504.867 467.854 507.073L466.213 516.895H470.08L471.827 506.476C472.467 502.513 470.592 500.318 467.214 500.318C464.679 500.318 462.878 501.448 461.845 503.312H461.643L463.006 495.077H459.224L455.602 516.895H459.469L461.046 507.307ZM484.888 500.531H481.65L482.3 496.611H478.443L477.793 500.531H475.481L474.991 503.514H477.303L475.801 512.612C475.268 515.681 477.229 517.193 480.158 517.119C481.245 517.087 482.044 516.874 482.513 516.735L482.342 513.72C482.108 513.763 481.66 513.87 481.192 513.87C480.222 513.87 479.498 513.529 479.743 511.973L481.149 503.514H484.388L484.888 500.531Z" fill="black"/>
<path d="M345.584 549.895H349.537L351.071 540.627H360.137L360.691 537.313H351.625L352.605 531.39H362.63L363.184 528.077H349.206L345.584 549.895ZM362.992 549.895H366.848L369.576 533.531H365.719L362.992 549.895ZM368.212 531.188C369.437 531.188 370.524 530.25 370.609 529.1C370.705 527.938 369.789 527.001 368.564 527.001C367.328 527.001 366.252 527.938 366.145 529.1C366.049 530.25 366.987 531.188 368.212 531.188ZM378.293 528.077H374.436L370.814 549.895H374.671L378.293 528.077ZM389.535 533.531H386.296L386.946 529.611H383.09L382.44 533.531H380.128L379.638 536.514H381.95L380.448 545.612C379.915 548.681 381.875 550.193 384.805 550.119C385.891 550.087 386.69 549.874 387.159 549.735L386.989 546.72C386.754 546.763 386.307 546.87 385.838 546.87C384.869 546.87 384.144 546.529 384.389 544.973L385.796 536.514H389.034L389.535 533.531ZM397.059 550.215C400.883 550.215 403.792 548.35 404.964 545.506L401.437 545.101C400.67 546.497 399.307 547.21 397.613 547.21C395.013 547.21 393.682 545.889 394.161 542.821L394.172 542.768H405.582L405.763 541.585C406.722 535.854 403.696 533.318 399.669 533.318C394.992 533.318 391.349 536.759 390.518 541.809C389.655 546.933 392.137 550.215 397.059 550.215ZM394.63 540.169C395.067 538.208 397.016 536.323 399.232 536.323C401.459 536.323 402.663 537.942 402.29 540.169H394.63ZM407.67 549.895H411.526L413.114 540.275C413.476 538.198 415.276 536.727 417.386 536.727C418.057 536.727 418.834 536.834 419.165 536.951L419.761 533.404C419.388 533.329 418.824 533.297 418.387 533.297C416.512 533.297 414.744 534.362 413.849 536.259H413.678L414.136 533.531H410.397L407.67 549.895Z" fill="black"/>
<path d="M95.5843 239.895H99.5367L100.868 231.905H104.885L107.846 239.895H112.257L108.965 231.245C111.714 230.211 113.429 228.006 113.919 225.055C114.611 220.868 112.406 218.077 107.388 218.077H99.2064L95.5843 239.895ZM101.412 228.624L102.616 221.379H106.238C109.178 221.379 110.265 222.722 109.892 225.055C109.519 227.367 107.995 228.624 105.066 228.624H101.412ZM136.477 229.242C137.671 222.061 133.963 217.779 128.157 217.779C122.511 217.779 117.663 221.827 116.513 228.762C115.33 235.921 119.027 240.193 124.886 240.193C130.479 240.193 135.316 236.177 136.477 229.242ZM132.589 228.762C131.747 233.833 128.69 236.646 125.014 236.646C121.605 236.646 119.57 234.11 120.412 229.242C121.222 224.171 124.301 221.326 127.997 221.326C131.428 221.326 133.388 223.915 132.589 228.762ZM138.446 239.895H152.007L152.561 236.582H142.952L146.02 218.077H142.068L138.446 239.895ZM155.438 239.895H169L169.554 236.582H159.944L163.012 218.077H159.06L155.438 239.895Z" fill="black"/>
<path d="M58.5843 191.895H62.5367L63.7618 184.523H67.9273C72.9877 184.523 76.1837 181.497 76.8762 177.3C77.5686 173.124 75.406 170.077 70.3882 170.077H62.2064L58.5843 191.895ZM64.3051 181.274L65.6155 173.379H69.2377C72.1993 173.379 73.222 174.967 72.8492 177.3C72.4763 179.612 70.8889 181.274 67.9379 181.274H64.3051ZM77.8616 191.895H81.814L83.1457 183.905H87.162L90.1237 191.895H94.5342L91.2423 183.245C93.9909 182.211 95.7061 180.006 96.1961 177.055C96.8886 172.868 94.6833 170.077 89.6656 170.077H81.4838L77.8616 191.895ZM83.689 180.624L84.8928 173.379H88.515C91.4553 173.379 92.542 174.722 92.1691 177.055C91.7963 179.367 90.2728 180.624 87.3431 180.624H83.689ZM118.755 181.242C119.948 174.061 116.241 169.779 110.434 169.779C104.788 169.779 99.9408 173.827 98.7902 180.762C97.6077 187.921 101.304 192.193 107.164 192.193C112.757 192.193 117.593 188.177 118.755 181.242ZM114.866 180.762C114.025 185.833 110.967 188.646 107.292 188.646C103.883 188.646 101.848 186.11 102.689 181.242C103.499 176.171 106.578 173.326 110.275 173.326C113.705 173.326 115.665 175.915 114.866 180.762ZM128.223 191.895C134.871 191.895 139.366 187.9 140.474 181.178C141.625 174.285 138.28 170.077 131.781 170.077H124.345L120.723 191.895H128.223ZM125.24 188.475L127.733 173.497H131.195C135.627 173.497 137.459 175.851 136.628 180.741C135.787 185.865 132.964 188.475 128.425 188.475H125.24ZM143.513 192.129C144.76 192.129 145.9 191.096 145.985 189.786C146.059 188.529 145.026 187.485 143.769 187.485C142.48 187.485 141.351 188.507 141.297 189.786C141.233 191.096 142.203 192.129 143.513 192.129Z" fill="black"/>
<path d="M321.041 224.181H324.844C325.366 220.389 322.692 217.779 318.047 217.779C313.456 217.779 309.62 220.346 308.971 224.213C308.459 227.345 310.377 229.135 313.807 230.073L316.172 230.712C318.441 231.308 319.901 232.044 319.603 233.737C319.304 235.602 317.323 236.848 314.745 236.848C312.284 236.848 310.526 235.74 310.76 233.45H306.872C306.307 237.786 309.141 240.225 314.223 240.225C319.454 240.225 322.905 237.615 323.555 233.769C324.184 229.987 321.339 228.251 318.207 227.484L316.247 226.972C314.521 226.546 312.699 225.779 313.03 223.968C313.307 222.317 314.968 221.124 317.44 221.124C319.794 221.124 321.094 222.21 321.041 224.181ZM347.118 225.438C347.235 220.591 343.9 217.779 338.968 217.779C333.375 217.779 328.538 221.795 327.377 228.752C326.205 235.911 329.838 240.193 335.697 240.193C340.779 240.193 344.646 236.816 345.957 232.651H341.983C341.045 235.197 338.616 236.646 335.878 236.646C332.48 236.646 330.467 234.11 331.266 229.22C332.097 224.192 335.197 221.326 338.872 221.326C341.429 221.326 343.176 222.828 343.197 225.438H347.118ZM348.362 239.895H362.637L363.191 236.582H352.868L353.848 230.627H363.351L363.905 227.313H354.402L355.382 221.39H365.62L366.174 218.077H351.984L348.362 239.895ZM388.136 218.077H384.205L381.744 232.949H381.542L373.743 218.077H370.206L366.584 239.895H370.537L373.019 225.034H373.189L380.998 239.895H384.514L388.136 218.077ZM388.821 239.895H403.096L403.65 236.582H393.327L394.307 230.627H403.81L404.364 227.313H394.861L395.841 221.39H406.079L406.633 218.077H392.443L388.821 239.895Z" fill="black"/>
<path d="M576.694 221.39H583.437L580.369 239.895H584.29L587.358 221.39H594.101L594.655 218.077H577.248L576.694 221.39ZM594.554 239.895L597.26 234.515H605.463L606.369 239.895H610.587L606.518 218.077H601.639L590.335 239.895H594.554ZM598.847 231.34L603.269 222.551H603.439L604.92 231.34H598.847ZM613.461 239.895H617.414L618.5 233.418L621.419 230.541L626.341 239.895H631.093L624.594 227.867L634.64 218.077H629.814L619.651 228.102H619.384L621.036 218.077H617.083L613.461 239.895ZM633.764 239.895H648.04L648.593 236.582H638.27L639.25 230.627H648.753L649.307 227.313H639.804L640.785 221.39H651.022L651.576 218.077H637.386L633.764 239.895Z" fill="black"/>
<path d="M515.159 496.077H511.206L507.584 517.895H511.537L515.159 496.077ZM521.101 508.307C521.516 505.942 523.168 504.578 525.192 504.578C527.205 504.578 528.164 505.899 527.802 508.073L526.172 517.895H530.028L531.775 507.476C532.425 503.545 530.54 501.318 527.195 501.318C524.744 501.318 522.837 502.48 521.815 504.312H521.612L522.081 501.531H518.384L515.657 517.895H519.524L521.101 508.307ZM544.826 501.531H541.587L542.237 497.611H538.381L537.731 501.531H535.419L534.929 504.514H537.241L535.739 513.612C535.206 516.681 537.166 518.193 540.096 518.119C541.182 518.087 541.981 517.874 542.45 517.735L542.28 514.72C542.045 514.763 541.598 514.87 541.129 514.87C540.16 514.87 539.435 514.529 539.68 512.973L541.087 504.514H544.325L544.826 501.531Z" fill="black"/>
<path d="M566.584 517.895H580.86L581.414 514.582H571.091L572.071 508.627H581.574L582.128 505.313H572.625L573.605 499.39H583.843L584.397 496.077H570.206L566.584 517.895ZM590.517 501.531H586.426L589.921 509.713L583.571 517.895H587.662L592.073 512.004L594.555 517.895H598.614L594.96 509.713L601.256 501.531H597.176L592.818 507.572L590.517 501.531ZM612.41 501.531H609.171L609.821 497.611H605.965L605.315 501.531H603.003L602.513 504.514H604.825L603.323 513.612C602.79 516.681 604.75 518.193 607.68 518.119C608.766 518.087 609.565 517.874 610.034 517.735L609.864 514.72C609.629 514.763 609.182 514.87 608.713 514.87C607.744 514.87 607.019 514.529 607.264 512.973L608.671 504.514H611.909L612.41 501.531Z" fill="black"/>
<path d="M631.206 496.077L627.584 517.895H631.377L633.891 502.874H634.093L637.63 517.831H640.454L648.976 502.906H649.168L646.675 517.895H650.468L654.09 496.077H649.253L640.166 511.887H639.91L636.043 496.077H631.206ZM661.803 518.215C666.533 518.215 670.091 514.891 670.922 509.884C671.753 504.749 669.239 501.318 664.402 501.318C659.662 501.318 656.103 504.653 655.283 509.681C654.452 514.784 656.956 518.215 661.803 518.215ZM662.112 515.125C659.523 515.125 658.671 512.813 659.15 509.862C659.64 506.816 661.409 504.376 664.093 504.376C666.672 504.376 667.535 506.72 667.055 509.66C666.565 512.718 664.797 515.125 662.112 515.125ZM687.779 505.857C687.704 503.076 685.744 501.318 681.845 501.318C677.967 501.318 675.027 503.183 674.526 506.155C674.11 508.595 675.389 510.214 678.425 510.885L681.11 511.471C682.58 511.801 683.112 512.334 682.963 513.208C682.793 514.379 681.344 515.317 679.437 515.306C677.754 515.296 676.763 514.55 676.678 513.069L672.885 513.431C672.875 516.425 675.144 518.215 679.224 518.215C683.251 518.215 686.426 516.159 686.937 513.133C687.331 510.725 686.01 509.255 683.027 508.584L680.321 507.987C678.745 507.604 678.223 507.082 678.382 506.208C678.553 505.036 679.991 504.195 681.664 504.195C683.389 504.195 684.114 505.143 684.231 506.24L687.779 505.857Z" fill="black"/>
<path d="M631.041 536.181H634.844C635.366 532.389 632.692 529.779 628.047 529.779C623.456 529.779 619.62 532.346 618.971 536.213C618.459 539.345 620.377 541.135 623.807 542.073L626.172 542.712C628.441 543.308 629.901 544.044 629.603 545.737C629.304 547.602 627.323 548.848 624.745 548.848C622.284 548.848 620.526 547.74 620.76 545.45H616.872C616.307 549.786 619.141 552.225 624.223 552.225C629.454 552.225 632.905 549.615 633.555 545.769C634.184 541.987 631.339 540.251 628.207 539.484L626.247 538.972C624.521 538.546 622.699 537.779 623.03 535.968C623.307 534.317 624.968 533.124 627.44 533.124C629.794 533.124 631.094 534.21 631.041 536.181ZM637.292 558.031C640.264 558.031 642.267 556.519 643.663 553.855L653.24 535.531H648.989L643.141 547.911H642.97L641.266 535.531H637.324L640.456 552.183L639.966 553.067C638.911 554.921 637.835 555.112 636.248 554.622L634.842 557.627C635.332 557.84 636.237 558.031 637.292 558.031ZM658.665 542.307C659.081 539.942 660.732 538.578 662.756 538.578C664.77 538.578 665.728 539.899 665.366 542.073L663.736 551.895H667.593L669.34 541.476C669.99 537.545 668.104 535.318 664.759 535.318C662.309 535.318 660.402 536.48 659.379 538.312H659.177L659.645 535.531H655.949L653.221 551.895H657.089L658.665 542.307ZM678.587 552.215C682.699 552.215 685.693 549.786 686.588 546.302H682.902C682.263 548.06 680.835 549.072 679.141 549.072C676.733 549.072 675.508 547.058 676.062 543.713C676.584 540.411 678.513 538.429 680.91 538.429C682.753 538.429 683.701 539.622 683.733 541.199H687.429C687.738 537.651 685.363 535.318 681.378 535.318C676.574 535.318 672.951 538.781 672.152 543.777C671.321 548.731 673.687 552.215 678.587 552.215Z" fill="black"/>
<path d="M212.119 70.094L167.739 5.01167L233.239 5.13304L277.619 70.2154L212.119 70.094Z" fill="#40895C" stroke="#3E875A"/>
<path d="M612.126 66.8352L567.746 1.75285L633.246 1.87422L677.626 66.9566L612.126 66.8352Z" fill="#656661" stroke="#656661"/>
<path d="M679.126 66.9593L634.746 1.877L700.246 1.99837L744.626 67.0807L679.126 66.9593Z" fill="#544848" stroke="#544848"/>
<path d="M7.25661 41.7175C-3.07419 6.29673 2.73936 4.70593 2.73936 4.70593L168.239 5.01259L212.619 70.0949C212.619 70.0949 123.618 71.1598 63.6362 67.3285C49.7245 65.4248 37.2753 61.8458 27.6798 58.382C17.1099 54.5665 9.01803 47.7569 7.25661 41.7175Z" fill="#2A2C27" stroke="#2A2C27"/>
<path d="M411.122 68.4627L366.742 3.3804L432.242 3.50177L476.622 68.5841L411.122 68.4627Z" fill="#C95D5B" stroke="#C95D5B"/>
<path d="M345.122 68.3405L300.742 3.25812L366.242 3.37948L410.622 68.4618L345.122 68.3405Z" fill="#398DC1" stroke="#398DC1"/>
<path d="M478.124 67.5869L433.744 2.50455L499.244 2.62591L543.624 67.7083L478.124 67.5869Z" fill="#F0ECE9" stroke="#F0ECE9"/>
<path d="M278.12 69.2163L233.741 4.13396L299.241 4.25532L343.62 69.3377L278.12 69.2163Z" fill="#ECE16E" stroke="#ECE16E"/>
<path d="M545.125 66.7111L500.746 1.62871L566.246 1.75008L610.625 66.8324L545.125 66.7111Z" fill="#8A8B87" stroke="#8A8B87"/>
<path d="M745.128 65.5816L701.247 1.50023C705.414 1.50795 716.148 0.82784 729.746 2.05304C742.717 3.22176 747.603 13.2626 748.595 19.6841C748.688 20.2857 748.687 20.8935 748.639 21.5004L745.128 65.5816Z" fill="#3E403D" stroke="#3E403D"/>
<path d="M212.303 72.1909L168.003 137.327L233.502 137.126L277.803 71.9902L212.303 72.1909Z" fill="#40895C" stroke="#3E875A"/>
<path d="M612.313 74.9648L568.013 140.101L633.513 139.9L677.813 74.764L612.313 74.9648Z" fill="#656661" stroke="#656661"/>
<path d="M679.313 74.7594L635.013 139.896L700.512 139.695L744.813 74.5587L679.313 74.7594Z" fill="#544848" stroke="#544848"/>
<path d="M9.30413 72.8224L11.0034 137.833L168.503 137.325L212.803 72.1894L9.30413 72.8224Z" fill="#2A2C27" stroke="#2A2C27"/>
<path d="M411.308 73.5809L367.008 138.717L432.508 138.516L476.808 73.3801L411.308 73.5809Z" fill="#C95D5B" stroke="#C95D5B"/>
<path d="M345.309 73.7832L301.008 138.919L366.508 138.719L410.808 73.5825L345.309 73.7832Z" fill="#398DC1" stroke="#398DC1"/>
<path d="M478.311 74.3755L434.01 139.512L499.51 139.311L543.811 74.1748L478.311 74.3755Z" fill="#F0ECE9" stroke="#F0ECE9"/>
<path d="M278.306 72.9886L234.005 138.125L299.505 137.924L343.806 72.7878L278.306 72.9886Z" fill="#ECE16E" stroke="#ECE16E"/>
<path d="M545.314 75.1702L501.013 140.306L566.513 140.105L610.814 74.9694L545.314 75.1702Z" fill="#8A8B87" stroke="#8A8B87"/>
<path d="M746.317 74.0571L701.514 140.192L744.796 140.192L746.317 74.0571Z" fill="#3E403D"/>
<path d="M17.6333 14.0119C14.037 15.2229 9.82609 22.5358 8.17016 26.0409L12.9552 119.027L15.4843 128.519L23.4935 131.494L142.493 131.13L148.973 124.61L148.853 85.61L62.1331 13.8755C48.7983 13.4163 21.2296 12.8008 17.6333 14.0119Z" fill="#151712" stroke="#151712"/>
<path d="M39.1111 93.1759L47.3435 100.472L45.1414 111.249L34.7069 114.731L26.4745 107.435L28.6766 96.6575L39.1111 93.1759Z" fill="#979795"/>
<path d="M40.1111 93.1728L48.3435 100.469L46.1414 111.246L35.7069 114.727L27.4745 107.432L29.6766 96.6544L40.1111 93.1728Z" fill="#979795"/>
<path d="M41.1111 93.1697L49.3435 100.465L47.1414 111.243L36.7069 114.724L28.4745 107.429L30.6766 96.6514L41.1111 93.1697Z" fill="#979795"/>
<path d="M42.1111 93.1667L50.3435 100.462L48.1414 111.24L37.7069 114.721L29.4745 107.426L31.6766 96.6483L42.1111 93.1667Z" fill="#979795"/>
<path d="M43.1111 93.1636L51.3435 100.459L49.1414 111.237L38.7069 114.718L30.4745 107.423L32.6766 96.6452L43.1111 93.1636Z" fill="#979795"/>
<path d="M38.1081 92.1789L46.3406 99.4746L44.1385 110.252L33.704 113.734L25.4716 106.438L27.6737 95.6606L38.1081 92.1789Z" fill="#EAE7DF"/>
<circle cx="30.4015" cy="101.473" r="8.5" transform="rotate(-0.175627 30.4015 101.473)" fill="#C4C4C4"/>
<circle cx="34.4044" cy="102.461" r="8.5" transform="rotate(-0.175627 34.4044 102.461)" fill="#8D8C89"/>
<circle cx="34.4044" cy="102.461" r="8.5" transform="rotate(-0.175627 34.4044 102.461)" fill="#8D8C89"/>
<circle cx="34.4044" cy="102.461" r="8.5" transform="rotate(-0.175627 34.4044 102.461)" fill="#8D8C89"/>
<circle cx="34.4044" cy="102.461" r="8.5" transform="rotate(-0.175627 34.4044 102.461)" fill="#19160F"/>
<circle cx="30.4015" cy="101.473" r="8.5" transform="rotate(-0.175627 30.4015 101.473)" fill="#878379"/>
<circle cx="29.8938" cy="98.9747" r="2" transform="rotate(-0.175627 29.8938 98.9747)" fill="#FFFFFC"/>
<circle cx="31.8967" cy="99.9685" r="2" transform="rotate(-0.175627 31.8967 99.9685)" fill="#FFFFFC"/>
<path d="M126.105 90.9092L134.337 98.2049L132.135 108.982L121.701 112.464L113.468 105.168L115.67 94.3908L126.105 90.9092Z" fill="#979795"/>
<path d="M127.105 90.9061L135.337 98.2018L133.135 108.979L122.701 112.461L114.468 105.165L116.67 94.3878L127.105 90.9061Z" fill="#979795"/>
<path d="M128.105 90.9031L136.337 98.1988L134.135 108.976L123.701 112.458L115.468 105.162L117.67 94.3847L128.105 90.9031Z" fill="#979795"/>
<path d="M129.105 90.9L137.337 98.1957L135.135 108.973L124.701 112.455L116.468 105.159L118.67 94.3816L129.105 90.9Z" fill="#979795"/>
<path d="M130.105 90.8969L138.337 98.1926L136.135 108.97L125.701 112.452L117.468 105.156L119.67 94.3786L130.105 90.8969Z" fill="#979795"/>
<path d="M125.102 89.9123L133.334 97.208L131.132 107.985L120.698 111.467L112.465 104.171L114.667 93.3939L125.102 89.9123Z" fill="#EAE7DF"/>
<circle cx="117.395" cy="99.2065" r="8.5" transform="rotate(-0.175627 117.395 99.2065)" fill="#C4C4C4"/>
<circle cx="121.398" cy="100.194" r="8.5" transform="rotate(-0.175627 121.398 100.194)" fill="#8D8C89"/>
<circle cx="121.398" cy="100.194" r="8.5" transform="rotate(-0.175627 121.398 100.194)" fill="#8D8C89"/>
<circle cx="121.398" cy="100.194" r="8.5" transform="rotate(-0.175627 121.398 100.194)" fill="#8D8C89"/>
<circle cx="121.398" cy="100.194" r="8.5" transform="rotate(-0.175627 121.398 100.194)" fill="#19160F"/>
<circle cx="117.395" cy="99.2065" r="8.5" transform="rotate(-0.175627 117.395 99.2065)" fill="#878379"/>
<circle cx="116.887" cy="96.708" r="2" transform="rotate(-0.175627 116.887 96.708)" fill="#FFFFFC"/>
<circle cx="118.89" cy="97.7019" r="2" transform="rotate(-0.175627 118.89 97.7019)" fill="#FFFFFC"/>
<path d="M32.8965 23.1946L41.1289 30.4903L38.9268 41.2676L28.4924 44.7492L20.2599 37.4535L22.462 26.6762L32.8965 23.1946Z" fill="#979795"/>
<path d="M33.8965 23.1915L42.1289 30.4872L39.9268 41.2645L29.4924 44.7462L21.2599 37.4505L23.462 26.6731L33.8965 23.1915Z" fill="#979795"/>
<path d="M34.8965 23.1884L43.1289 30.4841L40.9268 41.2615L30.4924 44.7431L22.2599 37.4474L24.462 26.6701L34.8965 23.1884Z" fill="#979795"/>
<path d="M35.8965 23.1854L44.1289 30.4811L41.9268 41.2584L31.4924 44.74L23.2599 37.4443L25.462 26.667L35.8965 23.1854Z" fill="#979795"/>
<path d="M36.8965 23.1823L45.1289 30.478L42.9268 41.2554L32.4924 44.737L24.2599 37.4413L26.462 26.6639L36.8965 23.1823Z" fill="#979795"/>
<path d="M31.8935 22.1976L40.126 29.4933L37.9239 40.2707L27.4894 43.7523L19.257 36.4566L21.4591 25.6793L31.8935 22.1976Z" fill="#EAE7DF"/>
<circle cx="24.1869" cy="31.4918" r="8.5" transform="rotate(-0.175627 24.1869 31.4918)" fill="#C4C4C4"/>
<circle cx="28.1898" cy="32.4796" r="8.5" transform="rotate(-0.175627 28.1898 32.4796)" fill="#8D8C89"/>
<circle cx="28.1898" cy="32.4796" r="8.5" transform="rotate(-0.175627 28.1898 32.4796)" fill="#8D8C89"/>
<circle cx="28.1898" cy="32.4796" r="8.5" transform="rotate(-0.175627 28.1898 32.4796)" fill="#8D8C89"/>
<circle cx="28.1898" cy="32.4796" r="8.5" transform="rotate(-0.175627 28.1898 32.4796)" fill="#19160F"/>
<circle cx="24.1869" cy="31.4918" r="8.5" transform="rotate(-0.175627 24.1869 31.4918)" fill="#878379"/>
<circle cx="23.6792" cy="28.9934" r="2" transform="rotate(-0.175627 23.6792 28.9934)" fill="#FFFFFC"/>
<circle cx="25.6821" cy="29.9872" r="2" transform="rotate(-0.175627 25.6821 29.9872)" fill="#FFFFFC"/>
<path d="M269.546 397.945C269.979 397.945 270.421 398.22 270.871 398.77C271.338 399.32 271.571 399.778 271.571 400.145C271.571 400.495 271.504 400.67 271.371 400.67C271.254 400.67 271.021 400.612 270.671 400.495C270.321 400.362 270.004 400.295 269.721 400.295C269.071 400.295 268.279 400.628 267.346 401.295C266.429 401.962 265.554 402.787 264.721 403.77C263.904 404.753 263.204 405.878 262.621 407.145C262.038 408.395 261.746 409.478 261.746 410.395C261.746 411.312 261.979 411.987 262.446 412.42C262.929 412.837 263.554 413.045 264.321 413.045C265.088 413.045 265.879 412.937 266.696 412.72C267.513 412.487 268.179 412.228 268.696 411.945C270.029 411.228 270.763 410.87 270.896 410.87C271.179 410.87 271.321 411.062 271.321 411.445C271.321 411.812 270.938 412.312 270.171 412.945C269.404 413.562 268.454 414.12 267.321 414.62C266.188 415.12 265.171 415.37 264.271 415.37C263.104 415.37 262.004 414.87 260.971 413.87C259.938 412.853 259.421 411.737 259.421 410.52C259.421 408.953 259.929 407.187 260.946 405.22C261.979 403.237 263.296 401.528 264.896 400.095C266.513 398.662 268.063 397.945 269.546 397.945ZM277.687 408.07H277.637C277.603 408.237 277.437 408.903 277.137 410.07C276.853 411.237 276.67 412.003 276.587 412.37C276.503 412.72 276.428 413.003 276.362 413.22C276.312 413.437 276.253 413.687 276.187 413.97C276.12 414.237 276.053 414.453 275.987 414.62C275.937 414.77 275.887 414.92 275.837 415.07C275.737 415.353 275.637 415.495 275.537 415.495C275.32 415.495 275.037 415.262 274.687 414.795C274.337 414.312 274.162 413.92 274.162 413.62C274.162 413.32 274.637 411.237 275.587 407.37C276.553 403.503 277.053 400.928 277.087 399.645C277.087 399.395 277.145 399.195 277.262 399.045C277.428 398.695 277.92 398.445 278.737 398.295C279.57 398.145 280.778 398.07 282.362 398.07C283.962 398.07 285.212 398.153 286.112 398.32C287.028 398.487 287.487 398.72 287.487 399.02C287.487 399.22 287.345 399.362 287.062 399.445C286.778 399.528 286.528 399.595 286.312 399.645C286.095 399.678 285.812 399.72 285.462 399.77C285.112 399.803 284.787 399.837 284.487 399.87C284.187 399.887 283.795 399.92 283.312 399.97C282.845 400.02 282.412 400.07 282.012 400.12C281.612 400.153 281.07 400.212 280.387 400.295C279.703 400.378 279.262 400.428 279.062 400.445C279.078 400.495 279.087 400.57 279.087 400.67C279.087 401.453 278.762 403.253 278.112 406.07C279.145 406.12 280.253 406.095 281.437 405.995C282.637 405.895 283.37 405.845 283.637 405.845C284.27 405.845 284.587 405.978 284.587 406.245C284.587 406.762 283.862 407.195 282.412 407.545C280.978 407.895 279.403 408.07 277.687 408.07ZM290.473 398.695C290.473 398.412 290.506 398.22 290.573 398.12C290.656 398.003 290.798 397.945 290.998 397.945C291.214 397.945 291.581 398.17 292.098 398.62C292.614 399.07 292.889 399.47 292.923 399.82C292.989 400.42 293.306 401.487 293.873 403.02C294.439 404.537 295.089 406.078 295.823 407.645C296.756 406.545 297.931 405.087 299.348 403.27C300.764 401.437 301.814 400.137 302.498 399.37C303.181 398.603 303.673 398.22 303.973 398.22C304.273 398.22 304.589 398.387 304.923 398.72C305.256 399.053 305.423 399.37 305.423 399.67C305.423 399.97 305.389 400.312 305.323 400.695C305.256 401.078 305.139 401.587 304.973 402.22C304.823 402.837 304.681 403.378 304.548 403.845C304.431 404.295 304.231 405.003 303.948 405.97C303.664 406.937 303.448 407.712 303.298 408.295C303.148 408.862 302.973 409.562 302.773 410.395C302.573 411.212 302.406 411.887 302.273 412.42C302.156 412.937 302.031 413.445 301.898 413.945C301.648 414.912 301.406 415.395 301.173 415.395C300.956 415.395 300.739 415.195 300.523 414.795C300.306 414.395 300.198 413.862 300.198 413.195C300.198 412.512 300.481 410.962 301.048 408.545C301.631 406.128 302.256 404.012 302.923 402.195C299.856 406.028 297.964 408.32 297.248 409.07C296.548 409.82 295.964 410.195 295.498 410.195C295.048 410.195 294.623 409.937 294.223 409.42C293.623 408.553 292.814 406.503 291.798 403.27C291.514 405.02 291.198 406.52 290.848 407.77C290.514 409.003 290.289 409.828 290.173 410.245C290.073 410.645 289.981 410.978 289.898 411.245C289.831 411.512 289.748 411.828 289.648 412.195C289.548 412.545 289.456 412.837 289.373 413.07C289.306 413.303 289.231 413.562 289.148 413.845C289.064 414.112 288.989 414.328 288.923 414.495C288.873 414.662 288.814 414.82 288.748 414.97C288.614 415.253 288.514 415.395 288.448 415.395C288.248 415.395 287.998 415.178 287.698 414.745C287.398 414.312 287.248 413.895 287.248 413.495C287.248 413.095 287.781 410.795 288.848 406.595C289.931 402.395 290.473 399.762 290.473 398.695Z" fill="black"/>
<path d="M265.546 441.945C265.979 441.945 266.421 442.22 266.871 442.77C267.338 443.32 267.571 443.778 267.571 444.145C267.571 444.495 267.504 444.67 267.371 444.67C267.254 444.67 267.021 444.612 266.671 444.495C266.321 444.362 266.004 444.295 265.721 444.295C265.071 444.295 264.279 444.628 263.346 445.295C262.429 445.962 261.554 446.787 260.721 447.77C259.904 448.753 259.204 449.878 258.621 451.145C258.038 452.395 257.746 453.478 257.746 454.395C257.746 455.312 257.979 455.987 258.446 456.42C258.929 456.837 259.554 457.045 260.321 457.045C261.088 457.045 261.879 456.937 262.696 456.72C263.513 456.487 264.179 456.228 264.696 455.945C266.029 455.228 266.763 454.87 266.896 454.87C267.179 454.87 267.321 455.062 267.321 455.445C267.321 455.812 266.938 456.312 266.171 456.945C265.404 457.562 264.454 458.12 263.321 458.62C262.188 459.12 261.171 459.37 260.271 459.37C259.104 459.37 258.004 458.87 256.971 457.87C255.938 456.853 255.421 455.737 255.421 454.52C255.421 452.953 255.929 451.187 256.946 449.22C257.979 447.237 259.296 445.528 260.896 444.095C262.513 442.662 264.063 441.945 265.546 441.945ZM273.687 452.07H273.637C273.603 452.237 273.437 452.903 273.137 454.07C272.853 455.237 272.67 456.003 272.587 456.37C272.503 456.72 272.428 457.003 272.362 457.22C272.312 457.437 272.253 457.687 272.187 457.97C272.12 458.237 272.053 458.453 271.987 458.62C271.937 458.77 271.887 458.92 271.837 459.07C271.737 459.353 271.637 459.495 271.537 459.495C271.32 459.495 271.037 459.262 270.687 458.795C270.337 458.312 270.162 457.92 270.162 457.62C270.162 457.32 270.637 455.237 271.587 451.37C272.553 447.503 273.053 444.928 273.087 443.645C273.087 443.395 273.145 443.195 273.262 443.045C273.428 442.695 273.92 442.445 274.737 442.295C275.57 442.145 276.778 442.07 278.362 442.07C279.962 442.07 281.212 442.153 282.112 442.32C283.028 442.487 283.487 442.72 283.487 443.02C283.487 443.22 283.345 443.362 283.062 443.445C282.778 443.528 282.528 443.595 282.312 443.645C282.095 443.678 281.812 443.72 281.462 443.77C281.112 443.803 280.787 443.837 280.487 443.87C280.187 443.887 279.795 443.92 279.312 443.97C278.845 444.02 278.412 444.07 278.012 444.12C277.612 444.153 277.07 444.212 276.387 444.295C275.703 444.378 275.262 444.428 275.062 444.445C275.078 444.495 275.087 444.57 275.087 444.67C275.087 445.453 274.762 447.253 274.112 450.07C275.145 450.12 276.253 450.095 277.437 449.995C278.637 449.895 279.37 449.845 279.637 449.845C280.27 449.845 280.587 449.978 280.587 450.245C280.587 450.762 279.862 451.195 278.412 451.545C276.978 451.895 275.403 452.07 273.687 452.07ZM286.473 442.695C286.473 442.412 286.506 442.22 286.573 442.12C286.656 442.003 286.798 441.945 286.998 441.945C287.214 441.945 287.581 442.17 288.098 442.62C288.614 443.07 288.889 443.47 288.923 443.82C288.989 444.42 289.306 445.487 289.873 447.02C290.439 448.537 291.089 450.078 291.823 451.645C292.756 450.545 293.931 449.087 295.348 447.27C296.764 445.437 297.814 444.137 298.498 443.37C299.181 442.603 299.673 442.22 299.973 442.22C300.273 442.22 300.589 442.387 300.923 442.72C301.256 443.053 301.423 443.37 301.423 443.67C301.423 443.97 301.389 444.312 301.323 444.695C301.256 445.078 301.139 445.587 300.973 446.22C300.823 446.837 300.681 447.378 300.548 447.845C300.431 448.295 300.231 449.003 299.948 449.97C299.664 450.937 299.448 451.712 299.298 452.295C299.148 452.862 298.973 453.562 298.773 454.395C298.573 455.212 298.406 455.887 298.273 456.42C298.156 456.937 298.031 457.445 297.898 457.945C297.648 458.912 297.406 459.395 297.173 459.395C296.956 459.395 296.739 459.195 296.523 458.795C296.306 458.395 296.198 457.862 296.198 457.195C296.198 456.512 296.481 454.962 297.048 452.545C297.631 450.128 298.256 448.012 298.923 446.195C295.856 450.028 293.964 452.32 293.248 453.07C292.548 453.82 291.964 454.195 291.498 454.195C291.048 454.195 290.623 453.937 290.223 453.42C289.623 452.553 288.814 450.503 287.798 447.27C287.514 449.02 287.198 450.52 286.848 451.77C286.514 453.003 286.289 453.828 286.173 454.245C286.073 454.645 285.981 454.978 285.898 455.245C285.831 455.512 285.748 455.828 285.648 456.195C285.548 456.545 285.456 456.837 285.373 457.07C285.306 457.303 285.231 457.562 285.148 457.845C285.064 458.112 284.989 458.328 284.923 458.495C284.873 458.662 284.814 458.82 284.748 458.97C284.614 459.253 284.514 459.395 284.448 459.395C284.248 459.395 283.998 459.178 283.698 458.745C283.398 458.312 283.248 457.895 283.248 457.495C283.248 457.095 283.781 454.795 284.848 450.595C285.931 446.395 286.473 443.762 286.473 442.695Z" fill="black"/>
<path d="M190.571 513.02C191.871 512.82 193.004 512.653 193.971 512.52C194.954 512.387 195.671 512.32 196.121 512.32C196.588 512.32 196.938 512.362 197.171 512.445C197.421 512.512 197.546 512.662 197.546 512.895C197.546 513.362 196.288 513.895 193.771 514.495C191.271 515.078 189.438 515.37 188.271 515.37C187.754 515.37 187.213 515.145 186.646 514.695C186.096 514.228 185.821 513.745 185.821 513.245C185.821 512.845 186.621 512.045 188.221 510.845C189.721 509.745 191.196 508.462 192.646 506.995C193.329 506.295 193.896 505.528 194.346 504.695C194.813 503.845 195.046 503.07 195.046 502.37C195.046 501.653 194.888 501.095 194.571 500.695C194.254 500.295 193.821 500.095 193.271 500.095C192.721 500.095 192.204 500.262 191.721 500.595C191.238 500.928 190.846 501.262 190.546 501.595C190.246 501.912 190.054 502.07 189.971 502.07C189.688 502.07 189.354 501.945 188.971 501.695C188.588 501.445 188.396 501.195 188.396 500.945C188.396 500.328 188.904 499.645 189.921 498.895C190.954 498.145 192.054 497.77 193.221 497.77C194.388 497.77 195.354 498.187 196.121 499.02C196.904 499.837 197.296 500.853 197.296 502.07C197.296 505.67 194.213 509.445 188.046 513.395C188.446 513.345 189.288 513.22 190.571 513.02ZM208.847 503.695C208.847 501.078 208.464 499.77 207.697 499.77C207.347 499.77 206.897 500.12 206.347 500.82C205.814 501.503 205.289 502.362 204.772 503.395C204.272 504.428 203.839 505.612 203.472 506.945C203.122 508.262 202.947 509.478 202.947 510.595C202.947 512.512 203.456 513.47 204.472 513.47C204.956 513.47 205.539 512.937 206.222 511.87C206.922 510.803 207.531 509.487 208.047 507.92C208.581 506.353 208.847 504.945 208.847 503.695ZM210.122 508.795C209.489 510.645 208.639 512.22 207.572 513.52C206.506 514.803 205.456 515.445 204.422 515.445C203.406 515.445 202.514 514.978 201.747 514.045C200.997 513.095 200.622 512.037 200.622 510.87C200.622 508.853 200.989 506.812 201.722 504.745C202.472 502.678 203.406 500.995 204.522 499.695C205.656 498.378 206.747 497.72 207.797 497.72C208.847 497.72 209.656 498.22 210.222 499.22C210.806 500.203 211.097 501.587 211.097 503.37C211.097 505.137 210.772 506.945 210.122 508.795ZM218.597 499.62C218.597 501.403 218.172 503.97 217.322 507.32C217.139 507.987 216.931 508.812 216.697 509.795C216.464 510.778 216.272 511.57 216.122 512.17C215.972 512.753 215.806 513.345 215.622 513.945C215.289 515.128 214.964 515.72 214.647 515.72C214.414 515.72 214.164 515.553 213.897 515.22C213.647 514.887 213.522 514.545 213.522 514.195C213.522 513.828 213.697 512.962 214.047 511.595C214.414 510.228 214.822 508.362 215.272 505.995C215.722 503.628 216.031 501.137 216.197 498.52C216.247 498.003 216.439 497.745 216.772 497.745C217.139 497.745 217.531 497.978 217.947 498.445C218.381 498.912 218.597 499.303 218.597 499.62ZM231.434 503.17C231.434 503.503 231.217 504.22 230.784 505.32C230.367 506.42 230.025 507.362 229.759 508.145C229.509 508.928 229.225 510.037 228.909 511.47C228.609 512.887 228.359 513.962 228.159 514.695C227.975 515.412 227.775 515.77 227.559 515.77C226.992 515.77 226.709 515.103 226.709 513.77C226.709 512.437 227.159 510.312 228.059 507.395C226.842 508.328 225.775 508.795 224.859 508.795C223.942 508.795 223.134 508.437 222.434 507.72C221.75 507.003 221.409 506.178 221.409 505.245C221.409 504.312 221.734 503.253 222.384 502.07C223.034 500.87 223.875 499.853 224.909 499.02C225.959 498.17 226.95 497.745 227.884 497.745C228.817 497.745 229.534 498.062 230.034 498.695C230.534 499.312 230.784 499.945 230.784 500.595C230.784 501.245 230.725 501.753 230.609 502.12C231.159 502.22 231.434 502.57 231.434 503.17ZM228.634 502.795L228.859 501.12C228.859 500.753 228.767 500.453 228.584 500.22C228.417 499.97 228.175 499.845 227.859 499.845C226.975 499.845 226.009 500.545 224.959 501.945C223.909 503.345 223.384 504.537 223.384 505.52C223.384 505.937 223.525 506.27 223.809 506.52C224.109 506.77 224.409 506.895 224.709 506.895C225.025 506.895 225.284 506.87 225.484 506.82C225.684 506.77 225.884 506.695 226.084 506.595C226.284 506.478 226.459 506.37 226.609 506.27C226.775 506.17 226.95 506.02 227.134 505.82C227.334 505.62 227.492 505.462 227.609 505.345C227.725 505.228 227.875 505.045 228.059 504.795C228.259 504.545 228.4 504.37 228.484 504.27C228.8 503.837 229.042 503.495 229.209 503.245C228.825 503.195 228.634 503.045 228.634 502.795ZM252.475 507.695C252.475 507.962 252.2 508.178 251.65 508.345C251.116 508.512 249.808 508.803 247.725 509.22C245.658 509.637 244.525 509.845 244.325 509.845C244.141 509.845 243.916 509.703 243.65 509.42C243.383 509.137 243.25 508.878 243.25 508.645C243.25 508.278 244.191 507.928 246.075 507.595C247.958 507.245 249.591 507.07 250.975 507.07C251.975 507.07 252.475 507.278 252.475 507.695ZM269.209 513.02C270.509 512.82 271.642 512.653 272.609 512.52C273.592 512.387 274.309 512.32 274.759 512.32C275.225 512.32 275.575 512.362 275.809 512.445C276.059 512.512 276.184 512.662 276.184 512.895C276.184 513.362 274.925 513.895 272.409 514.495C269.909 515.078 268.075 515.37 266.909 515.37C266.392 515.37 265.85 515.145 265.284 514.695C264.734 514.228 264.459 513.745 264.459 513.245C264.459 512.845 265.259 512.045 266.859 510.845C268.359 509.745 269.834 508.462 271.284 506.995C271.967 506.295 272.534 505.528 272.984 504.695C273.45 503.845 273.684 503.07 273.684 502.37C273.684 501.653 273.525 501.095 273.209 500.695C272.892 500.295 272.459 500.095 271.909 500.095C271.359 500.095 270.842 500.262 270.359 500.595C269.875 500.928 269.484 501.262 269.184 501.595C268.884 501.912 268.692 502.07 268.609 502.07C268.325 502.07 267.992 501.945 267.609 501.695C267.225 501.445 267.034 501.195 267.034 500.945C267.034 500.328 267.542 499.645 268.559 498.895C269.592 498.145 270.692 497.77 271.859 497.77C273.025 497.77 273.992 498.187 274.759 499.02C275.542 499.837 275.934 500.853 275.934 502.07C275.934 505.67 272.85 509.445 266.684 513.395C267.084 513.345 267.925 513.22 269.209 513.02ZM287.485 503.695C287.485 501.078 287.102 499.77 286.335 499.77C285.985 499.77 285.535 500.12 284.985 500.82C284.452 501.503 283.927 502.362 283.41 503.395C282.91 504.428 282.477 505.612 282.11 506.945C281.76 508.262 281.585 509.478 281.585 510.595C281.585 512.512 282.093 513.47 283.11 513.47C283.593 513.47 284.177 512.937 284.86 511.87C285.56 510.803 286.168 509.487 286.685 507.92C287.218 506.353 287.485 504.945 287.485 503.695ZM288.76 508.795C288.127 510.645 287.277 512.22 286.21 513.52C285.143 514.803 284.093 515.445 283.06 515.445C282.043 515.445 281.152 514.978 280.385 514.045C279.635 513.095 279.26 512.037 279.26 510.87C279.26 508.853 279.627 506.812 280.36 504.745C281.11 502.678 282.043 500.995 283.16 499.695C284.293 498.378 285.385 497.72 286.435 497.72C287.485 497.72 288.293 498.22 288.86 499.22C289.443 500.203 289.735 501.587 289.735 503.37C289.735 505.137 289.41 506.945 288.76 508.795ZM296.235 513.02C297.535 512.82 298.668 512.653 299.635 512.52C300.618 512.387 301.335 512.32 301.785 512.32C302.252 512.32 302.602 512.362 302.835 512.445C303.085 512.512 303.21 512.662 303.21 512.895C303.21 513.362 301.952 513.895 299.435 514.495C296.935 515.078 295.102 515.37 293.935 515.37C293.418 515.37 292.877 515.145 292.31 514.695C291.76 514.228 291.485 513.745 291.485 513.245C291.485 512.845 292.285 512.045 293.885 510.845C295.385 509.745 296.86 508.462 298.31 506.995C298.993 506.295 299.56 505.528 300.01 504.695C300.477 503.845 300.71 503.07 300.71 502.37C300.71 501.653 300.552 501.095 300.235 500.695C299.918 500.295 299.485 500.095 298.935 500.095C298.385 500.095 297.868 500.262 297.385 500.595C296.902 500.928 296.51 501.262 296.21 501.595C295.91 501.912 295.718 502.07 295.635 502.07C295.352 502.07 295.018 501.945 294.635 501.695C294.252 501.445 294.06 501.195 294.06 500.945C294.06 500.328 294.568 499.645 295.585 498.895C296.618 498.145 297.718 497.77 298.885 497.77C300.052 497.77 301.018 498.187 301.785 499.02C302.568 499.837 302.96 500.853 302.96 502.07C302.96 505.67 299.877 509.445 293.71 513.395C294.11 513.345 294.952 513.22 296.235 513.02ZM311.761 499.62C311.761 501.403 311.336 503.97 310.486 507.32C310.303 507.987 310.095 508.812 309.861 509.795C309.628 510.778 309.436 511.57 309.286 512.17C309.136 512.753 308.97 513.345 308.786 513.945C308.453 515.128 308.128 515.72 307.811 515.72C307.578 515.72 307.328 515.553 307.061 515.22C306.811 514.887 306.686 514.545 306.686 514.195C306.686 513.828 306.861 512.962 307.211 511.595C307.578 510.228 307.986 508.362 308.436 505.995C308.886 503.628 309.195 501.137 309.361 498.52C309.411 498.003 309.603 497.745 309.936 497.745C310.303 497.745 310.695 497.978 311.111 498.445C311.545 498.912 311.761 499.303 311.761 499.62Z" fill="black"/>
<path d="M594.571 269.62C594.571 271.403 594.146 273.97 593.296 277.32C593.113 277.987 592.904 278.812 592.671 279.795C592.438 280.778 592.246 281.57 592.096 282.17C591.946 282.753 591.779 283.345 591.596 283.945C591.263 285.128 590.938 285.72 590.621 285.72C590.388 285.72 590.138 285.553 589.871 285.22C589.621 284.887 589.496 284.545 589.496 284.195C589.496 283.828 589.671 282.962 590.021 281.595C590.388 280.228 590.796 278.362 591.246 275.995C591.696 273.628 592.004 271.137 592.171 268.52C592.221 268.003 592.413 267.745 592.746 267.745C593.113 267.745 593.504 267.978 593.921 268.445C594.354 268.912 594.571 269.303 594.571 269.62Z" fill="black"/>
<path d="M124.571 269.62C124.571 271.403 124.146 273.97 123.296 277.32C123.113 277.987 122.904 278.812 122.671 279.795C122.438 280.778 122.246 281.57 122.096 282.17C121.946 282.753 121.779 283.345 121.596 283.945C121.263 285.128 120.938 285.72 120.621 285.72C120.388 285.72 120.138 285.553 119.871 285.22C119.621 284.887 119.496 284.545 119.496 284.195C119.496 283.828 119.671 282.962 120.021 281.595C120.388 280.228 120.796 278.362 121.246 275.995C121.696 273.628 122.004 271.137 122.171 268.52C122.221 268.003 122.413 267.745 122.746 267.745C123.113 267.745 123.504 267.978 123.921 268.445C124.354 268.912 124.571 269.303 124.571 269.62Z" fill="black"/>
<path d="M364.571 269.62C364.571 271.403 364.146 273.97 363.296 277.32C363.113 277.987 362.904 278.812 362.671 279.795C362.438 280.778 362.246 281.57 362.096 282.17C361.946 282.753 361.779 283.345 361.596 283.945C361.263 285.128 360.938 285.72 360.621 285.72C360.388 285.72 360.138 285.553 359.871 285.22C359.621 284.887 359.496 284.545 359.496 284.195C359.496 283.828 359.671 282.962 360.021 281.595C360.388 280.228 360.796 278.362 361.246 275.995C361.696 273.628 362.004 271.137 362.171 268.52C362.221 268.003 362.413 267.745 362.746 267.745C363.113 267.745 363.504 267.978 363.921 268.445C364.354 268.912 364.571 269.303 364.571 269.62Z" fill="black"/>
<path d="M185.771 175.07C185.771 176.87 184.904 178.395 183.171 179.645C181.454 180.895 179.179 181.795 176.346 182.345C175.129 186.462 174.404 188.52 174.171 188.52C173.938 188.52 173.663 188.337 173.346 187.97C173.029 187.587 172.871 187.212 172.871 186.845C172.871 186.462 173.113 185.462 173.596 183.845C175.096 178.862 175.879 175.387 175.946 173.42C175.546 173.053 175.346 172.72 175.346 172.42C175.346 172.003 175.913 171.603 177.046 171.22C178.179 170.837 179.263 170.645 180.296 170.645C181.896 170.645 183.204 171.053 184.221 171.87C185.254 172.687 185.771 173.753 185.771 175.07ZM183.571 175.22C183.571 174.487 183.288 173.887 182.721 173.42C182.171 172.937 181.504 172.695 180.721 172.695C179.938 172.695 178.988 172.945 177.871 173.445C178.038 173.812 178.121 174.153 178.121 174.47C178.121 175.403 177.713 177.378 176.896 180.395C178.896 179.862 180.504 179.128 181.721 178.195C182.954 177.245 183.571 176.253 183.571 175.22ZM199.47 179.82C199.47 180.137 198.737 180.503 197.27 180.92C197.403 182.653 197.47 184.128 197.47 185.345C197.47 187.445 197.203 188.495 196.67 188.495C196.387 188.495 196.162 188.32 195.995 187.97C195.828 187.62 195.695 187.012 195.595 186.145C195.478 184.545 195.353 182.978 195.22 181.445C194.47 181.645 193.787 181.828 193.17 181.995C192.553 182.145 191.62 182.395 190.37 182.745C188.903 186.578 188.037 188.495 187.77 188.495C187.503 188.495 187.212 188.337 186.895 188.02C186.595 187.687 186.445 187.337 186.445 186.97C186.445 186.803 186.92 185.62 187.87 183.42H187.695C187.362 183.42 187.062 183.312 186.795 183.095C186.545 182.878 186.42 182.612 186.42 182.295C186.42 181.962 187.245 181.528 188.895 180.995C189.162 180.395 189.378 179.853 189.545 179.37C189.928 178.42 190.462 177.12 191.145 175.47C191.828 173.82 192.262 172.77 192.445 172.32C192.628 171.853 192.945 171.462 193.395 171.145C193.862 170.812 194.312 170.645 194.745 170.645C195.262 170.645 195.72 171.47 196.12 173.12C196.537 174.77 196.87 176.812 197.12 179.245C197.587 179.195 197.995 179.17 198.345 179.17C199.095 179.17 199.47 179.387 199.47 179.82ZM191.295 180.345C192.478 180.028 193.728 179.762 195.045 179.545C194.745 176.695 194.453 174.553 194.17 173.12C193.42 174.837 192.462 177.245 191.295 180.345ZM207.68 173.095L203.405 173.295C203.138 173.295 202.863 173.12 202.58 172.77C202.297 172.42 202.155 172.078 202.155 171.745C202.155 171.445 202.63 171.253 203.58 171.17C204.547 171.087 206.655 171.045 209.905 171.045C211.588 171.045 212.972 171.228 214.055 171.595C215.155 171.962 215.705 172.37 215.705 172.82C215.705 173.137 215.43 173.295 214.88 173.295C214.33 173.295 213.563 173.262 212.58 173.195C211.597 173.128 210.655 173.087 209.755 173.07C209.805 173.237 209.83 173.42 209.83 173.62C209.83 174.237 209.18 177.103 207.88 182.22C207.747 182.753 207.547 183.587 207.28 184.72C207.013 185.853 206.813 186.645 206.68 187.095C206.447 187.978 206.238 188.42 206.055 188.42C205.805 188.42 205.522 188.237 205.205 187.87C204.905 187.487 204.755 187.103 204.755 186.72C204.755 186.337 205.205 184.37 206.105 180.82C207.005 177.253 207.53 174.678 207.68 173.095ZM216.959 188.47C216.759 188.47 216.484 188.253 216.134 187.82C215.784 187.37 215.609 186.945 215.609 186.545C215.609 186.145 215.976 184.512 216.709 181.645C216.492 181.562 216.301 181.42 216.134 181.22C215.984 181.003 215.909 180.762 215.909 180.495C215.909 180.278 216.342 180.037 217.209 179.77C218.326 175.403 218.884 172.695 218.884 171.645C218.884 171.362 218.917 171.17 218.984 171.07C219.067 170.953 219.217 170.895 219.434 170.895C219.667 170.895 219.967 171.153 220.334 171.67C220.717 172.187 220.909 172.77 220.909 173.42C220.909 174.053 220.501 175.978 219.684 179.195C221.884 178.745 224.042 178.453 226.159 178.32C227.009 174.853 227.434 172.628 227.434 171.645C227.434 171.145 227.601 170.895 227.934 170.895C228.217 170.895 228.551 171.153 228.934 171.67C229.317 172.187 229.509 172.728 229.509 173.295C229.509 173.845 229.134 175.537 228.384 178.37C229.151 178.487 229.534 178.72 229.534 179.07C229.534 179.403 229.017 179.678 227.984 179.895C227.451 181.862 227.084 183.228 226.884 183.995C226.701 184.745 226.551 185.345 226.434 185.795C226.317 186.245 226.192 186.695 226.059 187.145C225.826 188.028 225.617 188.47 225.434 188.47C225.201 188.47 224.926 188.278 224.609 187.895C224.309 187.495 224.159 187.087 224.159 186.67C224.159 186.253 224.659 184.112 225.659 180.245C223.226 180.578 221.034 180.962 219.084 181.395C218.851 182.262 218.626 183.103 218.409 183.92C218.209 184.72 218.051 185.345 217.934 185.795C217.817 186.245 217.692 186.695 217.559 187.145C217.326 188.028 217.126 188.47 216.959 188.47ZM233.207 188.495C232.957 188.495 232.674 188.312 232.357 187.945C232.04 187.578 231.882 187.212 231.882 186.845C231.882 186.462 232.34 184.653 233.257 181.42C234.174 178.187 234.699 175.728 234.832 174.045C234.615 173.912 234.424 173.703 234.257 173.42C234.09 173.137 234.007 172.887 234.007 172.67C234.007 172.287 234.574 171.895 235.707 171.495C236.84 171.078 238.09 170.87 239.457 170.87C240.84 170.87 242.032 171.203 243.032 171.87C244.049 172.52 244.557 173.445 244.557 174.645C244.557 175.462 244.324 176.228 243.857 176.945C243.407 177.645 242.849 178.22 242.182 178.67C241.532 179.12 240.882 179.52 240.232 179.87C239.582 180.22 239.024 180.512 238.557 180.745C238.107 180.962 237.882 181.12 237.882 181.22C237.882 181.587 238.165 182.062 238.732 182.645C239.315 183.228 239.724 183.628 239.957 183.845C240.19 184.062 240.499 184.353 240.882 184.72C241.265 185.07 241.624 185.387 241.957 185.67C242.307 185.953 242.582 186.187 242.782 186.37C242.999 186.553 243.215 186.745 243.432 186.945C243.849 187.328 244.057 187.637 244.057 187.87C244.057 188.27 243.782 188.47 243.232 188.47C242.232 188.47 240.807 187.603 238.957 185.87C237.107 184.12 235.974 182.637 235.557 181.42C234.774 184.02 234.324 185.528 234.207 185.945C234.09 186.345 233.957 186.762 233.807 187.195C233.54 188.062 233.34 188.495 233.207 188.495ZM236.982 174.72C236.982 175.803 236.632 177.595 235.932 180.095C236.215 179.878 236.757 179.562 237.557 179.145C238.357 178.712 239.074 178.32 239.707 177.97C240.357 177.603 240.949 177.12 241.482 176.52C242.015 175.92 242.282 175.295 242.282 174.645C242.282 173.612 241.382 173.095 239.582 173.095C238.765 173.095 237.815 173.303 236.732 173.72C236.899 174.087 236.982 174.42 236.982 174.72ZM248.282 188.42C248.082 188.42 247.815 188.22 247.482 187.82C247.165 187.42 247.007 187.053 247.007 186.72C247.007 186.387 247.498 184.062 248.482 179.745C249.482 175.412 249.99 172.728 250.007 171.695C250.007 171.412 250.04 171.22 250.107 171.12C250.19 171.003 250.348 170.945 250.582 170.945C250.832 170.945 251.148 171.203 251.532 171.72C251.932 172.237 252.132 172.795 252.132 173.395C252.132 173.978 251.532 176.712 250.332 181.595C250.215 182.045 250.057 182.695 249.857 183.545C249.657 184.378 249.498 185.02 249.382 185.47C249.265 185.92 249.14 186.412 249.007 186.945C248.723 187.928 248.482 188.42 248.282 188.42ZM264.746 183.545C264.746 184.912 264.129 186.062 262.896 186.995C261.663 187.912 260.246 188.37 258.646 188.37C257.063 188.37 255.754 187.962 254.721 187.145C253.688 186.312 253.171 185.528 253.171 184.795C253.171 184.295 253.321 184.045 253.621 184.045C253.888 184.045 254.413 184.445 255.196 185.245C255.496 185.528 255.896 185.795 256.396 186.045C256.913 186.295 257.454 186.42 258.021 186.42C259.188 186.42 260.221 186.12 261.121 185.52C262.038 184.92 262.496 184.27 262.496 183.57C262.496 183.12 262.196 182.545 261.596 181.845C260.996 181.145 260.329 180.487 259.596 179.87C258.879 179.237 258.221 178.562 257.621 177.845C257.021 177.128 256.721 176.562 256.721 176.145C256.721 175.728 256.804 175.287 256.971 174.82C257.138 174.353 257.321 174.012 257.521 173.795C258.171 173.078 259.179 172.42 260.546 171.82C261.929 171.22 263.088 170.92 264.021 170.92C264.504 170.92 264.913 171.078 265.246 171.395C265.579 171.712 265.746 172.045 265.746 172.395C265.746 172.562 265.571 172.695 265.221 172.795C264.871 172.895 264.338 173.028 263.621 173.195C262.921 173.345 262.296 173.528 261.746 173.745C259.829 174.478 258.871 175.187 258.871 175.87C258.871 176.237 259.846 177.262 261.796 178.945C262.546 179.595 263.221 180.353 263.821 181.22C264.438 182.07 264.746 182.845 264.746 183.545ZM271.527 180.57C270.627 183.42 270.177 185.145 270.177 185.745C270.177 185.945 270.235 186.112 270.352 186.245C270.485 186.362 270.652 186.42 270.852 186.42C272.769 186.42 274.885 186.112 277.202 185.495C277.952 185.295 278.385 185.195 278.502 185.195C278.752 185.195 278.877 185.37 278.877 185.72C278.877 186.32 277.952 186.937 276.102 187.57C274.269 188.203 272.494 188.52 270.777 188.52C270.01 188.52 269.335 188.295 268.752 187.845C268.185 187.395 267.902 186.828 267.902 186.145C267.902 185.462 268.144 184.295 268.627 182.645C269.127 180.995 269.627 179.237 270.127 177.37C270.627 175.503 270.877 173.928 270.877 172.645C270.877 172.462 270.91 172.27 270.977 172.07C271.26 171.453 273.077 171.145 276.427 171.145C279.777 171.145 281.452 171.387 281.452 171.87C281.452 172.203 281.094 172.428 280.377 172.545C279.777 172.662 278.977 172.77 277.977 172.87C276.994 172.953 276.302 173.02 275.902 173.07C275.502 173.103 274.535 173.253 273.002 173.52V173.595C273.002 174.728 272.694 176.437 272.077 178.72C272.177 178.737 272.51 178.745 273.077 178.745C273.66 178.745 274.435 178.703 275.402 178.62C276.369 178.537 277.094 178.495 277.577 178.495C278.077 178.495 278.327 178.612 278.327 178.845C278.327 179.428 277.644 179.862 276.277 180.145C274.91 180.428 273.327 180.57 271.527 180.57ZM301.535 180.695C301.535 180.962 301.26 181.178 300.71 181.345C300.177 181.512 298.869 181.803 296.785 182.22C294.719 182.637 293.585 182.845 293.385 182.845C293.202 182.845 292.977 182.703 292.71 182.42C292.444 182.137 292.31 181.878 292.31 181.645C292.31 181.278 293.252 180.928 295.135 180.595C297.019 180.245 298.652 180.07 300.035 180.07C301.035 180.07 301.535 180.278 301.535 180.695ZM324.194 183.545C324.194 184.912 323.577 186.062 322.344 186.995C321.111 187.912 319.694 188.37 318.094 188.37C316.511 188.37 315.202 187.962 314.169 187.145C313.136 186.312 312.619 185.528 312.619 184.795C312.619 184.295 312.769 184.045 313.069 184.045C313.336 184.045 313.861 184.445 314.644 185.245C314.944 185.528 315.344 185.795 315.844 186.045C316.361 186.295 316.902 186.42 317.469 186.42C318.636 186.42 319.669 186.12 320.569 185.52C321.486 184.92 321.944 184.27 321.944 183.57C321.944 183.12 321.644 182.545 321.044 181.845C320.444 181.145 319.777 180.487 319.044 179.87C318.327 179.237 317.669 178.562 317.069 177.845C316.469 177.128 316.169 176.562 316.169 176.145C316.169 175.728 316.252 175.287 316.419 174.82C316.586 174.353 316.769 174.012 316.969 173.795C317.619 173.078 318.627 172.42 319.994 171.82C321.377 171.22 322.536 170.92 323.469 170.92C323.952 170.92 324.361 171.078 324.694 171.395C325.027 171.712 325.194 172.045 325.194 172.395C325.194 172.562 325.019 172.695 324.669 172.795C324.319 172.895 323.786 173.028 323.069 173.195C322.369 173.345 321.744 173.528 321.194 173.745C319.277 174.478 318.319 175.187 318.319 175.87C318.319 176.237 319.294 177.262 321.244 178.945C321.994 179.595 322.669 180.353 323.269 181.22C323.886 182.07 324.194 182.845 324.194 183.545ZM334.1 180.37C334.1 179.803 334.009 179.27 333.825 178.77C333.642 178.253 333.375 177.878 333.025 177.645C331.875 177.962 330.884 178.853 330.05 180.32C329.234 181.77 328.825 183.137 328.825 184.42C328.825 185.703 329.142 186.503 329.775 186.82C330.975 186.587 331.992 185.77 332.825 184.37C333.675 182.953 334.1 181.62 334.1 180.37ZM327.525 180.595C328.109 179.295 328.867 178.228 329.8 177.395C330.75 176.545 331.717 176.12 332.7 176.12C333.7 176.12 334.534 176.545 335.2 177.395C335.867 178.228 336.2 179.253 336.2 180.47C336.2 181.67 335.909 182.903 335.325 184.17C334.742 185.42 333.934 186.462 332.9 187.295C331.884 188.112 330.8 188.52 329.65 188.52C328.8 188.52 328.092 188.128 327.525 187.345C326.959 186.562 326.675 185.57 326.675 184.37C326.675 183.153 326.959 181.895 327.525 180.595ZM339.679 188.57C339.462 188.57 339.229 188.412 338.979 188.095C338.729 187.778 338.604 187.52 338.604 187.32C338.604 187.12 338.687 186.728 338.854 186.145C339.687 183.145 340.254 181.003 340.554 179.72C339.837 179.887 339.345 179.97 339.079 179.97C338.812 179.97 338.545 179.853 338.279 179.62C338.012 179.387 337.879 179.128 337.879 178.845C337.879 178.562 338.254 178.312 339.004 178.095C339.97 177.862 340.637 177.712 341.004 177.645C341.17 176.845 341.295 176.228 341.379 175.795C341.779 173.495 342.32 171.837 343.004 170.82C343.687 169.803 344.612 169.295 345.779 169.295C346.612 169.295 347.295 169.628 347.829 170.295C348.362 170.945 348.629 171.72 348.629 172.62C348.629 173.503 348.395 173.945 347.929 173.945C347.529 173.945 347.204 173.495 346.954 172.595C346.87 172.262 346.729 171.953 346.529 171.67C346.329 171.387 346.087 171.245 345.804 171.245C345.52 171.245 345.262 171.378 345.029 171.645C344.795 171.895 344.587 172.262 344.404 172.745C343.92 174.095 343.587 175.328 343.404 176.445L343.204 177.32C343.82 177.237 344.429 177.195 345.029 177.195C345.645 177.195 346.087 177.262 346.354 177.395C346.637 177.528 346.779 177.695 346.779 177.895C346.779 178.212 346.504 178.453 345.954 178.62C345.404 178.787 344.329 179.003 342.729 179.27C341.545 184.07 340.737 186.928 340.304 187.845C340.07 188.328 339.862 188.57 339.679 188.57ZM350.078 186.02C350.078 186.337 350.261 186.495 350.628 186.495C351.261 186.495 352.028 186.32 352.928 185.97C353.845 185.603 354.353 185.42 354.453 185.42C354.753 185.42 354.903 185.578 354.903 185.895C354.903 186.378 354.403 186.937 353.403 187.57C352.42 188.203 351.52 188.52 350.703 188.52C349.903 188.52 349.236 188.303 348.703 187.87C348.17 187.42 347.903 186.962 347.903 186.495C347.903 186.028 348.003 185.437 348.203 184.72C348.403 183.987 348.686 183.028 349.053 181.845C349.436 180.645 349.736 179.653 349.953 178.87C349.17 179.053 348.645 179.145 348.378 179.145C348.111 179.145 347.845 179.012 347.578 178.745C347.328 178.462 347.203 178.195 347.203 177.945C347.203 177.545 348.286 177.162 350.453 176.795C350.753 175.412 350.903 174.187 350.903 173.12C350.903 172.62 351.07 172.37 351.403 172.37C351.686 172.37 352.036 172.553 352.453 172.92C352.87 173.27 353.078 173.67 353.078 174.12C353.078 174.57 352.936 175.362 352.653 176.495C353.603 176.412 354.361 176.37 354.928 176.37C355.928 176.37 356.428 176.587 356.428 177.02C356.428 177.27 356.153 177.478 355.603 177.645C355.07 177.812 353.936 178.07 352.203 178.42C351.853 179.737 351.411 181.245 350.878 182.945C350.345 184.628 350.078 185.653 350.078 186.02ZM366.996 178.77L366.821 183.47C366.821 184.77 366.879 185.712 366.996 186.295C367.713 185.545 368.329 184.67 368.846 183.67C369.379 182.653 369.771 181.712 370.021 180.845C370.288 179.978 370.513 179.17 370.696 178.42C370.896 177.653 371.079 177.045 371.246 176.595C371.413 176.145 371.604 175.92 371.821 175.92C372.138 175.92 372.421 176.053 372.671 176.32C372.921 176.57 373.046 176.862 373.046 177.195C373.046 178.045 372.663 179.445 371.896 181.395C371.246 183.195 370.396 184.845 369.346 186.345C368.296 187.828 367.479 188.57 366.896 188.57C366.313 188.57 365.871 188.245 365.571 187.595C365.288 186.945 365.129 185.703 365.096 183.87C365.063 182.02 365.088 180.42 365.171 179.07C364.021 182.203 363.004 184.57 362.121 186.17C361.238 187.77 360.538 188.57 360.021 188.57C359.788 188.57 359.538 188.462 359.271 188.245C359.021 188.028 358.821 187.745 358.671 187.395C358.304 186.512 357.988 184.828 357.721 182.345C357.471 179.845 357.346 178.062 357.346 176.995C357.346 176.312 357.554 175.97 357.971 175.97C358.338 175.97 358.671 176.178 358.971 176.595C359.288 177.012 359.471 177.428 359.521 177.845C359.571 178.245 359.613 179.378 359.646 181.245C359.696 183.095 359.854 184.745 360.121 186.195C360.804 185.012 361.488 183.528 362.171 181.745C362.871 179.962 363.438 178.562 363.871 177.545C364.321 176.528 364.729 176.02 365.096 176.02C365.646 176.02 366.096 176.278 366.446 176.795C366.813 177.295 366.996 177.953 366.996 178.77ZM380.417 176.12C381.167 176.12 381.859 176.503 382.492 177.27C383.126 178.02 383.442 178.703 383.442 179.32C383.442 179.92 383.234 180.537 382.817 181.17C383.017 181.42 383.117 181.637 383.117 181.82C383.117 182.287 383.009 183.087 382.792 184.22C382.592 185.353 382.467 186.095 382.417 186.445C382.384 186.795 382.351 187.078 382.317 187.295C382.284 187.495 382.242 187.695 382.192 187.895C382.126 188.312 381.976 188.52 381.742 188.52C381.442 188.52 381.192 188.262 380.992 187.745C380.809 187.212 380.701 186.528 380.667 185.695C379.184 187.578 377.809 188.52 376.542 188.52C375.776 188.52 375.017 188.195 374.267 187.545C373.534 186.878 373.167 186.195 373.167 185.495C373.167 184.495 373.534 183.262 374.267 181.795C375.001 180.312 375.951 178.995 377.117 177.845C378.284 176.695 379.384 176.12 380.417 176.12ZM381.567 180.52C381.567 178.97 381.259 178.195 380.642 178.195C379.992 178.195 379.234 178.662 378.367 179.595C377.501 180.512 376.767 181.553 376.167 182.72C375.567 183.887 375.267 184.812 375.267 185.495C375.267 185.778 375.384 186.012 375.617 186.195C375.851 186.362 376.126 186.445 376.442 186.445C377.226 186.445 378.109 185.92 379.092 184.87C380.076 183.803 380.759 182.512 381.142 180.995C381.192 180.745 381.334 180.595 381.567 180.545V180.52ZM386.986 179.17L386.911 177.295C386.911 176.512 387.094 176.12 387.461 176.12C387.778 176.12 388.078 176.328 388.361 176.745C388.661 177.145 388.811 177.628 388.811 178.195C388.811 178.745 388.794 179.162 388.761 179.445C390.211 177.245 391.586 176.145 392.886 176.145C393.703 176.145 394.111 176.345 394.111 176.745C394.111 176.945 394.019 177.128 393.836 177.295C393.653 177.462 393.361 177.653 392.961 177.87C392.078 178.253 391.328 178.845 390.711 179.645C390.111 180.428 389.619 181.32 389.236 182.32C388.853 183.32 388.544 184.162 388.311 184.845C388.094 185.528 387.928 186.062 387.811 186.445C387.694 186.828 387.561 187.203 387.411 187.57C387.144 188.237 386.836 188.57 386.486 188.57C386.203 188.57 385.969 188.412 385.786 188.095C385.619 187.762 385.536 187.445 385.536 187.145C385.536 186.828 385.678 186.212 385.961 185.295C386.644 183.195 386.986 181.153 386.986 179.17ZM403.737 180.27C403.737 181.153 403.254 181.878 402.287 182.445C401.337 182.995 400.254 183.27 399.037 183.27C397.837 183.27 396.746 183.137 395.762 182.87C395.529 183.603 395.412 184.262 395.412 184.845C395.412 185.412 395.587 185.853 395.937 186.17C396.304 186.487 396.896 186.645 397.712 186.645C398.546 186.645 399.396 186.503 400.262 186.22C401.146 185.92 401.629 185.77 401.712 185.77C402.146 185.77 402.362 185.937 402.362 186.27C402.362 186.72 401.854 187.212 400.837 187.745C399.821 188.262 398.829 188.52 397.862 188.52C396.562 188.52 395.504 188.137 394.687 187.37C393.871 186.587 393.462 185.603 393.462 184.42C393.462 183.237 393.779 182.003 394.412 180.72C395.046 179.42 395.862 178.328 396.862 177.445C397.862 176.562 398.854 176.12 399.837 176.12C400.821 176.12 401.712 176.587 402.512 177.52C403.329 178.453 403.737 179.37 403.737 180.27ZM399.962 178.095C399.346 178.095 398.704 178.42 398.037 179.07C397.371 179.703 396.804 180.495 396.337 181.445C397.004 181.595 397.762 181.67 398.612 181.67C399.462 181.67 400.204 181.537 400.837 181.27C401.471 180.987 401.787 180.62 401.787 180.17C401.787 179.72 401.579 179.262 401.162 178.795C400.762 178.328 400.362 178.095 399.962 178.095ZM419.476 180.57C418.576 183.42 418.126 185.145 418.126 185.745C418.126 185.945 418.185 186.112 418.301 186.245C418.435 186.362 418.601 186.42 418.801 186.42C420.718 186.42 422.835 186.112 425.151 185.495C425.901 185.295 426.335 185.195 426.451 185.195C426.701 185.195 426.826 185.37 426.826 185.72C426.826 186.32 425.901 186.937 424.051 187.57C422.218 188.203 420.443 188.52 418.726 188.52C417.96 188.52 417.285 188.295 416.701 187.845C416.135 187.395 415.851 186.828 415.851 186.145C415.851 185.462 416.093 184.295 416.576 182.645C417.076 180.995 417.576 179.237 418.076 177.37C418.576 175.503 418.826 173.928 418.826 172.645C418.826 172.462 418.86 172.27 418.926 172.07C419.21 171.453 421.026 171.145 424.376 171.145C427.726 171.145 429.401 171.387 429.401 171.87C429.401 172.203 429.043 172.428 428.326 172.545C427.726 172.662 426.926 172.77 425.926 172.87C424.943 172.953 424.251 173.02 423.851 173.07C423.451 173.103 422.485 173.253 420.951 173.52V173.595C420.951 174.728 420.643 176.437 420.026 178.72C420.126 178.737 420.46 178.745 421.026 178.745C421.61 178.745 422.385 178.703 423.351 178.62C424.318 178.537 425.043 178.495 425.526 178.495C426.026 178.495 426.276 178.612 426.276 178.845C426.276 179.428 425.593 179.862 424.226 180.145C422.86 180.428 421.276 180.57 419.476 180.57ZM432.125 184.17C433.725 181.453 435.025 179.437 436.025 178.12C437.042 176.787 437.867 176.12 438.5 176.12C439.15 176.12 439.759 176.462 440.325 177.145C440.909 177.828 441.2 178.553 441.2 179.32C441.2 180.52 440.925 181.987 440.375 183.72C439.375 186.92 438.475 188.52 437.675 188.52C437.309 188.52 437.125 188.27 437.125 187.77C437.125 187.42 437.3 186.712 437.65 185.645C438.017 184.562 438.35 183.503 438.65 182.47C438.967 181.42 439.125 180.637 439.125 180.12C439.125 179.587 439.042 179.195 438.875 178.945C438.725 178.695 438.567 178.57 438.4 178.57C438.25 178.57 438.092 178.62 437.925 178.72C437.759 178.82 437.567 178.987 437.35 179.22C437.15 179.453 436.959 179.687 436.775 179.92C436.592 180.137 436.359 180.453 436.075 180.87C435.809 181.287 435.584 181.645 435.4 181.945C435.217 182.228 434.95 182.645 434.6 183.195C434.25 183.745 433.984 184.162 433.8 184.445C433.617 184.728 433.375 185.112 433.075 185.595C432.775 186.078 432.534 186.453 432.35 186.72C432.184 186.987 431.992 187.278 431.775 187.595C431.359 188.212 431.025 188.52 430.775 188.52C430.542 188.52 430.267 188.337 429.95 187.97C429.634 187.587 429.475 187.253 429.475 186.97C429.475 186.887 429.534 186.662 429.65 186.295C429.967 185.328 430.317 184.137 430.7 182.72C431.084 181.287 431.292 179.662 431.325 177.845C431.375 176.628 431.55 176.02 431.85 176.02C432.217 176.02 432.584 176.212 432.95 176.595C433.317 176.978 433.5 177.403 433.5 177.87C433.5 178.32 433.359 179.203 433.075 180.52C432.809 181.82 432.492 183.037 432.125 184.17ZM452.905 181.77C452.905 182.437 452.614 183.195 452.03 184.045C451.58 185.062 451.097 186.528 450.58 188.445C450.064 190.345 449.63 191.703 449.28 192.52C448.58 194.22 447.505 195.07 446.055 195.07C444.872 195.07 443.872 194.745 443.055 194.095C442.255 193.462 441.855 192.828 441.855 192.195C441.855 191.928 441.939 191.662 442.105 191.395C442.255 191.128 442.414 190.995 442.58 190.995C442.764 190.995 442.964 191.12 443.18 191.37C443.397 191.62 443.597 191.887 443.78 192.17C443.98 192.47 444.272 192.745 444.655 192.995C445.055 193.245 445.439 193.37 445.805 193.37C446.172 193.37 446.447 193.312 446.63 193.195C446.814 193.095 446.989 192.92 447.155 192.67C447.322 192.437 447.464 192.195 447.58 191.945C447.697 191.712 447.822 191.37 447.955 190.92C448.105 190.487 448.222 190.112 448.305 189.795C448.389 189.478 448.505 189.037 448.655 188.47C448.805 187.887 448.93 187.42 449.03 187.07C447.73 188.037 446.672 188.52 445.855 188.52C445.039 188.52 444.33 188.195 443.73 187.545C443.13 186.878 442.83 186.112 442.83 185.245C442.83 184.362 443.155 183.195 443.805 181.745C444.472 180.295 445.364 178.995 446.48 177.845C447.597 176.695 448.689 176.12 449.755 176.12C450.439 176.12 451.014 176.378 451.48 176.895C452.247 177.745 452.63 178.953 452.63 180.52C452.63 180.72 452.622 180.862 452.605 180.945C452.805 181.228 452.905 181.503 452.905 181.77ZM444.855 185.495C444.855 185.778 444.947 186.012 445.13 186.195C445.314 186.362 445.547 186.445 445.83 186.445C446.664 186.445 447.647 185.953 448.78 184.97C449.914 183.97 450.714 182.812 451.18 181.495C451.114 181.278 451.055 180.945 451.005 180.495C450.955 180.045 450.905 179.687 450.855 179.42C450.805 179.153 450.697 178.887 450.53 178.62C450.364 178.337 450.147 178.195 449.88 178.195C449.23 178.195 448.497 178.662 447.68 179.595C446.864 180.528 446.189 181.57 445.655 182.72C445.122 183.87 444.855 184.795 444.855 185.495ZM458.071 172.57C458.071 172.237 458.204 171.92 458.471 171.62C458.737 171.32 459.004 171.17 459.271 171.17C459.554 171.17 459.887 171.512 460.271 172.195C460.654 172.862 460.846 173.42 460.846 173.87C460.846 174.037 460.771 174.187 460.621 174.32C460.471 174.453 460.312 174.52 460.146 174.52C459.746 174.52 459.296 174.278 458.796 173.795C458.312 173.312 458.071 172.903 458.071 172.57ZM457.946 176.12C458.262 176.12 458.562 176.312 458.846 176.695C459.129 177.078 459.271 177.453 459.271 177.82C459.271 178.187 459.029 179.287 458.546 181.12C458.062 182.937 457.454 184.978 456.721 187.245C456.437 188.078 456.079 188.495 455.646 188.495C455.412 188.495 455.212 188.403 455.046 188.22C454.879 188.02 454.796 187.803 454.796 187.57C454.796 187.32 454.854 186.937 454.971 186.42C455.104 185.887 455.287 185.187 455.521 184.32C455.771 183.437 455.962 182.72 456.096 182.17C456.246 181.62 456.396 181.003 456.546 180.32C456.696 179.62 456.812 179.062 456.896 178.645C456.996 178.212 457.104 177.778 457.221 177.345C457.454 176.528 457.696 176.12 457.946 176.12ZM463.278 184.17C464.878 181.453 466.178 179.437 467.178 178.12C468.194 176.787 469.019 176.12 469.653 176.12C470.303 176.12 470.911 176.462 471.478 177.145C472.061 177.828 472.353 178.553 472.353 179.32C472.353 180.52 472.078 181.987 471.528 183.72C470.528 186.92 469.628 188.52 468.828 188.52C468.461 188.52 468.278 188.27 468.278 187.77C468.278 187.42 468.453 186.712 468.803 185.645C469.169 184.562 469.503 183.503 469.803 182.47C470.119 181.42 470.278 180.637 470.278 180.12C470.278 179.587 470.194 179.195 470.028 178.945C469.878 178.695 469.719 178.57 469.553 178.57C469.403 178.57 469.244 178.62 469.078 178.72C468.911 178.82 468.719 178.987 468.503 179.22C468.303 179.453 468.111 179.687 467.928 179.92C467.744 180.137 467.511 180.453 467.228 180.87C466.961 181.287 466.736 181.645 466.553 181.945C466.369 182.228 466.103 182.645 465.753 183.195C465.403 183.745 465.136 184.162 464.953 184.445C464.769 184.728 464.528 185.112 464.228 185.595C463.928 186.078 463.686 186.453 463.503 186.72C463.336 186.987 463.144 187.278 462.928 187.595C462.511 188.212 462.178 188.52 461.928 188.52C461.694 188.52 461.419 188.337 461.103 187.97C460.786 187.587 460.628 187.253 460.628 186.97C460.628 186.887 460.686 186.662 460.803 186.295C461.119 185.328 461.469 184.137 461.853 182.72C462.236 181.287 462.444 179.662 462.478 177.845C462.528 176.628 462.703 176.02 463.003 176.02C463.369 176.02 463.736 176.212 464.103 176.595C464.469 176.978 464.653 177.403 464.653 177.87C464.653 178.32 464.511 179.203 464.228 180.52C463.961 181.82 463.644 183.037 463.278 184.17ZM484.133 180.27C484.133 181.153 483.649 181.878 482.683 182.445C481.733 182.995 480.649 183.27 479.433 183.27C478.233 183.27 477.141 183.137 476.158 182.87C475.924 183.603 475.808 184.262 475.808 184.845C475.808 185.412 475.983 185.853 476.333 186.17C476.699 186.487 477.291 186.645 478.108 186.645C478.941 186.645 479.791 186.503 480.658 186.22C481.541 185.92 482.024 185.77 482.108 185.77C482.541 185.77 482.758 185.937 482.758 186.27C482.758 186.72 482.249 187.212 481.233 187.745C480.216 188.262 479.224 188.52 478.258 188.52C476.958 188.52 475.899 188.137 475.083 187.37C474.266 186.587 473.858 185.603 473.858 184.42C473.858 183.237 474.174 182.003 474.808 180.72C475.441 179.42 476.258 178.328 477.258 177.445C478.258 176.562 479.249 176.12 480.233 176.12C481.216 176.12 482.108 176.587 482.908 177.52C483.724 178.453 484.133 179.37 484.133 180.27ZM480.358 178.095C479.741 178.095 479.099 178.42 478.433 179.07C477.766 179.703 477.199 180.495 476.733 181.445C477.399 181.595 478.158 181.67 479.008 181.67C479.858 181.67 480.599 181.537 481.233 181.27C481.866 180.987 482.183 180.62 482.183 180.17C482.183 179.72 481.974 179.262 481.558 178.795C481.158 178.328 480.758 178.095 480.358 178.095ZM495.388 180.27C495.388 181.153 494.904 181.878 493.938 182.445C492.988 182.995 491.904 183.27 490.688 183.27C489.488 183.27 488.396 183.137 487.413 182.87C487.179 183.603 487.063 184.262 487.063 184.845C487.063 185.412 487.238 185.853 487.588 186.17C487.954 186.487 488.546 186.645 489.363 186.645C490.196 186.645 491.046 186.503 491.913 186.22C492.796 185.92 493.279 185.77 493.363 185.77C493.796 185.77 494.013 185.937 494.013 186.27C494.013 186.72 493.504 187.212 492.488 187.745C491.471 188.262 490.479 188.52 489.513 188.52C488.213 188.52 487.154 188.137 486.338 187.37C485.521 186.587 485.113 185.603 485.113 184.42C485.113 183.237 485.429 182.003 486.063 180.72C486.696 179.42 487.513 178.328 488.513 177.445C489.513 176.562 490.504 176.12 491.488 176.12C492.471 176.12 493.363 176.587 494.163 177.52C494.979 178.453 495.388 179.37 495.388 180.27ZM491.613 178.095C490.996 178.095 490.354 178.42 489.688 179.07C489.021 179.703 488.454 180.495 487.988 181.445C488.654 181.595 489.413 181.67 490.263 181.67C491.113 181.67 491.854 181.537 492.488 181.27C493.121 180.987 493.438 180.62 493.438 180.17C493.438 179.72 493.229 179.262 492.813 178.795C492.413 178.328 492.013 178.095 491.613 178.095ZM498.168 179.17L498.093 177.295C498.093 176.512 498.276 176.12 498.643 176.12C498.959 176.12 499.259 176.328 499.543 176.745C499.843 177.145 499.993 177.628 499.993 178.195C499.993 178.745 499.976 179.162 499.943 179.445C501.393 177.245 502.768 176.145 504.068 176.145C504.884 176.145 505.293 176.345 505.293 176.745C505.293 176.945 505.201 177.128 505.018 177.295C504.834 177.462 504.543 177.653 504.143 177.87C503.259 178.253 502.509 178.845 501.893 179.645C501.293 180.428 500.801 181.32 500.418 182.32C500.034 183.32 499.726 184.162 499.493 184.845C499.276 185.528 499.109 186.062 498.993 186.445C498.876 186.828 498.743 187.203 498.593 187.57C498.326 188.237 498.018 188.57 497.668 188.57C497.384 188.57 497.151 188.412 496.968 188.095C496.801 187.762 496.718 187.445 496.718 187.145C496.718 186.828 496.859 186.212 497.143 185.295C497.826 183.195 498.168 181.153 498.168 179.17Z" fill="black"/>
</svg>
