<svg width="545" height="696" viewBox="0 0 545 696" fill="none" xmlns="http://www.w3.org/2000/svg">
<rect x="269.32" y="336.455" width="71.0902" height="87.2704" rx="9" stroke="black" stroke-width="2"/>
<rect x="277.251" y="360.005" width="9.48498" height="3.34764" rx="1.67382" fill="#6F6F6F"/>
<rect x="299.568" y="360.005" width="12.8326" height="3.34764" rx="1.67382" fill="#9A9A9A"/>
<rect x="277.251" y="367.816" width="9.48498" height="3.34764" rx="1.67382" fill="#6F6F6F"/>
<rect x="299.568" y="367.816" width="12.8326" height="3.34764" rx="1.67382" fill="#9A9A9A"/>
<rect x="277.251" y="375.627" width="9.48498" height="3.34764" rx="1.67382" fill="#6F6F6F"/>
<rect x="299.568" y="375.627" width="12.8326" height="3.34764" rx="1.67382" fill="#9A9A9A"/>
<rect x="277.251" y="383.996" width="9.48498" height="3.34764" rx="1.67382" fill="#6F6F6F"/>
<rect x="299.568" y="383.996" width="12.8326" height="3.34764" rx="1.67382" fill="#9A9A9A"/>
<rect x="277.251" y="392.365" width="9.48498" height="3.34764" rx="1.67382" fill="#6F6F6F"/>
<rect x="299.568" y="392.365" width="12.8326" height="3.34764" rx="1.67382" fill="#9A9A9A"/>
<rect x="277.251" y="400.177" width="9.48498" height="3.34764" rx="1.67382" fill="#6F6F6F"/>
<rect x="299.568" y="400.177" width="12.8326" height="3.34764" rx="1.67382" fill="#9A9A9A"/>
<rect x="276.69" y="344.941" width="56.9099" height="6.69528" fill="#C4C4C4"/>
<rect x="361.797" y="464.572" width="71.0902" height="87.2704" rx="9" stroke="black" stroke-width="2"/>
<rect x="369.723" y="488.121" width="9.48498" height="3.34764" rx="1.67382" fill="#6F6F6F"/>
<rect x="392.04" y="488.121" width="12.8326" height="3.34764" rx="1.67382" fill="#9A9A9A"/>
<rect x="369.723" y="495.932" width="9.48498" height="3.34764" rx="1.67382" fill="#6F6F6F"/>
<rect x="392.04" y="495.932" width="12.8326" height="3.34764" rx="1.67382" fill="#9A9A9A"/>
<rect x="369.723" y="503.743" width="9.48498" height="3.34764" rx="1.67382" fill="#6F6F6F"/>
<rect x="392.04" y="503.743" width="12.8326" height="3.34764" rx="1.67382" fill="#9A9A9A"/>
<rect x="369.723" y="512.112" width="9.48498" height="3.34764" rx="1.67382" fill="#6F6F6F"/>
<rect x="392.04" y="512.112" width="12.8326" height="3.34764" rx="1.67382" fill="#9A9A9A"/>
<rect x="369.723" y="520.482" width="9.48498" height="3.34764" rx="1.67382" fill="#6F6F6F"/>
<rect x="392.04" y="520.482" width="12.8326" height="3.34764" rx="1.67382" fill="#9A9A9A"/>
<rect x="369.723" y="528.293" width="9.48498" height="3.34764" rx="1.67382" fill="#6F6F6F"/>
<rect x="392.04" y="528.293" width="12.8326" height="3.34764" rx="1.67382" fill="#9A9A9A"/>
<rect x="369.165" y="473.057" width="56.9099" height="6.69528" fill="#C4C4C4"/>
<rect x="122.867" y="431.267" width="71.0902" height="87.2704" rx="9" stroke="black" stroke-width="2"/>
<rect x="130.795" y="454.816" width="9.48498" height="3.34764" rx="1.67382" fill="#6F6F6F"/>
<rect x="153.111" y="454.816" width="12.8326" height="3.34764" rx="1.67382" fill="#9A9A9A"/>
<rect x="130.795" y="462.628" width="9.48498" height="3.34764" rx="1.67382" fill="#6F6F6F"/>
<rect x="153.111" y="462.628" width="12.8326" height="3.34764" rx="1.67382" fill="#9A9A9A"/>
<rect x="130.795" y="470.438" width="9.48498" height="3.34764" rx="1.67382" fill="#6F6F6F"/>
<rect x="153.111" y="470.438" width="12.8326" height="3.34764" rx="1.67382" fill="#9A9A9A"/>
<rect x="130.795" y="478.807" width="9.48498" height="3.34764" rx="1.67382" fill="#6F6F6F"/>
<rect x="153.111" y="478.807" width="12.8326" height="3.34764" rx="1.67382" fill="#9A9A9A"/>
<rect x="130.795" y="487.176" width="9.48498" height="3.34764" rx="1.67382" fill="#6F6F6F"/>
<rect x="153.111" y="487.176" width="12.8326" height="3.34764" rx="1.67382" fill="#9A9A9A"/>
<rect x="130.795" y="494.988" width="9.48498" height="3.34764" rx="1.67382" fill="#6F6F6F"/>
<rect x="153.111" y="494.988" width="12.8326" height="3.34764" rx="1.67382" fill="#9A9A9A"/>
<rect x="130.234" y="439.752" width="56.9099" height="6.69528" fill="#C4C4C4"/>
<rect x="122.867" y="531.855" width="71.0902" height="87.2704" rx="9" stroke="black" stroke-width="2"/>
<rect x="130.795" y="555.404" width="9.48498" height="3.34764" rx="1.67382" fill="#6F6F6F"/>
<rect x="153.111" y="555.404" width="12.8326" height="3.34764" rx="1.67382" fill="#9A9A9A"/>
<rect x="130.795" y="563.215" width="9.48498" height="3.34764" rx="1.67382" fill="#6F6F6F"/>
<rect x="153.111" y="563.215" width="12.8326" height="3.34764" rx="1.67382" fill="#9A9A9A"/>
<rect x="130.795" y="571.026" width="9.48498" height="3.34764" rx="1.67382" fill="#6F6F6F"/>
<rect x="153.111" y="571.026" width="12.8326" height="3.34764" rx="1.67382" fill="#9A9A9A"/>
<rect x="130.795" y="579.395" width="9.48498" height="3.34764" rx="1.67382" fill="#6F6F6F"/>
<rect x="153.111" y="579.395" width="12.8326" height="3.34764" rx="1.67382" fill="#9A9A9A"/>
<rect x="130.795" y="587.764" width="9.48498" height="3.34764" rx="1.67382" fill="#6F6F6F"/>
<rect x="153.111" y="587.764" width="12.8326" height="3.34764" rx="1.67382" fill="#9A9A9A"/>
<rect x="130.795" y="595.576" width="9.48498" height="3.34764" rx="1.67382" fill="#6F6F6F"/>
<rect x="153.111" y="595.576" width="12.8326" height="3.34764" rx="1.67382" fill="#9A9A9A"/>
<rect x="130.234" y="540.34" width="56.9099" height="6.69528" fill="#C4C4C4"/>
<circle cx="181.845" cy="597.528" r="2.51073" fill="#C4C4C4"/>
<circle cx="181.845" cy="589.717" r="2.51073" fill="#C4C4C4"/>
<rect x="248.633" y="462.615" width="71.0902" height="87.2704" rx="9" stroke="black" stroke-width="2"/>
<rect x="256.561" y="486.164" width="9.48498" height="3.34764" rx="1.67382" fill="#6F6F6F"/>
<rect x="278.88" y="486.164" width="12.8326" height="3.34764" rx="1.67382" fill="#9A9A9A"/>
<rect x="256.561" y="493.975" width="9.48498" height="3.34764" rx="1.67382" fill="#6F6F6F"/>
<rect x="278.88" y="493.975" width="12.8326" height="3.34764" rx="1.67382" fill="#9A9A9A"/>
<rect x="256.561" y="501.786" width="9.48498" height="3.34764" rx="1.67382" fill="#6F6F6F"/>
<rect x="278.88" y="501.786" width="12.8326" height="3.34764" rx="1.67382" fill="#9A9A9A"/>
<rect x="256.561" y="510.155" width="9.48498" height="3.34764" rx="1.67382" fill="#6F6F6F"/>
<rect x="278.88" y="510.155" width="12.8326" height="3.34764" rx="1.67382" fill="#9A9A9A"/>
<rect x="256.561" y="518.524" width="9.48498" height="3.34764" rx="1.67382" fill="#6F6F6F"/>
<rect x="278.88" y="518.524" width="12.8326" height="3.34764" rx="1.67382" fill="#9A9A9A"/>
<rect x="256.561" y="526.336" width="9.48498" height="3.34764" rx="1.67382" fill="#6F6F6F"/>
<rect x="278.88" y="526.336" width="12.8326" height="3.34764" rx="1.67382" fill="#9A9A9A"/>
<rect x="256.002" y="471.1" width="56.9099" height="6.69528" fill="#C4C4C4"/>
<circle cx="307.614" cy="528.289" r="2.51073" fill="#C4C4C4"/>
<circle cx="307.614" cy="496.478" r="2.51073" fill="#C4C4C4"/>
<rect x="363.91" y="337.404" width="71.0902" height="87.2704" rx="9" stroke="black" stroke-width="2"/>
<rect x="371.838" y="360.954" width="9.48498" height="3.34764" rx="1.67382" fill="#6F6F6F"/>
<rect x="394.155" y="360.954" width="12.8326" height="3.34764" rx="1.67382" fill="#9A9A9A"/>
<rect x="371.838" y="368.765" width="9.48498" height="3.34764" rx="1.67382" fill="#6F6F6F"/>
<rect x="394.155" y="368.765" width="12.8326" height="3.34764" rx="1.67382" fill="#9A9A9A"/>
<rect x="371.838" y="376.576" width="9.48498" height="3.34764" rx="1.67382" fill="#6F6F6F"/>
<rect x="394.155" y="376.576" width="12.8326" height="3.34764" rx="1.67382" fill="#9A9A9A"/>
<rect x="371.838" y="384.945" width="9.48498" height="3.34764" rx="1.67382" fill="#6F6F6F"/>
<rect x="394.155" y="384.945" width="12.8326" height="3.34764" rx="1.67382" fill="#9A9A9A"/>
<rect x="371.838" y="393.315" width="9.48498" height="3.34764" rx="1.67382" fill="#6F6F6F"/>
<rect x="394.155" y="393.315" width="12.8326" height="3.34764" rx="1.67382" fill="#9A9A9A"/>
<rect x="371.838" y="401.126" width="9.48498" height="3.34764" rx="1.67382" fill="#6F6F6F"/>
<rect x="394.155" y="401.126" width="12.8326" height="3.34764" rx="1.67382" fill="#9A9A9A"/>
<rect x="371.278" y="345.889" width="56.9099" height="6.69528" fill="#C4C4C4"/>
<path d="M229.209 387.034L228.709 387.033L228.709 387.033L229.209 387.034ZM229.282 358.983L228.782 358.982L228.782 358.982L229.282 358.983ZM239.16 349.01L239.167 349.51L239.16 349.01ZM265.242 348.692L260.207 345.866L260.278 351.64L265.242 348.692ZM198.035 396.508C197.759 396.508 197.535 396.732 197.535 397.008C197.535 397.284 197.759 397.508 198.035 397.508V396.508ZM229.709 387.035L229.782 358.985L228.782 358.982L228.709 387.033L229.709 387.035ZM239.167 349.51L260.749 349.247L260.737 348.247L239.154 348.51L239.167 349.51ZM219.209 396.508H198.035V397.508H219.209V396.508ZM229.782 358.985C229.796 353.793 233.975 349.574 239.167 349.51L239.154 348.51C233.416 348.58 228.798 353.244 228.782 358.982L229.782 358.985ZM228.709 387.033C228.695 392.27 224.446 396.508 219.209 396.508V397.508C224.997 397.508 229.694 392.823 229.709 387.035L228.709 387.033Z" fill="black"/>
<path d="M116.734 588.417C117.01 588.413 117.231 588.187 117.228 587.91C117.224 587.634 116.998 587.413 116.722 587.417L116.734 588.417ZM98.3123 588.147L98.3061 587.647L98.3123 588.147ZM88.1877 578.209L87.6877 578.212L88.1877 578.209ZM87.0612 395.311L87.5612 395.308L87.0612 395.311ZM96.9383 385.25L96.9322 384.75L96.9322 384.75L96.9383 385.25ZM116.728 385.007L111.693 382.182L111.764 387.955L116.728 385.007ZM116.722 587.417L98.3061 587.647L98.3186 588.646L116.734 588.417L116.722 587.417ZM88.6877 578.206L87.5612 395.308L86.5612 395.314L87.6877 578.212L88.6877 578.206ZM96.9444 385.75L112.234 385.562L112.222 384.562L96.9322 384.75L96.9444 385.75ZM87.5612 395.308C87.529 390.084 91.7208 385.814 96.9444 385.75L96.9322 384.75C91.1587 384.821 86.5257 389.54 86.5612 395.314L87.5612 395.308ZM98.3061 587.647C93.0363 587.712 88.7202 583.476 88.6877 578.206L87.6877 578.212C87.7236 584.037 92.4941 588.719 98.3186 588.646L98.3061 587.647Z" fill="black"/>
<path d="M197.977 602.635C197.7 602.631 197.48 602.404 197.485 602.127C197.489 601.851 197.716 601.631 197.993 601.635L197.977 602.635ZM210.137 602.33L210.129 602.83L210.137 602.33ZM220.297 592.344L219.797 592.343L220.297 592.344ZM220.402 506.123L220.902 506.123L220.402 506.123ZM210.566 496.112L210.574 495.612L210.574 495.612L210.566 496.112ZM197.985 495.906L203.031 493.101L202.937 498.874L197.985 495.906ZM197.993 601.635L210.145 601.83L210.129 602.83L197.977 602.635L197.993 601.635ZM219.797 592.343L219.902 506.122L220.902 506.123L220.797 592.344L219.797 592.343ZM210.557 496.612L202.476 496.479L202.492 495.48L210.574 495.612L210.557 496.612ZM219.902 506.122C219.908 500.931 215.747 496.697 210.557 496.612L210.574 495.612C216.31 495.706 220.909 500.386 220.902 506.123L219.902 506.122ZM210.145 601.83C215.446 601.915 219.79 597.645 219.797 592.343L220.797 592.344C220.79 598.204 215.988 602.924 210.129 602.83L210.145 601.83Z" fill="black"/>
<path d="M325.126 528.886C324.85 528.881 324.622 529.101 324.617 529.377C324.612 529.653 324.832 529.881 325.108 529.885L325.126 528.886ZM335.107 529.561L335.098 530.061L335.107 529.561ZM345.282 519.671L345.782 519.677L345.782 519.677L345.282 519.671ZM345.934 459.662L346.434 459.668L346.434 459.668L345.934 459.662ZM355.898 449.771L355.9 450.271L355.9 450.271L355.898 449.771ZM386.949 449.661L386.948 449.161L386.948 449.161L386.949 449.661ZM396.914 439.616L396.414 439.618L396.414 439.618L396.914 439.616ZM396.877 431.444L394.013 436.458L399.786 436.431L396.877 431.444ZM325.108 529.885L335.098 530.061L335.115 529.061L325.126 528.886L325.108 529.885ZM345.782 519.677L346.434 459.668L345.434 459.657L344.782 519.666L345.782 519.677ZM355.9 450.271L386.951 450.161L386.948 449.161L355.896 449.271L355.9 450.271ZM397.414 439.613L397.397 435.942L396.397 435.947L396.414 439.618L397.414 439.613ZM386.951 450.161C392.754 450.14 397.44 445.416 397.414 439.613L396.414 439.618C396.438 444.868 392.198 449.142 386.948 449.161L386.951 450.161ZM346.434 459.668C346.491 454.475 350.707 450.29 355.9 450.271L355.896 449.271C350.157 449.292 345.497 453.917 345.434 459.657L346.434 459.668ZM335.098 530.061C340.923 530.163 345.718 525.503 345.782 519.677L344.782 519.666C344.724 524.937 340.386 529.154 335.115 529.061L335.098 530.061Z" fill="black"/>
<path d="M243.805 495.51C244.081 495.514 244.308 495.293 244.311 495.017C244.314 494.74 244.093 494.514 243.817 494.51L243.805 495.51ZM233.744 494.887L233.75 494.387L233.744 494.887ZM223.868 485.018L224.368 485.012L224.368 485.012L223.868 485.018ZM223.013 419.686L223.513 419.679L223.513 419.679L223.013 419.686ZM213.129 409.817L213.135 409.317L213.135 409.317L213.129 409.817ZM194.617 409.604L199.584 412.548L199.65 406.775L194.617 409.604ZM243.817 494.51L233.75 494.387L233.738 495.387L243.805 495.51L243.817 494.51ZM224.368 485.012L223.513 419.679L222.513 419.692L223.368 485.025L224.368 485.012ZM213.135 409.317L199.123 409.156L199.111 410.156L213.124 410.317L213.135 409.317ZM223.513 419.679C223.439 413.981 218.833 409.383 213.135 409.317L213.124 410.317C218.279 410.377 222.446 414.537 222.513 419.692L223.513 419.679ZM233.75 494.387C228.598 494.324 224.435 490.164 224.368 485.012L223.368 485.025C223.442 490.72 228.043 495.317 233.738 495.387L233.75 494.387Z" fill="black"/>
<path d="M197.625 385.51C197.349 385.514 197.122 385.293 197.119 385.017C197.115 384.74 197.336 384.514 197.612 384.51L197.625 385.51ZM207.643 384.887L207.65 385.387L207.643 384.887ZM217.52 374.975L217.02 374.971L217.02 374.971L217.52 374.975ZM217.989 321.348L217.489 321.344L217.489 321.327L217.491 321.311L217.989 321.348ZM396.663 323.508L396.163 323.517L396.663 323.508ZM396.813 332.604L393.844 327.652L399.617 327.558L396.813 332.604ZM225.983 313.917L225.982 313.417L225.982 313.417L225.983 313.917ZM295.523 313.794L295.522 313.294L295.522 313.294L295.523 313.794ZM386.651 313.672L386.652 314.172L386.652 314.172L386.651 313.672ZM197.612 384.51L207.637 384.387L207.65 385.387L197.625 385.51L197.612 384.51ZM217.02 374.971L217.489 321.344L218.489 321.353L218.02 374.98L217.02 374.971ZM397.163 323.5L397.239 328.097L396.239 328.113L396.163 323.517L397.163 323.5ZM225.982 313.417L295.522 313.294L295.524 314.294L225.984 314.417L225.982 313.417ZM295.522 313.294L386.651 313.172L386.652 314.172L295.524 314.294L295.522 313.294ZM396.163 323.517C396.078 318.326 391.843 314.165 386.652 314.172L386.651 313.172C392.388 313.165 397.069 317.764 397.163 323.5L396.163 323.517ZM217.491 321.311C217.823 316.865 221.524 313.424 225.982 313.417L225.984 314.417C222.048 314.423 218.781 317.46 218.488 321.386L217.491 321.311ZM207.637 384.387C212.806 384.324 216.975 380.14 217.02 374.971L218.02 374.98C217.97 380.693 213.362 385.317 207.65 385.387L207.637 384.387Z" fill="black"/>
<rect x="121" y="328" width="71.0902" height="87.2704" rx="9" stroke="black" stroke-width="2"/>
<rect x="128.928" y="351.549" width="9.48498" height="3.34764" rx="1.67382" fill="#6F6F6F"/>
<rect x="151.247" y="351.549" width="12.8326" height="3.34764" rx="1.67382" fill="#9A9A9A"/>
<rect x="128.928" y="359.36" width="9.48498" height="3.34764" rx="1.67382" fill="#6F6F6F"/>
<rect x="151.247" y="359.36" width="12.8326" height="3.34764" rx="1.67382" fill="#9A9A9A"/>
<rect x="128.928" y="367.171" width="9.48498" height="3.34764" rx="1.67382" fill="#6F6F6F"/>
<rect x="151.247" y="367.171" width="12.8326" height="3.34764" rx="1.67382" fill="#9A9A9A"/>
<rect x="128.928" y="375.54" width="9.48498" height="3.34764" rx="1.67382" fill="#6F6F6F"/>
<rect x="151.247" y="375.54" width="12.8326" height="3.34764" rx="1.67382" fill="#9A9A9A"/>
<rect x="128.928" y="383.909" width="9.48498" height="3.34764" rx="1.67382" fill="#6F6F6F"/>
<rect x="151.247" y="383.909" width="12.8326" height="3.34764" rx="1.67382" fill="#9A9A9A"/>
<rect x="128.928" y="391.721" width="9.48498" height="3.34764" rx="1.67382" fill="#6F6F6F"/>
<rect x="151.247" y="391.721" width="12.8326" height="3.34764" rx="1.67382" fill="#9A9A9A"/>
<rect x="128.37" y="336.485" width="56.9099" height="6.69528" fill="#C4C4C4"/>
<circle cx="179.981" cy="393.674" r="2.51073" fill="#C4C4C4"/>
<circle cx="179.981" cy="385.863" r="2.51073" fill="#C4C4C4"/>
<path d="M234.124 250.885C233.848 250.882 233.621 251.102 233.617 251.379C233.613 251.655 233.834 251.882 234.11 251.885L234.124 250.885ZM250.012 251.6L250.019 251.1L250.012 251.6ZM260.147 241.577L260.647 241.575L260.647 241.575L260.147 241.577ZM260.066 208.721L259.566 208.722L259.566 208.722L260.066 208.721ZM269.956 198.697L269.95 198.197L269.95 198.197L269.956 198.697ZM292.877 198.444L287.845 195.613L287.909 201.386L292.877 198.444ZM234.11 251.885L250.005 252.1L250.019 251.1L234.124 250.885L234.11 251.885ZM260.647 241.575L260.566 208.72L259.566 208.722L259.647 241.578L260.647 241.575ZM269.961 199.197L288.382 198.994L288.371 197.994L269.95 198.197L269.961 199.197ZM260.566 208.72C260.553 203.505 264.747 199.254 269.961 199.197L269.95 198.197C264.187 198.26 259.552 202.958 259.566 208.722L260.566 208.72ZM250.005 252.1C255.869 252.18 260.662 247.44 260.647 241.575L259.647 241.578C259.66 246.884 255.324 251.172 250.019 251.1L250.005 252.1Z" fill="black"/>
<rect x="157" y="183" width="71.0902" height="87.2704" rx="4" stroke="black" stroke-width="2"/>
<rect x="164.928" y="206.549" width="9.48498" height="3.34764" rx="1.67382" fill="#6F6F6F"/>
<rect x="187.247" y="206.549" width="12.8326" height="3.34764" rx="1.67382" fill="#9A9A9A"/>
<rect x="164.928" y="214.36" width="9.48498" height="3.34764" rx="1.67382" fill="#6F6F6F"/>
<rect x="187.247" y="214.36" width="12.8326" height="3.34764" rx="1.67382" fill="#9A9A9A"/>
<rect x="164.928" y="222.171" width="9.48498" height="3.34764" rx="1.67382" fill="#6F6F6F"/>
<rect x="187.247" y="222.171" width="12.8326" height="3.34764" rx="1.67382" fill="#9A9A9A"/>
<rect x="164.928" y="230.54" width="9.48498" height="3.34764" rx="1.67382" fill="#6F6F6F"/>
<rect x="187.247" y="230.54" width="12.8326" height="3.34764" rx="1.67382" fill="#9A9A9A"/>
<rect x="164.928" y="238.909" width="9.48498" height="3.34764" rx="1.67382" fill="#6F6F6F"/>
<rect x="187.247" y="238.909" width="12.8326" height="3.34764" rx="1.67382" fill="#9A9A9A"/>
<rect x="164.928" y="246.721" width="9.48498" height="3.34764" rx="1.67382" fill="#6F6F6F"/>
<rect x="187.247" y="246.721" width="12.8326" height="3.34764" rx="1.67382" fill="#9A9A9A"/>
<rect x="164.37" y="191.485" width="56.9099" height="6.69528" fill="#C4C4C4"/>
<circle cx="215.981" cy="248.674" r="2.51073" fill="#C4C4C4"/>
<circle cx="215.981" cy="240.863" r="2.51073" fill="#C4C4C4"/>
<rect x="297" y="184" width="71.0902" height="87.2704" rx="9" stroke="black" stroke-width="2"/>
<rect x="304.928" y="207.549" width="9.48498" height="3.34764" rx="1.67382" fill="#6F6F6F"/>
<rect x="327.247" y="207.549" width="12.8326" height="3.34764" rx="1.67382" fill="#9A9A9A"/>
<rect x="304.928" y="215.36" width="9.48498" height="3.34764" rx="1.67382" fill="#6F6F6F"/>
<rect x="327.247" y="215.36" width="12.8326" height="3.34764" rx="1.67382" fill="#9A9A9A"/>
<rect x="304.928" y="223.171" width="9.48498" height="3.34764" rx="1.67382" fill="#6F6F6F"/>
<rect x="327.247" y="223.171" width="12.8326" height="3.34764" rx="1.67382" fill="#9A9A9A"/>
<rect x="304.928" y="231.54" width="9.48498" height="3.34764" rx="1.67382" fill="#6F6F6F"/>
<rect x="327.247" y="231.54" width="12.8326" height="3.34764" rx="1.67382" fill="#9A9A9A"/>
<rect x="304.928" y="239.909" width="9.48498" height="3.34764" rx="1.67382" fill="#6F6F6F"/>
<rect x="327.247" y="239.909" width="12.8326" height="3.34764" rx="1.67382" fill="#9A9A9A"/>
<rect x="304.928" y="247.721" width="9.48498" height="3.34764" rx="1.67382" fill="#6F6F6F"/>
<rect x="327.247" y="247.721" width="12.8326" height="3.34764" rx="1.67382" fill="#9A9A9A"/>
<rect x="304.37" y="192.485" width="56.9099" height="6.69528" fill="#C4C4C4"/>
<circle cx="355.981" cy="249.674" r="2.51073" fill="#C4C4C4"/>
<circle cx="355.981" cy="241.863" r="2.51073" fill="#C4C4C4"/>
<rect x="1.5" y="1.5" width="542" height="692.46" stroke="black" stroke-width="3"/>
<path d="M122.68 79V104H119.32V79H110V76.08H132V79H122.68ZM150.424 91.32H139.544V104H136.184V76.08H139.544V88.4H150.424V76.08H153.784V104H150.424V91.32ZM160.569 104V76.08H177.769V79H163.929V88.4H177.289V91.32H163.929V101.08H177.769V104H160.569ZM224.178 104L221.818 96.04H212.018L209.658 104H206.178L214.738 76.08H219.178L227.738 104H224.178ZM217.098 79.64H216.738L212.818 93.12H221.018L217.098 79.64ZM235.882 104H232.522V76.08H242.682C245.269 76.08 247.242 76.7867 248.602 78.2C249.962 79.6133 250.642 81.5867 250.642 84.12C250.642 86.3867 250.055 88.2 248.882 89.56C247.709 90.92 246.002 91.7067 243.762 91.92L250.882 104H247.122L240.322 92.08H235.882V104ZM242.602 89.24C244.015 89.24 245.109 88.8933 245.882 88.2C246.682 87.48 247.082 86.4667 247.082 85.16V83.08C247.082 81.7733 246.682 80.7733 245.882 80.08C245.109 79.36 244.015 79 242.602 79H235.882V89.24H242.602ZM265.826 104.48C262.413 104.48 259.866 103.24 258.186 100.76C256.533 98.28 255.706 94.7067 255.706 90.04C255.706 85.3733 256.533 81.8 258.186 79.32C259.866 76.84 262.413 75.6 265.826 75.6C267.106 75.6 268.213 75.7733 269.146 76.12C270.08 76.4667 270.88 76.9333 271.546 77.52C272.213 78.1067 272.773 78.7733 273.226 79.52C273.68 80.24 274.08 80.9733 274.426 81.72L271.546 83.04C271.306 82.4267 271.026 81.8533 270.706 81.32C270.386 80.76 270 80.28 269.546 79.88C269.12 79.4533 268.6 79.12 267.986 78.88C267.4 78.64 266.68 78.52 265.826 78.52C263.613 78.52 261.96 79.36 260.866 81.04C259.8 82.72 259.266 84.96 259.266 87.76V92.32C259.266 95.12 259.8 97.36 260.866 99.04C261.96 100.72 263.613 101.56 265.826 101.56C266.68 101.56 267.4 101.44 267.986 101.2C268.6 100.96 269.12 100.64 269.546 100.24C270 99.8133 270.386 99.3333 270.706 98.8C271.026 98.24 271.306 97.6533 271.546 97.04L274.426 98.36C274.08 99.1333 273.68 99.88 273.226 100.6C272.773 101.32 272.213 101.973 271.546 102.56C270.88 103.147 270.08 103.613 269.146 103.96C268.213 104.307 267.106 104.48 265.826 104.48ZM294.331 91.32H283.451V104H280.091V76.08H283.451V88.4H294.331V76.08H297.691V104H294.331V91.32ZM304.235 104V101.32H311.195V78.76H304.235V76.08H321.515V78.76H314.555V101.32H321.515V104H304.235ZM338.539 79V104H335.179V79H325.859V76.08H347.859V79H338.539ZM352.444 104V76.08H369.644V79H355.804V88.4H369.164V91.32H355.804V101.08H369.644V104H352.444ZM385.748 104.48C382.335 104.48 379.788 103.24 378.108 100.76C376.455 98.28 375.628 94.7067 375.628 90.04C375.628 85.3733 376.455 81.8 378.108 79.32C379.788 76.84 382.335 75.6 385.748 75.6C387.028 75.6 388.135 75.7733 389.068 76.12C390.001 76.4667 390.801 76.9333 391.468 77.52C392.135 78.1067 392.695 78.7733 393.148 79.52C393.601 80.24 394.001 80.9733 394.348 81.72L391.468 83.04C391.228 82.4267 390.948 81.8533 390.628 81.32C390.308 80.76 389.921 80.28 389.468 79.88C389.041 79.4533 388.521 79.12 387.908 78.88C387.321 78.64 386.601 78.52 385.748 78.52C383.535 78.52 381.881 79.36 380.788 81.04C379.721 82.72 379.188 84.96 379.188 87.76V92.32C379.188 95.12 379.721 97.36 380.788 99.04C381.881 100.72 383.535 101.56 385.748 101.56C386.601 101.56 387.321 101.44 387.908 101.2C388.521 100.96 389.041 100.64 389.468 100.24C389.921 99.8133 390.308 99.3333 390.628 98.8C390.948 98.24 391.228 97.6533 391.468 97.04L394.348 98.36C394.001 99.1333 393.601 99.88 393.148 100.6C392.695 101.32 392.135 101.973 391.468 102.56C390.801 103.147 390.001 103.613 389.068 103.96C388.135 104.307 387.028 104.48 385.748 104.48ZM410.493 79V104H407.133V79H397.813V76.08H419.813V79H410.493Z" fill="black"/>
<path d="M81.8 135.192C81.1173 135.192 80.5307 135.064 80.04 134.808C79.5493 134.541 79.144 134.163 78.824 133.672C78.504 133.181 78.2693 132.579 78.12 131.864C77.9707 131.149 77.896 130.333 77.896 129.416C77.896 128.509 77.9707 127.699 78.12 126.984C78.2693 126.259 78.504 125.651 78.824 125.16C79.144 124.669 79.5493 124.296 80.04 124.04C80.5307 123.773 81.1173 123.64 81.8 123.64C82.4827 123.64 83.0693 123.773 83.56 124.04C84.0507 124.296 84.456 124.669 84.776 125.16C85.096 125.651 85.3307 126.259 85.48 126.984C85.6293 127.699 85.704 128.509 85.704 129.416C85.704 130.333 85.6293 131.149 85.48 131.864C85.3307 132.579 85.096 133.181 84.776 133.672C84.456 134.163 84.0507 134.541 83.56 134.808C83.0693 135.064 82.4827 135.192 81.8 135.192ZM81.8 134.024C82.248 134.024 82.6267 133.939 82.936 133.768C83.2453 133.587 83.5013 133.336 83.704 133.016C83.9067 132.696 84.0507 132.312 84.136 131.864C84.232 131.405 84.28 130.893 84.28 130.328V128.504C84.28 127.949 84.232 127.443 84.136 126.984C84.0507 126.525 83.9067 126.136 83.704 125.816C83.5013 125.496 83.2453 125.251 82.936 125.08C82.6267 124.899 82.248 124.808 81.8 124.808C81.352 124.808 80.9733 124.899 80.664 125.08C80.3547 125.251 80.0987 125.496 79.896 125.816C79.6933 126.136 79.544 126.525 79.448 126.984C79.3627 127.443 79.32 127.949 79.32 128.504V130.328C79.32 130.893 79.3627 131.405 79.448 131.864C79.544 132.312 79.6933 132.696 79.896 133.016C80.0987 133.336 80.3547 133.587 80.664 133.768C80.9733 133.939 81.352 134.024 81.8 134.024ZM89.2018 125.544H89.0898V135H87.8738V123.832H89.7778L93.5858 133.192H93.6978V123.832H94.9138V135H93.0098L89.2018 125.544ZM97.6275 135V123.832H104.508V125H98.9715V128.76H104.316V129.928H98.9715V133.832H104.508V135H97.6275ZM116.783 123.832H120.575C121.535 123.832 122.287 124.093 122.831 124.616C123.375 125.139 123.647 125.837 123.647 126.712C123.647 127.384 123.482 127.912 123.151 128.296C122.831 128.68 122.415 128.952 121.903 129.112V129.16C122.532 129.309 123.05 129.592 123.455 130.008C123.86 130.413 124.063 131.005 124.063 131.784C124.063 132.232 123.988 132.653 123.839 133.048C123.69 133.443 123.476 133.784 123.199 134.072C122.932 134.36 122.612 134.589 122.239 134.76C121.876 134.92 121.482 135 121.055 135H116.783V123.832ZM120.655 133.832C121.274 133.832 121.759 133.693 122.111 133.416C122.463 133.139 122.639 132.712 122.639 132.136V131.48C122.639 130.915 122.463 130.493 122.111 130.216C121.759 129.928 121.274 129.784 120.655 129.784H118.127V133.832H120.655ZM120.431 128.68C120.996 128.68 121.439 128.557 121.759 128.312C122.079 128.056 122.239 127.672 122.239 127.16V126.536C122.239 126.024 122.079 125.64 121.759 125.384C121.439 125.128 120.996 125 120.431 125H118.127V128.68H120.431ZM127.593 123.832V130.536C127.593 131.08 127.609 131.565 127.641 131.992C127.673 132.419 127.758 132.787 127.897 133.096C128.035 133.395 128.249 133.624 128.537 133.784C128.835 133.944 129.246 134.024 129.769 134.024C130.291 134.024 130.697 133.944 130.985 133.784C131.283 133.624 131.502 133.395 131.641 133.096C131.779 132.787 131.865 132.419 131.897 131.992C131.929 131.565 131.945 131.08 131.945 130.536V123.832H133.289V130.216C133.289 131.048 133.246 131.773 133.161 132.392C133.086 133.011 132.921 133.528 132.665 133.944C132.419 134.36 132.062 134.675 131.593 134.888C131.134 135.091 130.526 135.192 129.769 135.192C129.011 135.192 128.398 135.091 127.929 134.888C127.47 134.675 127.113 134.36 126.857 133.944C126.611 133.528 126.446 133.011 126.361 132.392C126.286 131.773 126.249 131.048 126.249 130.216V123.832H127.593ZM135.907 135V133.928H138.691V124.904H135.907V123.832H142.819V124.904H140.035V133.928H142.819V135H135.907ZM146.076 135V123.832H147.42V133.832H152.716V135H146.076ZM159.222 125V135H157.878V125H154.15V123.832H162.95V125H159.222ZM178.41 125V135H177.066V125H173.338V123.832H182.138V125H178.41ZM187.331 135.192C186.649 135.192 186.062 135.064 185.571 134.808C185.081 134.541 184.675 134.163 184.355 133.672C184.035 133.181 183.801 132.579 183.651 131.864C183.502 131.149 183.427 130.333 183.427 129.416C183.427 128.509 183.502 127.699 183.651 126.984C183.801 126.259 184.035 125.651 184.355 125.16C184.675 124.669 185.081 124.296 185.571 124.04C186.062 123.773 186.649 123.64 187.331 123.64C188.014 123.64 188.601 123.773 189.091 124.04C189.582 124.296 189.987 124.669 190.307 125.16C190.627 125.651 190.862 126.259 191.011 126.984C191.161 127.699 191.235 128.509 191.235 129.416C191.235 130.333 191.161 131.149 191.011 131.864C190.862 132.579 190.627 133.181 190.307 133.672C189.987 134.163 189.582 134.541 189.091 134.808C188.601 135.064 188.014 135.192 187.331 135.192ZM187.331 134.024C187.779 134.024 188.158 133.939 188.467 133.768C188.777 133.587 189.033 133.336 189.235 133.016C189.438 132.696 189.582 132.312 189.667 131.864C189.763 131.405 189.811 130.893 189.811 130.328V128.504C189.811 127.949 189.763 127.443 189.667 126.984C189.582 126.525 189.438 126.136 189.235 125.816C189.033 125.496 188.777 125.251 188.467 125.08C188.158 124.899 187.779 124.808 187.331 124.808C186.883 124.808 186.505 124.899 186.195 125.08C185.886 125.251 185.63 125.496 185.427 125.816C185.225 126.136 185.075 126.525 184.979 126.984C184.894 127.443 184.851 127.949 184.851 128.504V130.328C184.851 130.893 184.894 131.405 184.979 131.864C185.075 132.312 185.225 132.696 185.427 133.016C185.63 133.336 185.886 133.587 186.195 133.768C186.505 133.939 186.883 134.024 187.331 134.024ZM203.159 135L202.279 123.832H203.479L203.943 130.232L204.183 133.608H204.311L205.783 126.744H207.287L208.759 133.608H208.887L209.127 130.232L209.591 123.832H210.759L209.879 135H207.943L206.583 128.328H206.455L205.095 135H203.159ZM216.113 135.192C215.43 135.192 214.843 135.064 214.353 134.808C213.862 134.541 213.457 134.163 213.137 133.672C212.817 133.181 212.582 132.579 212.433 131.864C212.283 131.149 212.209 130.333 212.209 129.416C212.209 128.509 212.283 127.699 212.433 126.984C212.582 126.259 212.817 125.651 213.137 125.16C213.457 124.669 213.862 124.296 214.353 124.04C214.843 123.773 215.43 123.64 216.113 123.64C216.795 123.64 217.382 123.773 217.873 124.04C218.363 124.296 218.769 124.669 219.089 125.16C219.409 125.651 219.643 126.259 219.793 126.984C219.942 127.699 220.017 128.509 220.017 129.416C220.017 130.333 219.942 131.149 219.793 131.864C219.643 132.579 219.409 133.181 219.089 133.672C218.769 134.163 218.363 134.541 217.873 134.808C217.382 135.064 216.795 135.192 216.113 135.192ZM216.113 134.024C216.561 134.024 216.939 133.939 217.249 133.768C217.558 133.587 217.814 133.336 218.017 133.016C218.219 132.696 218.363 132.312 218.449 131.864C218.545 131.405 218.593 130.893 218.593 130.328V128.504C218.593 127.949 218.545 127.443 218.449 126.984C218.363 126.525 218.219 126.136 218.017 125.816C217.814 125.496 217.558 125.251 217.249 125.08C216.939 124.899 216.561 124.808 216.113 124.808C215.665 124.808 215.286 124.899 214.977 125.08C214.667 125.251 214.411 125.496 214.209 125.816C214.006 126.136 213.857 126.525 213.761 126.984C213.675 127.443 213.633 127.949 213.633 128.504V130.328C213.633 130.893 213.675 131.405 213.761 131.864C213.857 132.312 214.006 132.696 214.209 133.016C214.411 133.336 214.667 133.587 214.977 133.768C215.286 133.939 215.665 134.024 216.113 134.024ZM223.69 135H222.346V123.832H226.41C227.445 123.832 228.234 124.115 228.778 124.68C229.322 125.245 229.594 126.035 229.594 127.048C229.594 127.955 229.36 128.68 228.89 129.224C228.421 129.768 227.738 130.083 226.842 130.168L229.69 135H228.186L225.466 130.232H223.69V135ZM226.378 129.096C226.944 129.096 227.381 128.957 227.69 128.68C228.01 128.392 228.17 127.987 228.17 127.464V126.632C228.17 126.109 228.01 125.709 227.69 125.432C227.381 125.144 226.944 125 226.378 125H223.69V129.096H226.378ZM234.804 129.528L233.204 131.416V135H231.86V123.832H233.204V129.656H233.252L234.724 127.8L238.02 123.832H239.636L235.716 128.536L239.748 135H238.18L234.804 129.528ZM255.16 125V135H253.816V125H250.088V123.832H258.888V125H255.16ZM266.257 129.928H261.905V135H260.561V123.832H261.905V128.76H266.257V123.832H267.601V135H266.257V129.928ZM270.315 135V123.832H277.195V125H271.659V128.76H277.003V129.928H271.659V133.832H277.195V135H270.315ZM292.863 135.192C292.18 135.192 291.593 135.064 291.103 134.808C290.612 134.541 290.207 134.163 289.887 133.672C289.567 133.181 289.332 132.579 289.183 131.864C289.033 131.149 288.959 130.333 288.959 129.416C288.959 128.509 289.033 127.699 289.183 126.984C289.332 126.259 289.567 125.651 289.887 125.16C290.207 124.669 290.612 124.296 291.103 124.04C291.593 123.773 292.18 123.64 292.863 123.64C293.545 123.64 294.132 123.773 294.623 124.04C295.113 124.296 295.519 124.669 295.839 125.16C296.159 125.651 296.393 126.259 296.543 126.984C296.692 127.699 296.767 128.509 296.767 129.416C296.767 130.333 296.692 131.149 296.543 131.864C296.393 132.579 296.159 133.181 295.839 133.672C295.519 134.163 295.113 134.541 294.623 134.808C294.132 135.064 293.545 135.192 292.863 135.192ZM292.863 134.024C293.311 134.024 293.689 133.939 293.999 133.768C294.308 133.587 294.564 133.336 294.767 133.016C294.969 132.696 295.113 132.312 295.199 131.864C295.295 131.405 295.343 130.893 295.343 130.328V128.504C295.343 127.949 295.295 127.443 295.199 126.984C295.113 126.525 294.969 126.136 294.767 125.816C294.564 125.496 294.308 125.251 293.999 125.08C293.689 124.899 293.311 124.808 292.863 124.808C292.415 124.808 292.036 124.899 291.727 125.08C291.417 125.251 291.161 125.496 290.959 125.816C290.756 126.136 290.607 126.525 290.511 126.984C290.425 127.443 290.383 127.949 290.383 128.504V130.328C290.383 130.893 290.425 131.405 290.511 131.864C290.607 132.312 290.756 132.696 290.959 133.016C291.161 133.336 291.417 133.587 291.727 133.768C292.036 133.939 292.415 134.024 292.863 134.024ZM303.128 125V135H301.784V125H298.056V123.832H306.856V125H303.128ZM314.226 129.928H309.874V135H308.53V123.832H309.874V128.76H314.226V123.832H315.57V135H314.226V129.928ZM318.284 135V123.832H325.164V125H319.628V128.76H324.972V129.928H319.628V133.832H325.164V135H318.284ZM329.222 135H327.878V123.832H331.942C332.976 123.832 333.766 124.115 334.31 124.68C334.854 125.245 335.126 126.035 335.126 127.048C335.126 127.955 334.891 128.68 334.422 129.224C333.952 129.768 333.27 130.083 332.374 130.168L335.222 135H333.718L330.998 130.232H329.222V135ZM331.91 129.096C332.475 129.096 332.912 128.957 333.222 128.68C333.542 128.392 333.702 127.987 333.702 127.464V126.632C333.702 126.109 333.542 125.709 333.222 125.432C332.912 125.144 332.475 125 331.91 125H329.222V129.096H331.91ZM347.033 123.832H350.825C351.785 123.832 352.537 124.093 353.081 124.616C353.625 125.139 353.897 125.837 353.897 126.712C353.897 127.384 353.732 127.912 353.401 128.296C353.081 128.68 352.665 128.952 352.153 129.112V129.16C352.782 129.309 353.3 129.592 353.705 130.008C354.11 130.413 354.313 131.005 354.313 131.784C354.313 132.232 354.238 132.653 354.089 133.048C353.94 133.443 353.726 133.784 353.449 134.072C353.182 134.36 352.862 134.589 352.489 134.76C352.126 134.92 351.732 135 351.305 135H347.033V123.832ZM350.905 133.832C351.524 133.832 352.009 133.693 352.361 133.416C352.713 133.139 352.889 132.712 352.889 132.136V131.48C352.889 130.915 352.713 130.493 352.361 130.216C352.009 129.928 351.524 129.784 350.905 129.784H348.377V133.832H350.905ZM350.681 128.68C351.246 128.68 351.689 128.557 352.009 128.312C352.329 128.056 352.489 127.672 352.489 127.16V126.536C352.489 126.024 352.329 125.64 352.009 125.384C351.689 125.128 351.246 125 350.681 125H348.377V128.68H350.681ZM357.843 123.832V130.536C357.843 131.08 357.859 131.565 357.891 131.992C357.923 132.419 358.008 132.787 358.147 133.096C358.285 133.395 358.499 133.624 358.787 133.784C359.085 133.944 359.496 134.024 360.019 134.024C360.541 134.024 360.947 133.944 361.235 133.784C361.533 133.624 361.752 133.395 361.891 133.096C362.029 132.787 362.115 132.419 362.147 131.992C362.179 131.565 362.195 131.08 362.195 130.536V123.832H363.539V130.216C363.539 131.048 363.496 131.773 363.411 132.392C363.336 133.011 363.171 133.528 362.915 133.944C362.669 134.36 362.312 134.675 361.843 134.888C361.384 135.091 360.776 135.192 360.019 135.192C359.261 135.192 358.648 135.091 358.179 134.888C357.72 134.675 357.363 134.36 357.107 133.944C356.861 133.528 356.696 133.011 356.611 132.392C356.536 131.773 356.499 131.048 356.499 130.216V123.832H357.843ZM366.157 135V133.928H368.941V124.904H366.157V123.832H373.069V124.904H370.285V133.928H373.069V135H366.157ZM376.326 135V123.832H377.67V133.832H382.966V135H376.326ZM389.472 125V135H388.128V125H384.4V123.832H393.2V125H389.472ZM408.66 125V135H407.316V125H403.588V123.832H412.388V125H408.66ZM417.581 135.192C416.899 135.192 416.312 135.064 415.821 134.808C415.331 134.541 414.925 134.163 414.605 133.672C414.285 133.181 414.051 132.579 413.901 131.864C413.752 131.149 413.677 130.333 413.677 129.416C413.677 128.509 413.752 127.699 413.901 126.984C414.051 126.259 414.285 125.651 414.605 125.16C414.925 124.669 415.331 124.296 415.821 124.04C416.312 123.773 416.899 123.64 417.581 123.64C418.264 123.64 418.851 123.773 419.341 124.04C419.832 124.296 420.237 124.669 420.557 125.16C420.877 125.651 421.112 126.259 421.261 126.984C421.411 127.699 421.485 128.509 421.485 129.416C421.485 130.333 421.411 131.149 421.261 131.864C421.112 132.579 420.877 133.181 420.557 133.672C420.237 134.163 419.832 134.541 419.341 134.808C418.851 135.064 418.264 135.192 417.581 135.192ZM417.581 134.024C418.029 134.024 418.408 133.939 418.717 133.768C419.027 133.587 419.283 133.336 419.485 133.016C419.688 132.696 419.832 132.312 419.917 131.864C420.013 131.405 420.061 130.893 420.061 130.328V128.504C420.061 127.949 420.013 127.443 419.917 126.984C419.832 126.525 419.688 126.136 419.485 125.816C419.283 125.496 419.027 125.251 418.717 125.08C418.408 124.899 418.029 124.808 417.581 124.808C417.133 124.808 416.755 124.899 416.445 125.08C416.136 125.251 415.88 125.496 415.677 125.816C415.475 126.136 415.325 126.525 415.229 126.984C415.144 127.443 415.101 127.949 415.101 128.504V130.328C415.101 130.893 415.144 131.405 415.229 131.864C415.325 132.312 415.475 132.696 415.677 133.016C415.88 133.336 416.136 133.587 416.445 133.768C416.755 133.939 417.133 134.024 417.581 134.024ZM433.889 135V123.832H435.233V133.832H440.529V135H433.889ZM449.259 135L448.315 131.816H444.395L443.451 135H442.059L445.483 123.832H447.259L450.683 135H449.259ZM446.427 125.256H446.283L444.715 130.648H447.995L446.427 125.256ZM455.924 135.192C454.922 135.192 454.1 135.011 453.46 134.648C452.82 134.275 452.292 133.8 451.876 133.224L452.852 132.424C453.29 132.968 453.748 133.373 454.228 133.64C454.719 133.907 455.3 134.04 455.972 134.04C456.783 134.04 457.402 133.853 457.828 133.48C458.255 133.107 458.468 132.584 458.468 131.912C458.468 131.368 458.314 130.947 458.004 130.648C457.695 130.339 457.156 130.12 456.388 129.992L455.14 129.784C454.596 129.688 454.138 129.544 453.764 129.352C453.402 129.16 453.108 128.931 452.884 128.664C452.66 128.387 452.5 128.088 452.404 127.768C452.308 127.437 452.26 127.096 452.26 126.744C452.26 125.72 452.596 124.947 453.268 124.424C453.94 123.901 454.847 123.64 455.988 123.64C456.884 123.64 457.636 123.789 458.244 124.088C458.863 124.387 459.359 124.808 459.732 125.352L458.788 126.168C458.479 125.763 458.106 125.432 457.668 125.176C457.231 124.92 456.666 124.792 455.972 124.792C455.215 124.792 454.634 124.952 454.228 125.272C453.823 125.592 453.62 126.072 453.62 126.712C453.62 127.213 453.77 127.624 454.068 127.944C454.378 128.253 454.927 128.477 455.716 128.616L456.916 128.824C457.46 128.92 457.919 129.064 458.292 129.256C458.666 129.448 458.964 129.677 459.188 129.944C459.423 130.211 459.588 130.509 459.684 130.84C459.78 131.171 459.828 131.517 459.828 131.88C459.828 132.915 459.487 133.725 458.804 134.312C458.132 134.899 457.172 135.192 455.924 135.192ZM466.222 125V135H464.878V125H461.15V123.832H469.95V125H466.222Z" fill="black"/>
<path d="M122.938 34.1211C123.879 34.1211 124.52 33.6797 124.855 33.1758H124.902L124.762 34H126.121L126.789 29.9844C127.055 28.3984 125.84 27.9219 124.699 27.9219C123.438 27.9219 122.363 28.4844 121.879 29.5781L123.16 29.7656C123.371 29.3516 123.852 29.0039 124.539 29.0039C125.195 29.0039 125.477 29.3437 125.383 29.9297V29.9531C125.313 30.3516 124.879 30.3789 123.805 30.4922C122.621 30.6172 121.453 30.9648 121.227 32.3164C121.031 33.4922 121.797 34.1211 122.938 34.1211ZM123.473 33.082C122.883 33.082 122.512 32.8086 122.598 32.293C122.68 31.7461 123.199 31.5234 123.848 31.4336C124.219 31.3828 124.98 31.2891 125.188 31.1406L125.07 31.8477C124.961 32.5156 124.32 33.082 123.473 33.082ZM134.314 28H133.061L133.139 27.5273C133.225 27.0586 133.459 26.7969 133.986 26.7969C134.209 26.7969 134.381 26.8477 134.498 26.8828L134.959 25.7891C134.791 25.7266 134.408 25.625 133.916 25.625C132.877 25.625 131.936 26.2227 131.748 27.4336L131.654 28H130.768L130.584 29.0937H131.471L130.65 34H132.064L132.877 29.0937H134.131L134.314 28ZM138.671 31.4766C138.522 32.3906 137.796 32.8437 137.171 32.8437C136.495 32.8437 136.124 32.3633 136.241 31.6016L136.843 28H135.429L134.788 31.8203C134.55 33.2617 135.233 34.0781 136.413 34.0781C137.312 34.0781 138.038 33.6055 138.413 32.9336H138.476L138.296 34H139.667L140.667 28H139.253L138.671 31.4766ZM143.863 26H142.449L141.121 34H142.535L143.863 26ZM146.731 26H145.317L143.989 34H145.403L146.731 26ZM155.059 29.5859C155.031 28.5664 154.313 27.9219 152.883 27.9219C151.461 27.9219 150.383 28.6055 150.199 29.6953C150.047 30.5898 150.516 31.1836 151.629 31.4297L152.613 31.6445C153.152 31.7656 153.348 31.9609 153.293 32.2812C153.23 32.7109 152.699 33.0547 152 33.0508C151.383 33.0469 151.02 32.7734 150.988 32.2305L149.598 32.3633C149.594 33.4609 150.426 34.1172 151.922 34.1172C153.398 34.1172 154.563 33.3633 154.75 32.2539C154.895 31.3711 154.41 30.832 153.316 30.5859L152.324 30.3672C151.746 30.2266 151.555 30.0352 151.613 29.7148C151.676 29.2852 152.203 28.9766 152.816 28.9766C153.449 28.9766 153.715 29.3242 153.758 29.7266L155.059 29.5859ZM159.619 28H158.432L158.67 26.5625H157.256L157.018 28H156.17L155.99 29.0937H156.838L156.287 32.4297C156.092 33.5547 156.811 34.1094 157.885 34.082C158.283 34.0703 158.576 33.9922 158.748 33.9414L158.686 32.8359C158.6 32.8516 158.436 32.8906 158.264 32.8906C157.908 32.8906 157.643 32.7656 157.732 32.1953L158.248 29.0937H159.436L159.619 28ZM161.513 34.1211C162.454 34.1211 163.095 33.6797 163.431 33.1758H163.478L163.337 34H164.696L165.364 29.9844C165.63 28.3984 164.415 27.9219 163.274 27.9219C162.013 27.9219 160.938 28.4844 160.454 29.5781L161.735 29.7656C161.946 29.3516 162.427 29.0039 163.114 29.0039C163.771 29.0039 164.052 29.3437 163.958 29.9297V29.9531C163.888 30.3516 163.454 30.3789 162.38 30.4922C161.196 30.6172 160.028 30.9648 159.802 32.3164C159.606 33.4922 160.372 34.1211 161.513 34.1211ZM162.048 33.082C161.458 33.082 161.087 32.8086 161.173 32.293C161.255 31.7461 161.774 31.5234 162.423 31.4336C162.794 31.3828 163.556 31.2891 163.763 31.1406L163.646 31.8477C163.536 32.5156 162.896 33.082 162.048 33.082ZM168.72 34.1172C170.228 34.1172 171.325 33.2266 171.653 31.9492H170.302C170.067 32.5938 169.544 32.9648 168.923 32.9648C168.04 32.9648 167.591 32.2266 167.794 31C167.985 29.7891 168.692 29.0625 169.571 29.0625C170.247 29.0625 170.595 29.5 170.606 30.0781H171.962C172.075 28.7773 171.204 27.9219 169.743 27.9219C167.981 27.9219 166.653 29.1914 166.36 31.0234C166.056 32.8398 166.923 34.1172 168.72 34.1172ZM172.467 34H173.881L174.217 31.9805L174.822 31.4336L176.232 34H177.924L176.029 30.5937L178.787 28H177.135L174.568 30.4102H174.479L175.209 26H173.795L172.467 34ZM184.099 34.1172C185.501 34.1172 186.567 33.4336 186.997 32.3906L185.704 32.2422C185.423 32.7539 184.923 33.0156 184.302 33.0156C183.349 33.0156 182.86 32.5312 183.036 31.4062L183.04 31.3867H187.224L187.29 30.9531C187.642 28.8516 186.532 27.9219 185.056 27.9219C183.341 27.9219 182.005 29.1836 181.7 31.0352C181.384 32.9141 182.294 34.1172 184.099 34.1172ZM183.208 30.4336C183.368 29.7148 184.083 29.0234 184.896 29.0234C185.712 29.0234 186.153 29.6172 186.017 30.4336H183.208ZM189.989 30.4844C190.142 29.6172 190.747 29.1172 191.489 29.1172C192.228 29.1172 192.579 29.6016 192.446 30.3984L191.849 34H193.263L193.903 30.1797C194.142 28.7383 193.45 27.9219 192.224 27.9219C191.325 27.9219 190.626 28.3477 190.251 29.0195H190.177L190.349 28H188.993L187.993 34H189.411L189.989 30.4844ZM196.927 36.375C198.54 36.375 199.86 35.6367 200.11 34.0977L201.118 28H199.724L199.56 28.9922H199.485C199.341 28.5586 198.997 27.9219 197.938 27.9219C196.552 27.9219 195.282 29.0078 194.958 30.9805C194.63 32.9375 195.556 33.9141 196.942 33.9141C197.97 33.9141 198.544 33.3633 198.825 32.9219H198.896L198.716 34.0586C198.575 34.9414 197.911 35.3047 197.11 35.3047C196.247 35.3047 195.962 34.9063 195.845 34.5508L194.517 34.8594C194.646 35.6992 195.392 36.375 196.927 36.375ZM197.505 32.8047C196.567 32.8047 196.216 32.0781 196.396 30.9727C196.575 29.8828 197.169 29.082 198.114 29.082C199.021 29.082 199.419 29.8359 199.235 30.9727C199.048 32.1172 198.403 32.8047 197.505 32.8047ZM201.567 34H202.981L203.981 28H202.567L201.567 34ZM203.481 27.1406C203.931 27.1406 204.329 26.7969 204.36 26.375C204.396 25.9492 204.06 25.6055 203.61 25.6055C203.157 25.6055 202.763 25.9492 202.724 26.375C202.688 26.7969 203.032 27.1406 203.481 27.1406ZM206.436 30.4844C206.588 29.6172 207.193 29.1172 207.936 29.1172C208.674 29.1172 209.025 29.6016 208.893 30.3984L208.295 34H209.709L210.35 30.1797C210.588 28.7383 209.896 27.9219 208.67 27.9219C207.771 27.9219 207.072 28.3477 206.697 29.0195H206.623L206.795 28H205.439L204.439 34H205.857L206.436 30.4844ZM213.779 34.1172C215.182 34.1172 216.248 33.4336 216.678 32.3906L215.385 32.2422C215.104 32.7539 214.604 33.0156 213.982 33.0156C213.029 33.0156 212.541 32.5312 212.717 31.4062L212.721 31.3867H216.904L216.971 30.9531C217.322 28.8516 216.213 27.9219 214.736 27.9219C213.021 27.9219 211.686 29.1836 211.381 31.0352C211.064 32.9141 211.975 34.1172 213.779 34.1172ZM212.889 30.4336C213.049 29.7148 213.764 29.0234 214.576 29.0234C215.393 29.0234 215.834 29.6172 215.697 30.4336H212.889ZM220.311 34.1172C221.713 34.1172 222.779 33.4336 223.209 32.3906L221.916 32.2422C221.635 32.7539 221.135 33.0156 220.514 33.0156C219.561 33.0156 219.072 32.5312 219.248 31.4062L219.252 31.3867H223.436L223.502 30.9531C223.854 28.8516 222.744 27.9219 221.268 27.9219C219.553 27.9219 218.217 29.1836 217.912 31.0352C217.596 32.9141 218.506 34.1172 220.311 34.1172ZM219.42 30.4336C219.58 29.7148 220.295 29.0234 221.107 29.0234C221.924 29.0234 222.365 29.6172 222.229 30.4336H219.42ZM224.201 34H225.615L226.197 30.4727C226.33 29.7109 226.99 29.1719 227.764 29.1719C228.01 29.1719 228.295 29.2109 228.416 29.2539L228.635 27.9531C228.498 27.9258 228.291 27.9141 228.131 27.9141C227.443 27.9141 226.795 28.3047 226.467 29H226.404L226.572 28H225.201L224.201 34ZM228.573 34H229.987L230.987 28H229.573L228.573 34ZM230.487 27.1406C230.937 27.1406 231.335 26.7969 231.366 26.375C231.401 25.9492 231.065 25.6055 230.616 25.6055C230.163 25.6055 229.769 25.9492 229.729 26.375C229.694 26.7969 230.038 27.1406 230.487 27.1406ZM233.441 30.4844C233.594 29.6172 234.199 29.1172 234.941 29.1172C235.68 29.1172 236.031 29.6016 235.898 30.3984L235.301 34H236.715L237.355 30.1797C237.594 28.7383 236.902 27.9219 235.676 27.9219C234.777 27.9219 234.078 28.3477 233.703 29.0195H233.629L233.801 28H232.445L231.445 34H232.863L233.441 30.4844ZM240.379 36.375C241.992 36.375 243.313 35.6367 243.563 34.0977L244.57 28H243.176L243.012 28.9922H242.938C242.793 28.5586 242.449 27.9219 241.391 27.9219C240.004 27.9219 238.734 29.0078 238.41 30.9805C238.082 32.9375 239.008 33.9141 240.395 33.9141C241.422 33.9141 241.996 33.3633 242.277 32.9219H242.348L242.168 34.0586C242.027 34.9414 241.363 35.3047 240.563 35.3047C239.699 35.3047 239.414 34.9063 239.297 34.5508L237.969 34.8594C238.098 35.6992 238.844 36.375 240.379 36.375ZM240.957 32.8047C240.02 32.8047 239.668 32.0781 239.848 30.9727C240.027 29.8828 240.621 29.082 241.566 29.082C242.473 29.082 242.871 29.8359 242.688 30.9727C242.5 32.1172 241.855 32.8047 240.957 32.8047ZM250.389 34.1172C251.791 34.1172 252.857 33.4336 253.287 32.3906L251.994 32.2422C251.713 32.7539 251.213 33.0156 250.592 33.0156C249.639 33.0156 249.15 32.5312 249.326 31.4062L249.33 31.3867H253.514L253.58 30.9531C253.932 28.8516 252.822 27.9219 251.346 27.9219C249.631 27.9219 248.295 29.1836 247.99 31.0352C247.674 32.9141 248.584 34.1172 250.389 34.1172ZM249.498 30.4336C249.658 29.7148 250.373 29.0234 251.186 29.0234C252.002 29.0234 252.443 29.6172 252.307 30.4336H249.498ZM256.317 28H254.817L256.099 31L253.771 34H255.271L256.888 31.8398L257.798 34H259.286L257.946 31L260.255 28H258.759L257.161 30.2148L256.317 28ZM259.974 36.25H261.388L261.919 33.0547H261.985C262.134 33.4922 262.493 34.1055 263.524 34.1055C264.938 34.1055 266.188 32.9844 266.513 31.0078C266.845 29.0078 265.938 27.9219 264.552 27.9219C263.493 27.9219 262.942 28.5586 262.661 28.9922H262.575L262.739 28H261.349L259.974 36.25ZM262.235 31C262.423 29.8359 263.052 29.082 263.966 29.082C264.907 29.082 265.251 29.8828 265.071 31C264.88 32.125 264.259 32.9453 263.329 32.9453C262.427 32.9453 262.048 32.1641 262.235 31ZM269.864 34.1172C271.267 34.1172 272.333 33.4336 272.763 32.3906L271.47 32.2422C271.188 32.7539 270.688 33.0156 270.067 33.0156C269.114 33.0156 268.626 32.5312 268.802 31.4062L268.806 31.3867H272.989L273.056 30.9531C273.407 28.8516 272.298 27.9219 270.821 27.9219C269.106 27.9219 267.771 29.1836 267.466 31.0352C267.149 32.9141 268.06 34.1172 269.864 34.1172ZM268.974 30.4336C269.134 29.7148 269.849 29.0234 270.661 29.0234C271.478 29.0234 271.919 29.6172 271.782 30.4336H268.974ZM273.755 34H275.169L275.751 30.4727C275.884 29.7109 276.544 29.1719 277.317 29.1719C277.563 29.1719 277.849 29.2109 277.97 29.2539L278.188 27.9531C278.052 27.9258 277.845 27.9141 277.685 27.9141C276.997 27.9141 276.349 28.3047 276.021 29H275.958L276.126 28H274.755L273.755 34ZM278.127 34H279.541L280.541 28H279.127L278.127 34ZM280.041 27.1406C280.49 27.1406 280.889 26.7969 280.92 26.375C280.955 25.9492 280.619 25.6055 280.17 25.6055C279.717 25.6055 279.322 25.9492 279.283 26.375C279.248 26.7969 279.592 27.1406 280.041 27.1406ZM283.636 34.1172C285.038 34.1172 286.104 33.4336 286.534 32.3906L285.241 32.2422C284.96 32.7539 284.46 33.0156 283.839 33.0156C282.886 33.0156 282.397 32.5312 282.573 31.4062L282.577 31.3867H286.761L286.827 30.9531C287.179 28.8516 286.069 27.9219 284.593 27.9219C282.878 27.9219 281.542 29.1836 281.237 31.0352C280.921 32.9141 281.831 34.1172 283.636 34.1172ZM282.745 30.4336C282.905 29.7148 283.62 29.0234 284.433 29.0234C285.249 29.0234 285.69 29.6172 285.554 30.4336H282.745ZM289.526 30.4844C289.679 29.6172 290.284 29.1172 291.026 29.1172C291.765 29.1172 292.116 29.6016 291.983 30.3984L291.386 34H292.8L293.44 30.1797C293.679 28.7383 292.987 27.9219 291.761 27.9219C290.862 27.9219 290.163 28.3477 289.788 29.0195H289.714L289.886 28H288.53L287.53 34H288.948L289.526 30.4844ZM296.831 34.1172C298.339 34.1172 299.437 33.2266 299.765 31.9492H298.413C298.179 32.5938 297.655 32.9648 297.034 32.9648C296.151 32.9648 295.702 32.2266 295.905 31C296.097 29.7891 296.804 29.0625 297.683 29.0625C298.358 29.0625 298.706 29.5 298.718 30.0781H300.073C300.187 28.7773 299.315 27.9219 297.854 27.9219C296.093 27.9219 294.765 29.1914 294.472 31.0234C294.167 32.8398 295.034 34.1172 296.831 34.1172ZM303.219 34.1172C304.621 34.1172 305.688 33.4336 306.117 32.3906L304.824 32.2422C304.543 32.7539 304.043 33.0156 303.422 33.0156C302.469 33.0156 301.98 32.5312 302.156 31.4062L302.16 31.3867H306.344L306.41 30.9531C306.762 28.8516 305.652 27.9219 304.176 27.9219C302.461 27.9219 301.125 29.1836 300.82 31.0352C300.504 32.9141 301.414 34.1172 303.219 34.1172ZM302.328 30.4336C302.488 29.7148 303.203 29.0234 304.016 29.0234C304.832 29.0234 305.273 29.6172 305.137 30.4336H302.328ZM311.549 34.1211C312.49 34.1211 313.131 33.6797 313.467 33.1758H313.514L313.373 34H314.732L315.4 29.9844C315.666 28.3984 314.451 27.9219 313.311 27.9219C312.049 27.9219 310.975 28.4844 310.49 29.5781L311.771 29.7656C311.982 29.3516 312.463 29.0039 313.15 29.0039C313.807 29.0039 314.088 29.3437 313.994 29.9297V29.9531C313.924 30.3516 313.49 30.3789 312.416 30.4922C311.232 30.6172 310.064 30.9648 309.838 32.3164C309.643 33.4922 310.408 34.1211 311.549 34.1211ZM312.084 33.082C311.494 33.082 311.123 32.8086 311.209 32.293C311.291 31.7461 311.811 31.5234 312.459 31.4336C312.83 31.3828 313.592 31.2891 313.799 31.1406L313.682 31.8477C313.572 32.5156 312.932 33.082 312.084 33.082ZM320.15 28H318.963L319.201 26.5625H317.787L317.549 28H316.701L316.521 29.0937H317.369L316.818 32.4297C316.623 33.5547 317.342 34.1094 318.416 34.082C318.814 34.0703 319.107 33.9922 319.279 33.9414L319.217 32.8359C319.131 32.8516 318.967 32.8906 318.795 32.8906C318.439 32.8906 318.174 32.7656 318.264 32.1953L318.779 29.0937H319.967L320.15 28ZM323.124 34H326.362C328.19 34 329.249 33.0664 329.456 31.8203C329.655 30.6094 328.913 29.8984 328.069 29.8555L328.085 29.7773C328.89 29.5898 329.593 29.043 329.761 28.0742C329.964 26.8828 329.249 26 327.515 26H324.452L323.124 34ZM324.776 32.7891L325.163 30.4453H326.765C327.659 30.4453 328.116 30.9922 328.003 31.707C327.897 32.3398 327.382 32.7891 326.335 32.7891H324.776ZM325.343 29.4023L325.702 27.1953H327.171C328.019 27.1953 328.39 27.6406 328.28 28.2617C328.175 28.9609 327.526 29.4023 326.776 29.4023H325.343ZM333.033 26H331.619L330.291 34H331.705L333.033 26ZM333.159 34H334.573L335.573 28H334.159L333.159 34ZM335.073 27.1406C335.522 27.1406 335.921 26.7969 335.952 26.375C335.987 25.9492 335.651 25.6055 335.202 25.6055C334.749 25.6055 334.354 25.9492 334.315 26.375C334.28 26.7969 334.624 27.1406 335.073 27.1406ZM340.023 28H338.836L339.074 26.5625H337.66L337.422 28H336.574L336.395 29.0937H337.242L336.691 32.4297C336.496 33.5547 337.215 34.1094 338.289 34.082C338.688 34.0703 338.98 33.9922 339.152 33.9414L339.09 32.8359C339.004 32.8516 338.84 32.8906 338.668 32.8906C338.313 32.8906 338.047 32.7656 338.137 32.1953L338.652 29.0937H339.84L340.023 28ZM340.132 34H345.065L345.257 32.8281H342.21L342.226 32.7773L345.8 28.9648L345.956 28H341.237L341.038 29.1719H344.03L344.015 29.2227L340.284 33.1016L340.132 34ZM349.233 26H347.784L346.456 34H347.905L349.233 26ZM357.271 30.0937C357.709 27.4609 356.35 25.8906 354.221 25.8906C352.15 25.8906 350.373 27.375 349.951 29.918C349.518 32.543 350.873 34.1094 353.021 34.1094C353.561 34.1094 354.08 34.0078 354.561 33.8125L355.197 34.6875H356.604L355.557 33.2266C356.412 32.5391 357.041 31.4766 357.271 30.0937ZM352.865 31.3125L353.826 32.6914C353.588 32.7695 353.33 32.8086 353.068 32.8086C351.818 32.8086 351.072 31.8789 351.381 30.0937C351.678 28.2344 352.807 27.1914 354.162 27.1914C355.42 27.1914 356.139 28.1406 355.846 29.918C355.682 30.8945 355.295 31.6445 354.771 32.1328L354.178 31.3125H352.865ZM361.779 30C361.459 31.9492 361.713 33.5703 362.506 34.9609H363.838C363.213 33.9297 362.939 31.8516 363.252 30C363.564 28.1445 364.514 26.0664 365.479 25.0352H364.15C362.885 26.4258 362.104 28.0508 361.779 30ZM365.929 26L368.007 31.0156L367.511 34H368.956L369.452 31.0156L373.194 26H371.558L369.022 29.5391H368.937L367.565 26H365.929ZM380.16 28.6992C380.203 26.9219 378.98 25.8906 377.172 25.8906C375.121 25.8906 373.348 27.3633 372.922 29.9141C372.492 32.5391 373.824 34.1094 375.973 34.1094C377.836 34.1094 379.254 32.8711 379.734 31.3437H378.277C377.934 32.2773 377.043 32.8086 376.039 32.8086C374.793 32.8086 374.055 31.8789 374.348 30.0859C374.652 28.2422 375.789 27.1914 377.137 27.1914C378.074 27.1914 378.715 27.7422 378.723 28.6992H380.16ZM385.028 34H386.458L389.001 28.3867H389.063L389.728 34H391.157L394.743 26H393.185L390.771 31.8828H390.7L390.13 26H388.712L386.2 31.8789H386.126L385.657 26H384.099L385.028 34ZM398.924 26H397.545L395.342 27.2773L395.123 28.6055L397.193 27.4102H397.24L396.146 34H397.596L398.924 26ZM403.689 25.8906C401.998 25.8789 400.697 27.0156 400.436 28.5508C400.174 30.0977 401.096 31.2305 402.533 31.2305C403.377 31.2305 404.162 30.8516 404.658 30.1641L404.721 30.082C404.42 31.8398 403.576 32.8555 402.455 32.8555C401.771 32.8555 401.393 32.4766 401.377 31.8281H399.979C399.936 33.1484 400.869 34.1094 402.381 34.1094C404.275 34.1094 405.705 32.5547 406.158 29.8359C406.658 26.875 405.26 25.8984 403.689 25.8906ZM403.639 27.0625C404.471 27.0625 404.947 27.7109 404.814 28.5078C404.682 29.3828 403.861 30.1289 402.979 30.1289C402.162 30.1289 401.693 29.4922 401.818 28.6797C401.959 27.7734 402.76 27.0625 403.639 27.0625ZM409.971 30C410.291 28.0508 410.037 26.4297 409.244 25.0391H407.912C408.537 26.0703 408.811 28.1484 408.498 30C408.186 31.8555 407.236 33.9336 406.271 34.9648H407.6C408.865 33.5742 409.646 31.9492 409.971 30Z" fill="black"/>
</svg>
