<svg width="545" height="696" viewBox="0 0 545 696" fill="none" xmlns="http://www.w3.org/2000/svg">
<rect x="1.5" y="1.5" width="542" height="692.46" stroke="black" stroke-width="3"/>
<path d="M70.1512 94.726H75.4211L77.0546 84.8964H82.6086C89.3558 84.8964 93.6171 80.8623 94.5404 75.2657C95.4637 69.6975 92.5802 65.635 85.8899 65.635H74.9808L70.1512 94.726ZM77.7791 80.564L79.5262 70.0385H84.3558C88.3046 70.0385 89.6683 72.1549 89.1711 75.2657C88.674 78.3481 86.5575 80.564 82.6228 80.564H77.7791ZM95.8544 94.726H101.124L102.9 84.0725H108.255L112.204 94.726H118.084L113.695 83.1919C117.36 81.814 119.647 78.8737 120.3 74.939C121.224 69.3566 118.283 65.635 111.593 65.635H100.684L95.8544 94.726ZM103.624 79.6975L105.229 70.0385H110.059C113.979 70.0385 115.428 71.8282 114.931 74.939C114.434 78.0214 112.403 79.6975 108.496 79.6975H103.624ZM150.379 80.5214C151.969 70.9475 147.026 65.2373 139.285 65.2373C131.756 65.2373 125.293 70.635 123.759 79.8822C122.182 89.4277 127.111 95.1237 134.924 95.1237C142.381 95.1237 148.83 89.7686 150.379 80.5214ZM145.194 79.8822C144.072 86.6436 139.995 90.3936 135.094 90.3936C130.549 90.3936 127.836 87.0129 128.958 80.5214C130.038 73.76 134.143 69.9674 139.072 69.9674C143.646 69.9674 146.259 73.4191 145.194 79.8822ZM169.31 65.635L165.943 86.0186C165.403 89.0867 163.614 90.7913 161.043 90.7913C158.713 90.7913 157.449 89.4277 157.776 86.9987H152.605C151.724 92.3538 155.233 95.1237 160.389 95.1237C166.057 95.1237 170.205 91.7714 171.128 86.1606L174.537 65.635H169.31ZM175.425 94.726H194.459L195.197 90.3083H181.433L182.74 82.368H195.41L196.149 77.9504H183.479L184.785 70.0527H198.436L199.175 65.635H180.254L175.425 94.726ZM227.79 75.4504C227.946 68.9873 223.5 65.2373 216.923 65.2373C209.466 65.2373 203.017 70.5924 201.469 79.868C199.906 89.4135 204.75 95.1237 212.562 95.1237C219.338 95.1237 224.494 90.6208 226.241 85.0669H220.943C219.693 88.4617 216.455 90.3936 212.804 90.3936C208.273 90.3936 205.588 87.0129 206.653 80.493C207.761 73.7885 211.895 69.9674 216.795 69.9674C220.205 69.9674 222.534 71.9703 222.562 75.4504H227.79ZM232.261 70.0527H241.252L237.161 94.726H242.388L246.479 70.0527H255.471L256.209 65.635H232.999L232.261 70.0527ZM355.151 94.726H360.421L362.467 82.368H374.555L375.293 77.9504H363.205L364.512 70.0527H377.879L378.617 65.635H359.981L355.151 94.726ZM378.589 94.726H396.671L397.41 90.3083H384.597L388.688 65.635H383.418L378.589 94.726ZM406.075 94.726L409.682 87.5527H420.62L421.827 94.726H427.452L422.026 65.635H415.521L400.45 94.726H406.075ZM411.799 83.3197L417.694 71.601H417.921L419.896 83.3197H411.799ZM452.673 74.9248H458.042C458.127 69.2146 453.823 65.2373 447.403 65.2373C439.789 65.2373 433.141 70.8339 431.621 80.2089C430.087 89.4135 434.576 95.1237 442.602 95.1237C449.817 95.1237 455.741 90.493 456.962 82.993L457.559 79.4987H445.755L445.045 83.618H451.763C451.025 87.7657 447.573 90.3936 443.198 90.3936C438.326 90.3936 435.826 86.743 436.92 80.1521C437.999 73.6038 442.289 69.9674 446.991 69.9674C450.499 69.9674 452.275 71.8566 452.673 74.9248Z" fill="black"/>
<path d="M265.776 94.726H271.046L272.822 84.0725H278.177L282.126 94.726H288.006L283.617 83.1919C287.282 81.814 289.569 78.8737 290.222 74.939C291.146 69.3566 288.205 65.635 281.515 65.635H270.606L265.776 94.726ZM273.546 79.6975L275.151 70.0385H279.981C283.901 70.0385 285.35 71.8282 284.853 74.939C284.356 78.0214 282.325 79.6975 278.418 79.6975H273.546ZM291.948 94.726H310.982L311.721 90.3083H297.957L299.263 82.368H311.934L312.673 77.9504H300.002L301.309 70.0527H314.959L315.698 65.635H296.778L291.948 94.726ZM326.245 94.726C335.109 94.726 341.103 89.3992 342.58 80.4362C344.114 71.2458 339.654 65.635 330.989 65.635H321.075L316.245 94.726H326.245ZM322.268 90.1663L325.592 70.1947H330.208C336.117 70.1947 338.56 73.3339 337.452 79.8538C336.33 86.6862 332.566 90.1663 326.515 90.1663H322.268Z" fill="#FF0000"/>
<path d="M156.856 41.2877C157.797 41.2877 158.438 40.8463 158.774 40.3424H158.821L158.68 41.1666H160.039L160.707 37.151C160.973 35.5651 159.758 35.0885 158.617 35.0885C157.356 35.0885 156.281 35.651 155.797 36.7448L157.078 36.9323C157.289 36.5182 157.77 36.1705 158.457 36.1705C159.114 36.1705 159.395 36.5104 159.301 37.0963V37.1198C159.231 37.5182 158.797 37.5455 157.723 37.6588C156.539 37.7838 155.371 38.1315 155.145 39.483C154.949 40.6588 155.715 41.2877 156.856 41.2877ZM157.391 40.2487C156.801 40.2487 156.43 39.9752 156.516 39.4596C156.598 38.9127 157.117 38.6901 157.766 38.6002C158.137 38.5494 158.899 38.4557 159.106 38.3073L158.989 39.0143C158.879 39.6823 158.239 40.2487 157.391 40.2487ZM169.662 36.7526C169.635 35.733 168.916 35.0885 167.487 35.0885C166.065 35.0885 164.987 35.7721 164.803 36.8619C164.651 37.7565 165.119 38.3502 166.233 38.5963L167.217 38.8112C167.756 38.9323 167.951 39.1276 167.897 39.4479C167.834 39.8776 167.303 40.2213 166.604 40.2174C165.987 40.2135 165.623 39.9401 165.592 39.3971L164.201 39.5299C164.198 40.6276 165.03 41.2838 166.526 41.2838C168.002 41.2838 169.166 40.5299 169.354 39.4205C169.498 38.5377 169.014 37.9987 167.92 37.7526L166.928 37.5338C166.35 37.3932 166.158 37.2018 166.217 36.8815C166.28 36.4518 166.807 36.1432 167.42 36.1432C168.053 36.1432 168.319 36.4908 168.362 36.8932L169.662 36.7526ZM172.867 41.2838C174.602 41.2838 175.906 40.0651 176.211 38.2291C176.516 36.3463 175.594 35.0885 173.821 35.0885C172.082 35.0885 170.778 36.3112 170.477 38.1549C170.172 40.026 171.09 41.2838 172.867 41.2838ZM172.981 40.151C172.031 40.151 171.719 39.3033 171.895 38.2213C172.074 37.1041 172.723 36.2096 173.707 36.2096C174.653 36.2096 174.969 37.069 174.793 38.1471C174.614 39.2682 173.965 40.151 172.981 40.151ZM180.962 35.1666H179.708L179.786 34.694C179.872 34.2252 180.107 33.9635 180.634 33.9635C180.857 33.9635 181.029 34.0143 181.146 34.0494L181.607 32.9557C181.439 32.8932 181.056 32.7916 180.564 32.7916C179.525 32.7916 178.583 33.3893 178.396 34.6002L178.302 35.1666H177.415L177.232 36.2604H178.118L177.298 41.1666H178.712L179.525 36.2604H180.779L180.962 35.1666ZM185.073 35.1666H183.885L184.123 33.7291H182.709L182.471 35.1666H181.623L181.444 36.2604H182.291L181.74 39.5963C181.545 40.7213 182.264 41.276 183.338 41.2487C183.737 41.2369 184.03 41.1588 184.201 41.108L184.139 40.0026C184.053 40.0182 183.889 40.0573 183.717 40.0573C183.362 40.0573 183.096 39.9323 183.186 39.3619L183.701 36.2604H184.889L185.073 35.1666ZM186.493 41.1666H187.97L189.767 37.1119H189.849L190.302 41.1666H191.775L194.474 35.1666H193.029L191.286 39.3619H191.228L190.853 35.1666H189.427L187.646 39.3854H187.591L187.24 35.1666H185.798L186.493 41.1666ZM196.172 41.2877C197.114 41.2877 197.754 40.8463 198.09 40.3424H198.137L197.996 41.1666H199.356L200.024 37.151C200.289 35.5651 199.074 35.0885 197.934 35.0885C196.672 35.0885 195.598 35.651 195.114 36.7448L196.395 36.9323C196.606 36.5182 197.086 36.1705 197.774 36.1705C198.43 36.1705 198.711 36.5104 198.617 37.0963V37.1198C198.547 37.5182 198.114 37.5455 197.039 37.6588C195.856 37.7838 194.688 38.1315 194.461 39.483C194.266 40.6588 195.031 41.2877 196.172 41.2877ZM196.707 40.2487C196.117 40.2487 195.746 39.9752 195.832 39.4596C195.914 38.9127 196.434 38.6901 197.082 38.6002C197.453 38.5494 198.215 38.4557 198.422 38.3073L198.305 39.0143C198.196 39.6823 197.555 40.2487 196.707 40.2487ZM200.778 41.1666H202.192L202.774 37.6393C202.906 36.8776 203.567 36.3385 204.34 36.3385C204.586 36.3385 204.871 36.3776 204.992 36.4205L205.211 35.1198C205.074 35.0924 204.867 35.0807 204.707 35.0807C204.02 35.0807 203.371 35.4713 203.043 36.1666H202.981L203.149 35.1666H201.778L200.778 41.1666ZM207.543 41.2838C208.946 41.2838 210.012 40.6002 210.442 39.5573L209.149 39.4088C208.867 39.9205 208.367 40.1823 207.746 40.1823C206.793 40.1823 206.305 39.6979 206.481 38.5729L206.485 38.5533H210.668L210.735 38.1198C211.086 36.0182 209.977 35.0885 208.5 35.0885C206.785 35.0885 205.449 36.3502 205.145 38.2018C204.828 40.0807 205.739 41.2838 207.543 41.2838ZM206.653 37.6002C206.813 36.8815 207.528 36.1901 208.34 36.1901C209.156 36.1901 209.598 36.7838 209.461 37.6002H206.653ZM216.803 41.2838C218.205 41.2838 219.272 40.6002 219.701 39.5573L218.408 39.4088C218.127 39.9205 217.627 40.1823 217.006 40.1823C216.053 40.1823 215.565 39.6979 215.74 38.5729L215.744 38.5533H219.928L219.994 38.1198C220.346 36.0182 219.237 35.0885 217.76 35.0885C216.045 35.0885 214.709 36.3502 214.405 38.2018C214.088 40.0807 214.998 41.2838 216.803 41.2838ZM215.912 37.6002C216.073 36.8815 216.787 36.1901 217.6 36.1901C218.416 36.1901 218.858 36.7838 218.721 37.6002H215.912ZM222.694 37.651C222.846 36.7838 223.451 36.2838 224.194 36.2838C224.932 36.2838 225.283 36.7682 225.151 37.5651L224.553 41.1666H225.967L226.608 37.3463C226.846 35.9049 226.155 35.0885 224.928 35.0885C224.03 35.0885 223.33 35.5143 222.955 36.1862H222.881L223.053 35.1666H221.698L220.698 41.1666H222.115L222.694 37.651ZM229.631 43.5416C231.244 43.5416 232.565 42.8033 232.815 41.2643L233.823 35.1666H232.428L232.264 36.1588H232.19C232.045 35.7252 231.701 35.0885 230.643 35.0885C229.256 35.0885 227.987 36.1744 227.662 38.1471C227.334 40.1041 228.26 41.0807 229.647 41.0807C230.674 41.0807 231.248 40.5299 231.53 40.0885H231.6L231.42 41.2252C231.28 42.108 230.615 42.4713 229.815 42.4713C228.951 42.4713 228.666 42.0729 228.549 41.7174L227.221 42.026C227.35 42.8658 228.096 43.5416 229.631 43.5416ZM230.209 39.9713C229.272 39.9713 228.92 39.2448 229.1 38.1393C229.28 37.0494 229.873 36.2487 230.819 36.2487C231.725 36.2487 232.123 37.0026 231.94 38.1393C231.752 39.2838 231.108 39.9713 230.209 39.9713ZM236.912 41.2838C238.315 41.2838 239.381 40.6002 239.811 39.5573L238.518 39.4088C238.237 39.9205 237.737 40.1823 237.115 40.1823C236.162 40.1823 235.674 39.6979 235.85 38.5729L235.854 38.5533H240.037L240.104 38.1198C240.455 36.0182 239.346 35.0885 237.869 35.0885C236.155 35.0885 234.819 36.3502 234.514 38.2018C234.198 40.0807 235.108 41.2838 236.912 41.2838ZM236.022 37.6002C236.182 36.8815 236.897 36.1901 237.709 36.1901C238.526 36.1901 238.967 36.7838 238.83 37.6002H236.022ZM243.444 41.2838C244.846 41.2838 245.912 40.6002 246.342 39.5573L245.049 39.4088C244.768 39.9205 244.268 40.1823 243.647 40.1823C242.694 40.1823 242.205 39.6979 242.381 38.5729L242.385 38.5533H246.569L246.635 38.1198C246.987 36.0182 245.877 35.0885 244.401 35.0885C242.686 35.0885 241.35 36.3502 241.045 38.2018C240.729 40.0807 241.639 41.2838 243.444 41.2838ZM242.553 37.6002C242.713 36.8815 243.428 36.1901 244.24 36.1901C245.057 36.1901 245.498 36.7838 245.362 37.6002H242.553ZM247.334 41.1666H248.748L249.33 37.6393C249.463 36.8776 250.123 36.3385 250.897 36.3385C251.143 36.3385 251.428 36.3776 251.549 36.4205L251.768 35.1198C251.631 35.0924 251.424 35.0807 251.264 35.0807C250.576 35.0807 249.928 35.4713 249.6 36.1666H249.537L249.705 35.1666H248.334L247.334 41.1666ZM251.706 41.1666H253.12L254.12 35.1666H252.706L251.706 41.1666ZM253.62 34.3073C254.07 34.3073 254.468 33.9635 254.499 33.5416C254.534 33.1158 254.198 32.7721 253.749 32.7721C253.296 32.7721 252.902 33.1158 252.863 33.5416C252.827 33.9635 253.171 34.3073 253.62 34.3073ZM256.574 37.651C256.727 36.7838 257.332 36.2838 258.074 36.2838C258.813 36.2838 259.164 36.7682 259.031 37.5651L258.434 41.1666H259.848L260.489 37.3463C260.727 35.9049 260.035 35.0885 258.809 35.0885C257.91 35.0885 257.211 35.5143 256.836 36.1862H256.762L256.934 35.1666H255.578L254.578 41.1666H255.996L256.574 37.651ZM263.512 43.5416C265.125 43.5416 266.446 42.8033 266.696 41.2643L267.703 35.1666H266.309L266.145 36.1588H266.071C265.926 35.7252 265.582 35.0885 264.524 35.0885C263.137 35.0885 261.867 36.1744 261.543 38.1471C261.215 40.1041 262.141 41.0807 263.528 41.0807C264.555 41.0807 265.129 40.5299 265.41 40.0885H265.481L265.301 41.2252C265.16 42.108 264.496 42.4713 263.696 42.4713C262.832 42.4713 262.547 42.0729 262.43 41.7174L261.102 42.026C261.231 42.8658 261.977 43.5416 263.512 43.5416ZM264.09 39.9713C263.153 39.9713 262.801 39.2448 262.981 38.1393C263.16 37.0494 263.754 36.2487 264.699 36.2487C265.606 36.2487 266.004 37.0026 265.821 38.1393C265.633 39.2838 264.989 39.9713 264.09 39.9713ZM270.881 41.1666H272.295L273.295 35.1666H271.881L270.881 41.1666ZM272.795 34.3073C273.244 34.3073 273.643 33.9635 273.674 33.5416C273.709 33.1158 273.373 32.7721 272.924 32.7721C272.471 32.7721 272.076 33.1158 272.037 33.5416C272.002 33.9635 272.346 34.3073 272.795 34.3073ZM275.749 37.651C275.902 36.7838 276.507 36.2838 277.249 36.2838C277.988 36.2838 278.339 36.7682 278.206 37.5651L277.609 41.1666H279.023L279.663 37.3463C279.902 35.9049 279.21 35.0885 277.984 35.0885C277.085 35.0885 276.386 35.5143 276.011 36.1862H275.937L276.109 35.1666H274.753L273.753 41.1666H275.171L275.749 37.651ZM284.448 35.1666H283.261L283.499 33.7291H282.085L281.847 35.1666H280.999L280.82 36.2604H281.667L281.116 39.5963C280.921 40.7213 281.64 41.276 282.714 41.2487C283.113 41.2369 283.406 41.1588 283.577 41.108L283.515 40.0026C283.429 40.0182 283.265 40.0573 283.093 40.0573C282.738 40.0573 282.472 39.9323 282.562 39.3619L283.077 36.2604H284.265L284.448 35.1666ZM287.207 41.2838C288.61 41.2838 289.676 40.6002 290.106 39.5573L288.813 39.4088C288.531 39.9205 288.031 40.1823 287.41 40.1823C286.457 40.1823 285.969 39.6979 286.145 38.5729L286.149 38.5533H290.332L290.399 38.1198C290.75 36.0182 289.641 35.0885 288.164 35.0885C286.449 35.0885 285.114 36.3502 284.809 38.2018C284.492 40.0807 285.403 41.2838 287.207 41.2838ZM286.317 37.6002C286.477 36.8815 287.192 36.1901 288.004 36.1901C288.821 36.1901 289.262 36.7838 289.125 37.6002H286.317ZM291.098 41.1666H292.512L293.094 37.6393C293.227 36.8776 293.887 36.3385 294.66 36.3385C294.906 36.3385 295.192 36.3776 295.313 36.4205L295.531 35.1198C295.395 35.0924 295.188 35.0807 295.028 35.0807C294.34 35.0807 293.692 35.4713 293.364 36.1666H293.301L293.469 35.1666H292.098L291.098 41.1666ZM297.47 37.651C297.622 36.7838 298.228 36.2838 298.97 36.2838C299.708 36.2838 300.06 36.7682 299.927 37.5651L299.329 41.1666H300.743L301.384 37.3463C301.622 35.9049 300.931 35.0885 299.704 35.0885C298.806 35.0885 298.107 35.5143 297.732 36.1862H297.657L297.829 35.1666H296.474L295.474 41.1666H296.892L297.47 37.651ZM307.646 36.7526C307.618 35.733 306.9 35.0885 305.47 35.0885C304.048 35.0885 302.97 35.7721 302.786 36.8619C302.634 37.7565 303.103 38.3502 304.216 38.5963L305.2 38.8112C305.74 38.9323 305.935 39.1276 305.88 39.4479C305.818 39.8776 305.286 40.2213 304.587 40.2174C303.97 40.2135 303.607 39.9401 303.575 39.3971L302.185 39.5299C302.181 40.6276 303.013 41.2838 304.509 41.2838C305.986 41.2838 307.15 40.5299 307.337 39.4205C307.482 38.5377 306.997 37.9987 305.904 37.7526L304.911 37.5338C304.333 37.3932 304.142 37.2018 304.2 36.8815C304.263 36.4518 304.79 36.1432 305.404 36.1432C306.036 36.1432 306.302 36.4908 306.345 36.8932L307.646 36.7526ZM310.21 37.651C310.363 36.7838 310.984 36.2838 311.741 36.2838C312.476 36.2838 312.835 36.7565 312.706 37.5651L312.105 41.1666H313.523L314.163 37.3463C314.398 35.8932 313.71 35.0885 312.472 35.0885C311.542 35.0885 310.882 35.5026 310.503 36.1862H310.429L310.929 33.1666H309.542L308.214 41.1666H309.632L310.21 37.651ZM314.956 41.1666H316.37L317.37 35.1666H315.956L314.956 41.1666ZM316.87 34.3073C317.32 34.3073 317.718 33.9635 317.749 33.5416C317.784 33.1158 317.448 32.7721 316.999 32.7721C316.546 32.7721 316.152 33.1158 316.113 33.5416C316.077 33.9635 316.421 34.3073 316.87 34.3073ZM317.449 43.4166H318.864L319.395 40.2213H319.461C319.61 40.6588 319.969 41.2721 321 41.2721C322.414 41.2721 323.664 40.151 323.989 38.1744C324.321 36.1744 323.414 35.0885 322.028 35.0885C320.969 35.0885 320.418 35.7252 320.137 36.1588H320.051L320.215 35.1666H318.824L317.449 43.4166ZM319.711 38.1666C319.899 37.0026 320.528 36.2487 321.442 36.2487C322.383 36.2487 322.727 37.0494 322.547 38.1666C322.356 39.2916 321.735 40.1119 320.805 40.1119C319.903 40.1119 319.524 39.3307 319.711 38.1666ZM329.139 41.2877C330.08 41.2877 330.721 40.8463 331.057 40.3424H331.104L330.963 41.1666H332.323L332.99 37.151C333.256 35.5651 332.041 35.0885 330.901 35.0885C329.639 35.0885 328.565 35.651 328.08 36.7448L329.362 36.9323C329.573 36.5182 330.053 36.1705 330.74 36.1705C331.397 36.1705 331.678 36.5104 331.584 37.0963V37.1198C331.514 37.5182 331.08 37.5455 330.006 37.6588C328.823 37.7838 327.655 38.1315 327.428 39.483C327.233 40.6588 327.998 41.2877 329.139 41.2877ZM329.674 40.2487C329.084 40.2487 328.713 39.9752 328.799 39.4596C328.881 38.9127 329.401 38.6901 330.049 38.6002C330.42 38.5494 331.182 38.4557 331.389 38.3073L331.272 39.0143C331.162 39.6823 330.522 40.2487 329.674 40.2487ZM337.74 35.1666H336.553L336.791 33.7291H335.377L335.139 35.1666H334.291L334.112 36.2604H334.959L334.408 39.5963C334.213 40.7213 334.932 41.276 336.006 41.2487C336.405 41.2369 336.698 41.1588 336.869 41.108L336.807 40.0026C336.721 40.0182 336.557 40.0573 336.385 40.0573C336.03 40.0573 335.764 39.9323 335.854 39.3619L336.369 36.2604H337.557L337.74 35.1666Z" fill="black"/>
<path d="M342.886 43.5416C344.499 43.5416 345.82 42.8033 346.07 41.2643L347.077 35.1666H345.683L345.519 36.1588H345.445C345.3 35.7252 344.956 35.0885 343.898 35.0885C342.511 35.0885 341.241 36.1744 340.917 38.1471C340.589 40.1041 341.515 41.0807 342.902 41.0807C343.929 41.0807 344.503 40.5299 344.784 40.0885H344.855L344.675 41.2252C344.534 42.108 343.87 42.4713 343.07 42.4713C342.206 42.4713 341.921 42.0729 341.804 41.7174L340.476 42.026C340.605 42.8658 341.351 43.5416 342.886 43.5416ZM343.464 39.9713C342.527 39.9713 342.175 39.2448 342.355 38.1393C342.534 37.0494 343.128 36.2487 344.073 36.2487C344.98 36.2487 345.378 37.0026 345.195 38.1393C345.007 39.2838 344.363 39.9713 343.464 39.9713ZM350.269 33.1666H348.855L347.527 41.1666H348.941L350.269 33.1666ZM352.106 41.2877C353.047 41.2877 353.688 40.8463 354.024 40.3424H354.071L353.93 41.1666H355.289L355.957 37.151C356.223 35.5651 355.008 35.0885 353.867 35.0885C352.606 35.0885 351.531 35.651 351.047 36.7448L352.328 36.9323C352.539 36.5182 353.02 36.1705 353.707 36.1705C354.364 36.1705 354.645 36.5104 354.551 37.0963V37.1198C354.481 37.5182 354.047 37.5455 352.973 37.6588C351.789 37.7838 350.621 38.1315 350.395 39.483C350.199 40.6588 350.965 41.2877 352.106 41.2877ZM352.641 40.2487C352.051 40.2487 351.68 39.9752 351.766 39.4596C351.848 38.9127 352.367 38.6901 353.016 38.6002C353.387 38.5494 354.149 38.4557 354.356 38.3073L354.239 39.0143C354.129 39.6823 353.489 40.2487 352.641 40.2487ZM362.184 36.7526C362.156 35.733 361.438 35.0885 360.008 35.0885C358.586 35.0885 357.508 35.7721 357.324 36.8619C357.172 37.7565 357.641 38.3502 358.754 38.5963L359.739 38.8112C360.278 38.9323 360.473 39.1276 360.418 39.4479C360.356 39.8776 359.824 40.2213 359.125 40.2174C358.508 40.2135 358.145 39.9401 358.114 39.3971L356.723 39.5299C356.719 40.6276 357.551 41.2838 359.047 41.2838C360.524 41.2838 361.688 40.5299 361.875 39.4205C362.02 38.5377 361.535 37.9987 360.442 37.7526L359.449 37.5338C358.871 37.3932 358.68 37.2018 358.739 36.8815C358.801 36.4518 359.328 36.1432 359.942 36.1432C360.574 36.1432 360.84 36.4908 360.883 36.8932L362.184 36.7526ZM368.221 36.7526C368.194 35.733 367.475 35.0885 366.045 35.0885C364.623 35.0885 363.545 35.7721 363.362 36.8619C363.209 37.7565 363.678 38.3502 364.791 38.5963L365.776 38.8112C366.315 38.9323 366.51 39.1276 366.455 39.4479C366.393 39.8776 365.862 40.2213 365.162 40.2174C364.545 40.2135 364.182 39.9401 364.151 39.3971L362.76 39.5299C362.756 40.6276 363.588 41.2838 365.084 41.2838C366.561 41.2838 367.725 40.5299 367.912 39.4205C368.057 38.5377 367.573 37.9987 366.479 37.7526L365.487 37.5338C364.908 37.3932 364.717 37.2018 364.776 36.8815C364.838 36.4518 365.365 36.1432 365.979 36.1432C366.612 36.1432 366.877 36.4908 366.92 36.8932L368.221 36.7526ZM371.008 41.2721C372.035 41.2721 372.606 40.6588 372.899 40.2213H372.985L372.824 41.1666H374.215L375.543 33.1666H374.129L373.629 36.1588H373.571C373.426 35.7252 373.09 35.0885 372.031 35.0885C370.649 35.0885 369.379 36.1744 369.043 38.1744C368.719 40.151 369.594 41.2721 371.008 41.2721ZM371.574 40.1119C370.641 40.1119 370.301 39.2916 370.489 38.1666C370.672 37.0494 371.274 36.2487 372.211 36.2487C373.125 36.2487 373.52 37.0026 373.328 38.1666C373.133 39.3307 372.473 40.1119 371.574 40.1119ZM378.376 41.2838C380.111 41.2838 381.415 40.0651 381.72 38.2291C382.025 36.3463 381.103 35.0885 379.329 35.0885C377.591 35.0885 376.286 36.3112 375.986 38.1549C375.681 40.026 376.599 41.2838 378.376 41.2838ZM378.49 40.151C377.54 40.151 377.228 39.3033 377.404 38.2213C377.583 37.1041 378.232 36.2096 379.216 36.2096C380.161 36.2096 380.478 37.069 380.302 38.1471C380.122 39.2682 379.474 40.151 378.49 40.151ZM385.069 41.2838C386.803 41.2838 388.108 40.0651 388.412 38.2291C388.717 36.3463 387.795 35.0885 386.022 35.0885C384.283 35.0885 382.979 36.3112 382.678 38.1549C382.373 40.026 383.291 41.2838 385.069 41.2838ZM385.182 40.151C384.233 40.151 383.92 39.3033 384.096 38.2213C384.276 37.1041 384.924 36.2096 385.908 36.2096C386.854 36.2096 387.17 37.069 386.994 38.1471C386.815 39.2682 386.166 40.151 385.182 40.151ZM389.12 41.1666H390.534L391.116 37.6393C391.249 36.8776 391.909 36.3385 392.683 36.3385C392.929 36.3385 393.214 36.3776 393.335 36.4205L393.554 35.1198C393.417 35.0924 393.21 35.0807 393.05 35.0807C392.363 35.0807 391.714 35.4713 391.386 36.1666H391.323L391.491 35.1666H390.12L389.12 41.1666Z" fill="#6DA93F"/>
<path d="M200.82 124.211C200.863 122.433 199.64 121.402 197.831 121.402C195.781 121.402 194.007 122.875 193.581 125.426C193.152 128.051 194.484 129.621 196.632 129.621C198.495 129.621 199.913 128.383 200.394 126.855H198.937C198.593 127.789 197.702 128.32 196.698 128.32C195.452 128.32 194.714 127.39 195.007 125.597C195.312 123.754 196.448 122.703 197.796 122.703C198.734 122.703 199.374 123.254 199.382 124.211H200.82ZM203.854 129.629C205.588 129.629 206.893 128.41 207.198 126.574C207.502 124.691 206.58 123.433 204.807 123.433C203.069 123.433 201.764 124.656 201.463 126.5C201.158 128.371 202.076 129.629 203.854 129.629ZM203.967 128.496C203.018 128.496 202.705 127.648 202.881 126.566C203.061 125.449 203.709 124.554 204.694 124.554C205.639 124.554 205.955 125.414 205.78 126.492C205.6 127.613 204.951 128.496 203.967 128.496ZM209.906 125.996C210.058 125.129 210.663 124.629 211.406 124.629C212.144 124.629 212.495 125.113 212.363 125.91L211.765 129.511H213.179L213.82 125.691C214.058 124.25 213.366 123.433 212.14 123.433C211.241 123.433 210.542 123.859 210.167 124.531H210.093L210.265 123.511H208.909L207.909 129.511H209.327L209.906 125.996ZM218.605 123.511H217.417L217.656 122.074H216.241L216.003 123.511H215.156L214.976 124.605H215.823L215.273 127.941C215.077 129.066 215.796 129.621 216.87 129.594C217.269 129.582 217.562 129.504 217.734 129.453L217.671 128.347C217.585 128.363 217.421 128.402 217.249 128.402C216.894 128.402 216.628 128.277 216.718 127.707L217.234 124.605H218.421L218.605 123.511ZM221.364 129.629C222.766 129.629 223.832 128.945 224.262 127.902L222.969 127.754C222.688 128.265 222.188 128.527 221.567 128.527C220.614 128.527 220.125 128.043 220.301 126.918L220.305 126.898H224.489L224.555 126.465C224.906 124.363 223.797 123.433 222.321 123.433C220.606 123.433 219.27 124.695 218.965 126.547C218.649 128.426 219.559 129.629 221.364 129.629ZM220.473 125.945C220.633 125.226 221.348 124.535 222.16 124.535C222.977 124.535 223.418 125.129 223.281 125.945H220.473ZM227.254 125.996C227.406 125.129 228.012 124.629 228.754 124.629C229.492 124.629 229.844 125.113 229.711 125.91L229.114 129.511H230.528L231.168 125.691C231.406 124.25 230.715 123.433 229.489 123.433C228.59 123.433 227.891 123.859 227.516 124.531H227.442L227.614 123.511H226.258L225.258 129.511H226.676L227.254 125.996ZM235.953 123.511H234.766L235.004 122.074H233.59L233.352 123.511H232.504L232.324 124.605H233.172L232.621 127.941C232.426 129.066 233.145 129.621 234.219 129.594C234.617 129.582 234.91 129.504 235.082 129.453L235.02 128.347C234.934 128.363 234.77 128.402 234.598 128.402C234.242 128.402 233.977 128.277 234.067 127.707L234.582 124.605H235.77L235.953 123.511ZM238.927 129.511H240.376L240.939 126.113H244.263L244.466 124.898H241.142L241.501 122.726H245.177L245.38 121.511H240.255L238.927 129.511ZM248.052 121.511H246.638L245.31 129.511H246.724L248.052 121.511ZM249.889 129.633C250.83 129.633 251.471 129.191 251.807 128.687H251.854L251.713 129.511H253.073L253.74 125.496C254.006 123.91 252.791 123.433 251.651 123.433C250.389 123.433 249.315 123.996 248.83 125.09L250.112 125.277C250.323 124.863 250.803 124.515 251.49 124.515C252.147 124.515 252.428 124.855 252.334 125.441V125.465C252.264 125.863 251.83 125.89 250.756 126.004C249.573 126.129 248.405 126.476 248.178 127.828C247.983 129.004 248.748 129.633 249.889 129.633ZM250.424 128.594C249.834 128.594 249.463 128.32 249.549 127.804C249.631 127.258 250.151 127.035 250.799 126.945C251.17 126.894 251.932 126.801 252.139 126.652L252.022 127.359C251.912 128.027 251.272 128.594 250.424 128.594ZM256.729 131.886C258.342 131.886 259.662 131.148 259.912 129.609L260.92 123.511H259.526L259.362 124.504H259.287C259.143 124.07 258.799 123.433 257.74 123.433C256.354 123.433 255.084 124.519 254.76 126.492C254.432 128.449 255.358 129.426 256.744 129.426C257.772 129.426 258.346 128.875 258.627 128.433H258.698L258.518 129.57C258.377 130.453 257.713 130.816 256.912 130.816C256.049 130.816 255.764 130.418 255.647 130.062L254.319 130.371C254.448 131.211 255.194 131.886 256.729 131.886ZM257.307 128.316C256.369 128.316 256.018 127.59 256.198 126.484C256.377 125.394 256.971 124.594 257.916 124.594C258.823 124.594 259.221 125.347 259.037 126.484C258.85 127.629 258.205 128.316 257.307 128.316ZM263.604 131.886C265.217 131.886 266.537 131.148 266.787 129.609L267.795 123.511H266.401L266.237 124.504H266.162C266.018 124.07 265.674 123.433 264.615 123.433C263.229 123.433 261.959 124.519 261.635 126.492C261.307 128.449 262.233 129.426 263.619 129.426C264.647 129.426 265.221 128.875 265.502 128.433H265.573L265.393 129.57C265.252 130.453 264.588 130.816 263.787 130.816C262.924 130.816 262.639 130.418 262.522 130.062L261.194 130.371C261.323 131.211 262.069 131.886 263.604 131.886ZM264.182 128.316C263.244 128.316 262.893 127.59 263.073 126.484C263.252 125.394 263.846 124.594 264.791 124.594C265.698 124.594 266.096 125.347 265.912 126.484C265.725 127.629 265.08 128.316 264.182 128.316ZM268.244 129.511H269.658L270.658 123.511H269.244L268.244 129.511ZM270.158 122.652C270.608 122.652 271.006 122.308 271.037 121.886C271.073 121.461 270.737 121.117 270.287 121.117C269.834 121.117 269.44 121.461 269.401 121.886C269.365 122.308 269.709 122.652 270.158 122.652ZM273.113 125.996C273.265 125.129 273.87 124.629 274.613 124.629C275.351 124.629 275.702 125.113 275.57 125.91L274.972 129.511H276.386L277.027 125.691C277.265 124.25 276.573 123.433 275.347 123.433C274.448 123.433 273.749 123.859 273.374 124.531H273.3L273.472 123.511H272.116L271.116 129.511H272.534L273.113 125.996ZM280.05 131.886C281.663 131.886 282.984 131.148 283.234 129.609L284.241 123.511H282.847L282.683 124.504H282.609C282.464 124.07 282.12 123.433 281.062 123.433C279.675 123.433 278.406 124.519 278.081 126.492C277.753 128.449 278.679 129.426 280.066 129.426C281.093 129.426 281.667 128.875 281.948 128.433H282.019L281.839 129.57C281.698 130.453 281.034 130.816 280.234 130.816C279.37 130.816 279.085 130.418 278.968 130.062L277.64 130.371C277.769 131.211 278.515 131.886 280.05 131.886ZM280.628 128.316C279.691 128.316 279.339 127.59 279.519 126.484C279.698 125.394 280.292 124.594 281.238 124.594C282.144 124.594 282.542 125.347 282.359 126.484C282.171 127.629 281.527 128.316 280.628 128.316ZM287.482 129.511H292.716L292.919 128.297H289.134L289.493 126.113H292.978L293.181 124.898H289.697L290.056 122.726H293.81L294.013 121.511H288.81L287.482 129.511ZM296.257 123.511H294.757L296.038 126.511L293.71 129.511H295.21L296.827 127.351L297.738 129.511H299.226L297.886 126.511L300.195 123.511H298.698L297.101 125.726L296.257 123.511ZM299.913 131.761H301.327L301.859 128.566H301.925C302.073 129.004 302.433 129.617 303.464 129.617C304.878 129.617 306.128 128.496 306.452 126.519C306.784 124.519 305.878 123.433 304.491 123.433C303.433 123.433 302.882 124.07 302.601 124.504H302.515L302.679 123.511H301.288L299.913 131.761ZM302.175 126.511C302.363 125.347 302.991 124.594 303.906 124.594C304.847 124.594 305.191 125.394 305.011 126.511C304.82 127.636 304.198 128.457 303.269 128.457C302.366 128.457 301.988 127.676 302.175 126.511ZM309.804 129.629C311.206 129.629 312.273 128.945 312.702 127.902L311.409 127.754C311.128 128.265 310.628 128.527 310.007 128.527C309.054 128.527 308.566 128.043 308.741 126.918L308.745 126.898H312.929L312.995 126.465C313.347 124.363 312.238 123.433 310.761 123.433C309.046 123.433 307.71 124.695 307.406 126.547C307.089 128.426 307.999 129.629 309.804 129.629ZM308.913 125.945C309.073 125.226 309.788 124.535 310.601 124.535C311.417 124.535 311.859 125.129 311.722 125.945H308.913ZM313.695 129.511H315.109L315.691 125.984C315.823 125.222 316.484 124.683 317.257 124.683C317.503 124.683 317.788 124.722 317.909 124.765L318.128 123.465C317.991 123.437 317.784 123.426 317.624 123.426C316.937 123.426 316.288 123.816 315.96 124.511H315.898L316.066 123.511H314.695L313.695 129.511ZM318.067 129.511H319.481L320.481 123.511H319.067L318.067 129.511ZM319.981 122.652C320.43 122.652 320.828 122.308 320.86 121.886C320.895 121.461 320.559 121.117 320.11 121.117C319.656 121.117 319.262 121.461 319.223 121.886C319.188 122.308 319.531 122.652 319.981 122.652ZM323.575 129.629C324.978 129.629 326.044 128.945 326.474 127.902L325.181 127.754C324.9 128.265 324.4 128.527 323.779 128.527C322.825 128.527 322.337 128.043 322.513 126.918L322.517 126.898H326.7L326.767 126.465C327.118 124.363 326.009 123.433 324.532 123.433C322.818 123.433 321.482 124.695 321.177 126.547C320.861 128.426 321.771 129.629 323.575 129.629ZM322.685 125.945C322.845 125.226 323.56 124.535 324.372 124.535C325.189 124.535 325.63 125.129 325.493 125.945H322.685ZM329.466 125.996C329.618 125.129 330.224 124.629 330.966 124.629C331.704 124.629 332.056 125.113 331.923 125.91L331.325 129.511H332.74L333.38 125.691C333.618 124.25 332.927 123.433 331.7 123.433C330.802 123.433 330.103 123.859 329.728 124.531H329.654L329.825 123.511H328.47L327.47 129.511H328.888L329.466 125.996ZM336.771 129.629C338.279 129.629 339.376 128.738 339.704 127.461H338.353C338.118 128.105 337.595 128.476 336.974 128.476C336.091 128.476 335.642 127.738 335.845 126.511C336.036 125.301 336.743 124.574 337.622 124.574C338.298 124.574 338.646 125.011 338.657 125.59H340.013C340.126 124.289 339.255 123.433 337.794 123.433C336.032 123.433 334.704 124.703 334.411 126.535C334.107 128.351 334.974 129.629 336.771 129.629ZM343.158 129.629C344.561 129.629 345.627 128.945 346.057 127.902L344.764 127.754C344.483 128.265 343.983 128.527 343.362 128.527C342.408 128.527 341.92 128.043 342.096 126.918L342.1 126.898H346.283L346.35 126.465C346.701 124.363 345.592 123.433 344.115 123.433C342.401 123.433 341.065 124.695 340.76 126.547C340.444 128.426 341.354 129.629 343.158 129.629ZM342.268 125.945C342.428 125.226 343.143 124.535 343.955 124.535C344.772 124.535 345.213 125.129 345.076 125.945H342.268Z" fill="black"/>
<path d="M197.144 565.736H198.269L198.406 564.931C198.503 564.326 198.823 563.838 199.195 563.377L198.616 562.951C197.96 563.416 197.402 564.248 197.281 564.939L197.144 565.736ZM199.124 565.736H200.249L200.386 564.931C200.484 564.326 200.804 563.838 201.175 563.377L200.597 562.951C199.941 563.416 199.382 564.248 199.261 564.939L199.124 565.736ZM200.935 571.236H202.384L202.947 567.838H206.271L206.474 566.623H203.15L203.509 564.451H207.185L207.388 563.236H202.263L200.935 571.236ZM210.06 563.236H208.646L207.318 571.236H208.732L210.06 563.236ZM211.897 571.357C212.838 571.357 213.479 570.916 213.815 570.412H213.862L213.721 571.236H215.08L215.748 567.22C216.014 565.634 214.799 565.158 213.658 565.158C212.397 565.158 211.323 565.72 210.838 566.814L212.119 567.002C212.33 566.588 212.811 566.24 213.498 566.24C214.155 566.24 214.436 566.58 214.342 567.166V567.189C214.272 567.588 213.838 567.615 212.764 567.728C211.58 567.853 210.412 568.201 210.186 569.552C209.99 570.728 210.756 571.357 211.897 571.357ZM212.432 570.318C211.842 570.318 211.471 570.045 211.557 569.529C211.639 568.982 212.158 568.759 212.807 568.67C213.178 568.619 213.94 568.525 214.147 568.377L214.03 569.084C213.92 569.752 213.28 570.318 212.432 570.318ZM218.737 573.611C220.35 573.611 221.67 572.873 221.92 571.334L222.928 565.236H221.533L221.369 566.228H221.295C221.151 565.795 220.807 565.158 219.748 565.158C218.362 565.158 217.092 566.244 216.768 568.216C216.44 570.173 217.365 571.15 218.752 571.15C219.78 571.15 220.354 570.599 220.635 570.158H220.705L220.526 571.295C220.385 572.177 219.721 572.541 218.92 572.541C218.057 572.541 217.772 572.142 217.655 571.787L216.326 572.095C216.455 572.935 217.201 573.611 218.737 573.611ZM219.315 570.041C218.377 570.041 218.026 569.314 218.205 568.209C218.385 567.119 218.979 566.318 219.924 566.318C220.83 566.318 221.229 567.072 221.045 568.209C220.858 569.353 220.213 570.041 219.315 570.041ZM227.817 571.357C228.758 571.357 229.399 570.916 229.735 570.412H229.781L229.641 571.236H231L231.668 567.22C231.934 565.634 230.719 565.158 229.578 565.158C228.317 565.158 227.242 565.72 226.758 566.814L228.039 567.002C228.25 566.588 228.731 566.24 229.418 566.24C230.074 566.24 230.356 566.58 230.262 567.166V567.189C230.192 567.588 229.758 567.615 228.684 567.728C227.5 567.853 226.332 568.201 226.106 569.552C225.91 570.728 226.676 571.357 227.817 571.357ZM228.352 570.318C227.762 570.318 227.391 570.045 227.477 569.529C227.559 568.982 228.078 568.759 228.727 568.67C229.098 568.619 229.86 568.525 230.067 568.377L229.949 569.084C229.84 569.752 229.199 570.318 228.352 570.318ZM237.895 566.822C237.867 565.802 237.149 565.158 235.719 565.158C234.297 565.158 233.219 565.841 233.035 566.931C232.883 567.826 233.352 568.42 234.465 568.666L235.449 568.88C235.989 569.002 236.184 569.197 236.129 569.517C236.067 569.947 235.535 570.291 234.836 570.287C234.219 570.283 233.856 570.009 233.824 569.466L232.434 569.599C232.43 570.697 233.262 571.353 234.758 571.353C236.235 571.353 237.399 570.599 237.586 569.49C237.731 568.607 237.246 568.068 236.153 567.822L235.16 567.603C234.582 567.463 234.391 567.271 234.449 566.951C234.512 566.521 235.039 566.213 235.653 566.213C236.285 566.213 236.551 566.56 236.594 566.963L237.895 566.822ZM244.028 563.236H242.578L241.25 571.236H242.699L244.028 563.236ZM246.206 567.72C246.359 566.853 246.964 566.353 247.706 566.353C248.445 566.353 248.796 566.838 248.663 567.634L248.066 571.236H249.48L250.12 567.416C250.359 565.974 249.667 565.158 248.441 565.158C247.542 565.158 246.843 565.584 246.468 566.255H246.394L246.566 565.236H245.21L244.21 571.236H245.628L246.206 567.72ZM252.62 571.357C253.562 571.357 254.202 570.916 254.538 570.412H254.585L254.445 571.236H255.804L256.472 567.22C256.738 565.634 255.523 565.158 254.382 565.158C253.12 565.158 252.046 565.72 251.562 566.814L252.843 567.002C253.054 566.588 253.534 566.24 254.222 566.24C254.878 566.24 255.159 566.58 255.066 567.166V567.189C254.995 567.588 254.562 567.615 253.488 567.728C252.304 567.853 251.136 568.201 250.909 569.552C250.714 570.728 251.48 571.357 252.62 571.357ZM253.156 570.318C252.566 570.318 252.195 570.045 252.281 569.529C252.363 568.982 252.882 568.759 253.531 568.67C253.902 568.619 254.663 568.525 254.87 568.377L254.753 569.084C254.644 569.752 254.003 570.318 253.156 570.318ZM256.851 573.486H258.265L258.796 570.291H258.863C259.011 570.728 259.37 571.341 260.402 571.341C261.816 571.341 263.066 570.22 263.39 568.244C263.722 566.244 262.816 565.158 261.429 565.158C260.37 565.158 259.82 565.795 259.538 566.228H259.452L259.616 565.236H258.226L256.851 573.486ZM259.113 568.236C259.3 567.072 259.929 566.318 260.843 566.318C261.784 566.318 262.128 567.119 261.948 568.236C261.757 569.361 261.136 570.181 260.206 570.181C259.304 570.181 258.925 569.4 259.113 568.236ZM263.726 573.486H265.14L265.671 570.291H265.738C265.886 570.728 266.245 571.341 267.277 571.341C268.691 571.341 269.941 570.22 270.265 568.244C270.597 566.244 269.691 565.158 268.304 565.158C267.245 565.158 266.695 565.795 266.413 566.228H266.327L266.491 565.236H265.101L263.726 573.486ZM265.988 568.236C266.175 567.072 266.804 566.318 267.718 566.318C268.659 566.318 269.003 567.119 268.823 568.236C268.632 569.361 268.011 570.181 267.081 570.181C266.179 570.181 265.8 569.4 265.988 568.236ZM270.976 571.236H272.39L272.972 567.709C273.105 566.947 273.765 566.408 274.538 566.408C274.784 566.408 275.07 566.447 275.191 566.49L275.409 565.189C275.273 565.162 275.066 565.15 274.906 565.15C274.218 565.15 273.57 565.541 273.241 566.236H273.179L273.347 565.236H271.976L270.976 571.236ZM277.741 571.353C279.476 571.353 280.781 570.134 281.085 568.298C281.39 566.416 280.468 565.158 278.695 565.158C276.956 565.158 275.652 566.38 275.351 568.224C275.046 570.095 275.964 571.353 277.741 571.353ZM277.855 570.22C276.906 570.22 276.593 569.373 276.769 568.291C276.948 567.173 277.597 566.279 278.581 566.279C279.527 566.279 279.843 567.138 279.667 568.216C279.488 569.338 278.839 570.22 277.855 570.22ZM281.418 573.486H282.832L283.364 570.291H283.43C283.578 570.728 283.938 571.341 284.969 571.341C286.383 571.341 287.633 570.22 287.957 568.244C288.289 566.244 287.383 565.158 285.996 565.158C284.938 565.158 284.387 565.795 284.106 566.228H284.02L284.184 565.236H282.793L281.418 573.486ZM283.68 568.236C283.867 567.072 284.496 566.318 285.41 566.318C286.352 566.318 286.696 567.119 286.516 568.236C286.324 569.361 285.703 570.181 284.774 570.181C283.871 570.181 283.492 569.4 283.68 568.236ZM288.668 571.236H290.082L290.664 567.709C290.797 566.947 291.457 566.408 292.231 566.408C292.477 566.408 292.762 566.447 292.883 566.49L293.102 565.189C292.965 565.162 292.758 565.15 292.598 565.15C291.91 565.15 291.262 565.541 290.934 566.236H290.871L291.039 565.236H289.668L288.668 571.236ZM293.04 571.236H294.454L295.454 565.236H294.04L293.04 571.236ZM294.954 564.377C295.404 564.377 295.802 564.033 295.833 563.611C295.868 563.185 295.532 562.841 295.083 562.841C294.63 562.841 294.236 563.185 294.197 563.611C294.161 564.033 294.505 564.377 294.954 564.377ZM297.619 571.357C298.561 571.357 299.201 570.916 299.537 570.412H299.584L299.444 571.236H300.803L301.471 567.22C301.737 565.634 300.522 565.158 299.381 565.158C298.119 565.158 297.045 565.72 296.561 566.814L297.842 567.002C298.053 566.588 298.533 566.24 299.221 566.24C299.877 566.24 300.158 566.58 300.065 567.166V567.189C299.994 567.588 299.561 567.615 298.487 567.728C297.303 567.853 296.135 568.201 295.908 569.552C295.713 570.728 296.479 571.357 297.619 571.357ZM298.155 570.318C297.565 570.318 297.194 570.045 297.28 569.529C297.362 568.982 297.881 568.759 298.53 568.67C298.901 568.619 299.662 568.525 299.869 568.377L299.752 569.084C299.643 569.752 299.002 570.318 298.155 570.318ZM306.221 565.236H305.033L305.272 563.798H303.858L303.619 565.236H302.772L302.592 566.33H303.44L302.889 569.666C302.694 570.791 303.412 571.345 304.487 571.318C304.885 571.306 305.178 571.228 305.35 571.177L305.287 570.072C305.201 570.088 305.037 570.127 304.865 570.127C304.51 570.127 304.244 570.002 304.334 569.431L304.85 566.33H306.037L306.221 565.236ZM308.98 571.353C310.382 571.353 311.448 570.67 311.878 569.627L310.585 569.478C310.304 569.99 309.804 570.252 309.183 570.252C308.23 570.252 307.741 569.767 307.917 568.642L307.921 568.623H312.105L312.171 568.189C312.523 566.088 311.413 565.158 309.937 565.158C308.222 565.158 306.886 566.42 306.581 568.271C306.265 570.15 307.175 571.353 308.98 571.353ZM308.089 567.67C308.249 566.951 308.964 566.259 309.777 566.259C310.593 566.259 311.034 566.853 310.898 567.67H308.089ZM315.398 563.236H314.273L314.136 564.041C314.027 564.677 313.698 565.166 313.343 565.595L313.937 566.021C314.581 565.545 315.156 564.724 315.269 564.033L315.398 563.236ZM317.374 563.236H316.249L316.113 564.041C316.003 564.677 315.675 565.166 315.32 565.595L315.913 566.021C316.558 565.545 317.132 564.724 317.245 564.033L317.374 563.236Z" fill="black"/>
<path d="M194.325 335.629H194.807L195.272 335.498L206.848 332.243L206.959 332.212L207.067 332.173L220.971 327.258H241.111H261.369H280L292.406 332.131L292.785 332.28L293.188 332.338L315.842 335.591L315.858 335.594L334.653 338.382L334.908 338.42H335.166H353.977H372.788H373.402L373.979 338.211L381.696 335.421L384.006 334.585V332.129V317.246V299.573V287.481V273.063V259.111V245.158V233.531V233.158L383.927 232.792L381.515 221.63L380.919 218.869H378.094H357.354H338.06H321.661H311.174L298.721 214.422L298.38 214.301L298.022 214.251L281.204 211.935L265.35 209.155L265.05 209.103H264.745H247.864H232.911H232.598L232.289 209.158L216.912 211.938L201.054 214.255L200.641 214.315L200.255 214.471L188.679 219.122L187.197 219.717L186.676 221.226L183.782 229.597L183.59 230.153V230.741V245.158V254.46V263.762V273.063V293.527V305.619V317.246V332.129V335.629H187.09H194.325Z" fill="#FF0000" stroke="#FF0000" stroke-width="7"/>
<rect x="177.148" y="216.097" width="9.94196" height="290.94" fill="black"/>
</svg>
