<svg width="197" height="182" viewBox="0 0 197 182" fill="none" xmlns="http://www.w3.org/2000/svg">
<g clip-path="url(#clip0)">
<path d="M179.5 166.2C183.918 166.2 187.5 162.618 187.5 158.2C187.5 153.782 183.918 150.2 179.5 150.2C175.082 150.2 171.5 153.782 171.5 158.2C171.5 162.618 175.082 166.2 179.5 166.2Z" fill="#0071BC" stroke="black" stroke-width="3" stroke-miterlimit="10"/>
<path d="M190 180C192.872 180 195.2 177.672 195.2 174.8C195.2 171.928 192.872 169.6 190 169.6C187.128 169.6 184.8 171.928 184.8 174.8C184.8 177.672 187.128 180 190 180Z" fill="#0071BC" stroke="black" stroke-width="3" stroke-miterlimit="10"/>
<path d="M93.2 92.7C93.2 92.7 85.5 93.9 81.2 99C76.9 104.2 78.2 105.8 78.2 105.8C78.2 105.8 78.7 110.9 79.4 112.5C80 113.8 82 115.9 83.1 116.8C84.1 117.6 87.4 119.1 87.4 119.1C87.4 119.1 83.9 123.4 83.2 125.1C82.6 126.6 82.3 129.8 82 131.4C81.7 133.3 81.3 137.4 82.2 139.1C82.9 140.5 85.6 142.2 87 142.8C87.8 143.1 90.2 143.8 90.2 143.8C90.2 143.8 89.1 147.3 89 148.5C89 148.8 88.8 149.7 89.1 150.6C89.8 152.3 89.7 151.9 90.1 152.6C90.4 153.2 91 153.8 91.5 154.3C92.1 154.9 92.9 155.1 93.6 155.2C94.9 155.5 97.5 154.2 98.6 153.5C99.3 153.1 101.3 151.5 101.3 151.5L103.4 156.1C103.4 156.1 105.3 160 108.1 160.5C109.8 160.8 112.3 160.1 113.6 159.5C114.4 159.1 116.6 157.5 116.6 157.5C116.6 157.5 120.4 161 121.9 161.5C123 161.9 125.5 161.9 126.6 161.5C128.5 160.7 133.3 156.5 133.3 156.5C133.3 156.5 137.7 159.2 139.3 159.8C140.9 160.4 144.4 161.7 146.1 161.5C148 161.3 151.6 159.8 152.9 158.5C154.1 157.3 155.9 154.2 156.2 152.5C156.4 151.5 156.6 149.4 156.2 148.5C155.9 147.8 154.4 146.2 154.4 146.2C154.4 146.2 158.8 147.1 160.2 147.2C161.5 147.3 164.2 147.8 165.4 147.2C166.6 146.6 168.5 144.2 168.9 142.9C169.4 141.1 169.3 137.1 168.9 135.2C168.5 133.6 166.6 128.9 166.6 128.9C166.6 128.9 171.6 130.4 173.3 130.6C175 130.8 178.5 131.4 180 130.6C181.8 129.6 184.3 125.9 184.7 123.9C185 122.2 184.5 118.6 183.9 116.9C183.2 114.9 177.9 109.6 177.9 109.6C177.9 109.6 180.8 103.5 180.2 101.6C179.6 99.6 177.1 96.1 175.5 94.7C173.7 93.1 169.8 89.9 167.5 89.2C165.7 88.7 159.8 89.2 159.8 89.2C159.8 89.2 162.9 83.6 162.6 81.5C162.3 79.5 159.5 75.9 157.8 74.8C155.9 73.6 151.4 71.9 149.1 71.8C146.6 71.7 139.4 73.8 139.4 73.8C139.4 73.8 139.9 70.5 139.6 69.5C139.2 68.4 137.5 66.7 136.4 66.2C134.2 65.1 129.2 64.4 126.7 64.2C125.4 64.1 122.6 63.7 121.4 64.2C111.7 68.4 93.2 92.7 93.2 92.7Z" fill="#0071BC" stroke="black" stroke-width="3" stroke-miterlimit="10"/>
<path d="M120.9 90.4C101.3 102.6 127.1 86.6 107.5 98.8C100.8 103 43.1 45.9 43.1 45.9C39 39.1 50.4 21.7 57 17.5L70.4 9.1C77.1 4.9 96.3 -2.6 100.4 4.1C100.5 4.2 127.6 86.2 120.9 90.4Z" fill="white" stroke="black" stroke-width="3" stroke-miterlimit="10"/>
<path d="M141.3 114.8C141.3 122.9 134.7 129.5 126.6 129.5C118.5 129.5 111.9 122.9 111.9 114.8C111.9 106.7 118.5 100.1 126.6 100.1C134.8 100.2 141.3 106.7 141.3 114.8Z" fill="white" stroke="black" stroke-width="3" stroke-miterlimit="10"/>
</g>
<defs>
<clipPath id="clip0">
<rect width="196.7" height="181.5" fill="white"/>
</clipPath>
</defs>
</svg>
