<svg width="58" height="43" viewBox="0 0 58 43" fill="none" xmlns="http://www.w3.org/2000/svg">
<path d="M17.08 27.4C16.44 28.8667 15.72 30.1467 14.92 31.24C14.1467 32.3067 13.32 33.2133 12.44 33.96C11.5867 34.68 10.72 35.2133 9.84 35.56C8.96 35.9067 8.10667 36.08 7.28 36.08C6.45333 36.08 5.69333 35.8933 5 35.52C4.33333 35.1467 3.74667 34.5867 3.24 33.84C2.73333 33.0933 2.32 32.1733 2 31.08C1.70667 29.9867 1.56 28.7067 1.56 27.24C1.56 24.7333 1.90667 22.2667 2.6 19.84C3.29333 17.3867 4.26667 15.1867 5.52 13.24C6.77333 11.2933 8.25333 9.73333 9.96 8.56C11.6933 7.36 13.6 6.76 15.68 6.76C16.32 6.76 16.9333 6.89333 17.52 7.16C18.1067 7.42667 18.6133 7.8 19.04 8.28C19.4667 8.76 19.8 9.34667 20.04 10.04C20.3067 10.7333 20.44 11.5067 20.44 12.36C20.44 12.52 20.44 12.6933 20.44 12.88C20.44 13.04 20.4267 13.2133 20.4 13.4L15.16 14.8C14.84 14.1333 14.4667 13.8 14.04 13.8C13.6133 13.8 13.16 14.0533 12.68 14.56C12.2267 15.04 11.7733 15.68 11.32 16.48C10.8667 17.2533 10.4267 18.1333 10 19.12C9.57333 20.08 9.2 21.0533 8.88 22.04C8.56 23.0267 8.29333 23.9733 8.08 24.88C7.89333 25.76 7.8 26.48 7.8 27.04C7.8 27.8933 7.90667 28.4933 8.12 28.84C8.36 29.1867 8.66667 29.36 9.04 29.36C9.33333 29.36 9.66667 29.2533 10.04 29.04C10.4133 28.8 10.76 28.5067 11.08 28.16C11.4 27.7867 11.6933 27.3733 11.96 26.92C12.2267 26.4667 12.4133 26.0133 12.52 25.56L17.08 27.4ZM21.4825 35.04C20.7358 35.1733 19.9225 35.3333 19.0425 35.52C18.1625 35.7067 17.3892 35.88 16.7225 36.04C17.0425 34.8933 17.3492 33.6133 17.6425 32.2C17.9625 30.76 18.2692 29.2533 18.5625 27.68C18.8825 26.1067 19.1758 24.52 19.4425 22.92C19.7358 21.2933 20.0158 19.7333 20.2825 18.24C20.8425 14.6933 21.4025 11.0267 21.9625 7.24L35.3625 6.56L34.2025 11.48H27.9225L26.6825 18.6C27.5092 18.5733 28.2958 18.56 29.0425 18.56C29.6558 18.56 30.2825 18.56 30.9225 18.56C31.5625 18.56 32.0558 18.5467 32.4025 18.52C32.3225 19.2667 32.2158 20 32.0825 20.72C31.9758 21.44 31.8692 22.16 31.7625 22.88C31.4158 22.88 30.9225 22.88 30.2825 22.88C29.6425 22.8533 28.9758 22.8267 28.2825 22.8C27.6158 22.7733 26.8558 22.7467 26.0025 22.72L24.1625 34.52C23.2558 34.68 22.3625 34.8533 21.4825 35.04ZM28.9953 35.76C30.1686 32.2133 31.2886 28.7333 32.3553 25.32C32.8086 23.88 33.2753 22.3733 33.7553 20.8C34.2353 19.2267 34.7153 17.6667 35.1953 16.12C35.6753 14.5733 36.1153 13.08 36.5153 11.64C36.942 10.2 37.3153 8.86666 37.6353 7.64C39.102 7.64 40.4886 7.56 41.7953 7.4C43.102 7.24 44.5153 7.09333 46.0353 6.96C45.9553 7.54667 45.862 8.21333 45.7553 8.96C45.6753 9.68 45.5686 10.44 45.4353 11.24C45.3286 12.04 45.2086 12.8667 45.0753 13.72C44.942 14.5733 44.782 15.6667 44.5953 17C44.4086 18.3333 44.1553 20 43.8353 22H44.3553C45.1286 19.9733 45.7686 18.2933 46.2753 16.96C46.782 15.6 47.1953 14.4933 47.5153 13.64C47.8353 12.7867 48.1553 11.96 48.4753 11.16C48.822 10.3333 49.142 9.56 49.4353 8.84C49.7553 8.09333 50.0486 7.44 50.3153 6.88C50.982 6.82667 51.6086 6.76 52.1953 6.68C52.782 6.6 53.3686 6.52 53.9553 6.44C54.542 6.33333 55.1286 6.24 55.7153 6.16C56.3286 6.05333 56.9953 5.93333 57.7153 5.8C57.4486 7.34667 57.1953 8.93333 56.9553 10.56C56.7153 12.1867 56.502 13.8133 56.3153 15.44C56.1286 17.04 55.942 18.6267 55.7553 20.2C55.5953 21.7733 55.4486 23.2667 55.3153 24.68C54.9953 27.9867 54.7153 31.2133 54.4753 34.36L47.5153 35.6C47.5153 35.4667 47.5286 35.1067 47.5553 34.52C47.6086 33.9333 47.662 33.2133 47.7153 32.36C47.7953 31.5067 47.8886 30.56 47.9953 29.52C48.1286 28.48 48.2486 27.44 48.3553 26.4C48.4886 25.36 48.622 24.36 48.7553 23.4C48.8886 22.4133 49.022 21.5733 49.1553 20.88H48.7953C48.422 22 48.0086 23.1867 47.5553 24.44C47.102 25.6667 46.6353 26.92 46.1553 28.2C45.702 29.48 45.2486 30.7333 44.7953 31.96C44.342 33.1867 43.942 34.36 43.5953 35.48C42.662 35.5067 41.862 35.5467 41.1953 35.6C40.5286 35.6267 39.7553 35.6667 38.8753 35.72L40.1553 20.88H39.5553C39.502 21.2267 39.3686 21.8133 39.1553 22.64C38.942 23.44 38.6886 24.3733 38.3953 25.44C38.1286 26.48 37.8353 27.5733 37.5153 28.72C37.1953 29.84 36.8886 30.8933 36.5953 31.88C36.3286 32.84 36.102 33.64 35.9153 34.28C35.7286 34.8933 35.622 35.24 35.5953 35.32L28.9953 35.76Z" fill="black"/>
</svg>
