<svg width="700" height="602" viewBox="0 0 700 602" fill="none" xmlns="http://www.w3.org/2000/svg">
<path d="M690.162 179.508L14.3406 186.015L29.2142 516.954C27.9748 531.828 31.4453 564.55 55.2431 576.449C79.041 588.348 87.4694 589.463 88.7089 588.534C250.15 594.421 581.585 603.965 615.794 595.041C650.003 586.117 668.472 555.997 673.429 542.053L690.162 179.508Z" fill="#E9E8E4" stroke="#EAE9E4" stroke-width="5"/>
<rect x="45.9473" y="248.299" width="608.89" height="2.78881" fill="black"/>
<rect x="51.5247" y="381.232" width="597.735" height="2.78881" fill="black"/>
<rect x="57.1025" y="503.01" width="587.509" height="2.78881" fill="black"/>
<rect x="199.332" y="251.087" width="3.71841" height="130.144" fill="black"/>
<rect x="485.65" y="251.087" width="3.71841" height="130.144" fill="black"/>
<path d="M83.8333 434.346C87.3788 434.346 89.7765 432.215 90.3674 428.63C90.981 424.954 89.1969 422.71 85.731 422.71H81.7651L79.8333 434.346H83.8333ZM82.2424 432.522L83.5719 424.533H85.4185C87.7822 424.533 88.7594 425.789 88.3163 428.397C87.8674 431.13 86.3617 432.522 83.9413 432.522H82.2424ZM95.4668 422.71H93.3589L91.427 434.346H93.535L95.4668 422.71ZM95.8177 434.346H97.9256L98.6359 430.085H100.778L102.357 434.346H104.71L102.954 429.732C104.42 429.181 105.335 428.005 105.596 426.431C105.965 424.198 104.789 422.71 102.113 422.71H97.7495L95.8177 434.346ZM98.9256 428.335L99.5677 424.471H101.499C103.068 424.471 103.647 425.187 103.448 426.431C103.249 427.664 102.437 428.335 100.874 428.335H98.9256ZM106.286 434.346H113.9L114.196 432.579H108.69L109.213 429.403H114.281L114.576 427.636H109.508L110.031 424.477H115.491L115.786 422.71H108.218L106.286 434.346ZM127.232 426.636C127.295 424.05 125.517 422.55 122.886 422.55C119.903 422.55 117.323 424.693 116.704 428.403C116.079 432.221 118.017 434.505 121.142 434.505C123.852 434.505 125.914 432.704 126.613 430.482H124.494C123.994 431.84 122.698 432.613 121.238 432.613C119.426 432.613 118.352 431.261 118.778 428.653C119.221 425.971 120.874 424.443 122.835 424.443C124.198 424.443 125.13 425.244 125.142 426.636H127.232ZM129.021 424.477H132.617L130.981 434.346H133.072L134.708 424.477H138.305L138.6 422.71H129.316L129.021 424.477ZM149.299 428.664C149.936 424.835 147.958 422.55 144.862 422.55C141.85 422.55 139.265 424.71 138.651 428.408C138.021 432.227 139.992 434.505 143.117 434.505C146.1 434.505 148.68 432.363 149.299 428.664ZM147.225 428.408C146.776 431.113 145.146 432.613 143.186 432.613C141.367 432.613 140.282 431.261 140.731 428.664C141.163 425.96 142.805 424.443 144.776 424.443C146.606 424.443 147.651 425.823 147.225 428.408ZM150.349 434.346H152.457L153.167 430.085H155.309L156.889 434.346H159.241L157.485 429.732C158.951 429.181 159.866 428.005 160.127 426.431C160.497 424.198 159.321 422.71 156.644 422.71H152.281L150.349 434.346ZM153.457 428.335L154.099 424.471H156.031C157.599 424.471 158.178 425.187 157.98 426.431C157.781 427.664 156.968 428.335 155.406 428.335H153.457ZM163.346 427.181C164.011 427.181 164.619 426.63 164.664 425.931C164.704 425.261 164.153 424.704 163.482 424.704C162.795 424.704 162.193 425.249 162.164 425.931C162.13 426.63 162.647 427.181 163.346 427.181ZM162.369 432.948C163.034 432.948 163.642 432.397 163.687 431.698C163.727 431.028 163.176 430.471 162.505 430.471C161.818 430.471 161.215 431.016 161.187 431.698C161.153 432.397 161.67 432.948 162.369 432.948Z" fill="black"/>
<path d="M83.8333 434.346C87.3788 434.346 89.7765 432.215 90.3674 428.63C90.981 424.954 89.1969 422.71 85.731 422.71H81.7651L79.8333 434.346H83.8333ZM82.2424 432.522L83.5719 424.533H85.4185C87.7822 424.533 88.7594 425.789 88.3163 428.397C87.8674 431.13 86.3617 432.522 83.9413 432.522H82.2424ZM95.4668 422.71H93.3589L91.427 434.346H93.535L95.4668 422.71ZM95.8177 434.346H97.9256L98.6359 430.085H100.778L102.357 434.346H104.71L102.954 429.732C104.42 429.181 105.335 428.005 105.596 426.431C105.965 424.198 104.789 422.71 102.113 422.71H97.7495L95.8177 434.346ZM98.9256 428.335L99.5677 424.471H101.499C103.068 424.471 103.647 425.187 103.448 426.431C103.249 427.664 102.437 428.335 100.874 428.335H98.9256ZM106.286 434.346H113.9L114.196 432.579H108.69L109.213 429.403H114.281L114.576 427.636H109.508L110.031 424.477H115.491L115.786 422.71H108.218L106.286 434.346ZM127.232 426.636C127.295 424.05 125.517 422.55 122.886 422.55C119.903 422.55 117.323 424.693 116.704 428.403C116.079 432.221 118.017 434.505 121.142 434.505C123.852 434.505 125.914 432.704 126.613 430.482H124.494C123.994 431.84 122.698 432.613 121.238 432.613C119.426 432.613 118.352 431.261 118.778 428.653C119.221 425.971 120.874 424.443 122.835 424.443C124.198 424.443 125.13 425.244 125.142 426.636H127.232ZM129.021 424.477H132.617L130.981 434.346H133.072L134.708 424.477H138.305L138.6 422.71H129.316L129.021 424.477ZM149.299 428.664C149.936 424.835 147.958 422.55 144.862 422.55C141.85 422.55 139.265 424.71 138.651 428.408C138.021 432.227 139.992 434.505 143.117 434.505C146.1 434.505 148.68 432.363 149.299 428.664ZM147.225 428.408C146.776 431.113 145.146 432.613 143.186 432.613C141.367 432.613 140.282 431.261 140.731 428.664C141.163 425.96 142.805 424.443 144.776 424.443C146.606 424.443 147.651 425.823 147.225 428.408ZM150.349 434.346H152.457L153.167 430.085H155.309L156.889 434.346H159.241L157.485 429.732C158.951 429.181 159.866 428.005 160.127 426.431C160.497 424.198 159.321 422.71 156.644 422.71H152.281L150.349 434.346ZM153.457 428.335L154.099 424.471H156.031C157.599 424.471 158.178 425.187 157.98 426.431C157.781 427.664 156.968 428.335 155.406 428.335H153.457ZM163.346 427.181C164.011 427.181 164.619 426.63 164.664 425.931C164.704 425.261 164.153 424.704 163.482 424.704C162.795 424.704 162.193 425.249 162.164 425.931C162.13 426.63 162.647 427.181 163.346 427.181ZM162.369 432.948C163.034 432.948 163.642 432.397 163.687 431.698C163.727 431.028 163.176 430.471 162.505 430.471C161.818 430.471 161.215 431.016 161.187 431.698C161.153 432.397 161.67 432.948 162.369 432.948Z" fill="black"/>
<path d="M88.272 469.398C88.3345 466.812 86.5561 465.312 83.9254 465.312C80.9424 465.312 78.3629 467.455 77.7436 471.165C77.1186 474.983 79.0561 477.267 82.1811 477.267C84.8913 477.267 86.9538 475.466 87.6527 473.244H85.5334C85.0334 474.602 83.7379 475.375 82.2777 475.375C80.4652 475.375 79.3913 474.023 79.8174 471.415C80.2606 468.733 81.914 467.205 83.8743 467.205C85.2379 467.205 86.1697 468.006 86.1811 469.398H88.272ZM90.289 477.108L91.7322 474.239H96.1072L96.5902 477.108H98.8402L96.6697 465.472H94.0674L88.039 477.108H90.289ZM92.5788 472.545L94.9368 467.858H95.0277L95.8174 472.545H92.5788ZM102.305 465.472L100.373 477.108H102.396L103.736 469.097H103.844L105.731 477.074H107.236L111.782 469.114H111.884L110.555 477.108H112.577L114.509 465.472H111.93L107.083 473.903H106.947L104.884 465.472H102.305ZM114.873 477.108H122.486L122.782 475.341H117.276L117.799 472.165H122.867L123.163 470.398H118.094L118.617 467.239H124.077L124.373 465.472H116.805L114.873 477.108ZM124.592 477.108H126.7L127.41 472.847H129.552L131.131 477.108H133.484L131.728 472.494C133.194 471.943 134.109 470.767 134.37 469.193C134.739 466.96 133.563 465.472 130.887 465.472H126.523L124.592 477.108ZM127.7 471.097L128.342 467.233H130.273C131.842 467.233 132.421 467.949 132.222 469.193C132.023 470.426 131.211 471.097 129.648 471.097H127.7ZM136.555 477.108L137.998 474.239H142.373L142.856 477.108H145.106L142.935 465.472H140.333L134.305 477.108H136.555ZM138.844 472.545L141.202 467.858H141.293L142.083 472.545H138.844ZM149.167 469.943C149.832 469.943 150.44 469.392 150.485 468.693C150.525 468.023 149.974 467.466 149.303 467.466C148.616 467.466 148.013 468.011 147.985 468.693C147.951 469.392 148.468 469.943 149.167 469.943ZM148.19 475.71C148.854 475.71 149.462 475.159 149.508 474.46C149.548 473.79 148.996 473.233 148.326 473.233C147.638 473.233 147.036 473.778 147.008 474.46C146.974 475.159 147.491 475.71 148.19 475.71Z" fill="black"/>
<path d="M80.1153 527.306C83.6607 527.306 86.0585 525.175 86.6494 521.59C87.263 517.914 85.4789 515.67 82.013 515.67H78.0471L76.1153 527.306H80.1153ZM78.5244 525.482L79.8539 517.494H81.7005C84.0641 517.494 85.0414 518.749 84.5982 521.357C84.1494 524.09 82.6437 525.482 80.2232 525.482H78.5244ZM88.5783 527.306L90.0215 524.437H94.3965L94.8795 527.306H97.1295L94.959 515.67H92.3568L86.3283 527.306H88.5783ZM90.8681 522.744L93.2261 518.056H93.317L94.1068 522.744H90.8681ZM98.3809 517.437H101.977L100.341 527.306H102.432L104.068 517.437H107.665L107.96 515.67H98.6764L98.3809 517.437ZM107.818 527.306H115.432L115.727 525.539H110.222L110.745 522.363H115.813L116.108 520.596H111.04L111.563 517.437H117.023L117.318 515.67H109.75L107.818 527.306ZM120.066 520.141C120.73 520.141 121.338 519.59 121.384 518.891C121.424 518.221 120.872 517.664 120.202 517.664C119.514 517.664 118.912 518.21 118.884 518.891C118.85 519.59 119.367 520.141 120.066 520.141ZM119.088 525.908C119.753 525.908 120.361 525.357 120.406 524.658C120.446 523.988 119.895 523.431 119.225 523.431C118.537 523.431 117.935 523.977 117.906 524.658C117.872 525.357 118.389 525.908 119.088 525.908Z" fill="black"/>
<path d="M324.601 528.236C328.146 528.236 330.544 526.105 331.135 522.52C331.748 518.844 329.964 516.599 326.498 516.599H322.532L320.601 528.236H324.601ZM323.01 526.412L324.339 518.423H326.186C328.549 518.423 329.527 519.679 329.084 522.287C328.635 525.02 327.129 526.412 324.709 526.412H323.01ZM334.592 528.412C335.961 528.412 336.893 527.77 337.382 527.037H337.45L337.246 528.236H339.223L340.194 522.395C340.581 520.088 338.814 519.395 337.155 519.395C335.319 519.395 333.757 520.213 333.052 521.804L334.916 522.077C335.223 521.474 335.922 520.969 336.922 520.969C337.876 520.969 338.285 521.463 338.149 522.315V522.349C338.047 522.929 337.416 522.969 335.853 523.133C334.132 523.315 332.433 523.821 332.103 525.787C331.819 527.497 332.933 528.412 334.592 528.412ZM335.371 526.9C334.513 526.9 333.973 526.503 334.098 525.753C334.217 524.957 334.973 524.633 335.916 524.503C336.456 524.429 337.564 524.292 337.865 524.077L337.694 525.105C337.535 526.077 336.603 526.9 335.371 526.9ZM341.723 531.508C343.308 531.508 344.376 530.702 345.121 529.281L350.228 519.508H347.961L344.842 526.111H344.751L343.842 519.508H341.74L343.41 528.389L343.149 528.861C342.586 529.849 342.013 529.952 341.166 529.69L340.416 531.292C340.677 531.406 341.16 531.508 341.723 531.508ZM351.052 528.361C351.717 528.361 352.325 527.809 352.371 527.111C352.41 526.44 351.859 525.883 351.189 525.883C350.501 525.883 349.899 526.429 349.871 527.111C349.836 527.809 350.353 528.361 351.052 528.361ZM365.892 516.599H363.795L362.483 524.531H362.375L358.216 516.599H356.329L354.398 528.236H356.505L357.829 520.309H357.92L362.085 528.236H363.96L365.892 516.599ZM366.166 528.236H368.223L369.677 519.508H367.621L366.166 528.236ZM368.95 518.258C369.603 518.258 370.183 517.758 370.228 517.145C370.28 516.525 369.791 516.025 369.138 516.025C368.478 516.025 367.905 516.525 367.848 517.145C367.797 517.758 368.297 518.258 368.95 518.258ZM373.588 531.69C375.934 531.69 377.855 530.616 378.219 528.378L379.684 519.508H377.656L377.417 520.952H377.309C377.099 520.321 376.599 519.395 375.059 519.395C373.042 519.395 371.196 520.974 370.724 523.844C370.247 526.69 371.594 528.111 373.611 528.111C375.105 528.111 375.94 527.309 376.349 526.667H376.451L376.19 528.321C375.986 529.605 375.02 530.133 373.855 530.133C372.599 530.133 372.184 529.554 372.014 529.037L370.082 529.486C370.27 530.707 371.355 531.69 373.588 531.69ZM374.429 526.497C373.065 526.497 372.554 525.44 372.815 523.832C373.076 522.247 373.94 521.082 375.315 521.082C376.633 521.082 377.213 522.179 376.946 523.832C376.673 525.497 375.736 526.497 374.429 526.497ZM383.247 523.122C383.469 521.861 384.372 521.133 385.474 521.133C386.542 521.133 387.065 521.821 386.878 522.997L386.003 528.236H388.065L388.997 522.679C389.338 520.565 388.338 519.395 386.537 519.395C385.184 519.395 384.224 519.997 383.673 520.991H383.565L384.292 516.599H382.275L380.344 528.236H382.406L383.247 523.122ZM395.963 519.508H394.236L394.582 517.417H392.525L392.179 519.508H390.946L390.684 521.099H391.917L391.116 525.952C390.832 527.588 391.878 528.395 393.44 528.355C394.02 528.338 394.446 528.224 394.696 528.15L394.605 526.542C394.48 526.565 394.241 526.622 393.991 526.622C393.474 526.622 393.088 526.44 393.219 525.611L393.969 521.099H395.696L395.963 519.508Z" fill="black"/>
<path d="M322.46 558.913H324.568L325.386 553.97H330.221L330.517 552.203H325.682L326.204 549.044H331.551L331.846 547.276H324.392L322.46 558.913ZM331.744 558.913H333.801L335.255 550.186H333.199L331.744 558.913ZM334.528 548.936C335.182 548.936 335.761 548.436 335.807 547.822C335.858 547.203 335.369 546.703 334.716 546.703C334.057 546.703 333.483 547.203 333.426 547.822C333.375 548.436 333.875 548.936 334.528 548.936ZM339.905 547.276H337.848L335.916 558.913H337.973L339.905 547.276ZM345.9 550.186H344.173L344.52 548.095H342.463L342.116 550.186H340.883L340.622 551.776H341.855L341.054 556.629C340.77 558.265 341.815 559.072 343.378 559.032C343.957 559.015 344.383 558.901 344.633 558.828L344.542 557.22C344.417 557.242 344.179 557.299 343.929 557.299C343.412 557.299 343.025 557.117 343.156 556.288L343.906 551.776H345.633L345.9 550.186ZM349.913 559.083C351.953 559.083 353.504 558.089 354.129 556.572L352.248 556.356C351.839 557.1 351.112 557.481 350.209 557.481C348.822 557.481 348.112 556.776 348.368 555.14L348.373 555.112H354.459L354.555 554.481C355.067 551.424 353.453 550.072 351.305 550.072C348.811 550.072 346.868 551.907 346.424 554.6C345.964 557.333 347.288 559.083 349.913 559.083ZM348.618 553.725C348.851 552.68 349.89 551.674 351.072 551.674C352.26 551.674 352.902 552.538 352.703 553.725H348.618ZM355.572 558.913H357.629L358.476 553.782C358.669 552.674 359.629 551.89 360.754 551.89C361.112 551.89 361.527 551.947 361.703 552.009L362.021 550.117C361.822 550.078 361.521 550.061 361.288 550.061C360.288 550.061 359.345 550.629 358.868 551.64H358.777L359.021 550.186H357.027L355.572 558.913Z" fill="black"/>
<path d="M90.0591 270.736H92.1671L92.8773 266.474H95.0194L96.5989 270.736H98.9512L97.1955 266.122C98.6614 265.571 99.5762 264.395 99.8375 262.821C100.207 260.588 99.0307 259.099 96.3546 259.099H91.9909L90.0591 270.736ZM93.1671 264.724L93.8091 260.861H95.7409C97.3091 260.861 97.8887 261.577 97.6898 262.821C97.4909 264.054 96.6784 264.724 95.1159 264.724H93.1671ZM111.869 265.054C112.505 261.224 110.528 258.94 107.431 258.94C104.42 258.94 101.835 261.099 101.221 264.798C100.59 268.616 102.562 270.895 105.687 270.895C108.67 270.895 111.249 268.753 111.869 265.054ZM109.795 264.798C109.346 267.503 107.715 269.003 105.755 269.003C103.937 269.003 102.852 267.65 103.301 265.054C103.732 262.349 105.374 260.832 107.346 260.832C109.176 260.832 110.221 262.213 109.795 264.798ZM112.919 270.736H120.151L120.447 268.969H115.322L116.958 259.099H114.85L112.919 270.736ZM121.981 270.736H129.214L129.509 268.969H124.384L126.021 259.099H123.913L121.981 270.736Z" fill="black"/>
<path d="M55.6636 226.115H57.7716L58.425 222.183H60.6466C63.3454 222.183 65.05 220.569 65.4193 218.331C65.7886 216.103 64.6352 214.478 61.9591 214.478H57.5954L55.6636 226.115ZM58.7148 220.45L59.4136 216.24H61.3454C62.925 216.24 63.4704 217.086 63.2716 218.331C63.0727 219.564 62.2261 220.45 60.6523 220.45H58.7148ZM65.9449 226.115H68.0528L68.7631 221.853H70.9051L72.4846 226.115H74.8369L73.0812 221.501C74.5471 220.95 75.4619 219.774 75.7233 218.2C76.0926 215.967 74.9165 214.478 72.2403 214.478H67.8767L65.9449 226.115ZM69.0528 220.103L69.6949 216.24H71.6267C73.1949 216.24 73.7744 216.956 73.5756 218.2C73.3767 219.433 72.5642 220.103 71.0017 220.103H69.0528ZM87.7545 220.433C88.3909 216.603 86.4136 214.319 83.317 214.319C80.3057 214.319 77.7204 216.478 77.1068 220.177C76.4761 223.995 78.4477 226.274 81.5727 226.274C84.5557 226.274 87.1352 224.132 87.7545 220.433ZM85.6807 220.177C85.2318 222.882 83.6011 224.382 81.6409 224.382C79.8227 224.382 78.7375 223.03 79.1863 220.433C79.6182 217.728 81.2602 216.211 83.2318 216.211C85.0613 216.211 86.1068 217.592 85.6807 220.177ZM92.8042 226.115C96.3497 226.115 98.7474 223.984 99.3383 220.399C99.952 216.723 98.1679 214.478 94.702 214.478H90.7361L88.8042 226.115H92.8042ZM91.2133 224.291L92.5429 216.302H94.3895C96.7531 216.302 97.7304 217.558 97.2872 220.166C96.8383 222.899 95.3327 224.291 92.9122 224.291H91.2133ZM100.959 226.24C101.624 226.24 102.232 225.689 102.277 224.99C102.317 224.319 101.766 223.762 101.095 223.762C100.408 223.762 99.8057 224.308 99.7773 224.99C99.7432 225.689 100.26 226.24 100.959 226.24Z" fill="black"/>
<path d="M293.916 262.355H295.944C296.222 260.332 294.796 258.94 292.319 258.94C289.87 258.94 287.825 260.309 287.478 262.372C287.205 264.042 288.228 264.997 290.058 265.497L291.319 265.838C292.529 266.156 293.308 266.548 293.149 267.452C292.989 268.446 291.933 269.111 290.558 269.111C289.245 269.111 288.308 268.52 288.433 267.298H286.359C286.058 269.611 287.569 270.912 290.279 270.912C293.069 270.912 294.91 269.52 295.257 267.469C295.592 265.452 294.075 264.525 292.404 264.116L291.359 263.844C290.438 263.616 289.467 263.207 289.643 262.241C289.791 261.361 290.677 260.724 291.995 260.724C293.251 260.724 293.944 261.304 293.916 262.355ZM307.823 263.025C307.886 260.44 306.107 258.94 303.477 258.94C300.494 258.94 297.914 261.082 297.295 264.792C296.67 268.611 298.607 270.895 301.732 270.895C304.443 270.895 306.505 269.094 307.204 266.872H305.085C304.585 268.23 303.289 269.003 301.829 269.003C300.016 269.003 298.943 267.65 299.369 265.042C299.812 262.361 301.465 260.832 303.426 260.832C304.789 260.832 305.721 261.633 305.732 263.025H307.823ZM308.487 270.736H316.1L316.396 268.969H310.89L311.413 265.792H316.481L316.776 264.025H311.708L312.231 260.866H317.691L317.987 259.099H310.418L308.487 270.736ZM329.7 259.099H327.603L326.291 267.031H326.183L322.024 259.099H320.137L318.205 270.736H320.313L321.637 262.809H321.728L325.893 270.736H327.768L329.7 259.099ZM330.065 270.736H337.678L337.974 268.969H332.468L332.991 265.792H338.059L338.355 264.025H333.286L333.809 260.866H339.269L339.565 259.099H331.997L330.065 270.736Z" fill="black"/>
<path d="M536.464 260.866H540.061L538.425 270.736H540.516L542.152 260.866H545.748L546.044 259.099H536.76L536.464 260.866ZM545.99 270.736L547.433 267.866H551.808L552.291 270.736H554.541L552.371 259.099H549.768L543.74 270.736H545.99ZM548.28 266.173L550.638 261.486H550.729L551.518 266.173H548.28ZM556.074 270.736H558.182L558.761 267.281L560.318 265.747L562.943 270.736H565.477L562.011 264.321L567.369 259.099H564.795L559.375 264.446H559.233L560.114 259.099H558.006L556.074 270.736ZM566.902 270.736H574.516L574.811 268.969H569.305L569.828 265.792H574.896L575.192 264.025H570.123L570.646 260.866H576.106L576.402 259.099H568.834L566.902 270.736Z" fill="black"/>
<path d="M477.095 517.529H474.988L473.056 529.166H475.164L477.095 517.529ZM480.265 524.052C480.486 522.791 481.367 522.063 482.446 522.063C483.52 522.063 484.032 522.768 483.838 523.927L482.969 529.166H485.026L485.958 523.609C486.304 521.512 485.299 520.325 483.515 520.325C482.208 520.325 481.191 520.944 480.645 521.921H480.537L480.787 520.438H478.816L477.361 529.166H479.424L480.265 524.052ZM492.918 520.438H491.191L491.537 518.348H489.48L489.134 520.438H487.901L487.64 522.029H488.872L488.071 526.882C487.787 528.518 488.833 529.325 490.395 529.285C490.975 529.268 491.401 529.154 491.651 529.081L491.56 527.473C491.435 527.495 491.196 527.552 490.946 527.552C490.429 527.552 490.043 527.37 490.174 526.541L490.924 522.029H492.651L492.918 520.438Z" fill="black"/>
<path d="M527.902 529.166H535.516L535.811 527.399H530.306L530.829 524.223H535.897L536.192 522.456H531.124L531.647 519.296H537.107L537.402 517.529H529.834L527.902 529.166ZM540.667 520.438H538.485L540.348 524.802L536.962 529.166H539.144L541.496 526.024L542.82 529.166H544.985L543.036 524.802L546.394 520.438H544.218L541.894 523.66L540.667 520.438ZM552.343 520.438H550.615L550.962 518.348H548.905L548.559 520.438H547.326L547.064 522.029H548.297L547.496 526.882C547.212 528.518 548.258 529.325 549.82 529.285C550.4 529.268 550.826 529.154 551.076 529.081L550.985 527.473C550.86 527.495 550.621 527.552 550.371 527.552C549.854 527.552 549.468 527.37 549.598 526.541L550.348 522.029H552.076L552.343 520.438Z" fill="black"/>
<path d="M586.54 517.529L584.608 529.166H586.631L587.972 521.154H588.08L589.966 529.132H591.472L596.017 521.171H596.12L594.79 529.166H596.813L598.745 517.529H596.165L591.318 525.961H591.182L589.12 517.529H586.54ZM602.858 529.336C605.381 529.336 607.279 527.563 607.722 524.893C608.165 522.154 606.824 520.325 604.245 520.325C601.716 520.325 599.818 522.103 599.381 524.785C598.938 527.507 600.273 529.336 602.858 529.336ZM603.023 527.688C601.642 527.688 601.188 526.456 601.443 524.882C601.705 523.257 602.648 521.956 604.08 521.956C605.455 521.956 605.915 523.206 605.659 524.774C605.398 526.404 604.455 527.688 603.023 527.688ZM616.712 522.745C616.672 521.262 615.627 520.325 613.547 520.325C611.479 520.325 609.911 521.319 609.644 522.904C609.422 524.206 610.104 525.069 611.723 525.427L613.155 525.74C613.939 525.916 614.223 526.2 614.144 526.666C614.053 527.291 613.28 527.791 612.263 527.785C611.365 527.779 610.837 527.382 610.791 526.592L608.769 526.785C608.763 528.382 609.973 529.336 612.149 529.336C614.297 529.336 615.99 528.24 616.263 526.626C616.473 525.342 615.769 524.558 614.178 524.2L612.735 523.882C611.894 523.677 611.615 523.399 611.701 522.933C611.791 522.308 612.558 521.859 613.451 521.859C614.371 521.859 614.757 522.365 614.82 522.95L616.712 522.745Z" fill="black"/>
<path d="M582.093 552.391H584.121C584.399 550.369 582.973 548.977 580.496 548.977C578.047 548.977 576.002 550.346 575.655 552.408C575.382 554.079 576.405 555.033 578.235 555.533L579.496 555.874C580.706 556.192 581.485 556.584 581.326 557.488C581.166 558.482 580.11 559.147 578.735 559.147C577.422 559.147 576.485 558.556 576.61 557.334H574.536C574.235 559.647 575.746 560.948 578.456 560.948C581.246 560.948 583.087 559.556 583.434 557.505C583.769 555.488 582.252 554.562 580.581 554.153L579.536 553.88C578.615 553.653 577.644 553.244 577.82 552.278C577.968 551.397 578.854 550.761 580.172 550.761C581.428 550.761 582.121 551.34 582.093 552.391ZM585.426 564.045C587.012 564.045 588.08 563.238 588.824 561.817L593.932 552.045H591.665L588.546 558.647H588.455L587.546 552.045H585.443L587.114 560.925L586.853 561.397C586.29 562.386 585.716 562.488 584.87 562.227L584.12 563.829C584.381 563.942 584.864 564.045 585.426 564.045ZM596.826 555.658C597.047 554.397 597.928 553.67 599.007 553.67C600.081 553.67 600.593 554.374 600.399 555.533L599.53 560.772H601.587L602.519 555.215C602.865 553.119 601.86 551.931 600.076 551.931C598.769 551.931 597.752 552.55 597.206 553.528H597.098L597.348 552.045H595.377L593.922 560.772H595.985L596.826 555.658ZM607.451 560.942C609.644 560.942 611.24 559.647 611.718 557.789H609.752C609.411 558.727 608.649 559.266 607.746 559.266C606.462 559.266 605.809 558.192 606.104 556.408C606.382 554.647 607.411 553.59 608.689 553.59C609.672 553.59 610.178 554.227 610.195 555.067H612.166C612.331 553.175 611.064 551.931 608.939 551.931C606.377 551.931 604.445 553.778 604.019 556.442C603.576 559.084 604.837 560.942 607.451 560.942Z" fill="black"/>
<path d="M175.658 213.121C176.091 213.121 176.533 213.396 176.983 213.946C177.449 214.496 177.683 214.954 177.683 215.321C177.683 215.671 177.616 215.846 177.483 215.846C177.366 215.846 177.133 215.787 176.783 215.671C176.433 215.537 176.116 215.471 175.833 215.471C175.183 215.471 174.391 215.804 173.458 216.471C172.541 217.137 171.666 217.962 170.833 218.946C170.016 219.929 169.316 221.054 168.733 222.321C168.149 223.571 167.858 224.654 167.858 225.571C167.858 226.487 168.091 227.162 168.558 227.596C169.041 228.012 169.666 228.221 170.433 228.221C171.199 228.221 171.991 228.112 172.808 227.896C173.624 227.662 174.291 227.404 174.808 227.121C176.141 226.404 176.874 226.046 177.008 226.046C177.291 226.046 177.433 226.237 177.433 226.621C177.433 226.987 177.049 227.487 176.283 228.121C175.516 228.737 174.566 229.296 173.433 229.796C172.299 230.296 171.283 230.546 170.383 230.546C169.216 230.546 168.116 230.046 167.083 229.046C166.049 228.029 165.533 226.912 165.533 225.696C165.533 224.129 166.041 222.362 167.058 220.396C168.091 218.412 169.408 216.704 171.008 215.271C172.624 213.837 174.174 213.121 175.658 213.121ZM182.599 212.271C182.599 211.621 182.799 211.296 183.199 211.296C183.515 211.296 183.849 211.546 184.199 212.046C184.565 212.546 184.749 213.029 184.749 213.496C184.749 214.579 184.474 216.429 183.924 219.046C183.39 221.646 182.69 224.246 181.824 226.846C183.49 223.829 184.882 221.654 185.999 220.321C187.132 218.971 188.099 218.296 188.899 218.296C189.332 218.296 189.832 218.671 190.399 219.421C190.982 220.171 191.274 220.921 191.274 221.671C191.274 222.421 191.065 223.546 190.649 225.046C189.615 228.812 188.64 230.696 187.724 230.696C187.357 230.696 187.174 230.446 187.174 229.946C187.174 229.446 187.374 228.604 187.774 227.421C188.657 224.837 189.099 223.096 189.099 222.196C189.099 221.896 189.024 221.646 188.874 221.446C188.724 221.246 188.54 221.146 188.324 221.146C188.107 221.146 187.84 221.262 187.524 221.496C187.207 221.729 186.824 222.137 186.374 222.721C185.807 223.471 185.215 224.312 184.599 225.246C183.999 226.179 183.632 226.746 183.499 226.946C183.382 227.129 183.165 227.471 182.849 227.971C182.549 228.471 182.324 228.846 182.174 229.096C182.024 229.329 181.84 229.587 181.624 229.871C181.24 230.421 180.949 230.696 180.749 230.696C180.549 230.696 180.282 230.512 179.949 230.146C179.615 229.762 179.449 229.446 179.449 229.196C179.449 228.929 179.54 228.437 179.724 227.721C180.557 224.521 181.082 222.329 181.299 221.146C182.165 216.812 182.599 213.854 182.599 212.271ZM194.552 221.346L194.477 219.471C194.477 218.687 194.66 218.296 195.027 218.296C195.344 218.296 195.644 218.504 195.927 218.921C196.227 219.321 196.377 219.804 196.377 220.371C196.377 220.921 196.36 221.337 196.327 221.621C197.777 219.421 199.152 218.321 200.452 218.321C201.269 218.321 201.677 218.521 201.677 218.921C201.677 219.121 201.585 219.304 201.402 219.471C201.219 219.637 200.927 219.829 200.527 220.046C199.644 220.429 198.894 221.021 198.277 221.821C197.677 222.604 197.185 223.496 196.802 224.496C196.419 225.496 196.11 226.337 195.877 227.021C195.66 227.704 195.494 228.237 195.377 228.621C195.26 229.004 195.127 229.379 194.977 229.746C194.71 230.412 194.402 230.746 194.052 230.746C193.769 230.746 193.535 230.587 193.352 230.271C193.185 229.937 193.102 229.621 193.102 229.321C193.102 229.004 193.244 228.387 193.527 227.471C194.21 225.371 194.552 223.329 194.552 221.346ZM204.528 214.746C204.528 214.412 204.662 214.096 204.928 213.796C205.195 213.496 205.462 213.346 205.728 213.346C206.012 213.346 206.345 213.687 206.728 214.371C207.112 215.037 207.303 215.596 207.303 216.046C207.303 216.212 207.228 216.362 207.078 216.496C206.928 216.629 206.77 216.696 206.603 216.696C206.203 216.696 205.753 216.454 205.253 215.971C204.77 215.487 204.528 215.079 204.528 214.746ZM204.403 218.296C204.72 218.296 205.02 218.487 205.303 218.871C205.587 219.254 205.728 219.629 205.728 219.996C205.728 220.362 205.487 221.462 205.003 223.296C204.52 225.112 203.912 227.154 203.178 229.421C202.895 230.254 202.537 230.671 202.103 230.671C201.87 230.671 201.67 230.579 201.503 230.396C201.337 230.196 201.253 229.979 201.253 229.746C201.253 229.496 201.312 229.112 201.428 228.596C201.562 228.062 201.745 227.362 201.978 226.496C202.228 225.612 202.42 224.896 202.553 224.346C202.703 223.796 202.853 223.179 203.003 222.496C203.153 221.796 203.27 221.237 203.353 220.821C203.453 220.387 203.562 219.954 203.678 219.521C203.912 218.704 204.153 218.296 204.403 218.296ZM214.435 218.296C215.002 218.296 215.535 218.612 216.035 219.246C216.535 219.862 216.785 220.404 216.785 220.871C216.785 221.154 216.652 221.296 216.385 221.296C216.202 221.296 215.919 221.154 215.535 220.871C215.152 220.571 214.76 220.421 214.36 220.421C213.96 220.421 213.327 220.654 212.46 221.121C211.61 221.587 211.185 222.079 211.185 222.596C211.185 222.979 211.952 223.637 213.485 224.571C214.069 224.937 214.594 225.412 215.06 225.996C215.544 226.562 215.785 227.179 215.785 227.846C215.785 228.496 215.327 229.137 214.41 229.771C213.51 230.387 212.452 230.696 211.235 230.696C210.035 230.696 208.969 230.404 208.035 229.821C207.119 229.237 206.66 228.687 206.66 228.171C206.66 227.954 206.71 227.787 206.81 227.671C206.927 227.537 207.069 227.471 207.235 227.471C207.402 227.471 207.635 227.579 207.935 227.796C208.835 228.446 209.769 228.771 210.735 228.771C211.719 228.771 212.427 228.662 212.86 228.446C213.294 228.212 213.51 227.912 213.51 227.546C213.51 227.162 213.269 226.762 212.785 226.346C212.302 225.912 211.769 225.529 211.185 225.196C210.619 224.862 210.094 224.454 209.61 223.971C209.127 223.487 208.885 222.996 208.885 222.496C208.885 221.612 209.577 220.696 210.96 219.746C212.36 218.779 213.519 218.296 214.435 218.296ZM220.73 228.196C220.73 228.512 220.913 228.671 221.28 228.671C221.913 228.671 222.68 228.496 223.58 228.146C224.496 227.779 225.005 227.596 225.105 227.596C225.405 227.596 225.555 227.754 225.555 228.071C225.555 228.554 225.055 229.112 224.055 229.746C223.071 230.379 222.171 230.696 221.355 230.696C220.555 230.696 219.888 230.479 219.355 230.046C218.821 229.596 218.555 229.137 218.555 228.671C218.555 228.204 218.655 227.612 218.855 226.896C219.055 226.162 219.338 225.204 219.705 224.021C220.088 222.821 220.388 221.829 220.605 221.046C219.821 221.229 219.296 221.321 219.03 221.321C218.763 221.321 218.496 221.187 218.23 220.921C217.98 220.637 217.855 220.371 217.855 220.121C217.855 219.721 218.938 219.337 221.105 218.971C221.405 217.587 221.555 216.362 221.555 215.296C221.555 214.796 221.721 214.546 222.055 214.546C222.338 214.546 222.688 214.729 223.105 215.096C223.521 215.446 223.73 215.846 223.73 216.296C223.73 216.746 223.588 217.537 223.305 218.671C224.255 218.587 225.013 218.546 225.58 218.546C226.58 218.546 227.08 218.762 227.08 219.196C227.08 219.446 226.805 219.654 226.255 219.821C225.721 219.987 224.588 220.246 222.855 220.596C222.505 221.912 222.063 223.421 221.53 225.121C220.996 226.804 220.73 227.829 220.73 228.196ZM235.148 222.546C235.148 221.979 235.056 221.446 234.873 220.946C234.689 220.429 234.423 220.054 234.073 219.821C232.923 220.137 231.931 221.029 231.098 222.496C230.281 223.946 229.873 225.312 229.873 226.596C229.873 227.879 230.189 228.679 230.823 228.996C232.023 228.762 233.039 227.946 233.873 226.546C234.723 225.129 235.148 223.796 235.148 222.546ZM228.573 222.771C229.156 221.471 229.914 220.404 230.848 219.571C231.798 218.721 232.764 218.296 233.748 218.296C234.748 218.296 235.581 218.721 236.248 219.571C236.914 220.404 237.248 221.429 237.248 222.646C237.248 223.846 236.956 225.079 236.373 226.346C235.789 227.596 234.981 228.637 233.948 229.471C232.931 230.287 231.848 230.696 230.698 230.696C229.848 230.696 229.139 230.304 228.573 229.521C228.006 228.737 227.723 227.746 227.723 226.546C227.723 225.329 228.006 224.071 228.573 222.771ZM247.101 218.221C247.818 218.221 248.434 218.679 248.951 219.596C249.484 220.512 249.751 221.462 249.751 222.446C249.751 223.412 249.468 224.387 248.901 225.371C248.334 226.337 247.634 227.204 246.801 227.971C245.968 228.737 245.043 229.379 244.026 229.896C243.026 230.396 242.101 230.646 241.251 230.646C240.918 230.646 240.601 230.604 240.301 230.521C240.234 230.804 240.118 231.312 239.951 232.046C239.784 232.779 239.643 233.387 239.526 233.871C239.409 234.354 239.276 234.871 239.126 235.421C238.826 236.554 238.559 237.121 238.326 237.121C238.093 237.121 237.851 236.937 237.601 236.571C237.334 236.221 237.201 235.904 237.201 235.621C237.201 235.337 237.468 234.121 238.001 231.971C239.601 225.487 240.401 221.121 240.401 218.871C240.401 218.371 240.584 218.121 240.951 218.121C241.251 218.121 241.609 218.346 242.026 218.796C242.459 219.229 242.676 219.712 242.676 220.246C242.676 220.512 242.643 220.804 242.576 221.121C244.059 219.187 245.568 218.221 247.101 218.221ZM241.001 228.696C241.884 228.696 242.834 228.396 243.851 227.796C244.884 227.196 245.759 226.404 246.476 225.421C247.209 224.421 247.576 223.429 247.576 222.446C247.576 221.062 247.251 220.371 246.601 220.371C245.951 220.371 245.068 220.929 243.951 222.046C242.851 223.162 241.976 224.612 241.326 226.396L240.751 228.696H241.001ZM253.814 212.271C253.814 211.621 254.014 211.296 254.414 211.296C254.731 211.296 255.064 211.546 255.414 212.046C255.781 212.546 255.964 213.029 255.964 213.496C255.964 214.579 255.689 216.429 255.139 219.046C254.606 221.646 253.906 224.246 253.039 226.846C254.706 223.829 256.098 221.654 257.214 220.321C258.348 218.971 259.314 218.296 260.114 218.296C260.548 218.296 261.048 218.671 261.614 219.421C262.198 220.171 262.489 220.921 262.489 221.671C262.489 222.421 262.281 223.546 261.864 225.046C260.831 228.812 259.856 230.696 258.939 230.696C258.573 230.696 258.389 230.446 258.389 229.946C258.389 229.446 258.589 228.604 258.989 227.421C259.873 224.837 260.314 223.096 260.314 222.196C260.314 221.896 260.239 221.646 260.089 221.446C259.939 221.246 259.756 221.146 259.539 221.146C259.323 221.146 259.056 221.262 258.739 221.496C258.423 221.729 258.039 222.137 257.589 222.721C257.023 223.471 256.431 224.312 255.814 225.246C255.214 226.179 254.848 226.746 254.714 226.946C254.598 227.129 254.381 227.471 254.064 227.971C253.764 228.471 253.539 228.846 253.389 229.096C253.239 229.329 253.056 229.587 252.839 229.871C252.456 230.421 252.164 230.696 251.964 230.696C251.764 230.696 251.498 230.512 251.164 230.146C250.831 229.762 250.664 229.446 250.664 229.196C250.664 228.929 250.756 228.437 250.939 227.721C251.773 224.521 252.298 222.329 252.514 221.146C253.381 216.812 253.814 213.854 253.814 212.271ZM274.243 222.446C274.243 223.329 273.759 224.054 272.793 224.621C271.843 225.171 270.759 225.446 269.543 225.446C268.343 225.446 267.251 225.312 266.268 225.046C266.034 225.779 265.918 226.437 265.918 227.021C265.918 227.587 266.093 228.029 266.443 228.346C266.809 228.662 267.401 228.821 268.218 228.821C269.051 228.821 269.901 228.679 270.768 228.396C271.651 228.096 272.134 227.946 272.218 227.946C272.651 227.946 272.868 228.112 272.868 228.446C272.868 228.896 272.359 229.387 271.343 229.921C270.326 230.437 269.334 230.696 268.368 230.696C267.068 230.696 266.009 230.312 265.193 229.546C264.376 228.762 263.968 227.779 263.968 226.596C263.968 225.412 264.284 224.179 264.918 222.896C265.551 221.596 266.368 220.504 267.368 219.621C268.368 218.737 269.359 218.296 270.343 218.296C271.326 218.296 272.218 218.762 273.018 219.696C273.834 220.629 274.243 221.546 274.243 222.446ZM270.468 220.271C269.851 220.271 269.209 220.596 268.543 221.246C267.876 221.879 267.309 222.671 266.843 223.621C267.509 223.771 268.268 223.846 269.118 223.846C269.968 223.846 270.709 223.712 271.343 223.446C271.976 223.162 272.293 222.796 272.293 222.346C272.293 221.896 272.084 221.437 271.668 220.971C271.268 220.504 270.868 220.271 270.468 220.271ZM277.023 221.346L276.948 219.471C276.948 218.687 277.131 218.296 277.498 218.296C277.814 218.296 278.114 218.504 278.398 218.921C278.698 219.321 278.848 219.804 278.848 220.371C278.848 220.921 278.831 221.337 278.798 221.621C280.248 219.421 281.623 218.321 282.923 218.321C283.739 218.321 284.148 218.521 284.148 218.921C284.148 219.121 284.056 219.304 283.873 219.471C283.689 219.637 283.398 219.829 282.998 220.046C282.114 220.429 281.364 221.021 280.748 221.821C280.148 222.604 279.656 223.496 279.273 224.496C278.889 225.496 278.581 226.337 278.348 227.021C278.131 227.704 277.964 228.237 277.848 228.621C277.731 229.004 277.598 229.379 277.448 229.746C277.181 230.412 276.873 230.746 276.523 230.746C276.239 230.746 276.006 230.587 275.823 230.271C275.656 229.937 275.573 229.621 275.573 229.321C275.573 229.004 275.714 228.387 275.998 227.471C276.681 225.371 277.023 223.329 277.023 221.346ZM297.983 223.246H297.933C297.9 223.412 297.733 224.079 297.433 225.246C297.15 226.412 296.966 227.179 296.883 227.546C296.8 227.896 296.725 228.179 296.658 228.396C296.608 228.612 296.55 228.862 296.483 229.146C296.416 229.412 296.35 229.629 296.283 229.796C296.233 229.946 296.183 230.096 296.133 230.246C296.033 230.529 295.933 230.671 295.833 230.671C295.616 230.671 295.333 230.437 294.983 229.971C294.633 229.487 294.458 229.096 294.458 228.796C294.458 228.496 294.933 226.412 295.883 222.546C296.85 218.679 297.35 216.104 297.383 214.821C297.383 214.571 297.441 214.371 297.558 214.221C297.725 213.871 298.216 213.621 299.033 213.471C299.866 213.321 301.075 213.246 302.658 213.246C304.258 213.246 305.508 213.329 306.408 213.496C307.325 213.662 307.783 213.896 307.783 214.196C307.783 214.396 307.641 214.537 307.358 214.621C307.075 214.704 306.825 214.771 306.608 214.821C306.391 214.854 306.108 214.896 305.758 214.946C305.408 214.979 305.083 215.012 304.783 215.046C304.483 215.062 304.091 215.096 303.608 215.146C303.141 215.196 302.708 215.246 302.308 215.296C301.908 215.329 301.366 215.387 300.683 215.471C300 215.554 299.558 215.604 299.358 215.621C299.375 215.671 299.383 215.746 299.383 215.846C299.383 216.629 299.058 218.429 298.408 221.246C299.441 221.296 300.55 221.271 301.733 221.171C302.933 221.071 303.666 221.021 303.933 221.021C304.566 221.021 304.883 221.154 304.883 221.421C304.883 221.937 304.158 222.371 302.708 222.721C301.275 223.071 299.7 223.246 297.983 223.246ZM308.419 221.346L308.344 219.471C308.344 218.687 308.527 218.296 308.894 218.296C309.211 218.296 309.511 218.504 309.794 218.921C310.094 219.321 310.244 219.804 310.244 220.371C310.244 220.921 310.227 221.337 310.194 221.621C311.644 219.421 313.019 218.321 314.319 218.321C315.136 218.321 315.544 218.521 315.544 218.921C315.544 219.121 315.452 219.304 315.269 219.471C315.086 219.637 314.794 219.829 314.394 220.046C313.511 220.429 312.761 221.021 312.144 221.821C311.544 222.604 311.052 223.496 310.669 224.496C310.286 225.496 309.977 226.337 309.744 227.021C309.527 227.704 309.361 228.237 309.244 228.621C309.127 229.004 308.994 229.379 308.844 229.746C308.577 230.412 308.269 230.746 307.919 230.746C307.636 230.746 307.402 230.587 307.219 230.271C307.052 229.937 306.969 229.621 306.969 229.321C306.969 229.004 307.111 228.387 307.394 227.471C308.077 225.371 308.419 223.329 308.419 221.346ZM321.845 218.296C322.595 218.296 323.287 218.679 323.92 219.446C324.554 220.196 324.87 220.879 324.87 221.496C324.87 222.096 324.662 222.712 324.245 223.346C324.445 223.596 324.545 223.812 324.545 223.996C324.545 224.462 324.437 225.262 324.22 226.396C324.02 227.529 323.895 228.271 323.845 228.621C323.812 228.971 323.779 229.254 323.745 229.471C323.712 229.671 323.67 229.871 323.62 230.071C323.554 230.487 323.404 230.696 323.17 230.696C322.87 230.696 322.62 230.437 322.42 229.921C322.237 229.387 322.129 228.704 322.095 227.871C320.612 229.754 319.237 230.696 317.97 230.696C317.204 230.696 316.445 230.371 315.695 229.721C314.962 229.054 314.595 228.371 314.595 227.671C314.595 226.671 314.962 225.437 315.695 223.971C316.429 222.487 317.379 221.171 318.545 220.021C319.712 218.871 320.812 218.296 321.845 218.296ZM322.995 222.696C322.995 221.146 322.687 220.371 322.07 220.371C321.42 220.371 320.662 220.837 319.795 221.771C318.929 222.687 318.195 223.729 317.595 224.896C316.995 226.062 316.695 226.987 316.695 227.671C316.695 227.954 316.812 228.187 317.045 228.371C317.279 228.537 317.554 228.621 317.87 228.621C318.654 228.621 319.537 228.096 320.52 227.046C321.504 225.979 322.187 224.687 322.57 223.171C322.62 222.921 322.762 222.771 322.995 222.721V222.696ZM329.364 226.346C330.964 223.629 332.264 221.612 333.264 220.296C334.281 218.962 335.106 218.296 335.739 218.296C336.389 218.296 336.997 218.637 337.564 219.321C338.147 220.004 338.439 220.729 338.439 221.496C338.439 222.696 338.164 224.162 337.614 225.896C336.614 229.096 335.714 230.696 334.914 230.696C334.547 230.696 334.364 230.446 334.364 229.946C334.364 229.596 334.539 228.887 334.889 227.821C335.256 226.737 335.589 225.679 335.889 224.646C336.206 223.596 336.364 222.812 336.364 222.296C336.364 221.762 336.281 221.371 336.114 221.121C335.964 220.871 335.806 220.746 335.639 220.746C335.489 220.746 335.331 220.796 335.164 220.896C334.997 220.996 334.806 221.162 334.589 221.396C334.389 221.629 334.197 221.862 334.014 222.096C333.831 222.312 333.597 222.629 333.314 223.046C333.047 223.462 332.822 223.821 332.639 224.121C332.456 224.404 332.189 224.821 331.839 225.371C331.489 225.921 331.222 226.337 331.039 226.621C330.856 226.904 330.614 227.287 330.314 227.771C330.014 228.254 329.772 228.629 329.589 228.896C329.422 229.162 329.231 229.454 329.014 229.771C328.597 230.387 328.264 230.696 328.014 230.696C327.781 230.696 327.506 230.512 327.189 230.146C326.872 229.762 326.714 229.429 326.714 229.146C326.714 229.062 326.772 228.837 326.889 228.471C327.206 227.504 327.556 226.312 327.939 224.896C328.322 223.462 328.531 221.837 328.564 220.021C328.614 218.804 328.789 218.196 329.089 218.196C329.456 218.196 329.822 218.387 330.189 218.771C330.556 219.154 330.739 219.579 330.739 220.046C330.739 220.496 330.597 221.379 330.314 222.696C330.047 223.996 329.731 225.212 329.364 226.346ZM344.269 230.696C343.303 230.696 342.394 230.321 341.544 229.571C340.694 228.804 340.269 227.904 340.269 226.871C340.269 225.821 340.619 224.612 341.319 223.246C342.019 221.879 342.919 220.712 344.019 219.746C345.136 218.779 346.219 218.296 347.269 218.296C347.953 218.296 348.553 218.604 349.069 219.221C349.586 219.837 349.844 220.379 349.844 220.846C349.844 220.979 349.803 221.096 349.719 221.196C349.636 221.279 349.511 221.321 349.344 221.321C349.194 221.321 348.919 221.171 348.519 220.871C348.119 220.571 347.761 220.421 347.444 220.421C346.544 220.421 345.494 221.212 344.294 222.796C343.094 224.379 342.494 225.762 342.494 226.946C342.494 227.462 342.653 227.871 342.969 228.171C343.303 228.471 343.828 228.621 344.544 228.621C345.278 228.621 345.944 228.537 346.544 228.371C347.161 228.187 347.636 228.012 347.969 227.846C348.303 227.662 348.561 227.571 348.744 227.571C349.061 227.571 349.219 227.729 349.219 228.046C349.219 228.529 348.636 229.096 347.469 229.746C346.319 230.379 345.253 230.696 344.269 230.696ZM358.927 222.546C358.927 221.979 358.835 221.446 358.652 220.946C358.469 220.429 358.202 220.054 357.852 219.821C356.702 220.137 355.71 221.029 354.877 222.496C354.06 223.946 353.652 225.312 353.652 226.596C353.652 227.879 353.969 228.679 354.602 228.996C355.802 228.762 356.819 227.946 357.652 226.546C358.502 225.129 358.927 223.796 358.927 222.546ZM352.352 222.771C352.935 221.471 353.694 220.404 354.627 219.571C355.577 218.721 356.544 218.296 357.527 218.296C358.527 218.296 359.36 218.721 360.027 219.571C360.694 220.404 361.027 221.429 361.027 222.646C361.027 223.846 360.735 225.079 360.152 226.346C359.569 227.596 358.76 228.637 357.727 229.471C356.71 230.287 355.627 230.696 354.477 230.696C353.627 230.696 352.919 230.304 352.352 229.521C351.785 228.737 351.502 227.746 351.502 226.546C351.502 225.329 351.785 224.071 352.352 222.771ZM376.589 213.871C376.589 213.587 376.623 213.396 376.689 213.296C376.773 213.179 376.914 213.121 377.114 213.121C377.331 213.121 377.698 213.346 378.214 213.796C378.731 214.246 379.006 214.646 379.039 214.996C379.106 215.596 379.423 216.662 379.989 218.196C380.556 219.712 381.206 221.254 381.939 222.821C382.873 221.721 384.048 220.262 385.464 218.446C386.881 216.612 387.931 215.312 388.614 214.546C389.298 213.779 389.789 213.396 390.089 213.396C390.389 213.396 390.706 213.562 391.039 213.896C391.373 214.229 391.539 214.546 391.539 214.846C391.539 215.146 391.506 215.487 391.439 215.871C391.373 216.254 391.256 216.762 391.089 217.396C390.939 218.012 390.798 218.554 390.664 219.021C390.548 219.471 390.348 220.179 390.064 221.146C389.781 222.112 389.564 222.887 389.414 223.471C389.264 224.037 389.089 224.737 388.889 225.571C388.689 226.387 388.523 227.062 388.389 227.596C388.273 228.112 388.148 228.621 388.014 229.121C387.764 230.087 387.523 230.571 387.289 230.571C387.073 230.571 386.856 230.371 386.639 229.971C386.423 229.571 386.314 229.037 386.314 228.371C386.314 227.687 386.598 226.137 387.164 223.721C387.748 221.304 388.373 219.187 389.039 217.371C385.973 221.204 384.081 223.496 383.364 224.246C382.664 224.996 382.081 225.371 381.614 225.371C381.164 225.371 380.739 225.112 380.339 224.596C379.739 223.729 378.931 221.679 377.914 218.446C377.631 220.196 377.314 221.696 376.964 222.946C376.631 224.179 376.406 225.004 376.289 225.421C376.189 225.821 376.098 226.154 376.014 226.421C375.948 226.687 375.864 227.004 375.764 227.371C375.664 227.721 375.573 228.012 375.489 228.246C375.423 228.479 375.348 228.737 375.264 229.021C375.181 229.287 375.106 229.504 375.039 229.671C374.989 229.837 374.931 229.996 374.864 230.146C374.731 230.429 374.631 230.571 374.564 230.571C374.364 230.571 374.114 230.354 373.814 229.921C373.514 229.487 373.364 229.071 373.364 228.671C373.364 228.271 373.898 225.971 374.964 221.771C376.048 217.571 376.589 214.937 376.589 213.871ZM400.016 222.546C400.016 221.979 399.924 221.446 399.741 220.946C399.558 220.429 399.291 220.054 398.941 219.821C397.791 220.137 396.799 221.029 395.966 222.496C395.149 223.946 394.741 225.312 394.741 226.596C394.741 227.879 395.058 228.679 395.691 228.996C396.891 228.762 397.908 227.946 398.741 226.546C399.591 225.129 400.016 223.796 400.016 222.546ZM393.441 222.771C394.024 221.471 394.783 220.404 395.716 219.571C396.666 218.721 397.633 218.296 398.616 218.296C399.616 218.296 400.449 218.721 401.116 219.571C401.783 220.404 402.116 221.429 402.116 222.646C402.116 223.846 401.824 225.079 401.241 226.346C400.658 227.596 399.849 228.637 398.816 229.471C397.799 230.287 396.716 230.696 395.566 230.696C394.716 230.696 394.008 230.304 393.441 229.521C392.874 228.737 392.591 227.746 392.591 226.546C392.591 225.329 392.874 224.071 393.441 222.771ZM406.244 226.346C407.844 223.629 409.144 221.612 410.144 220.296C411.161 218.962 411.986 218.296 412.619 218.296C413.269 218.296 413.877 218.637 414.444 219.321C415.027 220.004 415.319 220.729 415.319 221.496C415.319 222.696 415.044 224.162 414.494 225.896C413.494 229.096 412.594 230.696 411.794 230.696C411.427 230.696 411.244 230.446 411.244 229.946C411.244 229.596 411.419 228.887 411.769 227.821C412.136 226.737 412.469 225.679 412.769 224.646C413.086 223.596 413.244 222.812 413.244 222.296C413.244 221.762 413.161 221.371 412.994 221.121C412.844 220.871 412.686 220.746 412.519 220.746C412.369 220.746 412.211 220.796 412.044 220.896C411.877 220.996 411.686 221.162 411.469 221.396C411.269 221.629 411.077 221.862 410.894 222.096C410.711 222.312 410.477 222.629 410.194 223.046C409.927 223.462 409.702 223.821 409.519 224.121C409.336 224.404 409.069 224.821 408.719 225.371C408.369 225.921 408.102 226.337 407.919 226.621C407.736 226.904 407.494 227.287 407.194 227.771C406.894 228.254 406.652 228.629 406.469 228.896C406.302 229.162 406.111 229.454 405.894 229.771C405.477 230.387 405.144 230.696 404.894 230.696C404.661 230.696 404.386 230.512 404.069 230.146C403.752 229.762 403.594 229.429 403.594 229.146C403.594 229.062 403.652 228.837 403.769 228.471C404.086 227.504 404.436 226.312 404.819 224.896C405.202 223.462 405.411 221.837 405.444 220.021C405.494 218.804 405.669 218.196 405.969 218.196C406.336 218.196 406.702 218.387 407.069 218.771C407.436 219.154 407.619 219.579 407.619 220.046C407.619 220.496 407.477 221.379 407.194 222.696C406.927 223.996 406.611 225.212 406.244 226.346ZM419.924 228.196C419.924 228.512 420.107 228.671 420.474 228.671C421.107 228.671 421.874 228.496 422.774 228.146C423.691 227.779 424.199 227.596 424.299 227.596C424.599 227.596 424.749 227.754 424.749 228.071C424.749 228.554 424.249 229.112 423.249 229.746C422.266 230.379 421.366 230.696 420.549 230.696C419.749 230.696 419.082 230.479 418.549 230.046C418.016 229.596 417.749 229.137 417.749 228.671C417.749 228.204 417.849 227.612 418.049 226.896C418.249 226.162 418.532 225.204 418.899 224.021C419.282 222.821 419.582 221.829 419.799 221.046C419.016 221.229 418.491 221.321 418.224 221.321C417.957 221.321 417.691 221.187 417.424 220.921C417.174 220.637 417.049 220.371 417.049 220.121C417.049 219.721 418.132 219.337 420.299 218.971C420.599 217.587 420.749 216.362 420.749 215.296C420.749 214.796 420.916 214.546 421.249 214.546C421.532 214.546 421.882 214.729 422.299 215.096C422.716 215.446 422.924 215.846 422.924 216.296C422.924 216.746 422.782 217.537 422.499 218.671C423.449 218.587 424.207 218.546 424.774 218.546C425.774 218.546 426.274 218.762 426.274 219.196C426.274 219.446 425.999 219.654 425.449 219.821C424.916 219.987 423.782 220.246 422.049 220.596C421.699 221.912 421.257 223.421 420.724 225.121C420.191 226.804 419.924 227.829 419.924 228.196ZM436.767 222.446C436.767 223.329 436.284 224.054 435.317 224.621C434.367 225.171 433.284 225.446 432.067 225.446C430.867 225.446 429.775 225.312 428.792 225.046C428.559 225.779 428.442 226.437 428.442 227.021C428.442 227.587 428.617 228.029 428.967 228.346C429.334 228.662 429.925 228.821 430.742 228.821C431.575 228.821 432.425 228.679 433.292 228.396C434.175 228.096 434.659 227.946 434.742 227.946C435.175 227.946 435.392 228.112 435.392 228.446C435.392 228.896 434.884 229.387 433.867 229.921C432.85 230.437 431.859 230.696 430.892 230.696C429.592 230.696 428.534 230.312 427.717 229.546C426.9 228.762 426.492 227.779 426.492 226.596C426.492 225.412 426.809 224.179 427.442 222.896C428.075 221.596 428.892 220.504 429.892 219.621C430.892 218.737 431.884 218.296 432.867 218.296C433.85 218.296 434.742 218.762 435.542 219.696C436.359 220.629 436.767 221.546 436.767 222.446ZM432.992 220.271C432.375 220.271 431.734 220.596 431.067 221.246C430.4 221.879 429.834 222.671 429.367 223.621C430.034 223.771 430.792 223.846 431.642 223.846C432.492 223.846 433.234 223.712 433.867 223.446C434.5 223.162 434.817 222.796 434.817 222.346C434.817 221.896 434.609 221.437 434.192 220.971C433.792 220.504 433.392 220.271 432.992 220.271ZM439.547 221.346L439.472 219.471C439.472 218.687 439.655 218.296 440.022 218.296C440.339 218.296 440.639 218.504 440.922 218.921C441.222 219.321 441.372 219.804 441.372 220.371C441.372 220.921 441.355 221.337 441.322 221.621C442.772 219.421 444.147 218.321 445.447 218.321C446.264 218.321 446.672 218.521 446.672 218.921C446.672 219.121 446.58 219.304 446.397 219.471C446.214 219.637 445.922 219.829 445.522 220.046C444.639 220.429 443.889 221.021 443.272 221.821C442.672 222.604 442.18 223.496 441.797 224.496C441.414 225.496 441.105 226.337 440.872 227.021C440.655 227.704 440.489 228.237 440.372 228.621C440.255 229.004 440.122 229.379 439.972 229.746C439.705 230.412 439.397 230.746 439.047 230.746C438.764 230.746 438.53 230.587 438.347 230.271C438.18 229.937 438.097 229.621 438.097 229.321C438.097 229.004 438.239 228.387 438.522 227.471C439.205 225.371 439.547 223.329 439.547 221.346ZM447.823 221.346L447.748 219.471C447.748 218.687 447.932 218.296 448.298 218.296C448.615 218.296 448.915 218.504 449.198 218.921C449.498 219.321 449.648 219.804 449.648 220.371C449.648 220.921 449.632 221.337 449.598 221.621C451.048 219.421 452.423 218.321 453.723 218.321C454.54 218.321 454.948 218.521 454.948 218.921C454.948 219.121 454.857 219.304 454.673 219.471C454.49 219.637 454.198 219.829 453.798 220.046C452.915 220.429 452.165 221.021 451.548 221.821C450.948 222.604 450.457 223.496 450.073 224.496C449.69 225.496 449.382 226.337 449.148 227.021C448.932 227.704 448.765 228.237 448.648 228.621C448.532 229.004 448.398 229.379 448.248 229.746C447.982 230.412 447.673 230.746 447.323 230.746C447.04 230.746 446.807 230.587 446.623 230.271C446.457 229.937 446.373 229.621 446.373 229.321C446.373 229.004 446.515 228.387 446.798 227.471C447.482 225.371 447.823 223.329 447.823 221.346ZM462.15 222.546C462.15 221.979 462.058 221.446 461.875 220.946C461.691 220.429 461.425 220.054 461.075 219.821C459.925 220.137 458.933 221.029 458.1 222.496C457.283 223.946 456.875 225.312 456.875 226.596C456.875 227.879 457.191 228.679 457.825 228.996C459.025 228.762 460.041 227.946 460.875 226.546C461.725 225.129 462.15 223.796 462.15 222.546ZM455.575 222.771C456.158 221.471 456.916 220.404 457.85 219.571C458.8 218.721 459.766 218.296 460.75 218.296C461.75 218.296 462.583 218.721 463.25 219.571C463.916 220.404 464.25 221.429 464.25 222.646C464.25 223.846 463.958 225.079 463.375 226.346C462.791 227.596 461.983 228.637 460.95 229.471C459.933 230.287 458.85 230.696 457.7 230.696C456.85 230.696 456.141 230.304 455.575 229.521C455.008 228.737 454.725 227.746 454.725 226.546C454.725 225.329 455.008 224.071 455.575 222.771ZM473.078 218.296C473.644 218.296 474.178 218.612 474.678 219.246C475.178 219.862 475.428 220.404 475.428 220.871C475.428 221.154 475.294 221.296 475.028 221.296C474.844 221.296 474.561 221.154 474.178 220.871C473.794 220.571 473.403 220.421 473.003 220.421C472.603 220.421 471.969 220.654 471.103 221.121C470.253 221.587 469.828 222.079 469.828 222.596C469.828 222.979 470.594 223.637 472.128 224.571C472.711 224.937 473.236 225.412 473.703 225.996C474.186 226.562 474.428 227.179 474.428 227.846C474.428 228.496 473.969 229.137 473.053 229.771C472.153 230.387 471.094 230.696 469.878 230.696C468.678 230.696 467.611 230.404 466.678 229.821C465.761 229.237 465.303 228.687 465.303 228.171C465.303 227.954 465.353 227.787 465.453 227.671C465.569 227.537 465.711 227.471 465.878 227.471C466.044 227.471 466.278 227.579 466.578 227.796C467.478 228.446 468.411 228.771 469.378 228.771C470.361 228.771 471.069 228.662 471.503 228.446C471.936 228.212 472.153 227.912 472.153 227.546C472.153 227.162 471.911 226.762 471.428 226.346C470.944 225.912 470.411 225.529 469.828 225.196C469.261 224.862 468.736 224.454 468.253 223.971C467.769 223.487 467.528 222.996 467.528 222.496C467.528 221.612 468.219 220.696 469.603 219.746C471.003 218.779 472.161 218.296 473.078 218.296ZM483.222 218.296C483.972 218.296 484.664 218.679 485.297 219.446C485.931 220.196 486.247 220.879 486.247 221.496C486.247 222.096 486.039 222.712 485.622 223.346C485.822 223.596 485.922 223.812 485.922 223.996C485.922 224.462 485.814 225.262 485.597 226.396C485.397 227.529 485.272 228.271 485.222 228.621C485.189 228.971 485.156 229.254 485.122 229.471C485.089 229.671 485.047 229.871 484.997 230.071C484.931 230.487 484.781 230.696 484.547 230.696C484.247 230.696 483.997 230.437 483.797 229.921C483.614 229.387 483.506 228.704 483.472 227.871C481.989 229.754 480.614 230.696 479.347 230.696C478.581 230.696 477.822 230.371 477.072 229.721C476.339 229.054 475.972 228.371 475.972 227.671C475.972 226.671 476.339 225.437 477.072 223.971C477.806 222.487 478.756 221.171 479.922 220.021C481.089 218.871 482.189 218.296 483.222 218.296ZM484.372 222.696C484.372 221.146 484.064 220.371 483.447 220.371C482.797 220.371 482.039 220.837 481.172 221.771C480.306 222.687 479.572 223.729 478.972 224.896C478.372 226.062 478.072 226.987 478.072 227.671C478.072 227.954 478.189 228.187 478.422 228.371C478.656 228.537 478.931 228.621 479.247 228.621C480.031 228.621 480.914 228.096 481.897 227.046C482.881 225.979 483.564 224.687 483.947 223.171C483.997 222.921 484.139 222.771 484.372 222.721V222.696Z" fill="black"/>
<path d="M208.571 424.316C208.848 424.316 209.131 424.492 209.419 424.844C209.718 425.196 209.867 425.49 209.867 425.724C209.867 425.948 209.824 426.06 209.739 426.06C209.664 426.06 209.515 426.023 209.291 425.948C209.067 425.863 208.864 425.82 208.683 425.82C208.267 425.82 207.76 426.034 207.163 426.46C206.576 426.887 206.016 427.415 205.483 428.044C204.96 428.674 204.512 429.394 204.139 430.204C203.766 431.004 203.579 431.698 203.579 432.284C203.579 432.871 203.728 433.303 204.027 433.58C204.336 433.847 204.736 433.98 205.227 433.98C205.718 433.98 206.224 433.911 206.747 433.772C207.27 433.623 207.696 433.458 208.027 433.276C208.88 432.818 209.35 432.588 209.435 432.588C209.616 432.588 209.707 432.711 209.707 432.956C209.707 433.191 209.462 433.511 208.971 433.916C208.48 434.311 207.872 434.668 207.147 434.988C206.422 435.308 205.771 435.468 205.195 435.468C204.448 435.468 203.744 435.148 203.083 434.508C202.422 433.858 202.091 433.143 202.091 432.364C202.091 431.362 202.416 430.231 203.067 428.972C203.728 427.703 204.571 426.61 205.595 425.692C206.63 424.775 207.622 424.316 208.571 424.316ZM213.781 430.796H213.749C213.728 430.903 213.621 431.33 213.429 432.076C213.248 432.823 213.13 433.314 213.077 433.548C213.024 433.772 212.976 433.954 212.933 434.092C212.901 434.231 212.864 434.391 212.821 434.572C212.778 434.743 212.736 434.882 212.693 434.988C212.661 435.084 212.629 435.18 212.597 435.276C212.533 435.458 212.469 435.548 212.405 435.548C212.266 435.548 212.085 435.399 211.861 435.1C211.637 434.791 211.525 434.54 211.525 434.348C211.525 434.156 211.829 432.823 212.437 430.348C213.056 427.874 213.376 426.226 213.397 425.404C213.397 425.244 213.434 425.116 213.509 425.02C213.616 424.796 213.93 424.636 214.453 424.54C214.986 424.444 215.76 424.396 216.773 424.396C217.797 424.396 218.597 424.45 219.173 424.556C219.76 424.663 220.053 424.812 220.053 425.004C220.053 425.132 219.962 425.223 219.781 425.276C219.6 425.33 219.44 425.372 219.301 425.404C219.162 425.426 218.981 425.452 218.757 425.484C218.533 425.506 218.325 425.527 218.133 425.548C217.941 425.559 217.69 425.58 217.381 425.612C217.082 425.644 216.805 425.676 216.549 425.708C216.293 425.73 215.946 425.767 215.509 425.82C215.072 425.874 214.789 425.906 214.661 425.916C214.672 425.948 214.677 425.996 214.677 426.06C214.677 426.562 214.469 427.714 214.053 429.516C214.714 429.548 215.424 429.532 216.181 429.468C216.949 429.404 217.418 429.372 217.589 429.372C217.994 429.372 218.197 429.458 218.197 429.628C218.197 429.959 217.733 430.236 216.805 430.46C215.888 430.684 214.88 430.796 213.781 430.796ZM221.964 424.796C221.964 424.615 221.985 424.492 222.028 424.428C222.081 424.354 222.172 424.316 222.3 424.316C222.439 424.316 222.673 424.46 223.004 424.748C223.335 425.036 223.511 425.292 223.532 425.516C223.575 425.9 223.777 426.583 224.14 427.564C224.503 428.535 224.919 429.522 225.388 430.524C225.985 429.82 226.737 428.887 227.644 427.724C228.551 426.551 229.223 425.719 229.66 425.228C230.097 424.738 230.412 424.492 230.604 424.492C230.796 424.492 230.999 424.599 231.212 424.812C231.425 425.026 231.532 425.228 231.532 425.42C231.532 425.612 231.511 425.831 231.468 426.076C231.425 426.322 231.351 426.647 231.244 427.052C231.148 427.447 231.057 427.794 230.972 428.092C230.897 428.38 230.769 428.834 230.588 429.452C230.407 430.071 230.268 430.567 230.172 430.94C230.076 431.303 229.964 431.751 229.836 432.284C229.708 432.807 229.601 433.239 229.516 433.58C229.441 433.911 229.361 434.236 229.276 434.556C229.116 435.175 228.961 435.484 228.812 435.484C228.673 435.484 228.535 435.356 228.396 435.1C228.257 434.844 228.188 434.503 228.188 434.076C228.188 433.639 228.369 432.647 228.732 431.1C229.105 429.554 229.505 428.199 229.932 427.036C227.969 429.49 226.759 430.956 226.3 431.436C225.852 431.916 225.479 432.156 225.18 432.156C224.892 432.156 224.62 431.991 224.364 431.66C223.98 431.106 223.463 429.794 222.812 427.724C222.631 428.844 222.428 429.804 222.204 430.604C221.991 431.394 221.847 431.922 221.772 432.188C221.708 432.444 221.649 432.658 221.596 432.828C221.553 432.999 221.5 433.202 221.436 433.436C221.372 433.66 221.313 433.847 221.26 433.996C221.217 434.146 221.169 434.311 221.116 434.492C221.063 434.663 221.015 434.802 220.972 434.908C220.94 435.015 220.903 435.116 220.86 435.212C220.775 435.394 220.711 435.484 220.668 435.484C220.54 435.484 220.38 435.346 220.188 435.068C219.996 434.791 219.9 434.524 219.9 434.268C219.9 434.012 220.241 432.54 220.924 429.852C221.617 427.164 221.964 425.479 221.964 424.796Z" fill="black"/>
<path d="M205.089 468.424C205.366 468.424 205.649 468.6 205.937 468.952C206.236 469.304 206.385 469.597 206.385 469.832C206.385 470.056 206.342 470.168 206.257 470.168C206.182 470.168 206.033 470.13 205.809 470.056C205.585 469.97 205.382 469.928 205.201 469.928C204.785 469.928 204.278 470.141 203.681 470.568C203.094 470.994 202.534 471.522 202.001 472.152C201.478 472.781 201.03 473.501 200.657 474.312C200.284 475.112 200.097 475.805 200.097 476.392C200.097 476.978 200.246 477.41 200.545 477.688C200.854 477.954 201.254 478.088 201.745 478.088C202.236 478.088 202.742 478.018 203.265 477.88C203.788 477.73 204.214 477.565 204.545 477.384C205.398 476.925 205.868 476.696 205.953 476.696C206.134 476.696 206.225 476.818 206.225 477.064C206.225 477.298 205.98 477.618 205.489 478.024C204.998 478.418 204.39 478.776 203.665 479.096C202.94 479.416 202.289 479.576 201.713 479.576C200.966 479.576 200.262 479.256 199.601 478.616C198.94 477.965 198.609 477.25 198.609 476.472C198.609 475.469 198.934 474.338 199.585 473.08C200.246 471.81 201.089 470.717 202.113 469.8C203.148 468.882 204.14 468.424 205.089 468.424ZM210.299 474.904H210.267C210.246 475.01 210.139 475.437 209.947 476.184C209.766 476.93 209.648 477.421 209.595 477.656C209.542 477.88 209.494 478.061 209.451 478.2C209.419 478.338 209.382 478.498 209.339 478.68C209.296 478.85 209.254 478.989 209.211 479.096C209.179 479.192 209.147 479.288 209.115 479.384C209.051 479.565 208.987 479.656 208.923 479.656C208.784 479.656 208.603 479.506 208.379 479.208C208.155 478.898 208.043 478.648 208.043 478.456C208.043 478.264 208.347 476.93 208.955 474.456C209.574 471.981 209.894 470.333 209.915 469.512C209.915 469.352 209.952 469.224 210.027 469.128C210.134 468.904 210.448 468.744 210.971 468.648C211.504 468.552 212.278 468.504 213.291 468.504C214.315 468.504 215.115 468.557 215.691 468.664C216.278 468.77 216.571 468.92 216.571 469.112C216.571 469.24 216.48 469.33 216.299 469.384C216.118 469.437 215.958 469.48 215.819 469.512C215.68 469.533 215.499 469.56 215.275 469.592C215.051 469.613 214.843 469.634 214.651 469.656C214.459 469.666 214.208 469.688 213.899 469.72C213.6 469.752 213.323 469.784 213.067 469.816C212.811 469.837 212.464 469.874 212.027 469.928C211.59 469.981 211.307 470.013 211.179 470.024C211.19 470.056 211.195 470.104 211.195 470.168C211.195 470.669 210.987 471.821 210.571 473.624C211.232 473.656 211.942 473.64 212.699 473.576C213.467 473.512 213.936 473.48 214.107 473.48C214.512 473.48 214.715 473.565 214.715 473.736C214.715 474.066 214.251 474.344 213.323 474.568C212.406 474.792 211.398 474.904 210.299 474.904ZM218.482 468.904C218.482 468.722 218.503 468.6 218.546 468.536C218.599 468.461 218.69 468.424 218.818 468.424C218.957 468.424 219.191 468.568 219.522 468.856C219.853 469.144 220.029 469.4 220.05 469.624C220.093 470.008 220.295 470.69 220.658 471.672C221.021 472.642 221.437 473.629 221.906 474.632C222.503 473.928 223.255 472.994 224.162 471.832C225.069 470.658 225.741 469.826 226.178 469.336C226.615 468.845 226.93 468.6 227.122 468.6C227.314 468.6 227.517 468.706 227.73 468.92C227.943 469.133 228.05 469.336 228.05 469.528C228.05 469.72 228.029 469.938 227.986 470.184C227.943 470.429 227.869 470.754 227.762 471.16C227.666 471.554 227.575 471.901 227.49 472.2C227.415 472.488 227.287 472.941 227.106 473.56C226.925 474.178 226.786 474.674 226.69 475.048C226.594 475.41 226.482 475.858 226.354 476.392C226.226 476.914 226.119 477.346 226.034 477.688C225.959 478.018 225.879 478.344 225.794 478.664C225.634 479.282 225.479 479.592 225.33 479.592C225.191 479.592 225.053 479.464 224.914 479.208C224.775 478.952 224.706 478.61 224.706 478.184C224.706 477.746 224.887 476.754 225.25 475.208C225.623 473.661 226.023 472.306 226.45 471.144C224.487 473.597 223.277 475.064 222.818 475.544C222.37 476.024 221.997 476.264 221.698 476.264C221.41 476.264 221.138 476.098 220.882 475.768C220.498 475.213 219.981 473.901 219.33 471.832C219.149 472.952 218.946 473.912 218.722 474.712C218.509 475.501 218.365 476.029 218.29 476.296C218.226 476.552 218.167 476.765 218.114 476.936C218.071 477.106 218.018 477.309 217.954 477.544C217.89 477.768 217.831 477.954 217.778 478.104C217.735 478.253 217.687 478.418 217.634 478.6C217.581 478.77 217.533 478.909 217.49 479.016C217.458 479.122 217.421 479.224 217.378 479.32C217.293 479.501 217.229 479.592 217.186 479.592C217.058 479.592 216.898 479.453 216.706 479.176C216.514 478.898 216.418 478.632 216.418 478.376C216.418 478.12 216.759 476.648 217.442 473.96C218.135 471.272 218.482 469.586 218.482 468.904Z" fill="black"/>
<path d="M109.165 312.296C109.165 314.08 108.74 316.646 107.89 319.996C107.706 320.663 107.498 321.488 107.265 322.471C107.031 323.455 106.84 324.246 106.69 324.846C106.54 325.43 106.373 326.021 106.19 326.621C105.856 327.805 105.531 328.396 105.215 328.396C104.981 328.396 104.731 328.23 104.465 327.896C104.215 327.563 104.09 327.221 104.09 326.871C104.09 326.505 104.265 325.638 104.615 324.271C104.981 322.905 105.39 321.038 105.84 318.671C106.29 316.305 106.598 313.813 106.765 311.196C106.815 310.68 107.006 310.421 107.34 310.421C107.706 310.421 108.098 310.655 108.515 311.121C108.948 311.588 109.165 311.98 109.165 312.296Z" fill="black"/>
<path d="M329.702 312.296C329.702 314.08 329.277 316.646 328.427 319.996C328.243 320.663 328.035 321.488 327.802 322.471C327.568 323.455 327.377 324.246 327.227 324.846C327.077 325.43 326.91 326.021 326.727 326.621C326.393 327.805 326.068 328.396 325.752 328.396C325.518 328.396 325.268 328.23 325.002 327.896C324.752 327.563 324.627 327.221 324.627 326.871C324.627 326.505 324.802 325.638 325.152 324.271C325.518 322.905 325.927 321.038 326.377 318.671C326.827 316.305 327.135 313.813 327.302 311.196C327.352 310.68 327.543 310.421 327.877 310.421C328.243 310.421 328.635 310.655 329.052 311.121C329.485 311.588 329.702 311.98 329.702 312.296Z" fill="black"/>
<path d="M573.453 312.296C573.453 314.08 573.028 316.646 572.178 319.996C571.994 320.663 571.786 321.488 571.553 322.471C571.319 323.455 571.128 324.246 570.978 324.846C570.828 325.43 570.661 326.021 570.478 326.621C570.144 327.805 569.819 328.396 569.503 328.396C569.269 328.396 569.019 328.23 568.753 327.896C568.503 327.563 568.378 327.221 568.378 326.871C568.378 326.505 568.553 325.638 568.903 324.271C569.269 322.905 569.678 321.038 570.128 318.671C570.578 316.305 570.886 313.813 571.053 311.196C571.103 310.68 571.294 310.421 571.628 310.421C571.994 310.421 572.386 310.655 572.803 311.121C573.236 311.588 573.453 311.98 573.453 312.296Z" fill="black"/>
<path d="M153.12 517.492C153.12 518.644 152.565 519.62 151.456 520.42C150.357 521.22 148.901 521.796 147.088 522.148C146.309 524.783 145.845 526.1 145.696 526.1C145.546 526.1 145.37 525.983 145.168 525.748C144.965 525.503 144.864 525.263 144.864 525.028C144.864 524.783 145.018 524.143 145.328 523.108C146.288 519.919 146.789 517.695 146.832 516.436C146.576 516.201 146.448 515.988 146.448 515.796C146.448 515.529 146.81 515.273 147.536 515.028C148.261 514.783 148.954 514.66 149.616 514.66C150.64 514.66 151.477 514.921 152.128 515.444C152.789 515.967 153.12 516.649 153.12 517.492ZM151.712 517.588C151.712 517.119 151.53 516.735 151.168 516.436C150.816 516.127 150.389 515.972 149.888 515.972C149.386 515.972 148.778 516.132 148.064 516.452C148.17 516.687 148.224 516.905 148.224 517.108C148.224 517.705 147.962 518.969 147.44 520.9C148.72 520.559 149.749 520.089 150.528 519.492C151.317 518.884 151.712 518.249 151.712 517.588ZM154.463 526.084C154.303 526.084 154.122 525.967 153.919 525.732C153.716 525.497 153.615 525.263 153.615 525.028C153.615 524.783 153.908 523.625 154.495 521.556C155.082 519.487 155.418 517.913 155.503 516.836C155.364 516.751 155.242 516.617 155.135 516.436C155.028 516.255 154.975 516.095 154.975 515.956C154.975 515.711 155.338 515.46 156.063 515.204C156.788 514.937 157.588 514.804 158.463 514.804C159.348 514.804 160.111 515.017 160.751 515.444C161.402 515.86 161.727 516.452 161.727 517.22C161.727 517.743 161.578 518.233 161.279 518.692C160.991 519.14 160.634 519.508 160.207 519.796C159.791 520.084 159.375 520.34 158.959 520.564C158.543 520.788 158.186 520.975 157.887 521.124C157.599 521.263 157.455 521.364 157.455 521.428C157.455 521.663 157.636 521.967 157.999 522.34C158.372 522.713 158.634 522.969 158.783 523.108C158.932 523.247 159.13 523.433 159.375 523.668C159.62 523.892 159.85 524.095 160.063 524.276C160.287 524.457 160.463 524.607 160.591 524.724C160.73 524.841 160.868 524.964 161.007 525.092C161.274 525.337 161.407 525.535 161.407 525.684C161.407 525.94 161.231 526.068 160.879 526.068C160.239 526.068 159.327 525.513 158.143 524.404C156.959 523.284 156.234 522.335 155.967 521.556C155.466 523.22 155.178 524.185 155.103 524.452C155.028 524.708 154.943 524.975 154.847 525.252C154.676 525.807 154.548 526.084 154.463 526.084ZM156.879 517.268C156.879 517.961 156.655 519.108 156.207 520.708C156.388 520.569 156.735 520.367 157.247 520.1C157.759 519.823 158.218 519.572 158.623 519.348C159.039 519.113 159.418 518.804 159.759 518.42C160.1 518.036 160.271 517.636 160.271 517.22C160.271 516.559 159.695 516.228 158.543 516.228C158.02 516.228 157.412 516.361 156.719 516.628C156.826 516.863 156.879 517.076 156.879 517.268ZM165.535 521.012C164.959 522.836 164.671 523.94 164.671 524.324C164.671 524.452 164.708 524.559 164.783 524.644C164.868 524.719 164.975 524.756 165.103 524.756C166.329 524.756 167.684 524.559 169.167 524.164C169.647 524.036 169.924 523.972 169.999 523.972C170.159 523.972 170.239 524.084 170.239 524.308C170.239 524.692 169.647 525.087 168.463 525.492C167.289 525.897 166.153 526.1 165.055 526.1C164.564 526.1 164.132 525.956 163.759 525.668C163.396 525.38 163.215 525.017 163.215 524.58C163.215 524.143 163.369 523.396 163.679 522.34C163.999 521.284 164.319 520.159 164.639 518.964C164.959 517.769 165.119 516.761 165.119 515.94C165.119 515.823 165.14 515.7 165.183 515.572C165.364 515.177 166.527 514.98 168.671 514.98C170.815 514.98 171.887 515.135 171.887 515.444C171.887 515.657 171.657 515.801 171.199 515.876C170.815 515.951 170.303 516.02 169.663 516.084C169.033 516.137 168.591 516.18 168.335 516.212C168.079 516.233 167.46 516.329 166.479 516.5V516.548C166.479 517.273 166.281 518.367 165.887 519.828C165.951 519.839 166.164 519.844 166.527 519.844C166.9 519.844 167.396 519.817 168.015 519.764C168.633 519.711 169.097 519.684 169.407 519.684C169.727 519.684 169.887 519.759 169.887 519.908C169.887 520.281 169.449 520.559 168.575 520.74C167.7 520.921 166.687 521.012 165.535 521.012ZM179.054 522.916C179.054 523.791 178.659 524.527 177.87 525.124C177.081 525.711 176.174 526.004 175.15 526.004C174.137 526.004 173.299 525.743 172.638 525.22C171.977 524.687 171.646 524.185 171.646 523.716C171.646 523.396 171.742 523.236 171.934 523.236C172.105 523.236 172.441 523.492 172.942 524.004C173.134 524.185 173.39 524.356 173.71 524.516C174.041 524.676 174.387 524.756 174.75 524.756C175.497 524.756 176.158 524.564 176.734 524.18C177.321 523.796 177.614 523.38 177.614 522.932C177.614 522.644 177.422 522.276 177.038 521.828C176.654 521.38 176.227 520.959 175.758 520.564C175.299 520.159 174.878 519.727 174.494 519.268C174.11 518.809 173.918 518.447 173.918 518.18C173.918 517.913 173.971 517.631 174.078 517.332C174.185 517.033 174.302 516.815 174.43 516.676C174.846 516.217 175.491 515.796 176.366 515.412C177.251 515.028 177.993 514.836 178.59 514.836C178.899 514.836 179.161 514.937 179.374 515.14C179.587 515.343 179.694 515.556 179.694 515.78C179.694 515.887 179.582 515.972 179.358 516.036C179.134 516.1 178.793 516.185 178.334 516.292C177.886 516.388 177.486 516.505 177.134 516.644C175.907 517.113 175.294 517.567 175.294 518.004C175.294 518.239 175.918 518.895 177.166 519.972C177.646 520.388 178.078 520.873 178.462 521.428C178.857 521.972 179.054 522.468 179.054 522.916ZM183.394 521.012C182.818 522.836 182.53 523.94 182.53 524.324C182.53 524.452 182.567 524.559 182.642 524.644C182.727 524.719 182.834 524.756 182.962 524.756C184.189 524.756 185.543 524.559 187.026 524.164C187.506 524.036 187.783 523.972 187.858 523.972C188.018 523.972 188.098 524.084 188.098 524.308C188.098 524.692 187.506 525.087 186.322 525.492C185.149 525.897 184.013 526.1 182.914 526.1C182.423 526.1 181.991 525.956 181.618 525.668C181.255 525.38 181.074 525.017 181.074 524.58C181.074 524.143 181.229 523.396 181.538 522.34C181.858 521.284 182.178 520.159 182.498 518.964C182.818 517.769 182.978 516.761 182.978 515.94C182.978 515.823 182.999 515.7 183.042 515.572C183.223 515.177 184.386 514.98 186.53 514.98C188.674 514.98 189.746 515.135 189.746 515.444C189.746 515.657 189.517 515.801 189.058 515.876C188.674 515.951 188.162 516.02 187.522 516.084C186.893 516.137 186.45 516.18 186.194 516.212C185.938 516.233 185.319 516.329 184.338 516.5V516.548C184.338 517.273 184.141 518.367 183.746 519.828C183.81 519.839 184.023 519.844 184.386 519.844C184.759 519.844 185.255 519.817 185.874 519.764C186.493 519.711 186.957 519.684 187.266 519.684C187.586 519.684 187.746 519.759 187.746 519.908C187.746 520.281 187.309 520.559 186.434 520.74C185.559 520.921 184.546 521.012 183.394 521.012ZM198.418 515.46C198.439 515.001 198.546 514.772 198.738 514.772C198.94 514.772 199.159 514.895 199.394 515.14C199.628 515.385 199.746 515.604 199.746 515.796C199.746 516.671 199.607 517.913 199.33 519.524C199.063 521.135 198.7 522.628 198.242 524.004C197.794 525.38 197.367 526.068 196.962 526.068C196.823 526.068 196.663 525.999 196.482 525.86C196.311 525.721 196.178 525.551 196.082 525.348C195.762 524.601 194.818 522.233 193.25 518.244C192.93 519.481 192.572 520.884 192.178 522.452C191.794 524.009 191.538 525.001 191.41 525.428C191.282 525.855 191.17 526.068 191.074 526.068C190.935 526.068 190.764 525.951 190.562 525.716C190.37 525.471 190.274 525.22 190.274 524.964C190.274 524.708 190.62 523.209 191.314 520.468C192.007 517.716 192.364 515.999 192.386 515.316C192.386 514.975 192.476 514.804 192.658 514.804C192.775 514.804 192.935 514.905 193.138 515.108C193.351 515.3 193.506 515.513 193.602 515.748C195.319 520.207 196.407 522.937 196.866 523.94C197.559 522.105 198.023 519.913 198.258 517.364C198.364 516.191 198.418 515.556 198.418 515.46ZM204.798 516.228L202.062 516.356C201.891 516.356 201.715 516.244 201.534 516.02C201.352 515.796 201.262 515.577 201.262 515.364C201.262 515.172 201.566 515.049 202.174 514.996C202.792 514.943 204.142 514.916 206.222 514.916C207.299 514.916 208.184 515.033 208.878 515.268C209.582 515.503 209.934 515.764 209.934 516.052C209.934 516.255 209.758 516.356 209.406 516.356C209.054 516.356 208.563 516.335 207.934 516.292C207.304 516.249 206.702 516.223 206.126 516.212C206.158 516.319 206.174 516.436 206.174 516.564C206.174 516.959 205.758 518.793 204.926 522.068C204.84 522.409 204.712 522.943 204.542 523.668C204.371 524.393 204.243 524.9 204.158 525.188C204.008 525.753 203.875 526.036 203.758 526.036C203.598 526.036 203.416 525.919 203.214 525.684C203.022 525.439 202.926 525.193 202.926 524.948C202.926 524.703 203.214 523.444 203.79 521.172C204.366 518.889 204.702 517.241 204.798 516.228ZM217.654 514.804C218.657 514.804 219.723 515.065 220.854 515.588C221.995 516.111 222.977 516.836 223.798 517.764C224.619 518.681 225.03 519.636 225.03 520.628C225.03 521.279 224.577 522.047 223.67 522.932C222.774 523.807 221.734 524.559 220.55 525.188C219.366 525.807 218.385 526.116 217.606 526.116C217.403 526.116 217.169 525.945 216.902 525.604C216.646 525.252 216.518 524.9 216.518 524.548C216.518 524.185 216.827 522.895 217.446 520.676C218.065 518.457 218.401 516.996 218.454 516.292C218.113 516.153 217.841 515.972 217.638 515.748C217.435 515.524 217.334 515.311 217.334 515.108C217.334 514.905 217.441 514.804 217.654 514.804ZM223.558 520.452C223.558 519.791 223.163 519.076 222.374 518.308C221.585 517.529 220.667 516.969 219.622 516.628C219.675 516.82 219.702 517.049 219.702 517.316C219.702 517.572 219.606 518.057 219.414 518.772C219.233 519.487 218.897 520.681 218.406 522.356C218.203 523.06 218.038 523.833 217.91 524.676C218.646 524.58 219.467 524.26 220.374 523.716C221.291 523.161 222.049 522.569 222.646 521.94C223.254 521.311 223.558 520.815 223.558 520.452ZM234.575 520.532C234.575 520.735 234.105 520.969 233.167 521.236C233.252 522.345 233.295 523.289 233.295 524.068C233.295 525.412 233.124 526.084 232.783 526.084C232.601 526.084 232.457 525.972 232.351 525.748C232.244 525.524 232.159 525.135 232.095 524.58C232.02 523.556 231.94 522.553 231.855 521.572C231.375 521.7 230.937 521.817 230.543 521.924C230.148 522.02 229.551 522.18 228.751 522.404C227.812 524.857 227.257 526.084 227.087 526.084C226.916 526.084 226.729 525.983 226.527 525.78C226.335 525.567 226.239 525.343 226.239 525.108C226.239 525.001 226.543 524.244 227.151 522.836H227.039C226.825 522.836 226.633 522.767 226.463 522.628C226.303 522.489 226.223 522.319 226.223 522.116C226.223 521.903 226.751 521.625 227.807 521.284C227.977 520.9 228.116 520.553 228.223 520.244C228.468 519.636 228.809 518.804 229.247 517.748C229.684 516.692 229.961 516.02 230.079 515.732C230.196 515.433 230.399 515.183 230.687 514.98C230.985 514.767 231.273 514.66 231.551 514.66C231.881 514.66 232.175 515.188 232.431 516.244C232.697 517.3 232.911 518.607 233.071 520.164C233.369 520.132 233.631 520.116 233.855 520.116C234.335 520.116 234.575 520.255 234.575 520.532ZM229.343 520.868C230.1 520.665 230.9 520.495 231.743 520.356C231.551 518.532 231.364 517.161 231.183 516.244C230.703 517.343 230.089 518.884 229.343 520.868ZM240.517 520.372C240.709 520.372 241.056 519.919 241.557 519.012C242.069 518.095 242.586 517.177 243.109 516.26C243.642 515.343 244.021 514.884 244.245 514.884C244.469 514.884 244.65 514.964 244.789 515.124C244.928 515.284 244.997 515.476 244.997 515.7C244.997 515.924 244.794 516.372 244.389 517.044C243.984 517.716 243.44 518.607 242.757 519.716C242.074 520.815 241.392 522.009 240.709 523.3C240.026 524.591 239.557 525.396 239.301 525.716C239.045 526.036 238.837 526.196 238.677 526.196C238.442 526.196 238.325 526.004 238.325 525.62C238.325 525.321 238.474 524.868 238.773 524.26C238.869 524.079 238.944 523.929 238.997 523.812C239.05 523.684 239.136 523.508 239.253 523.284C239.37 523.06 239.461 522.889 239.525 522.772C239.589 522.644 239.685 522.452 239.813 522.196C239.952 521.929 240.053 521.737 240.117 521.62C239.488 521.46 238.906 521.065 238.373 520.436C237.85 519.796 237.45 519.087 237.173 518.308C236.896 517.519 236.757 516.751 236.757 516.004C236.757 515.257 236.97 514.884 237.397 514.884C237.568 514.884 237.701 515.049 237.797 515.38C237.904 515.711 238.032 516.185 238.181 516.804C238.33 517.423 238.528 517.993 238.773 518.516C239.018 519.028 239.312 519.465 239.653 519.828C239.994 520.191 240.282 520.372 240.517 520.372Z" fill="black"/>
<path d="M202.783 116.017L155.543 60.0645L216.122 53.935L263.362 109.888L202.783 116.017Z" fill="#40895C" stroke="#3E875A"/>
<path d="M572.361 74.8858L525.121 18.9329L585.701 12.8034L632.941 68.7563L572.361 74.8858Z" fill="#656661" stroke="#656661"/>
<path d="M634.328 68.616L587.088 12.6631L647.668 6.53358L694.908 62.4865L634.328 68.616Z" fill="#544848" stroke="#544848"/>
<path d="M10.6414 109.299C-2.28689 77.53 2.93734 75.505 2.93734 75.505L156.005 60.0175L203.245 115.97C203.245 115.97 121.047 125.436 65.2166 127.609C52.1709 127.175 40.3181 125.052 31.1149 122.763C20.9773 120.242 12.8458 114.716 10.6414 109.299Z" fill="#2A2C27" stroke="#2A2C27"/>
<path d="M386.647 95.5452L339.407 39.5923L399.986 33.4628L447.226 89.4157L386.647 95.5452Z" fill="#C95D5B" stroke="#C95D5B"/>
<path d="M325.604 101.722L278.365 45.7686L338.944 39.6391L386.184 95.592L325.604 101.722Z" fill="#398DC1" stroke="#398DC1"/>
<path d="M448.52 88.3507L401.28 32.3977L461.86 26.2682L509.1 82.2212L448.52 88.3507Z" fill="#F0ECE9" stroke="#F0ECE9"/>
<path d="M263.731 108.916L216.491 52.9634L277.071 46.8339L324.311 102.787L263.731 108.916Z" fill="#ECE16E" stroke="#ECE16E"/>
<path d="M510.393 81.1556L463.154 25.2026L523.733 19.0731L570.973 75.0261L510.393 81.1556Z" fill="#8A8B87" stroke="#8A8B87"/>
<path d="M695.23 61.0524L648.546 5.97751C652.4 5.58759 662.261 3.93575 674.952 3.77291C687.015 3.61814 692.494 12.3742 694.045 18.2179C694.201 18.8063 694.263 19.4114 694.277 20.02L695.23 61.0524Z" fill="#3E403D" stroke="#3E403D"/>
<path d="M198.874 126.795L157.692 187.346L218.581 187.16L259.763 126.609L198.874 126.795Z" fill="#40895C" stroke="#3E875A"/>
<path d="M570.725 129.374L529.543 189.925L590.432 189.738L631.614 129.187L570.725 129.374Z" fill="#656661" stroke="#656661"/>
<path d="M633.008 129.183L591.826 189.734L652.715 189.547L693.897 128.997L633.008 129.183Z" fill="#544848" stroke="#544848"/>
<path d="M10.1653 127.382L11.745 187.816L158.157 187.345L199.339 126.794L10.1653 127.382Z" fill="#2A2C27" stroke="#2A2C27"/>
<path d="M383.87 128.088L342.688 188.638L403.576 188.452L444.758 127.901L383.87 128.088Z" fill="#C95D5B" stroke="#C95D5B"/>
<path d="M322.516 128.276L281.334 188.827L342.223 188.64L383.405 128.089L322.516 128.276Z" fill="#398DC1" stroke="#398DC1"/>
<path d="M446.156 128.826L404.974 189.377L465.862 189.191L507.044 128.64L446.156 128.826Z" fill="#F0ECE9" stroke="#F0ECE9"/>
<path d="M260.23 127.537L219.048 188.088L279.937 187.901L321.119 127.351L260.23 127.537Z" fill="#ECE16E" stroke="#ECE16E"/>
<path d="M508.442 129.565L467.26 190.116L528.149 189.929L569.33 129.378L508.442 129.565Z" fill="#8A8B87" stroke="#8A8B87"/>
<path d="M695.295 128.53L653.646 190.009L693.881 190.009L695.295 128.53Z" fill="#3E403D"/>
<path d="M17.9078 72.7119C14.5646 73.8377 10.6501 80.6358 9.11079 83.8942L13.559 170.334L15.9101 179.158L23.3554 181.924L133.978 181.585L140.002 175.524L139.89 139.27L59.2749 72.5851C46.8789 72.1583 21.2509 71.5861 17.9078 72.7119Z" fill="#151712" stroke="#151712"/>
<path d="M37.8739 146.303L45.5268 153.086L43.4797 163.104L33.7798 166.341L26.1269 159.559L28.1739 149.54L37.8739 146.303Z" fill="#979795"/>
<path d="M38.8033 146.301L46.4562 153.083L44.4092 163.101L34.7092 166.338L27.0563 159.556L29.1034 149.537L38.8033 146.301Z" fill="#979795"/>
<path d="M39.7332 146.298L47.3861 153.08L45.3391 163.099L35.6392 166.335L27.9863 159.553L30.0333 149.534L39.7332 146.298Z" fill="#979795"/>
<path d="M40.6627 146.295L48.3156 153.077L46.2685 163.096L36.5686 166.332L28.9157 159.55L30.9628 149.531L40.6627 146.295Z" fill="#979795"/>
<path d="M41.5921 146.292L49.245 153.074L47.198 163.093L37.498 166.329L29.8452 159.547L31.8922 149.529L41.5921 146.292Z" fill="#979795"/>
<path d="M36.9413 145.377L44.5941 152.159L42.5471 162.178L32.8472 165.414L25.1943 158.632L27.2413 148.613L36.9413 145.377Z" fill="#EAE7DF"/>
<circle cx="29.7771" cy="154.017" r="7.90163" transform="rotate(-0.175627 29.7771 154.017)" fill="#C4C4C4"/>
<circle cx="33.4986" cy="154.935" r="7.90163" transform="rotate(-0.175627 33.4986 154.935)" fill="#8D8C89"/>
<circle cx="33.4986" cy="154.935" r="7.90163" transform="rotate(-0.175627 33.4986 154.935)" fill="#8D8C89"/>
<circle cx="33.4986" cy="154.935" r="7.90163" transform="rotate(-0.175627 33.4986 154.935)" fill="#8D8C89"/>
<circle cx="33.4986" cy="154.935" r="7.90163" transform="rotate(-0.175627 33.4986 154.935)" fill="#19160F"/>
<circle cx="29.7771" cy="154.017" r="7.90163" transform="rotate(-0.175627 29.7771 154.017)" fill="#878379"/>
<circle cx="29.3053" cy="151.694" r="1.85921" transform="rotate(-0.175627 29.3053 151.694)" fill="#FFFFFC"/>
<circle cx="31.1674" cy="152.618" r="1.85921" transform="rotate(-0.175627 31.1674 152.618)" fill="#FFFFFC"/>
<path d="M118.744 144.196L126.396 150.979L124.349 160.997L114.649 164.234L106.997 157.452L109.044 147.433L118.744 144.196Z" fill="#979795"/>
<path d="M119.673 144.193L127.326 150.975L125.279 160.994L115.579 164.231L107.926 157.448L109.973 147.43L119.673 144.193Z" fill="#979795"/>
<path d="M120.603 144.191L128.256 150.973L126.208 160.992L116.509 164.228L108.856 157.446L110.903 147.427L120.603 144.191Z" fill="#979795"/>
<path d="M121.532 144.188L129.185 150.97L127.138 160.988L117.438 164.225L109.785 157.443L111.832 147.424L121.532 144.188Z" fill="#979795"/>
<path d="M122.462 144.185L130.115 150.967L128.068 160.986L118.368 164.223L110.715 157.44L112.762 147.422L122.462 144.185Z" fill="#979795"/>
<path d="M117.811 143.269L125.464 150.052L123.417 160.07L113.717 163.307L106.064 156.525L108.111 146.506L117.811 143.269Z" fill="#EAE7DF"/>
<circle cx="110.647" cy="151.91" r="7.90163" transform="rotate(-0.175627 110.647 151.91)" fill="#C4C4C4"/>
<circle cx="114.368" cy="152.828" r="7.90163" transform="rotate(-0.175627 114.368 152.828)" fill="#8D8C89"/>
<circle cx="114.368" cy="152.828" r="7.90163" transform="rotate(-0.175627 114.368 152.828)" fill="#8D8C89"/>
<circle cx="114.368" cy="152.828" r="7.90163" transform="rotate(-0.175627 114.368 152.828)" fill="#8D8C89"/>
<circle cx="114.368" cy="152.828" r="7.90163" transform="rotate(-0.175627 114.368 152.828)" fill="#19160F"/>
<circle cx="110.647" cy="151.91" r="7.90163" transform="rotate(-0.175627 110.647 151.91)" fill="#878379"/>
<circle cx="110.175" cy="149.587" r="1.85921" transform="rotate(-0.175627 110.175 149.587)" fill="#FFFFFC"/>
<circle cx="112.037" cy="150.511" r="1.85921" transform="rotate(-0.175627 112.037 150.511)" fill="#FFFFFC"/>
<path d="M32.097 81.2485L39.7499 88.0306L37.7029 98.0492L28.0029 101.286L20.35 94.5036L22.3971 84.485L32.097 81.2485Z" fill="#979795"/>
<path d="M33.0265 81.2453L40.6793 88.0274L38.6323 98.046L28.9324 101.283L21.2795 94.5005L23.3265 84.4818L33.0265 81.2453Z" fill="#979795"/>
<path d="M33.9561 81.2428L41.609 88.025L39.562 98.0436L29.8621 101.28L22.2092 94.498L24.2562 84.4794L33.9561 81.2428Z" fill="#979795"/>
<path d="M34.8858 81.2397L42.5387 88.0218L40.4917 98.0404L30.7917 101.277L23.1389 94.4948L25.1859 84.4762L34.8858 81.2397Z" fill="#979795"/>
<path d="M35.8153 81.2372L43.4682 88.0193L41.4211 98.038L31.7212 101.275L24.0683 94.4924L26.1154 84.4738L35.8153 81.2372Z" fill="#979795"/>
<path d="M31.1644 80.3215L38.8173 87.1036L36.7702 97.1222L27.0703 100.359L19.4174 93.5766L21.4645 83.558L31.1644 80.3215Z" fill="#EAE7DF"/>
<circle cx="24.0003" cy="88.9616" r="7.90163" transform="rotate(-0.175627 24.0003 88.9616)" fill="#C4C4C4"/>
<circle cx="27.7217" cy="89.8796" r="7.90163" transform="rotate(-0.175627 27.7217 89.8796)" fill="#8D8C89"/>
<circle cx="27.7217" cy="89.8796" r="7.90163" transform="rotate(-0.175627 27.7217 89.8796)" fill="#8D8C89"/>
<circle cx="27.7217" cy="89.8796" r="7.90163" transform="rotate(-0.175627 27.7217 89.8796)" fill="#8D8C89"/>
<circle cx="27.7217" cy="89.8796" r="7.90163" transform="rotate(-0.175627 27.7217 89.8796)" fill="#19160F"/>
<circle cx="24.0003" cy="88.9616" r="7.90163" transform="rotate(-0.175627 24.0003 88.9616)" fill="#878379"/>
<circle cx="23.5285" cy="86.6389" r="1.85921" transform="rotate(-0.175627 23.5285 86.6389)" fill="#FFFFFC"/>
<circle cx="25.3905" cy="87.5627" r="1.85921" transform="rotate(-0.175627 25.3905 87.5627)" fill="#FFFFFC"/>
</svg>
