<svg id="Layer_1" data-name="Layer 1" xmlns="http://www.w3.org/2000/svg" viewBox="0 0 389.52 342.98" style="" class=""><defs><style>.cls-1{fill:#231f20;stroke:#000;stroke-width:2px;}.cls-1,.cls-2,.cls-3{stroke-miterlimit:10;}.cls-2{fill:#fff;}.cls-2,.cls-3{stroke:#231f20;}.cls-3{fill:none;stroke-width:3px;}</style></defs><title>francotoriumsvg</title><path class="cls-1 QwqBcjhV_0" d="M132.9,217.39A63.72,63.72 0,1,1 260.34000000000003,217.39A63.72,63.72 0,1,1 132.9,217.39"></path><g id="bang"><path class="cls-2 QwqBcjhV_1" d="M660,378.13c21.62-12.46,42-.94,42-.94l-10.44,94.25H671.34Z" transform="translate(-487.37 -212.67)"></path><path class="cls-2 QwqBcjhV_2" d="M673.63,487.36a29.44,29.44,0,0,0,17.27,0l.88-11.46H672Z" transform="translate(-487.37 -212.67)"></path></g><path class="cls-1 QwqBcjhV_3" width="8.67" height="114" d="M190.63 1 L199.29999999999998 1 L199.29999999999998 115 L190.63 115 Z"></path><path class="cls-3 QwqBcjhV_4" d="M793.2,434.11q-1.63-2.23-3.15-4.54c-8-12.16-13.8-25.6-21-38.22-8.33-14.55-18.76-28.22-32.47-37.86s-36.57-12.76-53.49-11.9c0,8.14,0,15.28.06,23.42,21.94.77,49,15,59.32,34.37s9.71,44.1-1.45,63-37.4,31.39-59.34,32.13l-.1,18.57c14.5-1.34,34.67-4.66,47.55-12.41s24.65-17.33,38-24.22a147.65,147.65,0,0,1,26.62-10.27c4.59-1.34,9.23-2.53,13.88-3.66q3.49-.85,7-1.66c1.4-.33,4.88-.42,5.52-1.92,1-2.45-5.42-4.56-7-5.52a61.75,61.75,0,0,1-8.79-6.72A84,84,0,0,1,793.2,434.11Z" transform="translate(-487.37 -212.67)"></path><path class="cls-1 QwqBcjhV_5" d="M109.63,156.32L104.31,163.17L28.64,104.35L33.95,97.5L109.63,156.32Z"></path><path class="cls-3 QwqBcjhV_6" d="M575.1,434.11q1.63-2.23,3.15-4.54c8-12.16,13.8-25.6,21-38.22,8.33-14.55,18.76-28.22,32.47-37.86s34.57-12.76,51.49-11.9c0,8.14,0,15.28-.06,23.42-21.94.77-47,15-57.32,34.37s-9.71,44.1,1.45,63,32.4,31.39,54.34,32.13l.1,18.57c-15.47-1-29.67-4.66-42.55-12.41s-24.65-17.33-38-24.22a147.65,147.65,0,0,0-26.62-10.27c-4.59-1.34-9.23-2.53-13.88-3.66q-3.49-.85-7-1.66c-1.4-.33-4.88-.42-5.52-1.92-1-2.45,5.42-4.56,7-5.52a61.75,61.75,0,0,0,8.79-6.72A84,84,0,0,0,575.1,434.11Z" transform="translate(-487.37 -212.67)"></path><path class="cls-1 QwqBcjhV_7" d="M148.92,123.61L141.43,127.97L93.34,45.05L100.84,40.7L148.92,123.61Z"></path><path class="cls-1 QwqBcjhV_8" d="M88.9,199.31L84.62,206.84L1.36,159.36L5.65,151.82L88.9,199.31Z"></path><path class="cls-1 QwqBcjhV_9" d="M275.88,148.89L280.95,155.92L358.62,99.77L353.55,92.74L275.88,148.89Z"></path><path class="cls-1 QwqBcjhV_10" d="M241.46,121.61L248.96,125.97L297.04,43.05L289.55,38.7L241.46,121.61Z"></path><path class="cls-1 QwqBcjhV_11" d="M300.34,192L304.57,199.56L388.16,152.67L383.93,145.1L300.34,192Z"></path><text x="-487.37" y="-212.67"></text><style data-made-with="vivus-instant">.QwqBcjhV_0{stroke-dasharray:401 403;stroke-dashoffset:402;animation:QwqBcjhV_draw 3000ms ease-in-out 0ms forwards;}.QwqBcjhV_1{stroke-dasharray:253 255;stroke-dashoffset:254;animation:QwqBcjhV_draw 3000ms ease-in-out 0ms forwards;}.QwqBcjhV_2{stroke-dasharray:61 63;stroke-dashoffset:62;animation:QwqBcjhV_draw 3000ms ease-in-out 0ms forwards;}.QwqBcjhV_3{stroke-dasharray:246 248;stroke-dashoffset:247;animation:QwqBcjhV_draw 3000ms ease-in-out 0ms forwards;}.QwqBcjhV_4{stroke-dasharray:593 595;stroke-dashoffset:594;animation:QwqBcjhV_draw 3000ms ease-in-out 0ms forwards;}.QwqBcjhV_5{stroke-dasharray:210 212;stroke-dashoffset:211;animation:QwqBcjhV_draw 3000ms ease-in-out 0ms forwards;}.QwqBcjhV_6{stroke-dasharray:580 582;stroke-dashoffset:581;animation:QwqBcjhV_draw 3000ms ease-in-out 0ms forwards;}.QwqBcjhV_7{stroke-dasharray:210 212;stroke-dashoffset:211;animation:QwqBcjhV_draw 3000ms ease-in-out 0ms forwards;}.QwqBcjhV_8{stroke-dasharray:210 212;stroke-dashoffset:211;animation:QwqBcjhV_draw 3000ms ease-in-out 0ms forwards;}.QwqBcjhV_9{stroke-dasharray:210 212;stroke-dashoffset:211;animation:QwqBcjhV_draw 3000ms ease-in-out 0ms forwards;}.QwqBcjhV_10{stroke-dasharray:210 212;stroke-dashoffset:211;animation:QwqBcjhV_draw 3000ms ease-in-out 0ms forwards;}.QwqBcjhV_11{stroke-dasharray:210 212;stroke-dashoffset:211;animation:QwqBcjhV_draw 3000ms ease-in-out 0ms forwards;}@keyframes QwqBcjhV_draw{100%{stroke-dashoffset:0;}}@keyframes QwqBcjhV_fade{0%{stroke-opacity:1;}94.44444444444444%{stroke-opacity:1;}100%{stroke-opacity:0;}}</style></svg>