<svg width="545" height="696" viewBox="0 0 545 696" fill="none" xmlns="http://www.w3.org/2000/svg">
<rect x="1.5" y="1.5" width="542" height="692.46" fill="#EFA9AE" stroke="black" stroke-width="3"/>
<rect x="169.5" y="498.5" width="19" height="194" fill="#C7D3DD" stroke="black"/>
<rect x="31.5" y="277.5" width="307" height="230" rx="13.5" fill="white" stroke="black"/>
<rect x="31.5" y="81.5" width="307" height="195" rx="13.5" fill="white" stroke="black"/>
<rect x="40.5" y="88.5" width="293" height="183" rx="13.5" fill="#2F6E56" stroke="black"/>
<rect x="41" y="283" width="289" height="217" rx="12" fill="#2F6E56" stroke="white" stroke-width="4"/>
<rect x="43" y="324" width="286" height="4" fill="white"/>
<rect x="43" y="367" width="286" height="5" fill="white"/>
<rect x="43" y="412" width="286" height="2" fill="white"/>
<rect x="43" y="455" width="286" height="3" fill="white"/>
<path d="M56.4727 305.3L70.7227 295.526L69.7494 300.811C69.2031 303.777 69.2208 306.82 69.8015 309.779L70.7227 314.474L56.4727 305.3Z" fill="white"/>
<rect x="67.8726" y="308.6" width="6.6" height="12.6" transform="rotate(-90 67.8726 308.6)" fill="white"/>
<path d="M97.42 313H94.62V299.02H102.86L102.4 301.24H97.42V304.66H102.4V306.88H97.42V313ZM109.848 313.22C108.742 313.22 107.828 313.073 107.108 312.78C106.388 312.487 105.808 312.093 105.368 311.6C104.942 311.107 104.642 310.54 104.468 309.9C104.295 309.247 104.208 308.56 104.208 307.84C104.208 307.2 104.295 306.56 104.468 305.92C104.642 305.28 104.915 304.707 105.288 304.2C105.675 303.68 106.175 303.26 106.788 302.94C107.402 302.62 108.148 302.46 109.028 302.46C109.962 302.46 110.735 302.62 111.348 302.94C111.975 303.26 112.475 303.68 112.848 304.2C113.222 304.707 113.482 305.28 113.628 305.92C113.788 306.56 113.868 307.2 113.868 307.84V308.74H106.788C106.788 309.46 107.042 310.053 107.548 310.52C108.068 310.987 108.775 311.22 109.668 311.22C110.175 311.22 110.642 311.167 111.068 311.06C111.495 310.953 111.862 310.833 112.168 310.7C112.515 310.553 112.835 310.38 113.128 310.18V312.42C113.128 312.433 113.042 312.48 112.868 312.56C112.695 312.64 112.462 312.733 112.168 312.84C111.875 312.933 111.528 313.02 111.128 313.1C110.728 313.18 110.302 313.22 109.848 313.22ZM111.328 306.84C111.328 306.613 111.295 306.367 111.228 306.1C111.175 305.82 111.062 305.56 110.888 305.32C110.728 305.08 110.495 304.88 110.188 304.72C109.895 304.56 109.508 304.48 109.028 304.48C108.615 304.48 108.262 304.56 107.968 304.72C107.688 304.88 107.462 305.08 107.288 305.32C107.115 305.56 106.988 305.82 106.908 306.1C106.828 306.367 106.788 306.613 106.788 306.84H111.328ZM119.902 302.46C120.342 302.46 120.815 302.533 121.322 302.68C121.829 302.813 122.302 303.04 122.742 303.36C123.182 303.667 123.542 304.067 123.822 304.56C124.102 305.053 124.235 305.653 124.222 306.36V313H122.262C122.262 313 122.242 312.92 122.202 312.76C122.162 312.6 122.115 312.42 122.062 312.22C122.022 312.02 121.982 311.847 121.942 311.7C121.902 311.54 121.882 311.467 121.882 311.48C121.695 311.813 121.449 312.107 121.142 312.36C120.875 312.587 120.529 312.787 120.102 312.96C119.689 313.133 119.175 313.22 118.562 313.22C118.135 313.22 117.715 313.153 117.302 313.02C116.889 312.9 116.515 312.72 116.182 312.48C115.862 312.227 115.595 311.913 115.382 311.54C115.182 311.167 115.075 310.733 115.062 310.24C115.035 309.72 115.102 309.26 115.262 308.86C115.435 308.447 115.675 308.093 115.982 307.8C116.302 307.507 116.682 307.273 117.122 307.1C117.562 306.913 118.042 306.787 118.562 306.72C119.055 306.653 119.595 306.62 120.182 306.62C120.769 306.62 121.295 306.633 121.762 306.66V306.34C121.762 305.767 121.635 305.34 121.382 305.06C121.129 304.767 120.809 304.58 120.422 304.5C120.049 304.407 119.635 304.393 119.182 304.46C118.729 304.527 118.295 304.627 117.882 304.76C117.469 304.88 117.102 305.013 116.782 305.16C116.475 305.293 116.282 305.393 116.202 305.46V303.44C116.215 303.427 116.335 303.373 116.562 303.28C116.789 303.173 117.075 303.06 117.422 302.94C117.769 302.82 118.155 302.713 118.582 302.62C119.022 302.513 119.462 302.46 119.902 302.46ZM121.182 310.4C121.409 310.107 121.555 309.78 121.622 309.42C121.702 309.06 121.742 308.68 121.742 308.28H120.582C120.275 308.28 119.949 308.3 119.602 308.34C119.255 308.38 118.935 308.46 118.642 308.58C118.349 308.7 118.102 308.88 117.902 309.12C117.702 309.347 117.602 309.66 117.602 310.06C117.602 310.5 117.762 310.82 118.082 311.02C118.415 311.22 118.822 311.32 119.302 311.32C119.715 311.32 120.075 311.24 120.382 311.08C120.702 310.907 120.969 310.68 121.182 310.4ZM130.924 311.14C131.31 311.14 131.67 311.107 132.004 311.04C132.164 311 132.324 310.96 132.484 310.92L132.504 313C132.264 313.04 132.01 313.08 131.744 313.12C131.517 313.147 131.25 313.167 130.944 313.18C130.637 313.207 130.31 313.22 129.964 313.22C129.457 313.167 129.01 313.013 128.624 312.76C128.29 312.533 127.984 312.2 127.704 311.76C127.437 311.307 127.304 310.673 127.304 309.86V304.66H125.344V302.7H127.304L127.324 300.44L129.964 299.78V302.7H132.384V304.66H130.004V309.72C130.004 309.893 130.024 310.067 130.064 310.24C130.117 310.4 130.184 310.547 130.264 310.68C130.357 310.813 130.457 310.927 130.564 311.02C130.684 311.1 130.804 311.14 130.924 311.14ZM138.271 313.2C137.657 313.2 137.131 313.1 136.691 312.9C136.251 312.7 135.884 312.42 135.591 312.06C135.311 311.7 135.104 311.273 134.971 310.78C134.837 310.287 134.771 309.747 134.771 309.16V302.7H137.451V308.26C137.451 309.247 137.584 309.973 137.851 310.44C138.117 310.907 138.577 311.14 139.231 311.14C140.017 311.14 140.597 310.813 140.971 310.16C141.357 309.507 141.551 308.647 141.551 307.58V302.7H144.231V313H142.231L141.691 311.56C141.557 311.707 141.411 311.88 141.251 312.08C141.091 312.267 140.884 312.447 140.631 312.62C140.391 312.78 140.077 312.913 139.691 313.02C139.317 313.14 138.844 313.2 138.271 313.2ZM153.337 305.28C153.031 305.213 152.751 305.18 152.497 305.18C152.257 305.167 152.031 305.167 151.817 305.18C151.391 305.207 151.037 305.3 150.757 305.46C150.491 305.62 150.284 305.833 150.137 306.1C149.991 306.353 149.891 306.647 149.837 306.98C149.784 307.3 149.757 307.633 149.757 307.98V313H147.057V302.8H149.037L149.457 305.04C149.457 305.04 149.471 304.967 149.497 304.82C149.537 304.66 149.604 304.473 149.697 304.26C149.804 304.033 149.951 303.8 150.137 303.56C150.324 303.307 150.557 303.087 150.837 302.9C151.131 302.713 151.477 302.58 151.877 302.5C152.291 302.42 152.777 302.433 153.337 302.54V305.28ZM159.985 313.22C158.878 313.22 157.965 313.073 157.245 312.78C156.525 312.487 155.945 312.093 155.505 311.6C155.078 311.107 154.778 310.54 154.605 309.9C154.432 309.247 154.345 308.56 154.345 307.84C154.345 307.2 154.432 306.56 154.605 305.92C154.778 305.28 155.052 304.707 155.425 304.2C155.812 303.68 156.312 303.26 156.925 302.94C157.538 302.62 158.285 302.46 159.165 302.46C160.098 302.46 160.872 302.62 161.485 302.94C162.112 303.26 162.612 303.68 162.985 304.2C163.358 304.707 163.618 305.28 163.765 305.92C163.925 306.56 164.005 307.2 164.005 307.84V308.74H156.925C156.925 309.46 157.178 310.053 157.685 310.52C158.205 310.987 158.912 311.22 159.805 311.22C160.312 311.22 160.778 311.167 161.205 311.06C161.632 310.953 161.998 310.833 162.305 310.7C162.652 310.553 162.972 310.38 163.265 310.18V312.42C163.265 312.433 163.178 312.48 163.005 312.56C162.832 312.64 162.598 312.733 162.305 312.84C162.012 312.933 161.665 313.02 161.265 313.1C160.865 313.18 160.438 313.22 159.985 313.22ZM161.465 306.84C161.465 306.613 161.432 306.367 161.365 306.1C161.312 305.82 161.198 305.56 161.025 305.32C160.865 305.08 160.632 304.88 160.325 304.72C160.032 304.56 159.645 304.48 159.165 304.48C158.752 304.48 158.398 304.56 158.105 304.72C157.825 304.88 157.598 305.08 157.425 305.32C157.252 305.56 157.125 305.82 157.045 306.1C156.965 306.367 156.925 306.613 156.925 306.84H161.465ZM174.705 313H171.905V299.02H180.145L179.685 301.24H174.705V304.66H179.685V306.88H174.705V313ZM182.333 313V302.7H185.033V313H182.333ZM185.173 299.46C185.173 299.887 185.027 300.247 184.733 300.54C184.44 300.833 184.087 300.98 183.673 300.98C183.247 300.98 182.887 300.833 182.593 300.54C182.3 300.247 182.153 299.887 182.153 299.46C182.153 299.047 182.3 298.7 182.593 298.42C182.887 298.127 183.247 297.98 183.673 297.98C184.087 297.98 184.44 298.127 184.733 298.42C185.027 298.7 185.173 299.047 185.173 299.46ZM197.435 302.7L193.635 313H190.615L186.795 302.7H189.435L192.135 310.2L194.795 302.7H197.435ZM197.435 302.7L193.635 313H190.615L186.795 302.7H189.435L192.135 310.2L194.795 302.7H197.435ZM204.028 313.22C202.921 313.22 202.008 313.073 201.288 312.78C200.568 312.487 199.988 312.093 199.548 311.6C199.121 311.107 198.821 310.54 198.648 309.9C198.475 309.247 198.388 308.56 198.388 307.84C198.388 307.2 198.475 306.56 198.648 305.92C198.821 305.28 199.095 304.707 199.468 304.2C199.855 303.68 200.355 303.26 200.968 302.94C201.581 302.62 202.328 302.46 203.208 302.46C204.141 302.46 204.915 302.62 205.528 302.94C206.155 303.26 206.655 303.68 207.028 304.2C207.401 304.707 207.661 305.28 207.808 305.92C207.968 306.56 208.048 307.2 208.048 307.84V308.74H200.968C200.968 309.46 201.221 310.053 201.728 310.52C202.248 310.987 202.955 311.22 203.848 311.22C204.355 311.22 204.821 311.167 205.248 311.06C205.675 310.953 206.041 310.833 206.348 310.7C206.695 310.553 207.015 310.38 207.308 310.18V312.42C207.308 312.433 207.221 312.48 207.048 312.56C206.875 312.64 206.641 312.733 206.348 312.84C206.055 312.933 205.708 313.02 205.308 313.1C204.908 313.18 204.481 313.22 204.028 313.22ZM205.508 306.84C205.508 306.613 205.475 306.367 205.408 306.1C205.355 305.82 205.241 305.56 205.068 305.32C204.908 305.08 204.675 304.88 204.368 304.72C204.075 304.56 203.688 304.48 203.208 304.48C202.795 304.48 202.441 304.56 202.148 304.72C201.868 304.88 201.641 305.08 201.468 305.32C201.295 305.56 201.168 305.82 201.088 306.1C201.008 306.367 200.968 306.613 200.968 306.84H205.508Z" fill="white"/>
<path d="M56.4727 392.3L70.7227 382.526L69.7494 387.811C69.2031 390.777 69.2208 393.82 69.8015 396.779L70.7227 401.474L56.4727 392.3Z" fill="white"/>
<rect x="67.8726" y="395.6" width="6.6" height="12.6" transform="rotate(-90 67.8726 395.6)" fill="white"/>
<path d="M97.42 400H94.62V386.02H102.86L102.4 388.24H97.42V391.66H102.4V393.88H97.42V400ZM109.848 400.22C108.742 400.22 107.828 400.073 107.108 399.78C106.388 399.487 105.808 399.093 105.368 398.6C104.942 398.107 104.642 397.54 104.468 396.9C104.295 396.247 104.208 395.56 104.208 394.84C104.208 394.2 104.295 393.56 104.468 392.92C104.642 392.28 104.915 391.707 105.288 391.2C105.675 390.68 106.175 390.26 106.788 389.94C107.402 389.62 108.148 389.46 109.028 389.46C109.962 389.46 110.735 389.62 111.348 389.94C111.975 390.26 112.475 390.68 112.848 391.2C113.222 391.707 113.482 392.28 113.628 392.92C113.788 393.56 113.868 394.2 113.868 394.84V395.74H106.788C106.788 396.46 107.042 397.053 107.548 397.52C108.068 397.987 108.775 398.22 109.668 398.22C110.175 398.22 110.642 398.167 111.068 398.06C111.495 397.953 111.862 397.833 112.168 397.7C112.515 397.553 112.835 397.38 113.128 397.18V399.42C113.128 399.433 113.042 399.48 112.868 399.56C112.695 399.64 112.462 399.733 112.168 399.84C111.875 399.933 111.528 400.02 111.128 400.1C110.728 400.18 110.302 400.22 109.848 400.22ZM111.328 393.84C111.328 393.613 111.295 393.367 111.228 393.1C111.175 392.82 111.062 392.56 110.888 392.32C110.728 392.08 110.495 391.88 110.188 391.72C109.895 391.56 109.508 391.48 109.028 391.48C108.615 391.48 108.262 391.56 107.968 391.72C107.688 391.88 107.462 392.08 107.288 392.32C107.115 392.56 106.988 392.82 106.908 393.1C106.828 393.367 106.788 393.613 106.788 393.84H111.328ZM119.902 389.46C120.342 389.46 120.815 389.533 121.322 389.68C121.829 389.813 122.302 390.04 122.742 390.36C123.182 390.667 123.542 391.067 123.822 391.56C124.102 392.053 124.235 392.653 124.222 393.36V400H122.262C122.262 400 122.242 399.92 122.202 399.76C122.162 399.6 122.115 399.42 122.062 399.22C122.022 399.02 121.982 398.847 121.942 398.7C121.902 398.54 121.882 398.467 121.882 398.48C121.695 398.813 121.449 399.107 121.142 399.36C120.875 399.587 120.529 399.787 120.102 399.96C119.689 400.133 119.175 400.22 118.562 400.22C118.135 400.22 117.715 400.153 117.302 400.02C116.889 399.9 116.515 399.72 116.182 399.48C115.862 399.227 115.595 398.913 115.382 398.54C115.182 398.167 115.075 397.733 115.062 397.24C115.035 396.72 115.102 396.26 115.262 395.86C115.435 395.447 115.675 395.093 115.982 394.8C116.302 394.507 116.682 394.273 117.122 394.1C117.562 393.913 118.042 393.787 118.562 393.72C119.055 393.653 119.595 393.62 120.182 393.62C120.769 393.62 121.295 393.633 121.762 393.66V393.34C121.762 392.767 121.635 392.34 121.382 392.06C121.129 391.767 120.809 391.58 120.422 391.5C120.049 391.407 119.635 391.393 119.182 391.46C118.729 391.527 118.295 391.627 117.882 391.76C117.469 391.88 117.102 392.013 116.782 392.16C116.475 392.293 116.282 392.393 116.202 392.46V390.44C116.215 390.427 116.335 390.373 116.562 390.28C116.789 390.173 117.075 390.06 117.422 389.94C117.769 389.82 118.155 389.713 118.582 389.62C119.022 389.513 119.462 389.46 119.902 389.46ZM121.182 397.4C121.409 397.107 121.555 396.78 121.622 396.42C121.702 396.06 121.742 395.68 121.742 395.28H120.582C120.275 395.28 119.949 395.3 119.602 395.34C119.255 395.38 118.935 395.46 118.642 395.58C118.349 395.7 118.102 395.88 117.902 396.12C117.702 396.347 117.602 396.66 117.602 397.06C117.602 397.5 117.762 397.82 118.082 398.02C118.415 398.22 118.822 398.32 119.302 398.32C119.715 398.32 120.075 398.24 120.382 398.08C120.702 397.907 120.969 397.68 121.182 397.4ZM130.924 398.14C131.31 398.14 131.67 398.107 132.004 398.04C132.164 398 132.324 397.96 132.484 397.92L132.504 400C132.264 400.04 132.01 400.08 131.744 400.12C131.517 400.147 131.25 400.167 130.944 400.18C130.637 400.207 130.31 400.22 129.964 400.22C129.457 400.167 129.01 400.013 128.624 399.76C128.29 399.533 127.984 399.2 127.704 398.76C127.437 398.307 127.304 397.673 127.304 396.86V391.66H125.344V389.7H127.304L127.324 387.44L129.964 386.78V389.7H132.384V391.66H130.004V396.72C130.004 396.893 130.024 397.067 130.064 397.24C130.117 397.4 130.184 397.547 130.264 397.68C130.357 397.813 130.457 397.927 130.564 398.02C130.684 398.1 130.804 398.14 130.924 398.14ZM138.271 400.2C137.657 400.2 137.131 400.1 136.691 399.9C136.251 399.7 135.884 399.42 135.591 399.06C135.311 398.7 135.104 398.273 134.971 397.78C134.837 397.287 134.771 396.747 134.771 396.16V389.7H137.451V395.26C137.451 396.247 137.584 396.973 137.851 397.44C138.117 397.907 138.577 398.14 139.231 398.14C140.017 398.14 140.597 397.813 140.971 397.16C141.357 396.507 141.551 395.647 141.551 394.58V389.7H144.231V400H142.231L141.691 398.56C141.557 398.707 141.411 398.88 141.251 399.08C141.091 399.267 140.884 399.447 140.631 399.62C140.391 399.78 140.077 399.913 139.691 400.02C139.317 400.14 138.844 400.2 138.271 400.2ZM153.337 392.28C153.031 392.213 152.751 392.18 152.497 392.18C152.257 392.167 152.031 392.167 151.817 392.18C151.391 392.207 151.037 392.3 150.757 392.46C150.491 392.62 150.284 392.833 150.137 393.1C149.991 393.353 149.891 393.647 149.837 393.98C149.784 394.3 149.757 394.633 149.757 394.98V400H147.057V389.8H149.037L149.457 392.04C149.457 392.04 149.471 391.967 149.497 391.82C149.537 391.66 149.604 391.473 149.697 391.26C149.804 391.033 149.951 390.8 150.137 390.56C150.324 390.307 150.557 390.087 150.837 389.9C151.131 389.713 151.477 389.58 151.877 389.5C152.291 389.42 152.777 389.433 153.337 389.54V392.28ZM159.985 400.22C158.878 400.22 157.965 400.073 157.245 399.78C156.525 399.487 155.945 399.093 155.505 398.6C155.078 398.107 154.778 397.54 154.605 396.9C154.432 396.247 154.345 395.56 154.345 394.84C154.345 394.2 154.432 393.56 154.605 392.92C154.778 392.28 155.052 391.707 155.425 391.2C155.812 390.68 156.312 390.26 156.925 389.94C157.538 389.62 158.285 389.46 159.165 389.46C160.098 389.46 160.872 389.62 161.485 389.94C162.112 390.26 162.612 390.68 162.985 391.2C163.358 391.707 163.618 392.28 163.765 392.92C163.925 393.56 164.005 394.2 164.005 394.84V395.74H156.925C156.925 396.46 157.178 397.053 157.685 397.52C158.205 397.987 158.912 398.22 159.805 398.22C160.312 398.22 160.778 398.167 161.205 398.06C161.632 397.953 161.998 397.833 162.305 397.7C162.652 397.553 162.972 397.38 163.265 397.18V399.42C163.265 399.433 163.178 399.48 163.005 399.56C162.832 399.64 162.598 399.733 162.305 399.84C162.012 399.933 161.665 400.02 161.265 400.1C160.865 400.18 160.438 400.22 159.985 400.22ZM161.465 393.84C161.465 393.613 161.432 393.367 161.365 393.1C161.312 392.82 161.198 392.56 161.025 392.32C160.865 392.08 160.632 391.88 160.325 391.72C160.032 391.56 159.645 391.48 159.165 391.48C158.752 391.48 158.398 391.56 158.105 391.72C157.825 391.88 157.598 392.08 157.425 392.32C157.252 392.56 157.125 392.82 157.045 393.1C156.965 393.367 156.925 393.613 156.925 393.84H161.465ZM181.245 386.02V388.2H177.245V400H174.465V388.2H170.445V386.02H181.245ZM188.738 389.46C189.352 389.46 189.878 389.567 190.318 389.78C190.758 389.98 191.118 390.26 191.398 390.62C191.692 390.98 191.905 391.407 192.038 391.9C192.172 392.393 192.238 392.927 192.238 393.5V400H189.558V394.4C189.558 393.413 189.425 392.687 189.158 392.22C188.892 391.753 188.432 391.52 187.778 391.52C186.992 391.52 186.405 391.847 186.018 392.5C185.645 393.153 185.458 394.013 185.458 395.08V400H182.778V385H185.318V391.1C185.452 390.953 185.598 390.787 185.758 390.6C185.918 390.4 186.118 390.22 186.358 390.06C186.612 389.887 186.925 389.747 187.298 389.64C187.685 389.52 188.165 389.46 188.738 389.46ZM201.345 392.28C201.038 392.213 200.758 392.18 200.505 392.18C200.265 392.167 200.038 392.167 199.825 392.18C199.398 392.207 199.045 392.3 198.765 392.46C198.498 392.62 198.292 392.833 198.145 393.1C197.998 393.353 197.898 393.647 197.845 393.98C197.792 394.3 197.765 394.633 197.765 394.98V400H195.065V389.8H197.045L197.465 392.04C197.465 392.04 197.478 391.967 197.505 391.82C197.545 391.66 197.612 391.473 197.705 391.26C197.812 391.033 197.958 390.8 198.145 390.56C198.332 390.307 198.565 390.087 198.845 389.9C199.138 389.713 199.485 389.58 199.885 389.5C200.298 389.42 200.785 389.433 201.345 389.54V392.28ZM207.993 400.22C206.886 400.22 205.973 400.073 205.253 399.78C204.533 399.487 203.953 399.093 203.513 398.6C203.086 398.107 202.786 397.54 202.613 396.9C202.439 396.247 202.353 395.56 202.353 394.84C202.353 394.2 202.439 393.56 202.613 392.92C202.786 392.28 203.059 391.707 203.433 391.2C203.819 390.68 204.319 390.26 204.933 389.94C205.546 389.62 206.293 389.46 207.173 389.46C208.106 389.46 208.879 389.62 209.493 389.94C210.119 390.26 210.619 390.68 210.993 391.2C211.366 391.707 211.626 392.28 211.773 392.92C211.933 393.56 212.013 394.2 212.013 394.84V395.74H204.933C204.933 396.46 205.186 397.053 205.693 397.52C206.213 397.987 206.919 398.22 207.813 398.22C208.319 398.22 208.786 398.167 209.213 398.06C209.639 397.953 210.006 397.833 210.313 397.7C210.659 397.553 210.979 397.38 211.273 397.18V399.42C211.273 399.433 211.186 399.48 211.013 399.56C210.839 399.64 210.606 399.733 210.313 399.84C210.019 399.933 209.673 400.02 209.273 400.1C208.873 400.18 208.446 400.22 207.993 400.22ZM209.473 393.84C209.473 393.613 209.439 393.367 209.373 393.1C209.319 392.82 209.206 392.56 209.033 392.32C208.873 392.08 208.639 391.88 208.333 391.72C208.039 391.56 207.653 391.48 207.173 391.48C206.759 391.48 206.406 391.56 206.113 391.72C205.833 391.88 205.606 392.08 205.433 392.32C205.259 392.56 205.133 392.82 205.053 393.1C204.973 393.367 204.933 393.613 204.933 393.84H209.473ZM219.087 400.22C217.98 400.22 217.067 400.073 216.347 399.78C215.627 399.487 215.047 399.093 214.607 398.6C214.18 398.107 213.88 397.54 213.707 396.9C213.533 396.247 213.447 395.56 213.447 394.84C213.447 394.2 213.533 393.56 213.707 392.92C213.88 392.28 214.153 391.707 214.527 391.2C214.913 390.68 215.413 390.26 216.027 389.94C216.64 389.62 217.387 389.46 218.267 389.46C219.2 389.46 219.973 389.62 220.587 389.94C221.213 390.26 221.713 390.68 222.087 391.2C222.46 391.707 222.72 392.28 222.867 392.92C223.027 393.56 223.107 394.2 223.107 394.84V395.74H216.027C216.027 396.46 216.28 397.053 216.787 397.52C217.307 397.987 218.013 398.22 218.907 398.22C219.413 398.22 219.88 398.167 220.307 398.06C220.733 397.953 221.1 397.833 221.407 397.7C221.753 397.553 222.073 397.38 222.367 397.18V399.42C222.367 399.433 222.28 399.48 222.107 399.56C221.933 399.64 221.7 399.733 221.407 399.84C221.113 399.933 220.767 400.02 220.367 400.1C219.967 400.18 219.54 400.22 219.087 400.22ZM220.567 393.84C220.567 393.613 220.533 393.367 220.467 393.1C220.413 392.82 220.3 392.56 220.127 392.32C219.967 392.08 219.733 391.88 219.427 391.72C219.133 391.56 218.747 391.48 218.267 391.48C217.853 391.48 217.5 391.56 217.207 391.72C216.927 391.88 216.7 392.08 216.527 392.32C216.353 392.56 216.227 392.82 216.147 393.1C216.067 393.367 216.027 393.613 216.027 393.84H220.567Z" fill="white"/>
<path d="M68.1737 420L77.9473 434.25L72.6626 433.277C69.6965 432.73 66.6541 432.748 63.6946 433.329L59 434.25L68.1737 420Z" fill="white"/>
<rect x="64.8735" y="431.4" width="6.6" height="12.6" fill="white"/>
<path d="M97.422 440H94.622V426.02H102.862L102.402 428.24H97.422V431.66H102.402V433.88H97.422V440ZM109.85 440.22C108.744 440.22 107.83 440.073 107.11 439.78C106.39 439.487 105.81 439.093 105.37 438.6C104.944 438.107 104.644 437.54 104.47 436.9C104.297 436.247 104.21 435.56 104.21 434.84C104.21 434.2 104.297 433.56 104.47 432.92C104.644 432.28 104.917 431.707 105.29 431.2C105.677 430.68 106.177 430.26 106.79 429.94C107.404 429.62 108.15 429.46 109.03 429.46C109.964 429.46 110.737 429.62 111.35 429.94C111.977 430.26 112.477 430.68 112.85 431.2C113.224 431.707 113.484 432.28 113.63 432.92C113.79 433.56 113.87 434.2 113.87 434.84V435.74H106.79C106.79 436.46 107.044 437.053 107.55 437.52C108.07 437.987 108.777 438.22 109.67 438.22C110.177 438.22 110.644 438.167 111.07 438.06C111.497 437.953 111.864 437.833 112.17 437.7C112.517 437.553 112.837 437.38 113.13 437.18V439.42C113.13 439.433 113.044 439.48 112.87 439.56C112.697 439.64 112.464 439.733 112.17 439.84C111.877 439.933 111.53 440.02 111.13 440.1C110.73 440.18 110.304 440.22 109.85 440.22ZM111.33 433.84C111.33 433.613 111.297 433.367 111.23 433.1C111.177 432.82 111.064 432.56 110.89 432.32C110.73 432.08 110.497 431.88 110.19 431.72C109.897 431.56 109.51 431.48 109.03 431.48C108.617 431.48 108.264 431.56 107.97 431.72C107.69 431.88 107.464 432.08 107.29 432.32C107.117 432.56 106.99 432.82 106.91 433.1C106.83 433.367 106.79 433.613 106.79 433.84H111.33ZM119.904 429.46C120.344 429.46 120.817 429.533 121.324 429.68C121.831 429.813 122.304 430.04 122.744 430.36C123.184 430.667 123.544 431.067 123.824 431.56C124.104 432.053 124.237 432.653 124.224 433.36V440H122.264C122.264 440 122.244 439.92 122.204 439.76C122.164 439.6 122.117 439.42 122.064 439.22C122.024 439.02 121.984 438.847 121.944 438.7C121.904 438.54 121.884 438.467 121.884 438.48C121.697 438.813 121.451 439.107 121.144 439.36C120.877 439.587 120.531 439.787 120.104 439.96C119.691 440.133 119.177 440.22 118.564 440.22C118.137 440.22 117.717 440.153 117.304 440.02C116.891 439.9 116.517 439.72 116.184 439.48C115.864 439.227 115.597 438.913 115.384 438.54C115.184 438.167 115.077 437.733 115.064 437.24C115.037 436.72 115.104 436.26 115.264 435.86C115.437 435.447 115.677 435.093 115.984 434.8C116.304 434.507 116.684 434.273 117.124 434.1C117.564 433.913 118.044 433.787 118.564 433.72C119.057 433.653 119.597 433.62 120.184 433.62C120.771 433.62 121.297 433.633 121.764 433.66V433.34C121.764 432.767 121.637 432.34 121.384 432.06C121.131 431.767 120.811 431.58 120.424 431.5C120.051 431.407 119.637 431.393 119.184 431.46C118.731 431.527 118.297 431.627 117.884 431.76C117.471 431.88 117.104 432.013 116.784 432.16C116.477 432.293 116.284 432.393 116.204 432.46V430.44C116.217 430.427 116.337 430.373 116.564 430.28C116.791 430.173 117.077 430.06 117.424 429.94C117.771 429.82 118.157 429.713 118.584 429.62C119.024 429.513 119.464 429.46 119.904 429.46ZM121.184 437.4C121.411 437.107 121.557 436.78 121.624 436.42C121.704 436.06 121.744 435.68 121.744 435.28H120.584C120.277 435.28 119.951 435.3 119.604 435.34C119.257 435.38 118.937 435.46 118.644 435.58C118.351 435.7 118.104 435.88 117.904 436.12C117.704 436.347 117.604 436.66 117.604 437.06C117.604 437.5 117.764 437.82 118.084 438.02C118.417 438.22 118.824 438.32 119.304 438.32C119.717 438.32 120.077 438.24 120.384 438.08C120.704 437.907 120.971 437.68 121.184 437.4ZM130.926 438.14C131.312 438.14 131.672 438.107 132.006 438.04C132.166 438 132.326 437.96 132.486 437.92L132.506 440C132.266 440.04 132.012 440.08 131.746 440.12C131.519 440.147 131.252 440.167 130.946 440.18C130.639 440.207 130.312 440.22 129.966 440.22C129.459 440.167 129.012 440.013 128.626 439.76C128.292 439.533 127.986 439.2 127.706 438.76C127.439 438.307 127.306 437.673 127.306 436.86V431.66H125.346V429.7H127.306L127.326 427.44L129.966 426.78V429.7H132.386V431.66H130.006V436.72C130.006 436.893 130.026 437.067 130.066 437.24C130.119 437.4 130.186 437.547 130.266 437.68C130.359 437.813 130.459 437.927 130.566 438.02C130.686 438.1 130.806 438.14 130.926 438.14ZM138.273 440.2C137.659 440.2 137.133 440.1 136.693 439.9C136.253 439.7 135.886 439.42 135.593 439.06C135.313 438.7 135.106 438.273 134.973 437.78C134.839 437.287 134.773 436.747 134.773 436.16V429.7H137.453V435.26C137.453 436.247 137.586 436.973 137.853 437.44C138.119 437.907 138.579 438.14 139.233 438.14C140.019 438.14 140.599 437.813 140.973 437.16C141.359 436.507 141.553 435.647 141.553 434.58V429.7H144.233V440H142.233L141.693 438.56C141.559 438.707 141.413 438.88 141.253 439.08C141.093 439.267 140.886 439.447 140.633 439.62C140.393 439.78 140.079 439.913 139.693 440.02C139.319 440.14 138.846 440.2 138.273 440.2ZM153.339 432.28C153.032 432.213 152.752 432.18 152.499 432.18C152.259 432.167 152.032 432.167 151.819 432.18C151.392 432.207 151.039 432.3 150.759 432.46C150.492 432.62 150.286 432.833 150.139 433.1C149.992 433.353 149.892 433.647 149.839 433.98C149.786 434.3 149.759 434.633 149.759 434.98V440H147.059V429.8H149.039L149.459 432.04C149.459 432.04 149.472 431.967 149.499 431.82C149.539 431.66 149.606 431.473 149.699 431.26C149.806 431.033 149.952 430.8 150.139 430.56C150.326 430.307 150.559 430.087 150.839 429.9C151.132 429.713 151.479 429.58 151.879 429.5C152.292 429.42 152.779 429.433 153.339 429.54V432.28ZM159.987 440.22C158.88 440.22 157.967 440.073 157.247 439.78C156.527 439.487 155.947 439.093 155.507 438.6C155.08 438.107 154.78 437.54 154.607 436.9C154.434 436.247 154.347 435.56 154.347 434.84C154.347 434.2 154.434 433.56 154.607 432.92C154.78 432.28 155.054 431.707 155.427 431.2C155.814 430.68 156.314 430.26 156.927 429.94C157.54 429.62 158.287 429.46 159.167 429.46C160.1 429.46 160.874 429.62 161.487 429.94C162.114 430.26 162.614 430.68 162.987 431.2C163.36 431.707 163.62 432.28 163.767 432.92C163.927 433.56 164.007 434.2 164.007 434.84V435.74H156.927C156.927 436.46 157.18 437.053 157.687 437.52C158.207 437.987 158.914 438.22 159.807 438.22C160.314 438.22 160.78 438.167 161.207 438.06C161.634 437.953 162 437.833 162.307 437.7C162.654 437.553 162.974 437.38 163.267 437.18V439.42C163.267 439.433 163.18 439.48 163.007 439.56C162.834 439.64 162.6 439.733 162.307 439.84C162.014 439.933 161.667 440.02 161.267 440.1C160.867 440.18 160.44 440.22 159.987 440.22ZM161.467 433.84C161.467 433.613 161.434 433.367 161.367 433.1C161.314 432.82 161.2 432.56 161.027 432.32C160.867 432.08 160.634 431.88 160.327 431.72C160.034 431.56 159.647 431.48 159.167 431.48C158.754 431.48 158.4 431.56 158.107 431.72C157.827 431.88 157.6 432.08 157.427 432.32C157.254 432.56 157.127 432.82 157.047 433.1C156.967 433.367 156.927 433.613 156.927 433.84H161.467ZM181.247 426.02V428.2H177.247V440H174.467V428.2H170.447V426.02H181.247ZM197.359 429.8L194.219 440H191.039L188.799 432.12L186.579 440H183.539L180.019 429.8H182.639L185.179 437.2L187.279 429.7H190.299L192.659 437.2C192.659 437.2 192.705 437.02 192.799 436.66C192.905 436.287 193.032 435.827 193.179 435.28C193.339 434.733 193.505 434.14 193.679 433.5C193.865 432.86 194.032 432.267 194.179 431.72C194.339 431.173 194.472 430.72 194.579 430.36C194.685 429.987 194.739 429.8 194.739 429.8H197.359ZM203.77 429.46C204.303 429.46 204.883 429.54 205.51 429.7C206.137 429.86 206.723 430.14 207.27 430.54C207.817 430.94 208.27 431.487 208.63 432.18C209.003 432.873 209.19 433.76 209.19 434.84C209.19 435.92 209.003 436.807 208.63 437.5C208.27 438.193 207.817 438.74 207.27 439.14C206.723 439.54 206.137 439.82 205.51 439.98C204.883 440.14 204.303 440.22 203.77 440.22C203.237 440.22 202.657 440.14 202.03 439.98C201.403 439.82 200.817 439.54 200.27 439.14C199.737 438.74 199.29 438.193 198.93 437.5C198.57 436.807 198.39 435.92 198.39 434.84C198.39 433.76 198.57 432.873 198.93 432.18C199.29 431.487 199.737 430.94 200.27 430.54C200.817 430.14 201.403 429.86 202.03 429.7C202.657 429.54 203.237 429.46 203.77 429.46ZM203.77 438.22C204.517 438.22 205.137 437.927 205.63 437.34C206.137 436.753 206.39 435.92 206.39 434.84C206.39 433.76 206.137 432.933 205.63 432.36C205.137 431.773 204.517 431.48 203.77 431.48C203.05 431.48 202.443 431.773 201.95 432.36C201.457 432.933 201.21 433.76 201.21 434.84C201.21 435.373 201.277 435.853 201.41 436.28C201.543 436.693 201.723 437.047 201.95 437.34C202.177 437.62 202.443 437.84 202.75 438C203.07 438.147 203.41 438.22 203.77 438.22Z" fill="white"/>
<path d="M56.4727 475.3L70.7227 465.526L69.7494 470.811C69.2031 473.777 69.2208 476.82 69.8015 479.779L70.7227 484.474L56.4727 475.3Z" fill="white"/>
<rect x="67.8726" y="478.6" width="6.6" height="12.6" transform="rotate(-90 67.8726 478.6)" fill="white"/>
<path d="M97.42 483H94.62V469.02H102.86L102.4 471.24H97.42V474.66H102.4V476.88H97.42V483ZM109.848 483.22C108.742 483.22 107.828 483.073 107.108 482.78C106.388 482.487 105.808 482.093 105.368 481.6C104.942 481.107 104.642 480.54 104.468 479.9C104.295 479.247 104.208 478.56 104.208 477.84C104.208 477.2 104.295 476.56 104.468 475.92C104.642 475.28 104.915 474.707 105.288 474.2C105.675 473.68 106.175 473.26 106.788 472.94C107.402 472.62 108.148 472.46 109.028 472.46C109.962 472.46 110.735 472.62 111.348 472.94C111.975 473.26 112.475 473.68 112.848 474.2C113.222 474.707 113.482 475.28 113.628 475.92C113.788 476.56 113.868 477.2 113.868 477.84V478.74H106.788C106.788 479.46 107.042 480.053 107.548 480.52C108.068 480.987 108.775 481.22 109.668 481.22C110.175 481.22 110.642 481.167 111.068 481.06C111.495 480.953 111.862 480.833 112.168 480.7C112.515 480.553 112.835 480.38 113.128 480.18V482.42C113.128 482.433 113.042 482.48 112.868 482.56C112.695 482.64 112.462 482.733 112.168 482.84C111.875 482.933 111.528 483.02 111.128 483.1C110.728 483.18 110.302 483.22 109.848 483.22ZM111.328 476.84C111.328 476.613 111.295 476.367 111.228 476.1C111.175 475.82 111.062 475.56 110.888 475.32C110.728 475.08 110.495 474.88 110.188 474.72C109.895 474.56 109.508 474.48 109.028 474.48C108.615 474.48 108.262 474.56 107.968 474.72C107.688 474.88 107.462 475.08 107.288 475.32C107.115 475.56 106.988 475.82 106.908 476.1C106.828 476.367 106.788 476.613 106.788 476.84H111.328ZM119.902 472.46C120.342 472.46 120.815 472.533 121.322 472.68C121.829 472.813 122.302 473.04 122.742 473.36C123.182 473.667 123.542 474.067 123.822 474.56C124.102 475.053 124.235 475.653 124.222 476.36V483H122.262C122.262 483 122.242 482.92 122.202 482.76C122.162 482.6 122.115 482.42 122.062 482.22C122.022 482.02 121.982 481.847 121.942 481.7C121.902 481.54 121.882 481.467 121.882 481.48C121.695 481.813 121.449 482.107 121.142 482.36C120.875 482.587 120.529 482.787 120.102 482.96C119.689 483.133 119.175 483.22 118.562 483.22C118.135 483.22 117.715 483.153 117.302 483.02C116.889 482.9 116.515 482.72 116.182 482.48C115.862 482.227 115.595 481.913 115.382 481.54C115.182 481.167 115.075 480.733 115.062 480.24C115.035 479.72 115.102 479.26 115.262 478.86C115.435 478.447 115.675 478.093 115.982 477.8C116.302 477.507 116.682 477.273 117.122 477.1C117.562 476.913 118.042 476.787 118.562 476.72C119.055 476.653 119.595 476.62 120.182 476.62C120.769 476.62 121.295 476.633 121.762 476.66V476.34C121.762 475.767 121.635 475.34 121.382 475.06C121.129 474.767 120.809 474.58 120.422 474.5C120.049 474.407 119.635 474.393 119.182 474.46C118.729 474.527 118.295 474.627 117.882 474.76C117.469 474.88 117.102 475.013 116.782 475.16C116.475 475.293 116.282 475.393 116.202 475.46V473.44C116.215 473.427 116.335 473.373 116.562 473.28C116.789 473.173 117.075 473.06 117.422 472.94C117.769 472.82 118.155 472.713 118.582 472.62C119.022 472.513 119.462 472.46 119.902 472.46ZM121.182 480.4C121.409 480.107 121.555 479.78 121.622 479.42C121.702 479.06 121.742 478.68 121.742 478.28H120.582C120.275 478.28 119.949 478.3 119.602 478.34C119.255 478.38 118.935 478.46 118.642 478.58C118.349 478.7 118.102 478.88 117.902 479.12C117.702 479.347 117.602 479.66 117.602 480.06C117.602 480.5 117.762 480.82 118.082 481.02C118.415 481.22 118.822 481.32 119.302 481.32C119.715 481.32 120.075 481.24 120.382 481.08C120.702 480.907 120.969 480.68 121.182 480.4ZM130.924 481.14C131.31 481.14 131.67 481.107 132.004 481.04C132.164 481 132.324 480.96 132.484 480.92L132.504 483C132.264 483.04 132.01 483.08 131.744 483.12C131.517 483.147 131.25 483.167 130.944 483.18C130.637 483.207 130.31 483.22 129.964 483.22C129.457 483.167 129.01 483.013 128.624 482.76C128.29 482.533 127.984 482.2 127.704 481.76C127.437 481.307 127.304 480.673 127.304 479.86V474.66H125.344V472.7H127.304L127.324 470.44L129.964 469.78V472.7H132.384V474.66H130.004V479.72C130.004 479.893 130.024 480.067 130.064 480.24C130.117 480.4 130.184 480.547 130.264 480.68C130.357 480.813 130.457 480.927 130.564 481.02C130.684 481.1 130.804 481.14 130.924 481.14ZM138.271 483.2C137.657 483.2 137.131 483.1 136.691 482.9C136.251 482.7 135.884 482.42 135.591 482.06C135.311 481.7 135.104 481.273 134.971 480.78C134.837 480.287 134.771 479.747 134.771 479.16V472.7H137.451V478.26C137.451 479.247 137.584 479.973 137.851 480.44C138.117 480.907 138.577 481.14 139.231 481.14C140.017 481.14 140.597 480.813 140.971 480.16C141.357 479.507 141.551 478.647 141.551 477.58V472.7H144.231V483H142.231L141.691 481.56C141.557 481.707 141.411 481.88 141.251 482.08C141.091 482.267 140.884 482.447 140.631 482.62C140.391 482.78 140.077 482.913 139.691 483.02C139.317 483.14 138.844 483.2 138.271 483.2ZM153.337 475.28C153.031 475.213 152.751 475.18 152.497 475.18C152.257 475.167 152.031 475.167 151.817 475.18C151.391 475.207 151.037 475.3 150.757 475.46C150.491 475.62 150.284 475.833 150.137 476.1C149.991 476.353 149.891 476.647 149.837 476.98C149.784 477.3 149.757 477.633 149.757 477.98V483H147.057V472.8H149.037L149.457 475.04C149.457 475.04 149.471 474.967 149.497 474.82C149.537 474.66 149.604 474.473 149.697 474.26C149.804 474.033 149.951 473.8 150.137 473.56C150.324 473.307 150.557 473.087 150.837 472.9C151.131 472.713 151.477 472.58 151.877 472.5C152.291 472.42 152.777 472.433 153.337 472.54V475.28ZM159.985 483.22C158.878 483.22 157.965 483.073 157.245 482.78C156.525 482.487 155.945 482.093 155.505 481.6C155.078 481.107 154.778 480.54 154.605 479.9C154.432 479.247 154.345 478.56 154.345 477.84C154.345 477.2 154.432 476.56 154.605 475.92C154.778 475.28 155.052 474.707 155.425 474.2C155.812 473.68 156.312 473.26 156.925 472.94C157.538 472.62 158.285 472.46 159.165 472.46C160.098 472.46 160.872 472.62 161.485 472.94C162.112 473.26 162.612 473.68 162.985 474.2C163.358 474.707 163.618 475.28 163.765 475.92C163.925 476.56 164.005 477.2 164.005 477.84V478.74H156.925C156.925 479.46 157.178 480.053 157.685 480.52C158.205 480.987 158.912 481.22 159.805 481.22C160.312 481.22 160.778 481.167 161.205 481.06C161.632 480.953 161.998 480.833 162.305 480.7C162.652 480.553 162.972 480.38 163.265 480.18V482.42C163.265 482.433 163.178 482.48 163.005 482.56C162.832 482.64 162.598 482.733 162.305 482.84C162.012 482.933 161.665 483.02 161.265 483.1C160.865 483.18 160.438 483.22 159.985 483.22ZM161.465 476.84C161.465 476.613 161.432 476.367 161.365 476.1C161.312 475.82 161.198 475.56 161.025 475.32C160.865 475.08 160.632 474.88 160.325 474.72C160.032 474.56 159.645 474.48 159.165 474.48C158.752 474.48 158.398 474.56 158.105 474.72C157.825 474.88 157.598 475.08 157.425 475.32C157.252 475.56 157.125 475.82 157.045 476.1C156.965 476.367 156.925 476.613 156.925 476.84H161.465ZM178.065 468.8C178.772 468.8 179.525 468.907 180.325 469.12C181.125 469.32 181.858 469.693 182.525 470.24C183.205 470.773 183.765 471.513 184.205 472.46C184.658 473.393 184.885 474.587 184.885 476.04C184.885 477.507 184.658 478.707 184.205 479.64C183.765 480.573 183.205 481.307 182.525 481.84C181.858 482.36 181.125 482.72 180.325 482.92C179.525 483.12 178.772 483.22 178.065 483.22C177.358 483.22 176.605 483.12 175.805 482.92C175.005 482.72 174.265 482.36 173.585 481.84C172.905 481.307 172.338 480.573 171.885 479.64C171.445 478.707 171.225 477.507 171.225 476.04C171.225 474.587 171.445 473.393 171.885 472.46C172.338 471.513 172.905 470.773 173.585 470.24C174.265 469.693 175.005 469.32 175.805 469.12C176.605 468.907 177.358 468.8 178.065 468.8ZM178.065 481.04C178.625 481.04 179.145 480.94 179.625 480.74C180.105 480.54 180.518 480.24 180.865 479.84C181.212 479.427 181.478 478.907 181.665 478.28C181.865 477.64 181.965 476.887 181.965 476.02C181.965 475.18 181.865 474.447 181.665 473.82C181.478 473.18 181.212 472.653 180.865 472.24C180.518 471.827 180.105 471.52 179.625 471.32C179.145 471.107 178.625 471 178.065 471C177.505 471 176.985 471.107 176.505 471.32C176.025 471.52 175.605 471.833 175.245 472.26C174.898 472.673 174.625 473.193 174.425 473.82C174.238 474.447 174.145 475.187 174.145 476.04C174.145 476.907 174.238 477.653 174.425 478.28C174.625 478.907 174.898 479.427 175.245 479.84C175.605 480.24 176.025 480.54 176.505 480.74C176.985 480.94 177.505 481.04 178.065 481.04ZM193.312 472.46C193.925 472.46 194.452 472.567 194.892 472.78C195.332 472.98 195.692 473.26 195.972 473.62C196.265 473.98 196.479 474.407 196.612 474.9C196.745 475.393 196.812 475.927 196.812 476.5V483H194.132V477.4C194.132 476.413 193.999 475.687 193.732 475.22C193.465 474.753 193.005 474.52 192.352 474.52C191.565 474.52 190.979 474.847 190.592 475.5C190.219 476.153 190.032 477.013 190.032 478.08V483H187.352V472.7H189.352L189.892 474.1C190.025 473.953 190.172 473.787 190.332 473.6C190.492 473.4 190.692 473.22 190.932 473.06C191.185 472.887 191.499 472.747 191.872 472.64C192.259 472.52 192.739 472.46 193.312 472.46ZM204.34 483.22C203.234 483.22 202.32 483.073 201.6 482.78C200.88 482.487 200.3 482.093 199.86 481.6C199.434 481.107 199.134 480.54 198.96 479.9C198.787 479.247 198.7 478.56 198.7 477.84C198.7 477.2 198.787 476.56 198.96 475.92C199.134 475.28 199.407 474.707 199.78 474.2C200.167 473.68 200.667 473.26 201.28 472.94C201.894 472.62 202.64 472.46 203.52 472.46C204.454 472.46 205.227 472.62 205.84 472.94C206.467 473.26 206.967 473.68 207.34 474.2C207.714 474.707 207.974 475.28 208.12 475.92C208.28 476.56 208.36 477.2 208.36 477.84V478.74H201.28C201.28 479.46 201.534 480.053 202.04 480.52C202.56 480.987 203.267 481.22 204.16 481.22C204.667 481.22 205.134 481.167 205.56 481.06C205.987 480.953 206.354 480.833 206.66 480.7C207.007 480.553 207.327 480.38 207.62 480.18V482.42C207.62 482.433 207.534 482.48 207.36 482.56C207.187 482.64 206.954 482.733 206.66 482.84C206.367 482.933 206.02 483.02 205.62 483.1C205.22 483.18 204.794 483.22 204.34 483.22ZM205.82 476.84C205.82 476.613 205.787 476.367 205.72 476.1C205.667 475.82 205.554 475.56 205.38 475.32C205.22 475.08 204.987 474.88 204.68 474.72C204.387 474.56 204 474.48 203.52 474.48C203.107 474.48 202.754 474.56 202.46 474.72C202.18 474.88 201.954 475.08 201.78 475.32C201.607 475.56 201.48 475.82 201.4 476.1C201.32 476.367 201.28 476.613 201.28 476.84H205.82Z" fill="white"/>
<path d="M80.4727 345.7L66.2227 355.474L67.1959 350.189C67.7422 347.223 67.7245 344.18 67.1438 341.221L66.2227 336.526L80.4727 345.7Z" fill="white"/>
<rect x="69.0728" y="342.4" width="6.6" height="12.6" transform="rotate(90 69.0728 342.4)" fill="white"/>
<path d="M97.4205 354H94.6205V340.02H102.86L102.4 342.24H97.4205V345.66H102.4V347.88H97.4205V354ZM109.849 354.22C108.742 354.22 107.829 354.073 107.109 353.78C106.389 353.486 105.809 353.093 105.369 352.6C104.942 352.106 104.642 351.54 104.469 350.9C104.295 350.246 104.209 349.56 104.209 348.84C104.209 348.2 104.295 347.56 104.469 346.92C104.642 346.28 104.915 345.706 105.289 345.2C105.675 344.68 106.175 344.26 106.789 343.94C107.402 343.62 108.149 343.46 109.029 343.46C109.962 343.46 110.735 343.62 111.349 343.94C111.975 344.26 112.475 344.68 112.849 345.2C113.222 345.706 113.482 346.28 113.629 346.92C113.789 347.56 113.869 348.2 113.869 348.84V349.74H106.789C106.789 350.46 107.042 351.053 107.549 351.52C108.069 351.986 108.775 352.22 109.669 352.22C110.175 352.22 110.642 352.166 111.069 352.06C111.495 351.953 111.862 351.833 112.169 351.7C112.515 351.553 112.835 351.38 113.129 351.18V353.42C113.129 353.433 113.042 353.48 112.869 353.56C112.695 353.64 112.462 353.733 112.169 353.84C111.875 353.933 111.529 354.02 111.129 354.1C110.729 354.18 110.302 354.22 109.849 354.22ZM111.329 347.84C111.329 347.613 111.295 347.366 111.229 347.1C111.175 346.82 111.062 346.56 110.889 346.32C110.729 346.08 110.495 345.88 110.189 345.72C109.895 345.56 109.509 345.48 109.029 345.48C108.615 345.48 108.262 345.56 107.969 345.72C107.689 345.88 107.462 346.08 107.289 346.32C107.115 346.56 106.989 346.82 106.909 347.1C106.829 347.366 106.789 347.613 106.789 347.84H111.329ZM119.903 343.46C120.343 343.46 120.816 343.533 121.323 343.68C121.829 343.813 122.303 344.04 122.743 344.36C123.183 344.666 123.543 345.066 123.823 345.56C124.103 346.053 124.236 346.653 124.223 347.36V354H122.263C122.263 354 122.243 353.92 122.203 353.76C122.163 353.6 122.116 353.42 122.063 353.22C122.023 353.02 121.983 352.846 121.943 352.7C121.903 352.54 121.883 352.466 121.883 352.48C121.696 352.813 121.449 353.106 121.143 353.36C120.876 353.586 120.529 353.786 120.103 353.96C119.689 354.133 119.176 354.22 118.563 354.22C118.136 354.22 117.716 354.153 117.303 354.02C116.889 353.9 116.516 353.72 116.183 353.48C115.863 353.226 115.596 352.913 115.383 352.54C115.183 352.166 115.076 351.733 115.063 351.24C115.036 350.72 115.103 350.26 115.263 349.86C115.436 349.446 115.676 349.093 115.983 348.8C116.303 348.506 116.683 348.273 117.123 348.1C117.563 347.913 118.043 347.786 118.563 347.72C119.056 347.653 119.596 347.62 120.183 347.62C120.769 347.62 121.296 347.633 121.763 347.66V347.34C121.763 346.766 121.636 346.34 121.383 346.06C121.129 345.766 120.809 345.58 120.423 345.5C120.049 345.406 119.636 345.393 119.183 345.46C118.729 345.526 118.296 345.626 117.883 345.76C117.469 345.88 117.103 346.013 116.783 346.16C116.476 346.293 116.283 346.393 116.203 346.46V344.44C116.216 344.426 116.336 344.373 116.563 344.28C116.789 344.173 117.076 344.06 117.423 343.94C117.769 343.82 118.156 343.713 118.583 343.62C119.023 343.513 119.463 343.46 119.903 343.46ZM121.183 351.4C121.409 351.106 121.556 350.78 121.623 350.42C121.703 350.06 121.743 349.68 121.743 349.28H120.583C120.276 349.28 119.949 349.3 119.603 349.34C119.256 349.38 118.936 349.46 118.643 349.58C118.349 349.7 118.103 349.88 117.903 350.12C117.703 350.346 117.603 350.66 117.603 351.06C117.603 351.5 117.763 351.82 118.083 352.02C118.416 352.22 118.823 352.32 119.303 352.32C119.716 352.32 120.076 352.24 120.383 352.08C120.703 351.906 120.969 351.68 121.183 351.4ZM130.924 352.14C131.311 352.14 131.671 352.106 132.004 352.04C132.164 352 132.324 351.96 132.484 351.92L132.504 354C132.264 354.04 132.011 354.08 131.744 354.12C131.518 354.146 131.251 354.166 130.944 354.18C130.638 354.206 130.311 354.22 129.964 354.22C129.458 354.166 129.011 354.013 128.624 353.76C128.291 353.533 127.984 353.2 127.704 352.76C127.438 352.306 127.304 351.673 127.304 350.86V345.66H125.344V343.7H127.304L127.324 341.44L129.964 340.78V343.7H132.384V345.66H130.004V350.72C130.004 350.893 130.024 351.066 130.064 351.24C130.118 351.4 130.184 351.546 130.264 351.68C130.358 351.813 130.458 351.926 130.564 352.02C130.684 352.1 130.804 352.14 130.924 352.14ZM138.271 354.2C137.658 354.2 137.131 354.1 136.691 353.9C136.251 353.7 135.884 353.42 135.591 353.06C135.311 352.7 135.104 352.273 134.971 351.78C134.838 351.286 134.771 350.746 134.771 350.16V343.7H137.451V349.26C137.451 350.246 137.584 350.973 137.851 351.44C138.118 351.906 138.578 352.14 139.231 352.14C140.018 352.14 140.598 351.813 140.971 351.16C141.358 350.506 141.551 349.646 141.551 348.58V343.7H144.231V354H142.231L141.691 352.56C141.558 352.706 141.411 352.88 141.251 353.08C141.091 353.266 140.884 353.446 140.631 353.62C140.391 353.78 140.078 353.913 139.691 354.02C139.318 354.14 138.844 354.2 138.271 354.2ZM153.338 346.28C153.031 346.213 152.751 346.18 152.498 346.18C152.258 346.166 152.031 346.166 151.818 346.18C151.391 346.206 151.038 346.3 150.758 346.46C150.491 346.62 150.284 346.833 150.138 347.1C149.991 347.353 149.891 347.646 149.838 347.98C149.784 348.3 149.758 348.633 149.758 348.98V354H147.058V343.8H149.038L149.458 346.04C149.458 346.04 149.471 345.966 149.498 345.82C149.538 345.66 149.604 345.473 149.698 345.26C149.804 345.033 149.951 344.8 150.138 344.56C150.324 344.306 150.558 344.086 150.838 343.9C151.131 343.713 151.478 343.58 151.878 343.5C152.291 343.42 152.778 343.433 153.338 343.54V346.28ZM159.985 354.22C158.879 354.22 157.965 354.073 157.245 353.78C156.525 353.486 155.945 353.093 155.505 352.6C155.079 352.106 154.779 351.54 154.605 350.9C154.432 350.246 154.345 349.56 154.345 348.84C154.345 348.2 154.432 347.56 154.605 346.92C154.779 346.28 155.052 345.706 155.425 345.2C155.812 344.68 156.312 344.26 156.925 343.94C157.539 343.62 158.285 343.46 159.165 343.46C160.099 343.46 160.872 343.62 161.485 343.94C162.112 344.26 162.612 344.68 162.985 345.2C163.359 345.706 163.619 346.28 163.765 346.92C163.925 347.56 164.005 348.2 164.005 348.84V349.74H156.925C156.925 350.46 157.179 351.053 157.685 351.52C158.205 351.986 158.912 352.22 159.805 352.22C160.312 352.22 160.779 352.166 161.205 352.06C161.632 351.953 161.999 351.833 162.305 351.7C162.652 351.553 162.972 351.38 163.265 351.18V353.42C163.265 353.433 163.179 353.48 163.005 353.56C162.832 353.64 162.599 353.733 162.305 353.84C162.012 353.933 161.665 354.02 161.265 354.1C160.865 354.18 160.439 354.22 159.985 354.22ZM161.465 347.84C161.465 347.613 161.432 347.366 161.365 347.1C161.312 346.82 161.199 346.56 161.025 346.32C160.865 346.08 160.632 345.88 160.325 345.72C160.032 345.56 159.645 345.48 159.165 345.48C158.752 345.48 158.399 345.56 158.105 345.72C157.825 345.88 157.599 346.08 157.425 346.32C157.252 346.56 157.125 346.82 157.045 347.1C156.965 347.366 156.925 347.613 156.925 347.84H161.465ZM174.706 354H171.906V340.02H180.146L179.686 342.24H174.706V345.66H179.686V347.88H174.706V354ZM186.874 343.46C187.407 343.46 187.987 343.54 188.614 343.7C189.241 343.86 189.827 344.14 190.374 344.54C190.921 344.94 191.374 345.486 191.734 346.18C192.107 346.873 192.294 347.76 192.294 348.84C192.294 349.92 192.107 350.806 191.734 351.5C191.374 352.193 190.921 352.74 190.374 353.14C189.827 353.54 189.241 353.82 188.614 353.98C187.987 354.14 187.407 354.22 186.874 354.22C186.341 354.22 185.761 354.14 185.134 353.98C184.507 353.82 183.921 353.54 183.374 353.14C182.841 352.74 182.394 352.193 182.034 351.5C181.674 350.806 181.494 349.92 181.494 348.84C181.494 347.76 181.674 346.873 182.034 346.18C182.394 345.486 182.841 344.94 183.374 344.54C183.921 344.14 184.507 343.86 185.134 343.7C185.761 343.54 186.341 343.46 186.874 343.46ZM186.874 352.22C187.621 352.22 188.241 351.926 188.734 351.34C189.241 350.753 189.494 349.92 189.494 348.84C189.494 347.76 189.241 346.933 188.734 346.36C188.241 345.773 187.621 345.48 186.874 345.48C186.154 345.48 185.547 345.773 185.054 346.36C184.561 346.933 184.314 347.76 184.314 348.84C184.314 349.373 184.381 349.853 184.514 350.28C184.647 350.693 184.827 351.046 185.054 351.34C185.281 351.62 185.547 351.84 185.854 352C186.174 352.146 186.514 352.22 186.874 352.22ZM197.9 354.2C197.287 354.2 196.76 354.1 196.32 353.9C195.88 353.7 195.513 353.42 195.22 353.06C194.94 352.7 194.733 352.273 194.6 351.78C194.467 351.286 194.4 350.746 194.4 350.16V343.7H197.08V349.26C197.08 350.246 197.213 350.973 197.48 351.44C197.747 351.906 198.207 352.14 198.86 352.14C199.647 352.14 200.227 351.813 200.6 351.16C200.987 350.506 201.18 349.646 201.18 348.58V343.7H203.86V354H201.86L201.32 352.56C201.187 352.706 201.04 352.88 200.88 353.08C200.72 353.266 200.513 353.446 200.26 353.62C200.02 353.78 199.707 353.913 199.32 354.02C198.947 354.14 198.473 354.2 197.9 354.2ZM212.967 346.28C212.66 346.213 212.38 346.18 212.127 346.18C211.887 346.166 211.66 346.166 211.447 346.18C211.02 346.206 210.667 346.3 210.387 346.46C210.12 346.62 209.913 346.833 209.767 347.1C209.62 347.353 209.52 347.646 209.467 347.98C209.413 348.3 209.387 348.633 209.387 348.98V354H206.687V343.8H208.667L209.087 346.04C209.087 346.04 209.1 345.966 209.127 345.82C209.167 345.66 209.233 345.473 209.327 345.26C209.433 345.033 209.58 344.8 209.767 344.56C209.953 344.306 210.187 344.086 210.467 343.9C210.76 343.713 211.107 343.58 211.507 343.5C211.92 343.42 212.407 343.433 212.967 343.54V346.28Z" fill="white"/>
<path d="M114 183.24C112.8 182.387 111.587 181.707 110.36 181.2C109.16 180.693 108.067 180.44 107.08 180.44C106.147 180.44 105.387 180.613 104.8 180.96C104.24 181.307 103.96 181.853 103.96 182.6C103.96 183 104.08 183.36 104.32 183.68C104.56 183.973 104.88 184.24 105.28 184.48C105.707 184.72 106.187 184.947 106.72 185.16C107.253 185.373 107.827 185.573 108.44 185.76C109.427 186.107 110.427 186.48 111.44 186.88C112.48 187.28 113.4 187.813 114.2 188.48C115.027 189.147 115.693 189.987 116.2 191C116.733 192.013 117 193.293 117 194.84C117 196.333 116.72 197.627 116.16 198.72C115.6 199.787 114.84 200.68 113.88 201.4C112.947 202.093 111.867 202.613 110.64 202.96C109.44 203.28 108.2 203.44 106.92 203.44C105.053 203.44 103.187 203.053 101.32 202.28C99.48 201.48 97.84 200.32 96.4 198.8L98.88 193.4C100.187 194.733 101.56 195.773 103 196.52C104.467 197.267 105.827 197.64 107.08 197.64C108.093 197.64 108.933 197.453 109.6 197.08C110.267 196.68 110.613 196.067 110.64 195.24C110.64 194.76 110.507 194.347 110.24 194C110 193.627 109.667 193.307 109.24 193.04C108.813 192.747 108.307 192.507 107.72 192.32C107.16 192.107 106.573 191.893 105.96 191.68C104.973 191.36 103.987 191 103 190.6C102.013 190.2 101.12 189.68 100.32 189.04C99.5467 188.4 98.9067 187.6 98.4 186.64C97.92 185.653 97.68 184.413 97.68 182.92C97.68 181.453 97.9467 180.2 98.48 179.16C99.0133 178.093 99.72 177.227 100.6 176.56C101.507 175.893 102.533 175.4 103.68 175.08C104.853 174.76 106.053 174.6 107.28 174.6C108.853 174.6 110.413 174.893 111.96 175.48C113.533 176.04 114.987 176.813 116.32 177.8L114 183.24ZM128.239 197.72H140.959V203H120.839L120.759 175.04H140.519L139.599 180.32H128.239V186.08H140.039V191.4H128.239V197.72ZM168.891 203H161.371L158.411 193.96C158.251 193.587 158.064 193.253 157.851 192.96C157.637 192.72 157.384 192.493 157.091 192.28C156.824 192.067 156.464 191.96 156.011 191.96H152.731V203H145.291V175.04H155.131C156.571 175.04 158.024 175.08 159.491 175.16C160.984 175.24 162.331 175.507 163.531 175.96C164.731 176.387 165.704 177.08 166.451 178.04C167.224 179 167.611 180.36 167.611 182.12C167.611 183.88 167.304 185.24 166.691 186.2C166.104 187.16 165.437 187.867 164.691 188.32C163.971 188.747 163.304 189 162.691 189.08C162.104 189.16 161.811 189.2 161.811 189.2C162.477 189.2 163.037 189.36 163.491 189.68C163.944 189.973 164.304 190.307 164.571 190.68C164.864 191.053 165.064 191.4 165.171 191.72C165.277 192.013 165.331 192.16 165.331 192.16L168.891 203ZM155.011 186.68C155.651 186.68 156.277 186.667 156.891 186.64C157.504 186.587 158.051 186.453 158.531 186.24C159.011 186.027 159.397 185.707 159.691 185.28C159.984 184.827 160.131 184.213 160.131 183.44C160.131 182.667 159.997 182.067 159.731 181.64C159.464 181.213 159.104 180.907 158.651 180.72C158.197 180.533 157.651 180.427 157.011 180.4C156.397 180.373 155.731 180.36 155.011 180.36H152.731V186.68H155.011ZM180.09 175.04V203H172.53V175.04H180.09ZM192.927 197.72H205.647V203H185.527L185.447 175.04H205.207L204.287 180.32H192.927V186.08H204.727V191.4H192.927V197.72ZM226.578 183.24C225.378 182.387 224.165 181.707 222.938 181.2C221.738 180.693 220.645 180.44 219.658 180.44C218.725 180.44 217.965 180.613 217.378 180.96C216.818 181.307 216.538 181.853 216.538 182.6C216.538 183 216.658 183.36 216.898 183.68C217.138 183.973 217.458 184.24 217.858 184.48C218.285 184.72 218.765 184.947 219.298 185.16C219.831 185.373 220.405 185.573 221.018 185.76C222.005 186.107 223.005 186.48 224.018 186.88C225.058 187.28 225.978 187.813 226.778 188.48C227.605 189.147 228.271 189.987 228.778 191C229.311 192.013 229.578 193.293 229.578 194.84C229.578 196.333 229.298 197.627 228.738 198.72C228.178 199.787 227.418 200.68 226.458 201.4C225.525 202.093 224.445 202.613 223.218 202.96C222.018 203.28 220.778 203.44 219.498 203.44C217.631 203.44 215.765 203.053 213.898 202.28C212.058 201.48 210.418 200.32 208.978 198.8L211.458 193.4C212.765 194.733 214.138 195.773 215.578 196.52C217.045 197.267 218.405 197.64 219.658 197.64C220.671 197.64 221.511 197.453 222.178 197.08C222.845 196.68 223.191 196.067 223.218 195.24C223.218 194.76 223.085 194.347 222.818 194C222.578 193.627 222.245 193.307 221.818 193.04C221.391 192.747 220.885 192.507 220.298 192.32C219.738 192.107 219.151 191.893 218.538 191.68C217.551 191.36 216.565 191 215.578 190.6C214.591 190.2 213.698 189.68 212.898 189.04C212.125 188.4 211.485 187.6 210.978 186.64C210.498 185.653 210.258 184.413 210.258 182.92C210.258 181.453 210.525 180.2 211.058 179.16C211.591 178.093 212.298 177.227 213.178 176.56C214.085 175.893 215.111 175.4 216.258 175.08C217.431 174.76 218.631 174.6 219.858 174.6C221.431 174.6 222.991 174.893 224.538 175.48C226.111 176.04 227.565 176.813 228.898 177.8L226.578 183.24ZM263.725 197.04H253.125L250.725 203H243.445L253.645 175.04H263.205L273.925 203H266.125L263.725 197.04ZM261.885 191.8C261.885 191.8 261.832 191.613 261.725 191.24C261.618 190.84 261.472 190.333 261.285 189.72C261.098 189.08 260.872 188.36 260.605 187.56C260.365 186.76 260.112 185.96 259.845 185.16C259.605 184.333 259.352 183.547 259.085 182.8C258.845 182.027 258.632 181.373 258.445 180.84C257.725 182.893 257.085 184.72 256.525 186.32C256.285 187.013 256.045 187.693 255.805 188.36C255.592 189 255.392 189.573 255.205 190.08C255.018 190.587 254.872 191 254.765 191.32C254.685 191.64 254.645 191.8 254.645 191.8H261.885Z" fill="white"/>
<path d="M218.438 603H219.611L220.884 595.364H219.71L218.438 603ZM220.655 594.071C221.112 594.071 221.49 593.713 221.49 593.276C221.49 592.838 221.112 592.48 220.655 592.48C220.197 592.48 219.82 592.838 219.82 593.276C219.82 593.713 220.197 594.071 220.655 594.071ZM226.354 595.364H224.718L225.021 593.534H223.848L223.545 595.364H222.396L222.237 596.358H223.381L222.595 601.131C222.376 602.463 223.331 603.099 224.325 603.099C224.763 603.099 225.061 603.02 225.24 602.96L225.16 601.906C225.061 601.926 224.902 601.966 224.643 601.966C224.126 601.966 223.649 601.807 223.808 600.812L224.549 596.358H226.194L226.354 595.364ZM235.377 595.364H233.741L234.045 593.534H232.871L232.568 595.364H231.42L231.26 596.358H232.404L231.618 601.131C231.4 602.463 232.354 603.099 233.349 603.099C233.786 603.099 234.084 603.02 234.263 602.96L234.184 601.906C234.084 601.926 233.925 601.966 233.667 601.966C233.15 601.966 232.672 601.807 232.831 600.812L233.572 596.358H235.218L235.377 595.364ZM238.096 603.179C239.429 603.179 240.244 602.463 240.562 601.966H240.622L240.443 603H241.616L242.452 597.969C242.849 595.543 241.059 595.264 240.085 595.264C238.932 595.264 237.54 595.662 236.724 597.054L237.758 597.452C238.116 596.895 238.872 596.298 239.986 596.298C241.059 596.298 241.457 596.875 241.298 597.849V597.889C241.199 598.446 240.622 598.406 239.21 598.585C237.758 598.764 236.167 599.082 235.869 600.832C235.631 602.324 236.645 603.179 238.096 603.179ZM238.434 602.125C237.5 602.125 236.903 601.707 237.042 600.892C237.182 599.997 238.057 599.719 238.991 599.599C239.488 599.54 240.841 599.401 241.079 599.162L240.9 600.236C240.741 601.19 239.827 602.125 238.434 602.125ZM243.758 603H244.931L245.408 600.136L246.358 599.376L248.61 603H250.102L247.362 598.635L251.136 595.364H249.684L245.766 598.764H245.632L246.621 592.818H245.448L243.758 603ZM254.24 603.159C255.797 603.159 257.049 602.384 257.601 601.23L256.527 600.912C256.095 601.707 255.359 602.105 254.419 602.105C252.948 602.105 252.162 601.449 252.446 599.58H257.999L258.078 599.082C258.561 596.239 257.029 595.264 255.434 595.264C253.37 595.264 251.72 596.895 251.337 599.241C250.944 601.588 252.038 603.159 254.24 603.159ZM252.61 598.565C252.843 597.482 253.972 596.318 255.255 596.318C256.532 596.318 257.189 597.273 256.965 598.565H252.61ZM265.638 597.074C265.439 595.98 264.743 595.264 263.232 595.264C261.621 595.264 260.268 596.179 260.05 597.472C259.871 598.526 260.388 599.222 261.74 599.56L262.953 599.858C263.709 600.037 264.007 600.395 263.908 600.932C263.808 601.588 263.013 602.125 261.919 602.125C260.964 602.125 260.428 601.707 260.368 600.892L259.195 601.17C259.254 602.463 260.209 603.159 261.78 603.159C263.55 603.159 264.922 602.185 265.141 600.872C265.32 599.798 264.763 599.142 263.45 598.804L262.357 598.526C261.501 598.307 261.143 597.989 261.243 597.412C261.342 596.756 262.118 596.278 263.053 596.278C264.087 596.278 264.405 596.835 264.524 597.372L265.638 597.074ZM270.486 603H271.66L272.455 598.227C272.634 597.114 273.589 596.318 274.503 596.318C275.398 596.318 275.915 596.895 275.776 597.77L274.901 603H276.094L276.93 598.028C277.089 597.034 277.824 596.318 278.898 596.318C279.733 596.318 280.37 596.756 280.191 597.889L279.336 603H280.509L281.364 597.889C281.662 596.099 280.827 595.264 279.475 595.264C278.381 595.264 277.486 595.761 276.969 596.557H276.89C276.651 595.741 276.055 595.264 275.06 595.264C274.066 595.264 273.251 595.741 272.793 596.557H272.694L272.893 595.364H271.759L270.486 603ZM285.816 603.159C287.845 603.159 289.455 601.628 289.833 599.301C290.226 596.875 289.078 595.264 286.97 595.264C284.941 595.264 283.33 596.795 282.953 599.142C282.565 601.548 283.708 603.159 285.816 603.159ZM285.836 602.105C284.305 602.105 283.847 600.793 284.086 599.301C284.34 597.73 285.339 596.318 286.95 596.318C288.481 596.318 288.938 597.651 288.7 599.142C288.446 600.718 287.447 602.105 285.836 602.105ZM291.008 603H292.181L292.977 598.168C293.156 597.134 294.09 596.378 295.204 596.378C295.522 596.378 295.84 596.438 295.92 596.457L296.119 595.264C295.979 595.244 295.681 595.244 295.502 595.244C294.587 595.244 293.692 595.761 293.295 596.517H293.215L293.414 595.364H292.281L291.008 603ZM299.194 603.159C300.75 603.159 302.002 602.384 302.554 601.23L301.48 600.912C301.048 601.707 300.312 602.105 299.373 602.105C297.901 602.105 297.115 601.449 297.399 599.58H302.952L303.032 599.082C303.514 596.239 301.983 595.264 300.387 595.264C298.324 595.264 296.673 596.895 296.29 599.241C295.897 601.588 296.991 603.159 299.194 603.159ZM297.563 598.565C297.797 597.482 298.925 596.318 300.208 596.318C301.485 596.318 302.142 597.273 301.918 598.565H297.563ZM312.719 595.364H311.083L311.386 593.534H310.213L309.91 595.364H308.761L308.602 596.358H309.746L308.96 601.131C308.741 602.463 309.696 603.099 310.69 603.099C311.128 603.099 311.426 603.02 311.605 602.96L311.526 601.906C311.426 601.926 311.267 601.966 311.009 601.966C310.491 601.966 310.014 601.807 310.173 600.812L310.914 596.358H312.56L312.719 595.364ZM315.304 598.406C315.543 597.074 316.517 596.318 317.67 596.318C318.764 596.318 319.321 597.014 319.122 598.227L318.327 603H319.5L320.315 598.148C320.634 596.179 319.739 595.264 318.188 595.264C316.974 595.264 316.199 595.761 315.722 596.557H315.622L316.239 592.818H315.065L313.375 603H314.548L315.304 598.406ZM323.874 603.179C325.206 603.179 326.021 602.463 326.34 601.966H326.399L326.22 603H327.394L328.229 597.969C328.627 595.543 326.837 595.264 325.862 595.264C324.709 595.264 323.317 595.662 322.502 597.054L323.536 597.452C323.894 596.895 324.649 596.298 325.763 596.298C326.837 596.298 327.235 596.875 327.075 597.849V597.889C326.976 598.446 326.399 598.406 324.987 598.585C323.536 598.764 321.945 599.082 321.646 600.832C321.408 602.324 322.422 603.179 323.874 603.179ZM324.212 602.125C323.277 602.125 322.681 601.707 322.82 600.892C322.959 599.997 323.834 599.719 324.769 599.599C325.266 599.54 326.618 599.401 326.857 599.162L326.678 600.236C326.519 601.19 325.604 602.125 324.212 602.125ZM331.464 598.406C331.703 597.074 332.637 596.318 333.771 596.318C334.865 596.318 335.402 597.034 335.203 598.227L334.407 603H335.581L336.396 598.148C336.714 596.199 335.819 595.264 334.288 595.264C333.135 595.264 332.319 595.781 331.842 596.557H331.743L331.941 595.364H330.808L329.535 603H330.708L331.464 598.406ZM344.824 603.159C346.852 603.159 348.463 601.628 348.841 599.301C349.234 596.875 348.085 595.264 345.977 595.264C343.949 595.264 342.338 596.795 341.96 599.142C341.573 601.548 342.716 603.159 344.824 603.159ZM344.844 602.105C343.313 602.105 342.855 600.793 343.094 599.301C343.347 597.73 344.347 596.318 345.958 596.318C347.489 596.318 347.946 597.651 347.708 599.142C347.454 600.718 346.455 602.105 344.844 602.105ZM351.945 598.406C352.183 597.074 353.118 596.318 354.251 596.318C355.345 596.318 355.882 597.034 355.683 598.227L354.888 603H356.061L356.876 598.148C357.195 596.199 356.3 595.264 354.768 595.264C353.615 595.264 352.8 595.781 352.322 596.557H352.223L352.422 595.364H351.288L350.016 603H351.189L351.945 598.406ZM361.387 603.159C362.943 603.159 364.196 602.384 364.748 601.23L363.674 600.912C363.241 601.707 362.506 602.105 361.566 602.105C360.094 602.105 359.309 601.449 359.592 599.58H365.145L365.225 599.082C365.707 596.239 364.176 595.264 362.58 595.264C360.517 595.264 358.866 596.895 358.483 599.241C358.091 601.588 359.184 603.159 361.387 603.159ZM359.756 598.565C359.99 597.482 361.118 596.318 362.401 596.318C363.679 596.318 364.335 597.273 364.111 598.565H359.756ZM369.841 605.864H371.014L371.691 601.827H371.79C371.989 602.244 372.327 603.159 373.798 603.159C375.708 603.159 377.298 601.628 377.696 599.202C378.094 596.795 377.02 595.264 375.091 595.264C373.6 595.264 372.983 596.179 372.665 596.577H372.526L372.725 595.364H371.591L369.841 605.864ZM372.108 599.182C372.387 597.472 373.341 596.318 374.773 596.318C376.264 596.318 376.781 597.571 376.523 599.182C376.244 600.812 375.29 602.105 373.818 602.105C372.406 602.105 371.83 600.912 372.108 599.182ZM381.077 603.179C382.409 603.179 383.225 602.463 383.543 601.966H383.602L383.423 603H384.597L385.432 597.969C385.83 595.543 384.04 595.264 383.066 595.264C381.912 595.264 380.52 595.662 379.705 597.054L380.739 597.452C381.097 596.895 381.852 596.298 382.966 596.298C384.04 596.298 384.438 596.875 384.279 597.849V597.889C384.179 598.446 383.602 598.406 382.191 598.585C380.739 598.764 379.148 599.082 378.85 600.832C378.611 602.324 379.625 603.179 381.077 603.179ZM381.415 602.125C380.48 602.125 379.884 601.707 380.023 600.892C380.162 599.997 381.037 599.719 381.972 599.599C382.469 599.54 383.821 599.401 384.06 599.162L383.881 600.236C383.722 601.19 382.807 602.125 381.415 602.125ZM391.332 595.364H389.696L390 593.534H388.826L388.523 595.364H387.375L387.216 596.358H388.359L387.574 601.131C387.355 602.463 388.309 603.099 389.304 603.099C389.741 603.099 390.039 603.02 390.218 602.96L390.139 601.906C390.039 601.926 389.88 601.966 389.622 601.966C389.105 601.966 388.627 601.807 388.787 600.812L389.527 596.358H391.173L391.332 595.364ZM393.917 598.406C394.156 597.074 395.13 596.318 396.284 596.318C397.377 596.318 397.934 597.014 397.735 598.227L396.94 603H398.113L398.929 598.148C399.247 596.179 398.352 595.264 396.801 595.264C395.588 595.264 394.812 595.761 394.335 596.557H394.235L394.852 592.818H393.679L391.988 603H393.162L393.917 598.406ZM408.791 595.364H407.155L407.459 593.534H406.285L405.982 595.364H404.834L404.675 596.358H405.818L405.032 601.131C404.814 602.463 405.768 603.099 406.763 603.099C407.2 603.099 407.498 603.02 407.677 602.96L407.598 601.906C407.498 601.926 407.339 601.966 407.081 601.966C406.564 601.966 406.086 601.807 406.246 600.812L406.986 596.358H408.632L408.791 595.364ZM412.363 603.159C414.392 603.159 416.002 601.628 416.38 599.301C416.773 596.875 415.624 595.264 413.517 595.264C411.488 595.264 409.877 596.795 409.499 599.142C409.112 601.548 410.255 603.159 412.363 603.159ZM412.383 602.105C410.852 602.105 410.394 600.793 410.633 599.301C410.887 597.73 411.886 596.318 413.497 596.318C415.028 596.318 415.485 597.651 415.247 599.142C414.993 600.718 413.994 602.105 412.383 602.105ZM424.097 606.023C425.917 606.023 427.528 605.188 427.856 603.219L429.148 595.364H428.015L427.816 596.577H427.697C427.508 596.179 427.18 595.264 425.688 595.264C423.759 595.264 422.173 596.795 421.79 599.142C421.393 601.528 422.561 602.881 424.415 602.881C425.902 602.881 426.523 602.006 426.842 601.588H426.941L426.702 603.139C426.484 604.412 425.46 604.989 424.237 604.989C422.835 604.989 422.506 604.258 422.268 603.835L421.214 604.491C421.567 605.292 422.382 606.023 424.097 606.023ZM424.714 601.827C423.232 601.827 422.7 600.713 422.964 599.122C423.222 597.571 424.107 596.318 425.609 596.318C427.031 596.318 427.652 597.472 427.379 599.122C427.1 600.812 426.116 601.827 424.714 601.827ZM433.205 603.159C434.761 603.159 436.014 602.384 436.566 601.23L435.492 600.912C435.06 601.707 434.324 602.105 433.384 602.105C431.913 602.105 431.127 601.449 431.411 599.58H436.964L437.043 599.082C437.526 596.239 435.994 595.264 434.398 595.264C432.335 595.264 430.685 596.895 430.302 599.241C429.909 601.588 431.003 603.159 433.205 603.159ZM431.575 598.565C431.808 597.482 432.937 596.318 434.219 596.318C435.497 596.318 436.153 597.273 435.93 598.565H431.575ZM442.793 595.364H441.157L441.461 593.534H440.287L439.984 595.364H438.836L438.676 596.358H439.82L439.034 601.131C438.816 602.463 439.77 603.099 440.765 603.099C441.202 603.099 441.5 603.02 441.679 602.96L441.6 601.906C441.5 601.926 441.341 601.966 441.083 601.966C440.566 601.966 440.088 601.807 440.248 600.812L440.988 596.358H442.634L442.793 595.364ZM451.816 595.364H450.181L450.484 593.534H449.311L449.007 595.364H447.859L447.7 596.358H448.843L448.058 601.131C447.839 602.463 448.794 603.099 449.788 603.099C450.225 603.099 450.524 603.02 450.703 602.96L450.623 601.906C450.524 601.926 450.365 601.966 450.106 601.966C449.589 601.966 449.112 601.807 449.271 600.812L450.012 596.358H451.657L451.816 595.364ZM455.388 603.159C457.417 603.159 459.028 601.628 459.406 599.301C459.798 596.875 458.65 595.264 456.542 595.264C454.513 595.264 452.903 596.795 452.525 599.142C452.137 601.548 453.281 603.159 455.388 603.159ZM455.408 602.105C453.877 602.105 453.42 600.793 453.658 599.301C453.912 597.73 454.911 596.318 456.522 596.318C458.053 596.318 458.511 597.651 458.272 599.142C458.018 600.718 457.019 602.105 455.408 602.105ZM469.39 592.679C467.361 592.654 465.83 594.151 465.512 596C465.174 598.009 466.427 599.46 468.216 599.46C469.251 599.46 470.185 598.983 470.881 598.148L470.961 598.068C470.523 600.673 469.251 602.045 467.68 602.045C466.586 602.045 466.089 601.389 466.049 600.435H464.876C464.856 602.045 465.949 603.139 467.64 603.139C469.907 603.139 471.597 601.151 472.194 597.571C472.83 593.773 471.1 592.699 469.39 592.679ZM469.35 593.773C470.603 593.773 471.319 594.807 471.12 595.98C470.921 597.233 469.708 598.366 468.415 598.366C467.202 598.366 466.486 597.372 466.685 596.159C466.904 594.827 468.077 593.773 469.35 593.773ZM477.191 603H478.365L479.16 598.227C479.339 597.114 480.294 596.318 481.208 596.318C482.103 596.318 482.62 596.895 482.481 597.77L481.606 603H482.799L483.635 598.028C483.794 597.034 484.529 596.318 485.603 596.318C486.439 596.318 487.075 596.756 486.896 597.889L486.041 603H487.214L488.069 597.889C488.368 596.099 487.532 595.264 486.18 595.264C485.086 595.264 484.191 595.761 483.674 596.557H483.595C483.356 595.741 482.76 595.264 481.765 595.264C480.771 595.264 479.956 595.741 479.498 596.557H479.399L479.598 595.364H478.464L477.191 603ZM489.359 603H490.533L491.805 595.364H490.632L489.359 603ZM491.577 594.071C492.034 594.071 492.412 593.713 492.412 593.276C492.412 592.838 492.034 592.48 491.577 592.48C491.119 592.48 490.741 592.838 490.741 593.276C490.741 593.713 491.119 594.071 491.577 594.071ZM495.545 592.818H494.372L492.682 603H493.855L495.545 592.818ZM498.868 592.818H497.694L496.004 603H497.177L498.868 592.818ZM499.326 603H500.499L501.772 595.364H500.599L499.326 603ZM501.544 594.071C502.001 594.071 502.379 593.713 502.379 593.276C502.379 592.838 502.001 592.48 501.544 592.48C501.086 592.48 500.708 592.838 500.708 593.276C500.708 593.713 501.086 594.071 501.544 594.071ZM505.81 603.159C507.839 603.159 509.45 601.628 509.827 599.301C510.22 596.875 509.072 595.264 506.964 595.264C504.935 595.264 503.325 596.795 502.947 599.142C502.559 601.548 503.702 603.159 505.81 603.159ZM505.83 602.105C504.299 602.105 503.842 600.793 504.08 599.301C504.334 597.73 505.333 596.318 506.944 596.318C508.475 596.318 508.933 597.651 508.694 599.142C508.44 600.718 507.441 602.105 505.83 602.105ZM512.931 598.406C513.17 597.074 514.104 596.318 515.238 596.318C516.331 596.318 516.868 597.034 516.67 598.227L515.874 603H517.047L517.863 598.148C518.181 596.199 517.286 595.264 515.755 595.264C514.601 595.264 513.786 595.781 513.309 596.557H513.209L513.408 595.364H512.275L511.002 603H512.175L512.931 598.406Z" fill="#190B28"/>
<path d="M142.938 27.1211C143.879 27.1211 144.52 26.6797 144.855 26.1758H144.902L144.762 27H146.121L146.789 22.9844C147.055 21.3984 145.84 20.9219 144.699 20.9219C143.438 20.9219 142.363 21.4844 141.879 22.5781L143.16 22.7656C143.371 22.3516 143.852 22.0039 144.539 22.0039C145.195 22.0039 145.477 22.3437 145.383 22.9297V22.9531C145.313 23.3516 144.879 23.3789 143.805 23.4922C142.621 23.6172 141.453 23.9648 141.227 25.3164C141.031 26.4922 141.797 27.1211 142.938 27.1211ZM143.473 26.082C142.883 26.082 142.512 25.8086 142.598 25.293C142.68 24.7461 143.199 24.5234 143.848 24.4336C144.219 24.3828 144.98 24.2891 145.188 24.1406L145.07 24.8477C144.961 25.5156 144.32 26.082 143.473 26.082ZM155.744 22.5859C155.717 21.5664 154.998 20.9219 153.568 20.9219C152.146 20.9219 151.068 21.6055 150.885 22.6953C150.732 23.5898 151.201 24.1836 152.314 24.4297L153.299 24.6445C153.838 24.7656 154.033 24.9609 153.979 25.2812C153.916 25.7109 153.385 26.0547 152.686 26.0508C152.068 26.0469 151.705 25.7734 151.674 25.2305L150.283 25.3633C150.279 26.4609 151.111 27.1172 152.607 27.1172C154.084 27.1172 155.248 26.3633 155.436 25.2539C155.58 24.3711 155.096 23.832 154.002 23.5859L153.01 23.3672C152.432 23.2266 152.24 23.0352 152.299 22.7148C152.361 22.2852 152.889 21.9766 153.502 21.9766C154.135 21.9766 154.4 22.3242 154.443 22.7266L155.744 22.5859ZM158.949 27.1172C160.684 27.1172 161.988 25.8984 162.293 24.0625C162.598 22.1797 161.676 20.9219 159.902 20.9219C158.164 20.9219 156.859 22.1445 156.559 23.9883C156.254 25.8594 157.172 27.1172 158.949 27.1172ZM159.063 25.9844C158.113 25.9844 157.801 25.1367 157.977 24.0547C158.156 22.9375 158.805 22.043 159.789 22.043C160.734 22.043 161.051 22.9023 160.875 23.9805C160.695 25.1016 160.047 25.9844 159.063 25.9844ZM167.044 21H165.79L165.868 20.5273C165.954 20.0586 166.188 19.7969 166.716 19.7969C166.938 19.7969 167.11 19.8477 167.228 19.8828L167.688 18.7891C167.521 18.7266 167.138 18.625 166.646 18.625C165.606 18.625 164.665 19.2227 164.478 20.4336L164.384 21H163.497L163.313 22.0937H164.2L163.38 27H164.794L165.606 22.0937H166.86L167.044 21ZM171.154 21H169.967L170.205 19.5625H168.791L168.553 21H167.705L167.525 22.0937H168.373L167.822 25.4297C167.627 26.5547 168.346 27.1094 169.42 27.082C169.818 27.0703 170.111 26.9922 170.283 26.9414L170.221 25.8359C170.135 25.8516 169.971 25.8906 169.799 25.8906C169.443 25.8906 169.178 25.7656 169.268 25.1953L169.783 22.0937H170.971L171.154 21ZM172.575 27H174.052L175.849 22.9453H175.931L176.384 27H177.856L180.556 21H179.11L177.368 25.1953H177.31L176.935 21H175.509L173.728 25.2187H173.673L173.321 21H171.88L172.575 27ZM182.254 27.1211C183.195 27.1211 183.836 26.6797 184.172 26.1758H184.219L184.078 27H185.438L186.105 22.9844C186.371 21.3984 185.156 20.9219 184.016 20.9219C182.754 20.9219 181.68 21.4844 181.195 22.5781L182.477 22.7656C182.688 22.3516 183.168 22.0039 183.855 22.0039C184.512 22.0039 184.793 22.3437 184.699 22.9297V22.9531C184.629 23.3516 184.195 23.3789 183.121 23.4922C181.937 23.6172 180.77 23.9648 180.543 25.3164C180.348 26.4922 181.113 27.1211 182.254 27.1211ZM182.789 26.082C182.199 26.082 181.828 25.8086 181.914 25.293C181.996 24.7461 182.516 24.5234 183.164 24.4336C183.535 24.3828 184.297 24.2891 184.504 24.1406L184.387 24.8477C184.277 25.5156 183.637 26.082 182.789 26.082ZM186.859 27H188.273L188.855 23.4727C188.988 22.7109 189.648 22.1719 190.422 22.1719C190.668 22.1719 190.953 22.2109 191.074 22.2539L191.293 20.9531C191.156 20.9258 190.949 20.9141 190.789 20.9141C190.102 20.9141 189.453 21.3047 189.125 22H189.063L189.23 21H187.859L186.859 27ZM193.625 27.1172C195.027 27.1172 196.094 26.4336 196.523 25.3906L195.23 25.2422C194.949 25.7539 194.449 26.0156 193.828 26.0156C192.875 26.0156 192.387 25.5312 192.562 24.4062L192.566 24.3867H196.75L196.816 23.9531C197.168 21.8516 196.059 20.9219 194.582 20.9219C192.867 20.9219 191.531 22.1836 191.227 24.0352C190.91 25.9141 191.82 27.1172 193.625 27.1172ZM192.734 23.4336C192.895 22.7148 193.609 22.0234 194.422 22.0234C195.238 22.0234 195.68 22.6172 195.543 23.4336H192.734ZM202.885 27.1172C204.287 27.1172 205.354 26.4336 205.783 25.3906L204.49 25.2422C204.209 25.7539 203.709 26.0156 203.088 26.0156C202.135 26.0156 201.646 25.5312 201.822 24.4062L201.826 24.3867H206.01L206.076 23.9531C206.428 21.8516 205.318 20.9219 203.842 20.9219C202.127 20.9219 200.791 22.1836 200.486 24.0352C200.17 25.9141 201.08 27.1172 202.885 27.1172ZM201.994 23.4336C202.154 22.7148 202.869 22.0234 203.682 22.0234C204.498 22.0234 204.939 22.6172 204.803 23.4336H201.994ZM208.775 23.4844C208.928 22.6172 209.533 22.1172 210.275 22.1172C211.014 22.1172 211.365 22.6016 211.232 23.3984L210.635 27H212.049L212.689 23.1797C212.928 21.7383 212.236 20.9219 211.01 20.9219C210.111 20.9219 209.412 21.3477 209.037 22.0195H208.963L209.135 21H207.779L206.779 27H208.197L208.775 23.4844ZM215.713 29.375C217.326 29.375 218.646 28.6367 218.896 27.0977L219.904 21H218.51L218.346 21.9922H218.271C218.127 21.5586 217.783 20.9219 216.725 20.9219C215.338 20.9219 214.068 22.0078 213.744 23.9805C213.416 25.9375 214.342 26.9141 215.729 26.9141C216.756 26.9141 217.33 26.3633 217.611 25.9219H217.682L217.502 27.0586C217.361 27.9414 216.697 28.3047 215.896 28.3047C215.033 28.3047 214.748 27.9063 214.631 27.5508L213.303 27.8594C213.432 28.6992 214.178 29.375 215.713 29.375ZM216.291 25.8047C215.354 25.8047 215.002 25.0781 215.182 23.9727C215.361 22.8828 215.955 22.082 216.9 22.082C217.807 22.082 218.205 22.8359 218.021 23.9727C217.834 25.1172 217.189 25.8047 216.291 25.8047ZM220.354 27H221.768L222.768 21H221.354L220.354 27ZM222.268 20.1406C222.717 20.1406 223.115 19.7969 223.146 19.375C223.182 18.9492 222.846 18.6055 222.396 18.6055C221.943 18.6055 221.549 18.9492 221.51 19.375C221.475 19.7969 221.818 20.1406 222.268 20.1406ZM225.222 23.4844C225.374 22.6172 225.979 22.1172 226.722 22.1172C227.46 22.1172 227.812 22.6016 227.679 23.3984L227.081 27H228.495L229.136 23.1797C229.374 21.7383 228.683 20.9219 227.456 20.9219C226.558 20.9219 225.858 21.3477 225.483 22.0195H225.409L225.581 21H224.226L223.226 27H224.644L225.222 23.4844ZM232.565 27.1172C233.968 27.1172 235.034 26.4336 235.464 25.3906L234.171 25.2422C233.89 25.7539 233.39 26.0156 232.769 26.0156C231.815 26.0156 231.327 25.5312 231.503 24.4062L231.507 24.3867H235.69L235.757 23.9531C236.108 21.8516 234.999 20.9219 233.522 20.9219C231.808 20.9219 230.472 22.1836 230.167 24.0352C229.851 25.9141 230.761 27.1172 232.565 27.1172ZM231.675 23.4336C231.835 22.7148 232.55 22.0234 233.362 22.0234C234.179 22.0234 234.62 22.6172 234.483 23.4336H231.675ZM239.097 27.1172C240.499 27.1172 241.565 26.4336 241.995 25.3906L240.702 25.2422C240.421 25.7539 239.921 26.0156 239.3 26.0156C238.347 26.0156 237.858 25.5312 238.034 24.4062L238.038 24.3867H242.222L242.288 23.9531C242.64 21.8516 241.53 20.9219 240.054 20.9219C238.339 20.9219 237.003 22.1836 236.698 24.0352C236.382 25.9141 237.292 27.1172 239.097 27.1172ZM238.206 23.4336C238.366 22.7148 239.081 22.0234 239.894 22.0234C240.71 22.0234 241.151 22.6172 241.015 23.4336H238.206ZM242.987 27H244.401L244.983 23.4727C245.116 22.7109 245.776 22.1719 246.55 22.1719C246.796 22.1719 247.081 22.2109 247.202 22.2539L247.421 20.9531C247.284 20.9258 247.077 20.9141 246.917 20.9141C246.229 20.9141 245.581 21.3047 245.253 22H245.19L245.358 21H243.987L242.987 27ZM252.729 27.1172C254.131 27.1172 255.197 26.4336 255.627 25.3906L254.334 25.2422C254.053 25.7539 253.553 26.0156 252.932 26.0156C251.979 26.0156 251.49 25.5312 251.666 24.4062L251.67 24.3867H255.854L255.92 23.9531C256.271 21.8516 255.162 20.9219 253.686 20.9219C251.971 20.9219 250.635 22.1836 250.33 24.0352C250.014 25.9141 250.924 27.1172 252.729 27.1172ZM251.838 23.4336C251.998 22.7148 252.713 22.0234 253.525 22.0234C254.342 22.0234 254.783 22.6172 254.646 23.4336H251.838ZM258.657 21H257.157L258.438 24L256.11 27H257.61L259.228 24.8398L260.138 27H261.626L260.286 24L262.595 21H261.099L259.501 23.2148L258.657 21ZM262.313 29.25H263.728L264.259 26.0547H264.325C264.474 26.4922 264.833 27.1055 265.864 27.1055C267.278 27.1055 268.528 25.9844 268.853 24.0078C269.185 22.0078 268.278 20.9219 266.892 20.9219C265.833 20.9219 265.282 21.5586 265.001 21.9922H264.915L265.079 21H263.688L262.313 29.25ZM264.575 24C264.763 22.8359 265.392 22.082 266.306 22.082C267.247 22.082 267.591 22.8828 267.411 24C267.22 25.125 266.599 25.9453 265.669 25.9453C264.767 25.9453 264.388 25.1641 264.575 24ZM272.204 27.1172C273.606 27.1172 274.673 26.4336 275.103 25.3906L273.81 25.2422C273.528 25.7539 273.028 26.0156 272.407 26.0156C271.454 26.0156 270.966 25.5312 271.142 24.4062L271.146 24.3867H275.329L275.396 23.9531C275.747 21.8516 274.638 20.9219 273.161 20.9219C271.446 20.9219 270.11 22.1836 269.806 24.0352C269.489 25.9141 270.399 27.1172 272.204 27.1172ZM271.313 23.4336C271.474 22.7148 272.188 22.0234 273.001 22.0234C273.817 22.0234 274.259 22.6172 274.122 23.4336H271.313ZM276.095 27H277.509L278.091 23.4727C278.224 22.7109 278.884 22.1719 279.657 22.1719C279.903 22.1719 280.188 22.2109 280.31 22.2539L280.528 20.9531C280.392 20.9258 280.185 20.9141 280.024 20.9141C279.337 20.9141 278.688 21.3047 278.36 22H278.298L278.466 21H277.095L276.095 27ZM280.467 27H281.881L282.881 21H281.467L280.467 27ZM282.381 20.1406C282.83 20.1406 283.229 19.7969 283.26 19.375C283.295 18.9492 282.959 18.6055 282.51 18.6055C282.057 18.6055 281.662 18.9492 281.623 19.375C281.588 19.7969 281.932 20.1406 282.381 20.1406ZM285.976 27.1172C287.378 27.1172 288.444 26.4336 288.874 25.3906L287.581 25.2422C287.3 25.7539 286.8 26.0156 286.179 26.0156C285.226 26.0156 284.737 25.5312 284.913 24.4062L284.917 24.3867H289.101L289.167 23.9531C289.519 21.8516 288.409 20.9219 286.933 20.9219C285.218 20.9219 283.882 22.1836 283.577 24.0352C283.261 25.9141 284.171 27.1172 285.976 27.1172ZM285.085 23.4336C285.245 22.7148 285.96 22.0234 286.772 22.0234C287.589 22.0234 288.03 22.6172 287.894 23.4336H285.085ZM291.866 23.4844C292.019 22.6172 292.624 22.1172 293.366 22.1172C294.104 22.1172 294.456 22.6016 294.323 23.3984L293.726 27H295.14L295.78 23.1797C296.019 21.7383 295.327 20.9219 294.101 20.9219C293.202 20.9219 292.503 21.3477 292.128 22.0195H292.054L292.226 21H290.87L289.87 27H291.288L291.866 23.4844ZM299.171 27.1172C300.679 27.1172 301.776 26.2266 302.104 24.9492H300.753C300.519 25.5938 299.995 25.9648 299.374 25.9648C298.491 25.9648 298.042 25.2266 298.245 24C298.437 22.7891 299.144 22.0625 300.022 22.0625C300.698 22.0625 301.046 22.5 301.058 23.0781H302.413C302.526 21.7773 301.655 20.9219 300.194 20.9219C298.433 20.9219 297.104 22.1914 296.812 24.0234C296.507 25.8398 297.374 27.1172 299.171 27.1172ZM305.559 27.1172C306.961 27.1172 308.027 26.4336 308.457 25.3906L307.164 25.2422C306.883 25.7539 306.383 26.0156 305.762 26.0156C304.809 26.0156 304.32 25.5312 304.496 24.4062L304.5 24.3867H308.684L308.75 23.9531C309.102 21.8516 307.992 20.9219 306.516 20.9219C304.801 20.9219 303.465 22.1836 303.16 24.0352C302.844 25.9141 303.754 27.1172 305.559 27.1172ZM304.668 23.4336C304.828 22.7148 305.543 22.0234 306.355 22.0234C307.172 22.0234 307.613 22.6172 307.477 23.4336H304.668ZM313.889 27.1211C314.83 27.1211 315.471 26.6797 315.807 26.1758H315.854L315.713 27H317.072L317.74 22.9844C318.006 21.3984 316.791 20.9219 315.65 20.9219C314.389 20.9219 313.314 21.4844 312.83 22.5781L314.111 22.7656C314.322 22.3516 314.803 22.0039 315.49 22.0039C316.146 22.0039 316.428 22.3437 316.334 22.9297V22.9531C316.264 23.3516 315.83 23.3789 314.756 23.4922C313.572 23.6172 312.404 23.9648 312.178 25.3164C311.982 26.4922 312.748 27.1211 313.889 27.1211ZM314.424 26.082C313.834 26.082 313.463 25.8086 313.549 25.293C313.631 24.7461 314.15 24.5234 314.799 24.4336C315.17 24.3828 315.932 24.2891 316.139 24.1406L316.021 24.8477C315.912 25.5156 315.271 26.082 314.424 26.082ZM322.49 21H321.303L321.541 19.5625H320.127L319.889 21H319.041L318.861 22.0937H319.709L319.158 25.4297C318.963 26.5547 319.682 27.1094 320.756 27.082C321.154 27.0703 321.447 26.9922 321.619 26.9414L321.557 25.8359C321.471 25.8516 321.307 25.8906 321.135 25.8906C320.779 25.8906 320.514 25.7656 320.604 25.1953L321.119 22.0937H322.307L322.49 21ZM373.293 23C372.973 24.9492 373.227 26.5703 374.02 27.9609H375.352C374.727 26.9297 374.453 24.8516 374.766 23C375.078 21.1445 376.027 19.0664 376.992 18.0352H375.664C374.398 19.4258 373.617 21.0508 373.293 23ZM377.442 19L379.521 24.0156L379.024 27H380.47L380.966 24.0156L384.708 19H383.071L380.536 22.5391H380.45L379.079 19H377.442ZM391.674 21.6992C391.717 19.9219 390.494 18.8906 388.686 18.8906C386.635 18.8906 384.861 20.3633 384.436 22.9141C384.006 25.5391 385.338 27.1094 387.486 27.1094C389.35 27.1094 390.768 25.8711 391.248 24.3437H389.791C389.447 25.2773 388.557 25.8086 387.553 25.8086C386.307 25.8086 385.568 24.8789 385.861 23.0859C386.166 21.2422 387.303 20.1914 388.65 20.1914C389.588 20.1914 390.229 20.7422 390.236 21.6992H391.674ZM399.362 19H397.983L395.78 20.2773L395.562 21.6055L397.632 20.4102H397.679L396.585 27H398.034L399.362 19ZM402.925 27.1094C404.636 27.1094 406.011 26.1758 406.226 24.8945C406.401 23.875 405.784 23.0273 404.874 22.8633V22.8203C405.71 22.6445 406.413 21.9648 406.565 21.0703C406.769 19.8242 405.769 18.8906 404.206 18.8906C402.675 18.8906 401.437 19.7695 401.218 20.9961C401.062 21.875 401.479 22.6328 402.269 22.8203V22.8633C401.312 23.0195 400.452 23.8359 400.284 24.8203C400.065 26.1211 401.163 27.1094 402.925 27.1094ZM403.042 25.9922C402.163 25.9922 401.671 25.5195 401.788 24.7891C401.917 24.0078 402.647 23.4453 403.522 23.4453C404.362 23.4453 404.89 23.957 404.769 24.7148C404.644 25.4687 403.964 25.9922 403.042 25.9922ZM403.644 22.3477C402.925 22.3477 402.479 21.9023 402.593 21.2109C402.71 20.5039 403.315 20.0234 404.097 20.0234C404.835 20.0234 405.265 20.4453 405.144 21.1328C405.019 21.8398 404.409 22.3477 403.644 22.3477ZM410.377 23C410.697 21.0508 410.443 19.4297 409.65 18.0391H408.318C408.943 19.0703 409.217 21.1484 408.904 23C408.592 24.8555 407.643 26.9336 406.678 27.9648H408.006C409.271 26.5742 410.053 24.9492 410.377 23Z" fill="#190B28"/>
<path d="M325.464 27H326.913L327.362 24.2969H328.89C330.745 24.2969 331.917 23.1875 332.171 21.6484C332.425 20.1172 331.632 19 329.792 19H326.792L325.464 27ZM327.562 23.1055L328.042 20.2109H329.37C330.456 20.2109 330.831 20.793 330.694 21.6484C330.558 22.4961 329.976 23.1055 328.894 23.1055H327.562ZM334.073 27.1211C335.015 27.1211 335.655 26.6797 335.991 26.1758H336.038L335.897 27H337.257L337.925 22.9844C338.19 21.3984 336.976 20.9219 335.835 20.9219C334.573 20.9219 333.499 21.4844 333.015 22.5781L334.296 22.7656C334.507 22.3516 334.987 22.0039 335.675 22.0039C336.331 22.0039 336.612 22.3437 336.519 22.9297V22.9531C336.448 23.3516 336.015 23.3789 334.94 23.4922C333.757 23.6172 332.589 23.9648 332.362 25.3164C332.167 26.4922 332.933 27.1211 334.073 27.1211ZM334.608 26.082C334.019 26.082 333.647 25.8086 333.733 25.293C333.815 24.7461 334.335 24.5234 334.983 24.4336C335.354 24.3828 336.116 24.2891 336.323 24.1406L336.206 24.8477C336.097 25.5156 335.456 26.082 334.608 26.082ZM342.675 21H341.487L341.726 19.5625H340.312L340.073 21H339.226L339.046 22.0937H339.894L339.343 25.4297C339.147 26.5547 339.866 27.1094 340.94 27.082C341.339 27.0703 341.632 26.9922 341.804 26.9414L341.741 25.8359C341.655 25.8516 341.491 25.8906 341.319 25.8906C340.964 25.8906 340.698 25.7656 340.788 25.1953L341.304 22.0937H342.491L342.675 21ZM344.986 23.4844C345.139 22.6172 345.76 22.1172 346.518 22.1172C347.252 22.1172 347.611 22.5898 347.482 23.3984L346.881 27H348.299L348.939 23.1797C349.174 21.7266 348.486 20.9219 347.248 20.9219C346.318 20.9219 345.658 21.3359 345.279 22.0195H345.205L345.705 19H344.318L342.99 27H344.408L344.986 23.4844ZM349.732 27H351.146L351.729 23.4727C351.861 22.7109 352.521 22.1719 353.295 22.1719C353.541 22.1719 353.826 22.2109 353.947 22.2539L354.166 20.9531C354.029 20.9258 353.822 20.9141 353.662 20.9141C352.975 20.9141 352.326 21.3047 351.998 22H351.936L352.104 21H350.732L349.732 27ZM354.104 27H355.519L356.519 21H355.104L354.104 27ZM356.019 20.1406C356.468 20.1406 356.866 19.7969 356.897 19.375C356.933 18.9492 356.597 18.6055 356.147 18.6055C355.694 18.6055 355.3 18.9492 355.261 19.375C355.226 19.7969 355.569 20.1406 356.019 20.1406ZM362.445 22.5859C362.418 21.5664 361.699 20.9219 360.27 20.9219C358.848 20.9219 357.77 21.6055 357.586 22.6953C357.434 23.5898 357.902 24.1836 359.016 24.4297L360 24.6445C360.539 24.7656 360.734 24.9609 360.68 25.2812C360.617 25.7109 360.086 26.0547 359.387 26.0508C358.77 26.0469 358.406 25.7734 358.375 25.2305L356.984 25.3633C356.98 26.4609 357.813 27.1172 359.309 27.1172C360.785 27.1172 361.949 26.3633 362.137 25.2539C362.281 24.3711 361.797 23.832 360.703 23.5859L359.711 23.3672C359.133 23.2266 358.941 23.0352 359 22.7148C359.063 22.2852 359.59 21.9766 360.203 21.9766C360.836 21.9766 361.102 22.3242 361.145 22.7266L362.445 22.5859ZM365.65 27.1172C367.053 27.1172 368.119 26.4336 368.549 25.3906L367.256 25.2422C366.975 25.7539 366.475 26.0156 365.854 26.0156C364.9 26.0156 364.412 25.5312 364.588 24.4062L364.592 24.3867H368.775L368.842 23.9531C369.193 21.8516 368.084 20.9219 366.607 20.9219C364.893 20.9219 363.557 22.1836 363.252 24.0352C362.936 25.9141 363.846 27.1172 365.65 27.1172ZM364.76 23.4336C364.92 22.7148 365.635 22.0234 366.447 22.0234C367.264 22.0234 367.705 22.6172 367.568 23.4336H364.76Z" fill="#535FE5"/>
</svg>
