<?xml version="1.0" standalone="no"?>
<!DOCTYPE svg PUBLIC "-//W3C//DTD SVG 20010904//EN"
 "http://www.w3.org/TR/2001/REC-SVG-20010904/DTD/svg10.dtd">
<svg version="1.0" xmlns="http://www.w3.org/2000/svg"
 width="928.000000pt" height="928.000000pt" viewBox="0 0 928.000000 928.000000"
 preserveAspectRatio="xMidYMid meet">
<metadata>
Created by potrace 1.14, written by Peter Selinger 2001-2017
</metadata>
<g transform="translate(0.000000,928.000000) scale(0.100000,-0.100000)"
fill="#000000" stroke="none">
<path d="M9154 7138 c-28 -7 -51 -12 -129 -23 -22 -3 -47 -8 -55 -10 -8 -2
-35 -7 -60 -10 -25 -3 -52 -8 -60 -10 -8 -2 -35 -7 -60 -10 -25 -3 -67 -10
-95 -15 -62 -11 -116 -19 -175 -26 -25 -2 -56 -7 -70 -9 -26 -5 -105 -15 -150
-20 -14 -2 -54 -6 -90 -11 -84 -9 -110 -12 -137 -13 -26 -1 -33 -15 -173 -341
-73 -171 -116 -278 -245 -605 -5 -11 -9 -22 -10 -25 -1 -3 -5 -14 -10 -25 -4
-11 -18 -49 -32 -85 -13 -36 -29 -78 -36 -95 -6 -16 -12 -32 -13 -35 0 -3 -4
-12 -7 -20 -4 -8 -20 -51 -36 -95 -78 -214 -104 -282 -116 -310 -7 -16 -25
-61 -39 -100 -52 -144 -107 -291 -116 -310 -21 -46 -39 -95 -33 -95 3 0 1 -6
-5 -13 -6 -7 -18 -35 -28 -62 -9 -28 -21 -61 -27 -75 -6 -14 -11 -27 -12 -30
-1 -3 -6 -16 -12 -30 -6 -14 -12 -34 -14 -45 -3 -15 -13 -21 -39 -22 -54 -3
-59 1 -50 44 5 21 11 56 14 78 3 22 7 49 9 60 3 11 8 43 11 70 9 64 17 113 21
134 8 47 24 147 30 200 2 19 6 48 9 65 12 77 20 132 21 146 2 17 15 104 20
135 2 11 4 20 5 20 1 0 3 22 5 48 2 27 6 60 9 75 3 15 8 45 12 67 3 22 7 52
10 66 2 15 6 44 9 65 3 22 7 48 9 59 2 11 7 45 11 75 4 30 9 62 10 71 2 9 6
40 10 69 4 29 9 62 11 74 2 12 7 41 10 66 3 25 7 56 10 70 10 56 15 88 19 125
2 22 4 40 5 40 2 0 7 33 14 105 3 36 8 74 10 86 2 12 7 45 11 74 4 29 9 62 11
74 2 12 7 44 10 71 4 28 8 53 10 56 4 8 -43 18 -50 12 -3 -3 -34 -7 -69 -8
-36 -2 -82 -6 -103 -9 -22 -3 -70 -8 -109 -11 -38 -4 -81 -8 -95 -10 -14 -2
-54 -7 -90 -10 -36 -4 -78 -9 -95 -11 -16 -2 -55 -6 -85 -10 -30 -3 -71 -7
-90 -9 -107 -13 -266 -22 -457 -26 -57 -1 -103 -4 -103 -6 0 -1 -14 -53 -31
-115 -17 -62 -32 -117 -33 -123 -2 -5 -6 -23 -10 -40 -4 -16 -10 -37 -13 -45
-3 -8 -8 -24 -10 -35 -2 -11 -6 -27 -10 -35 -3 -8 -7 -19 -8 -25 -2 -5 -17
-59 -34 -120 -18 -60 -34 -117 -36 -125 -26 -99 -41 -146 -48 -148 -4 -2 -5
-7 -3 -11 2 -3 -7 -45 -21 -91 -44 -153 -80 -273 -123 -410 -61 -197 -90 -293
-95 -310 -2 -8 -22 -73 -45 -145 -23 -71 -43 -137 -45 -145 -2 -8 -22 -75 -45
-149 -23 -74 -43 -142 -45 -151 -2 -9 -10 -33 -19 -53 -8 -21 -15 -40 -15 -42
1 -9 -84 -286 -98 -325 -3 -8 -7 -20 -8 -26 -4 -15 -73 -239 -90 -289 -27 -82
-125 -392 -125 -398 0 -3 -5 -18 -11 -34 -6 -15 -10 -29 -10 -30 1 -2 -5 -20
-13 -40 -13 -37 -90 -273 -91 -283 -1 -6 -54 -169 -62 -190 -3 -8 -7 -19 -8
-25 -7 -28 -67 -213 -75 -230 -5 -11 -19 -51 -31 -90 -12 -38 -32 -103 -44
-143 l-24 -72 92 5 c177 10 252 15 307 20 30 3 98 7 150 10 52 3 118 7 145 10
28 2 102 7 165 11 104 6 155 10 186 13 10 1 60 161 145 461 22 80 42 152 44
160 10 37 77 267 82 280 6 16 11 30 17 58 3 9 5 17 6 17 1 0 3 7 5 15 1 8 13
51 25 95 12 44 23 85 25 90 1 6 5 17 8 25 5 12 28 100 53 200 8 32 35 136 39
150 2 8 9 35 16 60 6 25 13 52 16 60 3 8 8 22 9 30 2 8 24 89 49 180 25 91 48
176 51 190 3 14 11 50 19 80 8 30 16 66 19 80 13 76 15 78 62 78 41 0 50 -6
44 -33 -1 -9 -6 -70 -15 -215 -2 -36 -5 -65 -5 -65 -3 0 -10 -74 -24 -255 -4
-50 -11 -133 -21 -245 -2 -22 -6 -71 -9 -110 -3 -38 -8 -90 -11 -115 -3 -25
-7 -76 -10 -115 -3 -38 -7 -90 -9 -115 -8 -89 -16 -176 -21 -240 -3 -36 -7
-85 -10 -110 -2 -25 -7 -79 -10 -120 -3 -41 -8 -93 -10 -115 -2 -22 -7 -76
-10 -120 -4 -44 -8 -100 -11 -125 -2 -25 -6 -72 -9 -105 -3 -33 -7 -84 -10
-112 -5 -54 1 -60 46 -55 4 1 62 4 130 7 68 3 156 8 194 10 118 7 308 17 345
17 l35 1 80 241 c43 132 83 248 87 256 6 12 66 175 152 415 2 6 4 13 5 18 0 4
8 24 17 45 8 20 22 57 31 82 20 60 111 310 122 335 18 40 33 84 31 87 -2 2 7
22 19 46 12 23 19 42 17 42 -5 0 11 44 34 95 5 11 23 61 40 110 18 50 40 113
50 140 39 106 92 259 94 269 1 6 7 25 13 41 13 35 22 62 24 73 4 24 23 42 44
42 25 0 41 -15 26 -24 -5 -4 -8 -14 -7 -23 2 -10 -1 -33 -6 -53 -5 -19 -11
-50 -13 -69 -2 -19 -7 -50 -10 -70 -9 -55 -13 -81 -20 -134 -4 -27 -8 -57 -10
-67 -2 -10 -6 -46 -10 -79 -3 -33 -8 -70 -10 -83 -3 -13 -7 -43 -11 -68 -3
-25 -8 -63 -11 -85 -8 -65 -10 -78 -17 -132 -7 -62 -15 -132 -21 -188 -2 -22
-6 -60 -9 -85 -24 -195 -27 -222 -31 -270 -3 -25 -7 -63 -10 -85 -2 -22 -7
-70 -11 -106 -11 -130 -12 -145 -18 -204 -3 -33 -8 -99 -11 -147 -3 -48 -8
-113 -11 -145 -3 -32 -7 -97 -8 -146 -3 -85 -1 -93 29 -87 21 4 331 58 366 64
20 3 42 7 50 10 8 3 32 7 54 10 22 3 52 8 68 11 56 10 83 15 116 21 18 3 43 8
55 10 11 2 36 7 55 10 37 6 63 11 101 19 14 3 41 7 60 9 31 5 54 9 110 21 8 2
23 4 33 4 13 1 17 9 17 34 -1 17 1 52 3 77 3 25 8 86 12 135 4 50 8 108 11
130 2 22 6 72 9 110 9 129 15 190 20 230 3 22 7 76 10 120 4 44 8 96 10 115 2
19 6 73 10 120 4 47 9 99 10 115 11 118 17 174 20 200 2 17 7 66 10 110 3 44
8 91 10 105 5 30 17 159 21 215 1 22 3 40 4 40 0 0 3 23 5 50 8 87 13 139 19
190 4 28 9 77 11 110 2 33 5 60 5 60 1 0 3 16 5 35 2 19 6 55 9 80 3 25 8 72
11 105 4 33 9 74 11 90 7 39 14 98 19 160 2 28 5 50 6 50 1 0 4 20 13 105 2
25 5 45 6 45 1 0 3 16 5 35 1 19 5 58 9 85 3 28 8 73 11 100 4 28 8 63 11 79
3 16 7 52 9 80 3 28 7 67 10 86 9 58 14 93 20 140 10 73 15 111 25 180 5 36
12 83 15 104 3 21 7 48 10 60 2 12 7 41 10 66 3 25 7 54 9 65 2 11 6 41 10 66
4 25 9 57 11 70 5 28 25 150 32 194 2 17 9 57 14 90 23 137 24 135 -4 133 -13
-1 -37 -6 -53 -10z"/>
<path d="M5487 7023 c-2 -1 -125 -8 -332 -18 -38 -2 -119 -6 -180 -9 -60 -4
-157 -9 -215 -11 -58 -3 -150 -7 -205 -10 -193 -11 -376 -20 -570 -29 -110 -6
-292 -15 -398 -21 -38 -2 -70 -5 -72 -7 -2 -2 -6 -25 -9 -53 -8 -56 -16 -108
-21 -137 -3 -11 -7 -46 -11 -77 -3 -31 -8 -58 -9 -61 -2 -3 -7 -33 -10 -65 -4
-33 -9 -69 -11 -80 -4 -18 -7 -37 -19 -115 -2 -14 -7 -47 -11 -75 -3 -27 -8
-59 -10 -70 -7 -33 -12 -67 -18 -115 -3 -25 -8 -56 -11 -70 -2 -13 -7 -42 -10
-65 -3 -22 -8 -51 -10 -65 -3 -14 -7 -43 -10 -65 -3 -22 -7 -50 -9 -62 -3 -11
-7 -43 -11 -70 -3 -26 -11 -71 -16 -99 -5 -28 -11 -66 -13 -85 -2 -19 -6 -48
-9 -64 -4 -17 -9 -48 -12 -70 -3 -22 -8 -52 -10 -67 -3 -15 -10 -56 -15 -90
-5 -35 -12 -74 -14 -88 -15 -85 -48 -269 -51 -289 -2 -14 -9 -47 -14 -75 -6
-28 -13 -69 -17 -91 -3 -22 -7 -47 -9 -55 -1 -8 -5 -26 -8 -40 -4 -14 -9 -41
-12 -60 -2 -19 -7 -47 -10 -62 -3 -16 -7 -40 -10 -55 -3 -16 -8 -44 -11 -63
-3 -19 -7 -46 -10 -60 -3 -14 -7 -41 -10 -60 -2 -19 -7 -42 -9 -50 -3 -8 -7
-33 -10 -55 -3 -22 -8 -51 -11 -65 -3 -14 -8 -36 -10 -50 -3 -14 -16 -81 -29
-150 -13 -69 -27 -139 -30 -157 -3 -18 -10 -44 -15 -58 -7 -19 -7 -24 1 -19 8
4 8 1 1 -12 -5 -11 -17 -57 -26 -104 -9 -47 -18 -96 -21 -110 -3 -14 -7 -37
-10 -53 -3 -15 -12 -60 -21 -100 -8 -39 -17 -82 -20 -94 -8 -46 -13 -70 -39
-188 -15 -66 -35 -158 -45 -205 -10 -47 -35 -148 -55 -225 -20 -77 -38 -152
-41 -167 l-5 -26 93 23 c51 13 108 27 126 30 18 3 61 12 95 21 34 8 76 17 92
19 17 3 41 7 55 10 45 10 73 15 200 40 69 13 134 26 146 29 102 22 294 59 314
61 51 5 70 16 71 41 1 24 5 42 9 47 1 1 3 18 5 37 3 39 12 101 20 140 8 40 16
92 21 130 8 61 13 94 19 120 3 14 7 43 10 65 2 22 6 51 9 65 3 14 7 43 11 65
3 22 10 65 15 95 13 79 25 155 35 230 3 19 7 46 10 60 3 14 7 41 10 60 8 62
22 150 30 189 2 12 7 44 10 69 3 25 12 84 20 131 7 47 17 106 21 131 3 25 8
56 10 70 3 14 7 48 10 75 10 76 14 80 76 78 29 -1 130 -5 223 -8 94 -3 206 -8
250 -10 121 -6 377 -6 383 0 6 6 9 18 17 85 3 25 9 59 12 75 3 17 7 41 9 55 3
32 14 107 20 140 16 93 34 215 39 271 l7 65 -74 -2 c-40 -1 -244 -3 -453 -5
-369 -2 -380 -2 -379 17 0 17 11 87 20 139 5 25 22 120 29 160 2 17 7 39 9 50
7 35 58 329 61 355 2 14 4 25 5 25 1 0 3 11 5 25 2 14 9 54 15 90 7 36 14 74
15 85 2 11 6 34 9 50 3 17 8 48 12 70 3 22 7 45 7 50 1 6 5 12 9 15 3 3 229 5
502 5 540 -1 501 -5 512 55 3 14 11 50 19 81 8 30 16 64 18 75 2 10 7 30 10
44 4 14 18 75 32 135 14 61 34 146 45 190 10 44 21 91 24 105 3 14 10 42 15
63 l9 37 -85 -2 c-46 -2 -85 -4 -86 -5z"/>
<path d="M2378 6995 c-2 -2 -30 -6 -63 -9 -79 -8 -127 -16 -145 -23 -8 -3 -22
-7 -30 -8 -50 -8 -90 -21 -244 -77 -38 -14 -197 -97 -216 -113 -8 -6 -22 -15
-31 -18 -21 -7 -228 -164 -250 -189 -9 -10 -19 -18 -23 -18 -7 0 -182 -174
-236 -235 -20 -22 -68 -83 -108 -135 -40 -52 -76 -99 -80 -105 -14 -19 -79
-120 -132 -205 -65 -106 -231 -440 -224 -452 3 -4 1 -8 -4 -8 -6 0 -13 -12
-18 -27 -10 -38 -8 -32 -41 -113 -23 -53 -123 -364 -129 -395 -1 -6 -11 -44
-22 -85 -11 -41 -23 -93 -28 -115 -4 -22 -8 -42 -9 -45 -5 -21 -16 -71 -20
-100 -3 -19 -8 -42 -10 -50 -2 -8 -7 -35 -10 -60 -3 -25 -8 -58 -11 -75 -7
-43 -18 -136 -30 -260 -17 -166 -10 -614 11 -745 2 -14 7 -43 10 -65 18 -117
86 -327 143 -440 152 -304 335 -456 617 -510 58 -11 283 -3 305 10 4 3 25 7
45 11 66 10 187 55 290 106 55 28 102 53 105 57 3 4 30 22 60 41 30 19 57 37
60 40 3 3 32 27 65 54 95 78 267 256 330 341 17 22 32 42 35 45 6 6 61 82 112
155 37 53 148 240 148 249 0 3 13 27 28 53 32 55 105 214 100 218 -4 3 -74 34
-103 45 -11 4 -33 13 -50 20 -16 8 -34 15 -40 16 -8 2 -296 119 -385 157 -14
5 -30 11 -36 12 -6 2 -27 10 -45 18 -68 30 -67 30 -84 -28 -32 -111 -154 -305
-250 -398 -50 -48 -162 -128 -187 -133 -7 -2 -27 -7 -43 -12 -114 -35 -221 42
-240 172 -2 17 -7 42 -10 56 -7 30 -7 232 -1 251 5 15 17 107 20 147 0 12 3
22 6 22 3 0 6 8 7 18 3 32 11 70 38 168 15 55 28 106 30 114 3 16 42 140 77
245 11 33 21 65 23 70 1 6 8 24 14 40 7 17 14 35 15 40 2 6 7 19 11 30 4 11
20 52 36 90 15 39 40 99 56 135 16 36 36 81 43 100 27 66 146 295 210 400 178
297 347 428 469 366 31 -17 95 -90 105 -122 6 -19 11 -21 39 -14 43 10 226 59
432 115 94 25 179 48 190 50 11 3 58 15 105 28 l85 23 1 146 c1 92 -4 171 -13
214 -8 38 -15 76 -17 84 -18 107 -118 299 -206 393 -77 84 -236 176 -355 207
-42 11 -288 23 -297 15z"/>
</g>
</svg>
