<svg width="163" height="43" viewBox="0 0 163 43" fill="none" xmlns="http://www.w3.org/2000/svg">
<path d="M50.18 17.54V12.2H47.38V27H50.18V25.42C50.86 26.38 52.1 27.18 53.84 27.18C56.68 27.18 58.9 24.88 58.9 21.42C58.9 17.96 56.68 15.74 53.84 15.74C52.16 15.74 50.86 16.52 50.18 17.54ZM56.04 21.42C56.04 23.52 54.62 24.72 53.1 24.72C51.6 24.72 50.18 23.56 50.18 21.46C50.18 19.36 51.6 18.2 53.1 18.2C54.62 18.2 56.04 19.32 56.04 21.42ZM63.8347 27H66.6347V12.2H63.8347V27ZM82.7611 15.92H79.9411V22.02C79.9411 23.8 78.9811 24.76 77.4611 24.76C75.9811 24.76 75.0011 23.8 75.0011 22.02V15.92H72.2011V22.42C72.2011 25.46 74.0611 27.14 76.6411 27.14C78.0211 27.14 79.2411 26.54 79.9411 25.6V27H82.7611V15.92ZM93.1838 18.04C94.6238 18.04 95.7838 18.96 95.8238 20.42H90.5638C90.7838 18.9 91.8438 18.04 93.1838 18.04ZM98.4438 23.52H95.4238C95.0638 24.26 94.4038 24.86 93.2038 24.86C91.8038 24.86 90.6838 23.94 90.5438 22.3H98.6438C98.7038 21.94 98.7238 21.58 98.7238 21.22C98.7238 17.92 96.4638 15.74 93.2638 15.74C89.9838 15.74 87.7038 17.96 87.7038 21.46C87.7038 24.94 90.0438 27.18 93.2638 27.18C96.0038 27.18 97.8438 25.56 98.4438 23.52ZM106.467 17.52V15.92H103.667V32.28H106.467V25.42C107.147 26.32 108.387 27.18 110.127 27.18C112.967 27.18 115.187 24.88 115.187 21.42C115.187 17.96 112.967 15.74 110.127 15.74C108.407 15.74 107.127 16.58 106.467 17.52ZM112.327 21.42C112.327 23.52 110.907 24.72 109.387 24.72C107.887 24.72 106.467 23.56 106.467 21.46C106.467 19.36 107.887 18.2 109.387 18.2C110.907 18.2 112.327 19.32 112.327 21.42ZM122.922 21.48C122.922 19.34 123.922 18.7 125.582 18.7H126.322V15.76C124.782 15.76 123.622 16.5 122.922 17.64V15.92H120.122V27H122.922V21.48ZM131.108 27H133.908V15.92H131.108V27ZM132.528 14.6C133.508 14.6 134.248 13.88 134.248 12.96C134.248 12.04 133.508 11.32 132.528 11.32C131.528 11.32 130.808 12.04 130.808 12.96C130.808 13.88 131.528 14.6 132.528 14.6ZM147.335 27H150.135V20.5C150.135 17.44 148.295 15.76 145.715 15.76C144.295 15.76 143.095 16.36 142.375 17.3V15.92H139.575V27H142.375V20.88C142.375 19.1 143.355 18.14 144.875 18.14C146.355 18.14 147.335 19.1 147.335 20.88V27ZM156.137 23.56C156.137 26.1 157.557 27 159.677 27H161.437V24.64H160.137C159.257 24.64 158.957 24.32 158.957 23.58V18.22H161.437V15.92H158.957V13.18H156.137V15.92H154.817V18.22H156.137V23.56Z" fill="#333333"/>
<path fill-rule="evenodd" clip-rule="evenodd" d="M24.8027 10.1144C23.4232 9.23624 22.4617 8.38347 21.6382 7.64706C20.3955 6.53552 19.9723 5.98155 18.2826 4.238C17.6131 3.54709 16.6614 2.58344 15.4728 1.4421C15.2584 1.23618 14.8713 1.18866 14.6137 1.33712C11.5609 3.09709 8.50812 4.85706 5.45532 6.61688C5.17668 6.77744 5.03052 7.1589 5.13046 7.46447L6.89619 12.8668C7.58796 12.6997 8.16742 12.5459 8.98332 12.2778C9.33526 12.1622 9.70664 12.0392 10.099 11.8989C9.72089 10.7346 9.34289 9.57003 8.96475 8.40565L14.6428 5.1524C15.7692 6.51594 16.7789 7.60919 17.5532 8.41026C18.7295 9.6272 19.5547 10.4742 20.8244 11.4714C22.12 12.4889 23.2084 13.1362 23.6124 13.3703C24.7207 14.0127 26.2812 14.7926 28.2682 15.4202C28.4654 14.2924 28.7208 13.3451 29.0579 12.1613C27.2339 11.5312 25.8161 10.7593 24.8027 10.1144" fill="#93C9FE"/>
<path fill-rule="evenodd" clip-rule="evenodd" d="M12.703 12.3567C11.2528 13.1125 10.0335 13.5187 8.98393 13.8636C7.40007 14.3841 6.70858 14.4737 4.3539 15.0652C3.42092 15.2995 2.11038 15.6418 0.527673 16.1006C0.242121 16.1833 0.00740052 16.4947 0.00725652 16.7919C0.00495252 20.3158 0.00264852 23.8396 0.000488523 27.3634C0.000200523 27.6848 0.257384 28.0021 0.57188 28.0684C2.42574 28.4591 4.27959 28.8498 6.1333 29.2405C6.33462 28.5579 6.49114 27.9792 6.66697 27.1383C6.74271 26.7759 6.82191 26.3927 6.89665 25.9827C5.69914 25.728 4.50164 25.4733 3.30428 25.2185L3.32574 18.6745C5.07001 18.3808 6.52153 18.053 7.60239 17.783C9.24457 17.3727 10.3905 17.0817 11.8891 16.4806C13.4181 15.8672 14.5229 15.2484 14.9277 15.0156C16.0381 14.3769 17.4939 13.4156 19.0307 12.0084C18.1526 11.2737 17.4599 10.5789 16.6034 9.69519C15.1455 10.9597 13.7683 11.8016 12.703 12.3567" fill="#0078E8"/>
<path fill-rule="evenodd" clip-rule="evenodd" d="M8.61843 23.9088C8.54772 25.5426 8.28996 26.8016 8.06388 27.8831C7.72275 29.515 7.45462 30.1585 6.78934 32.4936C6.52582 33.4188 6.16711 34.7249 5.77299 36.3249C5.70199 36.6136 5.85435 36.9725 6.11167 37.1212C9.14964 38.8779 12.1876 40.6345 15.2256 42.3912C15.5224 42.5627 15.9381 42.4835 16.1501 42.2144C16.8414 41.3368 17.6166 40.4298 18.4842 39.5135C18.9789 38.9911 19.4707 38.5005 19.9554 38.0401C19.739 37.8095 19.4672 37.5299 19.1461 37.2187C18.9239 37.0033 18.6839 36.7795 18.4016 36.5271C18.1256 36.2803 17.8334 36.0199 17.5158 35.7503C17.0623 36.1453 16.5724 36.6192 16.0786 37.1814C15.6835 37.631 15.3457 38.0692 15.0577 38.4793L9.40121 35.1886C10.019 33.5313 10.4608 32.1103 10.7673 31.0391C11.2332 29.4119 11.5542 28.2739 11.7828 26.6756C12.0162 25.0448 12.0325 23.7786 12.0334 23.3116C12.0355 22.0308 11.9307 20.2892 11.4806 18.2546C10.4053 18.6479 9.45723 18.9003 8.26361 19.2003C8.62995 21.0949 8.67041 22.7087 8.61843 23.9088" fill="#93C9FE"/>
<path fill-rule="evenodd" clip-rule="evenodd" d="M16.5316 33.2832C17.9111 34.1614 18.8725 35.0141 19.696 35.7505C20.9387 36.8621 21.3621 37.416 23.0518 39.1597C23.7213 39.8505 24.673 40.8142 25.8615 41.9555C26.0759 42.1614 26.463 42.2089 26.7205 42.0605C29.7734 40.3005 32.8262 38.5405 35.879 36.7807C36.1577 36.6202 36.3037 36.2387 36.2039 35.9331C35.6152 34.1324 35.0267 32.3317 34.4382 30.531C33.7464 30.6979 33.1669 30.8517 32.3509 31.1199C31.9991 31.2354 31.6276 31.3584 31.2353 31.4986C31.6135 32.663 31.9915 33.8276 32.3696 34.9919L26.6915 38.2452C25.5652 36.8817 24.5555 35.7886 23.781 34.9873C22.6047 33.7704 21.7797 32.9234 20.5099 31.9262C19.2142 30.9087 18.126 30.2614 17.7219 30.0273C16.6137 29.3849 15.0532 28.605 13.0661 27.9774C12.869 29.1054 12.6135 30.0525 12.2764 31.2363C14.1005 31.8664 15.5182 32.6383 16.5316 33.2832" fill="#0078E8"/>
<path fill-rule="evenodd" clip-rule="evenodd" d="M28.6312 31.1326C30.0815 30.3769 31.3007 29.9707 32.3502 29.6258C33.9342 29.1052 34.6255 29.0157 36.9804 28.4241C37.9133 28.1898 39.2239 27.8475 40.8066 27.3888C41.0921 27.306 41.3269 26.9946 41.327 26.6973C41.3293 23.1736 41.3315 19.6496 41.3338 16.1259C41.3339 15.8044 41.0769 15.4872 40.7622 15.4209C38.9085 15.0302 37.0547 14.6396 35.2008 14.2489C34.9996 14.9315 34.8431 15.5102 34.6673 16.351C34.5915 16.7135 34.5123 17.0966 34.4376 17.5066C35.6351 17.7613 36.8325 18.0161 38.03 18.2708L38.0084 24.8148C36.2642 25.1085 34.8127 25.4364 33.7317 25.7064C32.0897 26.1167 30.9436 26.4077 29.4451 27.0087C27.9161 27.622 26.8114 28.2409 26.4064 28.4738C25.2962 29.1124 23.8404 30.0738 22.3036 31.481C23.1817 32.2156 23.8742 32.9104 24.7309 33.7942C26.1886 32.5297 27.5659 31.6877 28.6312 31.1326" fill="#93C9FE"/>
<path fill-rule="evenodd" clip-rule="evenodd" d="M32.7156 19.4888C32.7863 17.855 33.0441 16.596 33.2702 15.5146C33.6113 13.8826 33.8796 13.2391 34.5447 10.904C34.8082 9.97878 35.1669 8.6727 35.5611 7.07272C35.6322 6.78414 35.4798 6.42515 35.2225 6.2764C32.1719 4.5124 29.1214 2.74854 26.0707 0.984689C25.7924 0.823841 25.3892 0.887921 25.1743 1.1271L21.3788 5.35754C21.8692 5.87306 22.2922 6.298 22.9324 6.87054C23.2084 7.11736 23.5006 7.37771 23.8183 7.64728C24.6376 6.73763 25.457 5.82798 26.2764 4.91834L31.9328 8.20902C31.3151 9.86632 30.8734 11.2873 30.5667 12.3585C30.101 13.9857 29.7799 15.1238 29.5512 16.722C29.3179 18.3528 29.3015 19.619 29.3007 20.086C29.2986 21.3669 29.4033 23.1084 29.8535 25.143C30.9287 24.7497 31.8768 24.4974 33.0704 24.1975C32.7042 22.3027 32.6638 20.6889 32.7156 19.4888" fill="#0078E8"/>
</svg>
