<svg id="Layer_1" data-name="Layer 1" xmlns="http://www.w3.org/2000/svg" viewBox="0 0 311 344.68"><defs><style>.cls-1,.cls-3{fill:none;}.cls-1,.cls-2,.cls-3{stroke:#000;stroke-miterlimit:10;}.cls-1{stroke-width:6px;}.cls-2{stroke-width:2px;}.cls-3{stroke-width:4px;}</style></defs><title>francogmentstinyLogo</title><path class="cls-1" d="M1084,979.17V685.52c0-18.66,259.1-31.1,269.47-20.73,14.65,14.66,0,300.56,0,300.56" transform="translate(-1052 -634.49)"/><path class="cls-1" d="M1056.38,977.09S1055,744.77,1055,666.17c0-18.65,288.12-35.93,298.49-25.56,14.65,14.65,0,300.55,0,300.55" transform="translate(-1052 -634.49)"/><path class="cls-2" d="M1276,798.72c-3,4.25-7.65,7.07-13.39,5.93-5.55-1.1-8.67-7.1-9.79-12.66a25.73,25.73,0,0,1,.5-13.66c1.55-4.35,4.93-8.19,9.35-9.52,10.34-3.1,16.89,8.48,17.23,17.12A21.46,21.46,0,0,1,1276,798.72Z" transform="translate(-1052 -634.49)"/><path class="cls-2" d="M1191,798.72c-3,4.25-7.65,7.07-13.39,5.93-5.56-1.1-8.67-7.1-9.8-12.66a25.83,25.83,0,0,1,.51-13.66c1.54-4.35,4.93-8.19,9.35-9.52,10.34-3.1,16.88,8.48,17.23,17.12A21.53,21.53,0,0,1,1191,798.72Z" transform="translate(-1052 -634.49)"/><path class="cls-3" d="M1339.39,641c2.72,6.55,8.53,11.47,11.09,18.08" transform="translate(-1052 -634.49)"/><path class="cls-3" d="M1317.58,639.7c2.16,3.78,5.3,6.88,8.4,9.93l8.23,8.1L1334,657" transform="translate(-1052 -634.49)"/><path class="cls-3" d="M1298.5,641.11a76.25,76.25,0,0,0,13.12,14.94" transform="translate(-1052 -634.49)"/><path class="cls-3" d="M1274.94,642c7.6,3.76,15.47,7.73,20.65,14.44" transform="translate(-1052 -634.49)"/><path class="cls-3" d="M1252.47,640.83a123.24,123.24,0,0,0,16.22,9.63c3.27,1.62,7,3.64,7.61,7.24" transform="translate(-1052 -634.49)"/><path class="cls-3" d="M1239.39,643.81a11.64,11.64,0,0,1,3.29,2.2,62.29,62.29,0,0,1,12.71,15.12c.13.22.33-.21.22-.44" transform="translate(-1052 -634.49)"/><path class="cls-3" d="M1223.41,645.85l1.56,1a32.6,32.6,0,0,1,6.35,4.63,11,11,0,0,1,3.4,6.91" transform="translate(-1052 -634.49)"/><path class="cls-3" d="M1200,643.66a6.66,6.66,0,0,0,1.71,4.15,51.25,51.25,0,0,0,11.94,11.62" transform="translate(-1052 -634.49)"/><path class="cls-3" d="M1179.4,648.94l9.08,10.21c.13.14.3.3.48.26s.18-.41,0-.36" transform="translate(-1052 -634.49)"/><path class="cls-3" d="M1160.67,648.67l.13,2.19A169.62,169.62,0,0,1,1173.65,664" transform="translate(-1052 -634.49)"/><path class="cls-3" d="M1142,652.64a2.68,2.68,0,0,0,1.2,2.05l9.37,8.41" transform="translate(-1052 -634.49)"/><path class="cls-3" d="M1121,653.59a34.54,34.54,0,0,1,13.71,12.69" transform="translate(-1052 -634.49)"/><path class="cls-3" d="M1103.17,657.11a51.46,51.46,0,0,1,10.14,9.91" transform="translate(-1052 -634.49)"/><path class="cls-3" d="M1085.86,659.05a7.54,7.54,0,0,0,2.32,2.65,115.6,115.6,0,0,1,11.4,11.06" transform="translate(-1052 -634.49)"/><path class="cls-3" d="M1065,663.64c4.81-1.43,10,.49,14.18,3.27s7.74,6.42,12,9" transform="translate(-1052 -634.49)"/><path class="cls-3" d="M1058.32,681.48c3.25-.7,6.63.21,9.73,1.41s6.12,2.72,9.4,3.3" transform="translate(-1052 -634.49)"/><path class="cls-3" d="M1059,695.48a37.23,37.23,0,0,1,10.65.22c3.49.74,6.89,2.6,8.72,5.67" transform="translate(-1052 -634.49)"/><path class="cls-3" d="M1058.34,707.75a27.46,27.46,0,0,1,19.43,7.47" transform="translate(-1052 -634.49)"/><path class="cls-3" d="M1060,720.69a45.44,45.44,0,0,1,15.56,6.81" transform="translate(-1052 -634.49)"/><path class="cls-3" d="M1061,737.73c4.14-.23,8.61-.37,12,1.94,1.14.77,2.25,1.83,3.62,1.79" transform="translate(-1052 -634.49)"/><path class="cls-3" d="M1059,747.19c5.1.2,9.74,2.82,14.16,5.37l6.34,3.67" transform="translate(-1052 -634.49)"/><path class="cls-3" d="M1059,759.8a25.84,25.84,0,0,1,16.7,4.42l0-1.89" transform="translate(-1052 -634.49)"/><path class="cls-3" d="M1058.53,771.9a23.83,23.83,0,0,1,17.28,10.29" transform="translate(-1052 -634.49)"/><path class="cls-3" d="M1057.57,785.49c2,1.06,4.42.31,6.68.31,5.32,0,9.62,4.11,13.29,8" transform="translate(-1052 -634.49)"/><path class="cls-3" d="M1059.94,804c3.48-.35,6.63,1.93,9.2,4.29s5.16,5,8.57,5.77" transform="translate(-1052 -634.49)"/><path class="cls-3" d="M1059.61,821.74l17,14.31" transform="translate(-1052 -634.49)"/><path class="cls-3" d="M1059,836.66c3.82-.11,7.19,2.33,10.22,4.66l6.12,4.68" transform="translate(-1052 -634.49)"/><path class="cls-3" d="M1061.16,812.13q7.13,5.5,13.76,11.62" transform="translate(-1052 -634.49)"/><path class="cls-3" d="M1059.48,795.23c2.24-1.27,5,.15,7.16,1.54l7.32,4.7" transform="translate(-1052 -634.49)"/><path class="cls-3" d="M1060.43,847.47a189.94,189.94,0,0,1,16.53,9.59" transform="translate(-1052 -634.49)"/><path class="cls-3" d="M1059.07,858.1a33.75,33.75,0,0,1,5.77,2.95l11.38,6.78" transform="translate(-1052 -634.49)"/><path class="cls-3" d="M1061.12,871.53l6.59,7.56c2.21,2.54,4.91,5.3,8.27,5.15" transform="translate(-1052 -634.49)"/><path class="cls-3" d="M1061.69,888.38c5.33,1.93,9.11,6.8,14.28,9.12" transform="translate(-1052 -634.49)"/><path class="cls-3" d="M1061.11,899.13l13.8,7.37" transform="translate(-1052 -634.49)"/><path class="cls-3" d="M1060,912.18a101.41,101.41,0,0,1,16.59,6.24" transform="translate(-1052 -634.49)"/><path class="cls-3" d="M1062.35,923.05c2-.6,4,.62,5.66,1.78l10.2,7" transform="translate(-1052 -634.49)"/><path class="cls-3" d="M1062.67,935a17.13,17.13,0,0,1,11.22,4.15" transform="translate(-1052 -634.49)"/><path class="cls-3" d="M1060.63,947.58c6-.34,10.51,5.87,16.46,6.69" transform="translate(-1052 -634.49)"/><path class="cls-3" d="M1062,958.44a50.94,50.94,0,0,1,13.79,5" transform="translate(-1052 -634.49)"/><path class="cls-3" d="M1060.79,966.85a70.22,70.22,0,0,0,13.11,8.36" transform="translate(-1052 -634.49)"/><path class="cls-3" d="M1061.81,669.06q9.38,4.94,18.51,10.29" transform="translate(-1052 -634.49)"/><path class="cls-3" d="M1113.39,656.94l9,9.35" transform="translate(-1052 -634.49)"/><path class="cls-3" d="M1133.75,653.93a60.9,60.9,0,0,1,7.52,9.77" transform="translate(-1052 -634.49)"/><path class="cls-3" d="M1151.6,652.06a107.35,107.35,0,0,0,9,9.33" transform="translate(-1052 -634.49)"/><path class="cls-3" d="M1171.77,650.22a39.35,39.35,0,0,1,6.57,9.11" transform="translate(-1052 -634.49)"/><path class="cls-3" d="M1191.57,650.07a92.17,92.17,0,0,0,8.17,10.2" transform="translate(-1052 -634.49)"/><path class="cls-3" d="M1212.32,648.53c2.47-.08,4,2.49,5.47,4.5a19.74,19.74,0,0,0,4.8,4.72" transform="translate(-1052 -634.49)"/></svg>