<svg xmlns="http://www.w3.org/2000/svg" viewBox="0 0 447.55 562.35" style=""><defs><style>.cls-1{fill:#5dceb3;}.cls-1,.cls-2,.cls-3,.cls-4,.cls-5{stroke:#000;stroke-miterlimit:10;}.cls-1,.cls-2{stroke-width:16px;}.cls-3,.cls-5{fill:#fff;}.cls-3{stroke-width:10px;}.cls-4{fill:#050505;}</style></defs><title>mahMago</title><g id="Layer_2" data-name="Layer 2"><path class="cls-1 ZhAgATks_0" d="M370.57,186.31L310.9,224.54L223.24,86.53L136.53,224.54L74.05,184.44L9.71,298.2L223.24,549.97L437.71,296.34L370.57,186.31Z"></path><path class="cls-2 ZhAgATks_1" d="M344.96,145A35,35 0,1,1 414.96,145A35,35 0,1,1 344.96,145"></path><path class="cls-2 ZhAgATks_2" d="M188.96,43A35,35 0,1,1 258.96000000000004,43A35,35 0,1,1 188.96,43"></path><path class="cls-2 ZhAgATks_3" d="M30.959999999999994,143A35,35 0,1,1 100.96,143A35,35 0,1,1 30.959999999999994,143"></path><path class="cls-3 ZhAgATks_4" width="131.5" height="101.81" d="M 169.71,268.25 L 277.21000000000004,268.25 A 12,12,0,0,1,289.21000000000004,280.25 L 289.21000000000004,358.06 A 12,12,0,0,1,277.21000000000004,370.06 L 169.71,370.06 A 12,12,0,0,1,157.71,358.06 L 157.71,280.25 A 12,12,0,0,1,169.71,268.25"></path><path class="cls-4 ZhAgATks_5" width="92.5" height="92.5" d="M 181.71,268.25 L 250.21000000000004,268.25 A 12,12,0,0,1,262.21000000000004,280.25 L 262.21000000000004,348.75 A 12,12,0,0,1,250.21000000000004,360.75 L 181.71,360.75 A 12,12,0,0,1,169.71,348.75 L 169.71,280.25 A 12,12,0,0,1,181.71,268.25"></path><path class="cls-5 ZhAgATks_6" width="39.83" height="39.83" d="M 218.97,296.51 L 234.8,296.51 A 12,12,0,0,1,246.8,308.51 L 246.8,324.34 A 12,12,0,0,1,234.8,336.34 L 218.97,336.34 A 12,12,0,0,1,206.97,324.34 L 206.97,308.51 A 12,12,0,0,1,218.97,296.51"></path></g><style data-made-with="vivus-instant">.ZhAgATks_0{stroke-dasharray:1394 1396;stroke-dashoffset:1395;animation:ZhAgATks_draw 3000ms linear 0ms forwards;}.ZhAgATks_1{stroke-dasharray:220 222;stroke-dashoffset:221;animation:ZhAgATks_draw 3000ms linear 0ms forwards;}.ZhAgATks_2{stroke-dasharray:221 223;stroke-dashoffset:222;animation:ZhAgATks_draw 3000ms linear 0ms forwards;}.ZhAgATks_3{stroke-dasharray:220 222;stroke-dashoffset:221;animation:ZhAgATks_draw 3000ms linear 0ms forwards;}.ZhAgATks_4{stroke-dasharray:447 449;stroke-dashoffset:448;animation:ZhAgATks_draw 3000ms linear 0ms forwards;}.ZhAgATks_5{stroke-dasharray:350 352;stroke-dashoffset:351;animation:ZhAgATks_draw 3000ms linear 0ms forwards;}.ZhAgATks_6{stroke-dasharray:139 141;stroke-dashoffset:140;animation:ZhAgATks_draw 3000ms linear 0ms forwards;}@keyframes ZhAgATks_draw{100%{stroke-dashoffset:0;}}@keyframes ZhAgATks_fade{0%{stroke-opacity:1;}94.44444444444444%{stroke-opacity:1;}100%{stroke-opacity:0;}}</style></svg>